<svg xmlns="http://www.w3.org/2000/svg" viewBox="0 0 455.29 449.64"><title>Recurso 1</title><g id="Capa_2" data-name="Capa 2"><g id="Background_Complete" data-name="Background Complete"><path d="M111.08,34.67A22.12,22.12,0,1,1,89,12.62,22.09,22.09,0,0,1,111.08,34.67Z" style="fill:#f5f5f5"/><path d="M105.82,34.68A16.86,16.86,0,1,1,89,17.87,16.84,16.84,0,0,1,105.82,34.68Z" style="fill:#ebebeb"/><path d="M105.82,34.15a9.2,9.2,0,0,1-.45-2,17.83,17.83,0,0,0-2-5.16,16.68,16.68,0,0,0-5.55-5.84A13.92,13.92,0,0,0,95.82,20a15.62,15.62,0,0,0-2.29-.85,16.75,16.75,0,0,0-2.48-.5,17.09,17.09,0,0,0-2.59-.13,18.32,18.32,0,0,0-2.59.29,16.18,16.18,0,0,0-4.67,1.65,16.58,16.58,0,0,0-2,1.25,16.83,16.83,0,0,0-5.16,6.18,18,18,0,0,0-1.62,5.28,10.43,10.43,0,0,1-.31,2,4.92,4.92,0,0,1-.19-2.09,15.79,15.79,0,0,1,1.28-5.62,17.46,17.46,0,0,1,2-3.47,17.19,17.19,0,0,1,3.27-3.28,16.2,16.2,0,0,1,2.1-1.38A16.76,16.76,0,0,1,83,18.29a16.21,16.21,0,0,1,2.63-.74,18.19,18.19,0,0,1,2.78-.31,18.7,18.7,0,0,1,2.81.13,18,18,0,0,1,2.66.57,17.63,17.63,0,0,1,2.46.94A17,17,0,0,1,102,23.19a16.68,16.68,0,0,1,2.24,3.34A15.84,15.84,0,0,1,105.87,32,5.2,5.2,0,0,1,105.82,34.15Z" style="fill:#e0e0e0"/><path d="M90.88,44.74l0,2.93-2.62,0,0-2.86a12.4,12.4,0,0,1-6.56-2l1.4-3.21a10.62,10.62,0,0,0,5.11,1.78L88.14,37c-2.92-.66-6.18-1.58-6.24-5.33,0-2.78,1.94-5.19,6.08-5.73l0-2.91,2.63,0,0,2.85a11.91,11.91,0,0,1,5.34,1.52l-1.26,3.25a10.81,10.81,0,0,0-4-1.31l.07,4.46c2.92.63,6.13,1.56,6.18,5.25C96.94,41.79,95,44.18,90.88,44.74ZM88.09,33.19,88,29.47c-1.38.33-1.92,1.1-1.91,2S86.93,32.84,88.09,33.19Zm4.6,6.25c0-.92-.78-1.4-1.92-1.78l.06,3.62C92.13,41,92.7,40.28,92.69,39.44Z" style="fill:#e0e0e0"/><path d="M54,142.74a13.63,13.63,0,1,1-15.44-11.5A13.61,13.61,0,0,1,54,142.74Z" style="fill:#f5f5f5"/><path d="M50.75,143.21A10.38,10.38,0,1,1,39,134.45,10.37,10.37,0,0,1,50.75,143.21Z" style="fill:#ebebeb"/><path d="M50.7,142.89a6.67,6.67,0,0,1-.45-1.2,11,11,0,0,0-1.64-3A10.62,10.62,0,0,0,47,137a10.23,10.23,0,0,0-2.27-1.4,8.45,8.45,0,0,0-1.36-.5,9.82,9.82,0,0,0-1.47-.32,11.23,11.23,0,0,0-1.55-.09,12.57,12.57,0,0,0-1.6.16,10.1,10.1,0,0,0-3,1,10.9,10.9,0,0,0-1.27.8,10.07,10.07,0,0,0-1.1.94,10.46,10.46,0,0,0-2.6,4.23,11.17,11.17,0,0,0-.52,3.36,6.45,6.45,0,0,1,0,1.28,3.08,3.08,0,0,1-.3-1.27,9.48,9.48,0,0,1,.29-3.53A10.45,10.45,0,0,1,34,136.1a9.86,9.86,0,0,1,1.36-.87,9.6,9.6,0,0,1,1.53-.68,10.36,10.36,0,0,1,1.68-.44,11.13,11.13,0,0,1,1.72-.17,11.43,11.43,0,0,1,1.67.11,11,11,0,0,1,1.58.36A10.9,10.9,0,0,1,45,135a10.57,10.57,0,0,1,2.38,1.57,10,10,0,0,1,1.66,1.84,9.5,9.5,0,0,1,1.49,3.22A2.84,2.84,0,0,1,50.7,142.89Z" style="fill:#e0e0e0"/><path d="M42.53,150.66l.28,1.79-1.59.25L40.94,151a7.75,7.75,0,0,1-4.17-.64l.56-2.09a6.59,6.59,0,0,0,3.28.64l-.43-2.67c-1.84-.14-3.91-.42-4.28-2.7-.27-1.69.73-3.34,3.2-4l-.28-1.77,1.59-.26.28,1.74a7.39,7.39,0,0,1,3.4.46l-.49,2.09A6.66,6.66,0,0,0,41,141.3l.43,2.71c1.84.13,3.88.41,4.24,2.66C46,148.33,45,150,42.53,150.66Zm-2.73-6.79-.36-2.27c-.81.33-1.07.85-1,1.37S39.07,143.76,39.8,143.87Zm3.36,3.4c-.09-.56-.6-.78-1.32-.91l.35,2.2C43,148.25,43.25,147.78,43.16,147.27Z" style="fill:#e0e0e0"/><rect x="406.02" y="271.6" width="24.54" height="36.41" transform="translate(54.05 645.16) rotate(-79.01)" style="fill:#ebebeb"/><path d="M438.55,281.54a2.77,2.77,0,0,1-.39.25l-1.17.68-4.31,2.45-14.33,8-.12.07-.09-.11-.21-.25c-4.19-4.94-8-9.41-10.74-12.69L404,276,403.1,275a4.33,4.33,0,0,1-.29-.38,2.09,2.09,0,0,1,.34.34l.91,1,3.31,3.8c2.78,3.26,6.6,7.71,10.81,12.63l.21.25-.2,0,14.38-7.89,4.36-2.35,1.2-.62A2.81,2.81,0,0,1,438.55,281.54Z" style="fill:#e0e0e0"/><path d="M398.14,298.68c-.06-.07,3.27-2.85,7.43-6.2s7.59-6,7.64-6-3.27,2.85-7.43,6.21S398.19,298.76,398.14,298.68Z" style="fill:#e0e0e0"/><path d="M425.15,288.53c.08,0,2.1,3.75,4.51,8.47s4.3,8.58,4.21,8.63-2.1-3.76-4.5-8.48S425.07,288.57,425.15,288.53Z" style="fill:#e0e0e0"/><path d="M326.56,26.85a7,7,0,0,1-.18-1.63,15.25,15.25,0,0,0-.22-1.95,19.06,19.06,0,0,0-.52-2.64,24.64,24.64,0,0,0-2.73-6.76A25.14,25.14,0,0,0,293,2.56a23.41,23.41,0,0,0-6.39,3.26,27.64,27.64,0,0,0-2.89,2.34A28.45,28.45,0,0,0,281.19,11a24.87,24.87,0,0,0-.71,29.49,27.08,27.08,0,0,0,2.37,2.95,28,28,0,0,0,2.76,2.48,23.74,23.74,0,0,0,6.23,3.57A25.22,25.22,0,0,0,305,51a25,25,0,0,0,10.7-4.37,25.36,25.36,0,0,0,6.64-6.93,24.74,24.74,0,0,0,3-6.63,17.43,17.43,0,0,0,.64-2.6,12.8,12.8,0,0,0,.32-2,7,7,0,0,1,.26-1.62,6.72,6.72,0,0,1,0,1.65,11.22,11.22,0,0,1-.18,2,18.26,18.26,0,0,1-.53,2.68,23.86,23.86,0,0,1-2.92,6.9,26,26,0,0,1-17.81,12,26.33,26.33,0,0,1-13.77-1.41A24.31,24.31,0,0,1,284.79,47a28.78,28.78,0,0,1-2.93-2.61,29.13,29.13,0,0,1-2.52-3.1,26.14,26.14,0,0,1,.76-31.13,30.24,30.24,0,0,1,2.66-3,29.21,29.21,0,0,1,3.05-2.45,25,25,0,0,1,6.76-3.4A26.24,26.24,0,0,1,306.39.59a25.91,25.91,0,0,1,10.85,5.25,25.65,25.65,0,0,1,6.36,7.64,24.11,24.11,0,0,1,2.58,7,17,17,0,0,1,.39,2.71,11,11,0,0,1,.09,2A7.17,7.17,0,0,1,326.56,26.85Z" style="fill:#ebebeb"/><path d="M321.43,10.83c.06.08-.4.48-1.3,1.15l-1.65,1.18c-.32.23-.67.48-1.05.72l-1.26.66a28.89,28.89,0,0,1-15.08,3.79l-2.28-.1-2.19-.34c-.36-.06-.71-.11-1.06-.18l-1-.27c-.68-.19-1.34-.35-2-.55a32.19,32.19,0,0,1-6.39-3c-3.44-2.07-5.11-4-5-4.08s2,1.42,5.47,3.22A38.56,38.56,0,0,0,293,15.65c.62.18,1.26.32,1.9.48l1,.25,1,.15,2.09.31,2.18.08a31.12,31.12,0,0,0,14.59-3.27l1.28-.56c.39-.2.74-.42,1.08-.61l1.75-1C320.81,11,321.38,10.75,321.43,10.83Z" style="fill:#ebebeb"/><path d="M280.41,42c-.06-.08.4-.48,1.3-1.15l1.65-1.18c.32-.22.67-.48,1.05-.72l1.26-.66a29,29,0,0,1,15.08-3.79l2.28.1,2.19.34c.36.06.71.11,1.06.18l1,.27c.68.19,1.34.35,2,.55a33.36,33.36,0,0,1,6.39,2.95c3.44,2.08,5.11,4,5,4.09s-2-1.43-5.47-3.22a38.52,38.52,0,0,0-6.29-2.58c-.62-.18-1.26-.31-1.91-.48l-1-.24-1-.16-2.09-.3-2.18-.09a31,31,0,0,0-14.59,3.28l-1.28.55c-.39.2-.74.42-1.08.61l-1.75,1C281,41.84,280.46,42.09,280.41,42Z" style="fill:#ebebeb"/><path d="M326.55,27.45c0,.39-11.5.42-25.66.08s-25.63-.94-25.62-1.33,11.5-.42,25.66-.08S326.56,27.06,326.55,27.45Z" style="fill:#ebebeb"/><path d="M299.73,51.84c-.39,0-.43-11.49-.08-25.64S300.58.58,301,.59s.43,11.49.08,25.64S300.12,51.85,299.73,51.84Z" style="fill:#ebebeb"/><path d="M299.73,51.81c-.1.14-2.92-1.77-6.18-6.11A34.11,34.11,0,0,1,289,37.38a30.9,30.9,0,0,1-2-11.49,29.22,29.22,0,0,1,2.59-11.37,35.56,35.56,0,0,1,5-8.07c3.45-4.17,6.3-6,6.39-5.87s-2.44,2.26-5.61,6.49a38.07,38.07,0,0,0-4.6,8,29.57,29.57,0,0,0-2.37,10.89,31.46,31.46,0,0,0,1.79,11,37.37,37.37,0,0,0,4.18,8.19C297.33,49.5,299.87,51.65,299.73,51.81Z" style="fill:#ebebeb"/><path d="M301.55.59c.09-.15,2.92,1.77,6.18,6.11A34.45,34.45,0,0,1,312.31,15a31.1,31.1,0,0,1,2,11.49,29.58,29.58,0,0,1-2.59,11.37,35.92,35.92,0,0,1-5,8.07c-3.45,4.17-6.3,6-6.4,5.87s2.44-2.26,5.61-6.49a38.35,38.35,0,0,0,4.61-8,29.56,29.56,0,0,0,2.37-10.88,31.23,31.23,0,0,0-1.8-11,37.37,37.37,0,0,0-4.17-8.19C304,2.9,301.4.75,301.55.59Z" style="fill:#ebebeb"/><path d="M52.62,314.76l1.27-2.82a10.13,10.13,0,0,0-18.58-8.1L34,306.71a5.66,5.66,0,0,0-6.66,3.21l-7.27,16.71A5.67,5.67,0,0,0,23,334.09l17.34,7.54a5.67,5.67,0,0,0,7.46-2.94L55.09,322A5.67,5.67,0,0,0,52.62,314.76ZM38.13,329.53l-4.53-2,2.13-3a3,3,0,1,1,5.24-.51,3,3,0,0,1-2.22,1.76C38.52,327.25,38.13,329.53,38.13,329.53Zm12.49-15.67L36,307.52l1.27-2.79a7.95,7.95,0,0,1,14.58,6.33Z" style="fill:#ebebeb"/><path d="M407.33,132.45a7.13,7.13,0,1,1-7.14-7.12A7.13,7.13,0,0,1,407.33,132.45Z" style="fill:#ebebeb"/><circle cx="420.16" cy="118.18" r="7.13" transform="translate(124.93 439.64) rotate(-63.15)" style="fill:#ebebeb"/><ellipse cx="420.2" cy="148.39" rx="7.13" ry="7.76" transform="translate(-0.21 0.58) rotate(-0.08)" style="fill:#ebebeb"/><path d="M418.09,147.48c-.3.45-5-2.25-10.58-6s-9.8-7.18-9.49-7.63,5,2.24,10.59,6S418.4,147,418.09,147.48Z" style="fill:#ebebeb"/><path d="M418.66,117.68c.34.43-3.33,3.82-8.17,7.57s-9.05,6.46-9.38,6,3.33-3.82,8.18-7.58S418.33,117.25,418.66,117.68Z" style="fill:#ebebeb"/></g><g id="Background_Simple" data-name="Background Simple"><path d="M405.62,86.94l-1.21.12a27.41,27.41,0,0,0-22.91,16.73,25.21,25.21,0,0,0-1.2,3.72,28.8,28.8,0,0,0,7.15,26.22c3.87,4,9.07,7.14,11.21,12.28,2.78,6.69-.62,14.13-3.94,20.52S388,180.36,390.82,187c1.77,4.18,5.71,7.14,9.92,8.9,11.15,4.66,24.51,1.78,34-5.53s15.36-18.43,18.32-30c4.14-16.2,2.73-34.19-5.82-48.71S422.5,86.76,405.62,86.94Z" style="fill:#f5f5f5"/><path d="M49.57,103.47l1,.26a23.29,23.29,0,0,1,17.09,17,23.85,23.85,0,0,1,.53,3.28,24.45,24.45,0,0,1-9.38,21.1c-3.77,2.88-8.53,4.83-11,8.87-3.2,5.26-1.3,11.94.67,17.73s3.85,12.48.63,17.73c-2,3.28-5.71,5.26-9.47,6.2-9.95,2.48-20.81-1.67-27.82-9S1.29,169.16.3,159.07c-1.4-14.13,2.09-29,11.15-40.15S35.42,101.15,49.57,103.47Z" style="fill:#f5f5f5"/><circle cx="308.73" cy="24.67" r="18.7" style="fill:#f5f5f5"/><circle cx="38.63" cy="321.16" r="18.7" transform="translate(-283.11 287.81) rotate(-77.22)" style="fill:#f5f5f5"/></g><g id="Table"><path d="M422.25,449.34c0,.15-89.67.26-200.26.26s-200.29-.11-200.29-.26,89.65-.26,200.29-.26S422.25,449.2,422.25,449.34Z" style="fill:#263238"/></g><g id="Graphic"><path d="M367.37,68.4c.09.11-12.36,10.39-27.81,23S311.5,114,311.41,113.92s12.36-10.39,27.82-23S367.28,68.29,367.37,68.4Z" style="fill:#263238"/><path d="M387.89,236.29c-.05.13-16.17-5.64-36-12.9S316,210.15,316.07,210s16.16,5.64,36,12.9S387.94,236.15,387.89,236.29Z" style="fill:#263238"/><path d="M54.14,97.79c.07-.12,17.43,9,38.78,20.47s38.61,20.8,38.54,20.93-17.43-9-38.79-20.47S54.07,97.92,54.14,97.79Z" style="fill:#263238"/><path d="M60.4,246.25c0-.14,14.21-5.62,31.86-12.24s32-11.89,32.05-11.75-14.21,5.61-31.87,12.24S60.45,246.38,60.4,246.25Z" style="fill:#263238"/><path d="M229.63,276.29a86.82,86.82,0,1,1,86.82-86.81A86.9,86.9,0,0,1,229.63,276.29Zm0-172.63a85.82,85.82,0,1,0,85.82,85.82A85.92,85.92,0,0,0,229.63,103.66Z" style="fill:#ff725e"/><path d="M339.39,188.24s0-.61-.07-1.78c0-.59,0-1.32-.07-2.19s-.05-1.89-.16-3-.19-2.42-.3-3.84-.37-2.94-.58-4.6c-.47-3.32-1.2-7.13-2.23-11.36a109.61,109.61,0,0,0-4.5-13.78,105.94,105.94,0,0,0-7.64-15.44A110.86,110.86,0,0,0,296,101.07a109.36,109.36,0,0,0-46.13-20.46A111.36,111.36,0,0,0,207,81.1a117.55,117.55,0,0,0-14.64,4.18,109.8,109.8,0,0,0-50.91,38.18,108,108,0,0,0-8.93,14.37c-.63,1.27-1.34,2.51-1.91,3.83l-1.77,3.91c-1,2.67-2.15,5.33-3,8.09a107.19,107.19,0,0,0-4.17,16.94,109.33,109.33,0,0,0,0,35.25,106.37,106.37,0,0,0,4.17,16.94c.87,2.76,2,5.43,3,8.09l1.77,3.92c.56,1.31,1.27,2.55,1.9,3.83A107.36,107.36,0,0,0,141.39,253a109.82,109.82,0,0,0,50.92,38.2A117.49,117.49,0,0,0,207,295.37a111.6,111.6,0,0,0,42.93.5A109.42,109.42,0,0,0,296,275.4a111.07,111.07,0,0,0,27.85-31.15,105.83,105.83,0,0,0,7.63-15.44A109.61,109.61,0,0,0,336,215c1-4.23,1.76-8,2.23-11.36.21-1.66.43-3.2.58-4.6s.21-2.69.3-3.84.14-2.15.16-3,.05-1.6.07-2.2c0-1.17.07-1.77.07-1.77s0,.6,0,1.78c0,.59,0,1.32,0,2.19s0,1.88-.13,3-.18,2.43-.28,3.84-.36,2.95-.56,4.61a112.34,112.34,0,0,1-2.19,11.39,107.84,107.84,0,0,1-4.46,13.82,106.63,106.63,0,0,1-7.61,15.5,111.24,111.24,0,0,1-27.87,31.29A109.8,109.8,0,0,1,250,296.29a109.45,109.45,0,0,1-28.36,1.59,111,111,0,0,1-14.75-2.05,119.05,119.05,0,0,1-14.71-4.18A110.36,110.36,0,0,1,141,253.31a108,108,0,0,1-9-14.44c-.64-1.29-1.35-2.53-1.92-3.85l-1.78-3.93c-1.06-2.68-2.16-5.36-3-8.14a107.93,107.93,0,0,1-4.19-17,119.84,119.84,0,0,1-1.43-17.71,118.27,118.27,0,0,1,1.44-17.7,106.85,106.85,0,0,1,4.19-17c.88-2.77,2-5.45,3-8.13.59-1.31,1.18-2.62,1.78-3.93s1.28-2.57,1.91-3.85a107.31,107.31,0,0,1,9-14.43,110.21,110.21,0,0,1,51.15-38.34,118.56,118.56,0,0,1,14.71-4.18,111.09,111.09,0,0,1,14.74-2A109.42,109.42,0,0,1,250,80.18a109.48,109.48,0,0,1,46.27,20.6,110.93,110.93,0,0,1,27.87,31.29,105.23,105.23,0,0,1,7.62,15.5,107.84,107.84,0,0,1,4.46,13.82,112.34,112.34,0,0,1,2.19,11.39c.2,1.66.42,3.2.56,4.61s.19,2.7.28,3.84.12,2.16.13,3,0,1.61,0,2.2C339.39,187.63,339.39,188.24,339.39,188.24Z" style="fill:#263238"/><path d="M230.94,313v-1A126.33,126.33,0,1,0,104.61,185.71h-1A127.34,127.34,0,1,1,230.94,313Z" style="fill:#ff725e"/><path d="M229.65,300.48v-5a107.24,107.24,0,0,0,0-214.48V76a112.24,112.24,0,0,1,0,224.48Z" style="fill:#ff725e"/><path d="M360.28,185.71h-5a124.34,124.34,0,0,0-248.67,0h-5A129.48,129.48,0,0,1,230.94,56.38C302.26,56.38,360.28,114.4,360.28,185.71Z" style="fill:#ff725e"/><path d="M231.91,332.25c-79.45,0-144.1-64.64-144.1-144.09s64.65-144.1,144.1-144.1v5c-76.7,0-139.1,62.4-139.1,139.1s62.4,139.09,139.1,139.09S371,264.85,371,188.16h5C376,267.61,311.37,332.25,231.91,332.25Z" style="fill:#ff725e"/><path d="M229.63,349.17l-2.5,0v-1l2.49,0Z" style="fill:#ff725e"/><path d="M217,348.67c-1.67-.13-3.37-.29-5.05-.47l.11-1c1.67.19,3.36.35,5,.48Zm-15.08-1.9c-1.67-.29-3.34-.61-5-.95l.2-1c1.62.34,3.29.66,4.95,1Zm-14.82-3.33c-1.62-.45-3.25-.93-4.86-1.43l.29-.95c1.6.5,3.23,1,4.84,1.41Zm-14.45-4.74c-1.58-.6-3.17-1.24-4.72-1.89l.39-.92c1.54.64,3.12,1.28,4.68,1.87Zm-13.94-6.11c-1.51-.75-3-1.53-4.51-2.33l.47-.88c1.47.79,3,1.57,4.48,2.31Zm-13.29-7.41c-1.44-.89-2.87-1.82-4.27-2.75l.56-.83c1.39.93,2.81,1.84,4.24,2.73Zm-12.52-8.63c-1.33-1-2.67-2.08-4-3.14l.63-.78c1.3,1.06,2.63,2.11,4,3.12Zm-11.63-9.78c-1.25-1.15-2.48-2.33-3.67-3.5l.7-.71c1.18,1.16,2.41,2.33,3.64,3.48Zm-10.66-10.83c-1.13-1.26-2.24-2.55-3.32-3.83l.77-.64c1.07,1.27,2.17,2.55,3.29,3.8ZM101,284.15c-1-1.36-2-2.75-2.93-4.12l.82-.57c.94,1.37,1.92,2.74,2.92,4.1ZM92.6,271.52c-.86-1.44-1.71-2.91-2.53-4.38l.87-.49c.82,1.47,1.66,2.93,2.52,4.35Zm-7.18-13.37c-.72-1.53-1.43-3.07-2.1-4.6l.92-.4c.66,1.52,1.36,3,2.08,4.57Zm-5.87-14c-.57-1.58-1.13-3.19-1.66-4.79l1-.31c.53,1.59,1.08,3.19,1.65,4.76ZM75,229.65c-.42-1.63-.82-3.29-1.19-4.92l1-.22c.37,1.62.77,3.27,1.19,4.89Zm-3.1-14.87c-.27-1.66-.51-3.34-.72-5l1-.12c.21,1.66.45,3.34.71,5Zm-1.68-15.1c-.1-1.68-.18-3.38-.23-5.06l1,0c.06,1.68.14,3.37.24,5ZM71,184.51l-1,0c0-1.68.13-3.39.24-5.06l1,.06C71.15,181.15,71.07,182.84,71,184.51Zm1.18-15-1-.13c.21-1.66.45-3.35.72-5l1,.15C72.64,166.12,72.4,167.8,72.2,169.46Zm2.59-14.87-1-.22c.37-1.64.77-3.3,1.19-4.93l1,.25C75.56,151.31,75.16,153,74.79,154.59Zm4-14.56-1-.31c.52-1.6,1.08-3.21,1.66-4.81l.94.35C79.88,136.84,79.32,138.44,78.8,140Zm5.4-14.13-.92-.41c.67-1.53,1.38-3.09,2.11-4.61l.9.43C85.57,122.82,84.86,124.37,84.2,125.9Zm6.72-13.55-.88-.49c.82-1.47,1.68-3,2.54-4.39l.86.52C92.58,109.42,91.73,110.89,90.92,112.35Zm8-12.84-.82-.57c1-1.38,1.94-2.77,2.94-4.12l.81.59C100.82,96.76,99.84,98.14,98.89,99.51Zm9.16-12-.77-.64c1.08-1.29,2.2-2.57,3.32-3.83l.75.67C110.23,84.93,109.12,86.21,108.05,87.49ZM118.3,76.4l-.7-.71c1.19-1.18,2.42-2.35,3.66-3.5l.68.73C120.71,74.06,119.48,75.23,118.3,76.4Zm11.24-10.07-.63-.78c1.31-1.06,2.65-2.11,4-3.13l.61.79C132.17,64.22,130.84,65.27,129.54,66.33Zm12.15-9-.56-.83c1.39-.93,2.82-1.85,4.26-2.75l.52.85C144.49,55.53,143.07,56.45,141.69,57.37Zm12.93-7.77-.47-.88c1.48-.8,3-1.58,4.49-2.32l.44.89C157.6,48,156.1,48.81,154.62,49.6Zm13.61-6.49-.39-.93c1.55-.65,3.13-1.28,4.69-1.88l.35.94C171.34,41.83,169.77,42.46,168.23,43.11Zm14.17-5.17-.3-1c1.61-.5,3.24-1,4.86-1.43l.27,1C185.62,37,184,37.44,182.4,37.94ZM197,34.14l-.2-1c1.65-.35,3.32-.67,5-1l.17,1C200.31,33.48,198.65,33.8,197,34.14Zm14.91-2.37-.11-1c1.67-.18,3.37-.34,5-.48l.08,1C215.27,31.42,213.58,31.58,211.92,31.77Z" style="fill:#ff725e"/><path d="M227.14,30.81v-1c.83,0,1.67,0,2.5,0v1C228.8,30.79,228,30.79,227.14,30.81Z" style="fill:#ff725e"/></g><g id="Email"><rect x="385.25" y="221.96" width="54.46" height="36.71" transform="translate(-4.93 8.67) rotate(-1.2)" style="fill:#ff725e"/><path d="M439.5,221.83a3.6,3.6,0,0,1-.5.5l-1.49,1.36L432,228.63c-4.75,4.16-11.25,9.87-18.44,16.19l-.15.13-.16-.12-.39-.3-19.71-15.17-5.94-4.64-1.6-1.28a5.37,5.37,0,0,1-.54-.47,4,4,0,0,1,.6.39l1.66,1.21,6,4.52,19.8,15q.19.17.39.3h-.32l18.54-16.07,5.64-4.82,1.55-1.29A3.84,3.84,0,0,1,439.5,221.83Z" style="fill:#263238"/><path d="M385.82,259.67c-.11-.09,3.88-5.2,8.91-11.43s9.19-11.2,9.29-11.11-3.88,5.2-8.91,11.42S385.93,259.75,385.82,259.67Z" style="fill:#263238"/><path d="M422.11,236.29c.11-.09,4.26,4.82,9.27,11s9,11.19,8.89,11.28-4.26-4.82-9.27-11S422,236.37,422.11,236.29Z" style="fill:#263238"/></g><g id="Signal"><path d="M389.27,71.86a4.52,4.52,0,1,1-4.49-4.53A4.52,4.52,0,0,1,389.27,71.86Z" style="fill:#455a64"/><path d="M375.73,66.06a12.52,12.52,0,0,1,18.1-.24c2.3,2.33,5.91-1.25,3.61-3.57a17.64,17.64,0,0,0-25.28.21c-2.25,2.36,1.32,6,3.57,3.6Z" style="fill:#455a64"/><path d="M360.41,45.05c6.86-5.93,15-9.66,24.22-9.69a36,36,0,0,1,24.72,9.46c2.38,2.24,6-1.33,3.61-3.57a41.22,41.22,0,0,0-28.3-11c-10.56,0-19.94,4.34-27.83,11.16-2.47,2.14,1.11,5.73,3.58,3.6Z" style="fill:#455a64"/><path d="M366.45,56.7a24.82,24.82,0,0,1,36.49-.52c2.29,2.34,5.89-1.23,3.61-3.58a29.91,29.91,0,0,0-43.67.49c-2.21,2.39,1.35,6,3.57,3.61Z" style="fill:#455a64"/></g><g id="GPS"><path d="M49.88,239.39A21,21,0,1,0,10.76,250h0l.06.08c.81,1.36,1.81,2.33,2.83,3.75L25.84,270a3.8,3.8,0,0,0,6.06,0l12-15.89a45.13,45.13,0,0,0,3-4L47,250h0A20.91,20.91,0,0,0,49.88,239.39Zm-21,9.14a9.25,9.25,0,1,1,9.25-9.24A9.25,9.25,0,0,1,28.87,248.53Z" style="fill:#455a64"/></g><g id="Money"><path d="M65.63,81.54A27.72,27.72,0,1,1,36.15,55.78,27.7,27.7,0,0,1,65.63,81.54Z" style="fill:#ff725e"/><g style="opacity:0.30000000000000004"><path d="M59,81.31a12,12,0,0,1-.73-2.5,22,22,0,0,0-2.86-6.29A20.79,20.79,0,0,0,48,65.67a19,19,0,0,0-2.66-1.23,19.86,19.86,0,0,0-2.93-.87,21.57,21.57,0,0,0-3.14-.43A22.26,22.26,0,0,0,36,63.2a22.68,22.68,0,0,0-3.21.57,21.07,21.07,0,0,0-3,1,20.65,20.65,0,0,0-5.08,3.14,21,21,0,0,0-6,8.16,22.79,22.79,0,0,0-1.58,6.73A13.63,13.63,0,0,1,17,85.42a6.09,6.09,0,0,1-.41-2.6,19.58,19.58,0,0,1,1.14-7.12,22,22,0,0,1,2.24-4.52,21.7,21.7,0,0,1,3.82-4.37,20.08,20.08,0,0,1,2.51-1.89,21.17,21.17,0,0,1,2.9-1.57,21.51,21.51,0,0,1,3.22-1.13,24.69,24.69,0,0,1,3.47-.63,22.91,22.91,0,0,1,3.51-.05,19.67,19.67,0,0,1,3.38.49,19.89,19.89,0,0,1,3.15,1,21.29,21.29,0,0,1,2.84,1.37,21.17,21.17,0,0,1,7.66,7.54,19.78,19.78,0,0,1,2.5,6.77A6.22,6.22,0,0,1,59,81.31Z"/></g><g style="opacity:0.30000000000000004"><path d="M41.19,95.78l.29,3.67-3.27.26-.29-3.57a15.52,15.52,0,0,1-8.36-2L31,90a13.26,13.26,0,0,0,6.54,1.81l-.45-5.47c-3.7-.58-7.86-1.47-8.24-6.15-.28-3.47,2-6.65,7.13-7.66l-.29-3.64L39,68.67l.29,3.57a14.85,14.85,0,0,1,6.8,1.46l-1.31,4.16a13.4,13.4,0,0,0-5.14-1.3l.45,5.57c3.7.55,7.79,1.44,8.16,6.06C48.53,91.6,46.28,94.74,41.19,95.78ZM36.75,81.57l-.38-4.65c-1.7.54-2.31,1.54-2.23,2.62S35.27,81.23,36.75,81.57ZM43,89c-.09-1.15-1.09-1.69-2.54-2.07l.37,4.52C42.45,91,43.1,90.06,43,89Z"/></g><path d="M16.9,84.76c.05,0,.13.93.44,2.56a21.57,21.57,0,0,0,5.47,10.4,22.38,22.38,0,0,0,4.34,3.46,21.77,21.77,0,0,0,5.65,2.35,22.8,22.8,0,0,0,6.54.6,22.45,22.45,0,0,0,6.41-1.46A21.17,21.17,0,0,0,51,99.59a22.58,22.58,0,0,0,3.86-4,21.85,21.85,0,0,0,2.38-4.22,21.16,21.16,0,0,0,1.66-6.81c.1-1.66.05-2.6.11-2.6a3.92,3.92,0,0,1,.06.67,18.52,18.52,0,0,1,0,1.94,20.48,20.48,0,0,1-1.52,7,21.65,21.65,0,0,1-2.37,4.32A22.49,22.49,0,0,1,51.34,100a21.6,21.6,0,0,1-5.4,3.18,23.09,23.09,0,0,1-6.56,1.5,22.49,22.49,0,0,1-6.7-.63,21.5,21.5,0,0,1-5.77-2.43A22.76,22.76,0,0,1,22.49,98a21.88,21.88,0,0,1-2.92-4,20.78,20.78,0,0,1-2.43-6.69,18.74,18.74,0,0,1-.22-1.92A3.19,3.19,0,0,1,16.9,84.76Z" style="fill:#263238"/></g><g id="Character"><path d="M51.22,387.71s6.72,4.34,9.82,4.18,15.29-15.3,15.29-15.3L70,371.83l-15.64,2.6-3.1,13.14" style="fill:#263238"/><path d="M184.26,166.1a31.14,31.14,0,0,1-7.07,28.9c-3.21,3.46-7.3,6.28-9.33,10.55-2.25,4.72-1.52,10.27-2.52,15.4s-5.34,10.61-10.42,9.36c4.74,7,12,12.12,19.67,15.63s16,5.57,24.23,7.61c4.58,1.14,9.52,2.26,13.9.5,5.67-2.27,8.48-8.51,10.75-14.18l19.79-49.4" style="fill:#263238"/><path d="M252,146.39A7.39,7.39,0,0,0,245.2,139l-34.87-16c-12.59-1.07-25.16,21.46-25.68,34.08-.59,14,1.23,30.88,3.11,41.3,3.79,20.93,17.91,21.33,17.91,21.33l1.2,33.86,43.77-.07Z" style="fill:#b5715a"/><path d="M193.83,173.87a2.7,2.7,0,0,0,2.65,2.67,2.59,2.59,0,0,0,2.73-2.49,2.7,2.7,0,0,0-2.66-2.67A2.58,2.58,0,0,0,193.83,173.87Z" style="fill:#263238"/><path d="M190.37,166.72c.3.25,2.41-.09,5.24.54s4.79,1.83,5.13,1.71c.16-.05-.12-.45-1-1a13.12,13.12,0,0,0-4.07-1.6,11.4,11.4,0,0,0-4.2-.2C190.57,166.34,190.23,166.6,190.37,166.72Z" style="fill:#263238"/><path d="M221.17,172.48a2.69,2.69,0,0,0,2.65,2.66,2.57,2.57,0,0,0,2.73-2.48A2.7,2.7,0,0,0,223.9,170,2.58,2.58,0,0,0,221.17,172.48Z" style="fill:#263238"/><path d="M217.2,168.3c.42.1,2.24-1.37,5.27-2.25s5.53-.72,5.79-1c.13-.14-.35-.39-1.46-.49a13.35,13.35,0,0,0-4.72.57,12,12,0,0,0-4.11,2C217.18,167.81,217,168.26,217.2,168.3Z" style="fill:#263238"/><path d="M207,187.65c0-.16-1.8-.43-4.73-.74-.74-.07-1.45-.2-1.58-.7a3.72,3.72,0,0,1,.45-2.2c.65-1.81,1.34-3.7,2.07-5.69,2.86-8.09,4.92-14.74,4.6-14.85s-2.92,6.35-5.79,14.45q-1,3-2,5.71a4.26,4.26,0,0,0-.33,2.92,1.89,1.89,0,0,0,1.24,1,4.66,4.66,0,0,0,1.26.15C205.17,187.85,207,187.82,207,187.65Z" style="fill:#263238"/><path d="M205.68,220a53.42,53.42,0,0,0,28-8.11s-6.16,15.46-27.23,14Z" style="fill:#884c3b"/><path d="M207.63,194.69a7.73,7.73,0,0,1,5.48-3.81,3.32,3.32,0,0,1,3.31,1.74,5.27,5.27,0,0,1-.35,4.83,4.42,4.42,0,0,1-4.34,2.23A7.4,7.4,0,0,1,208,197.4a2.63,2.63,0,0,1-.76-1,1.8,1.8,0,0,1,.2-1.53" style="fill:#884c3b"/><path d="M215.57,189.48c-.47,0-.41,3.13-3,5.42s-6,2-6,2.46c0,.19.76.59,2.17.6a7.84,7.84,0,0,0,5-1.87,6.81,6.81,0,0,0,2.36-4.54C216.15,190.23,215.79,189.45,215.57,189.48Z" style="fill:#263238"/><path d="M215,154.53c.38.75,3.21,0,6.64,0s6.27.57,6.63-.18c.16-.36-.4-1-1.6-1.66a11,11,0,0,0-5.07-1.11,11.1,11.1,0,0,0-5,1.23C215.37,153.48,214.82,154.17,215,154.53Z" style="fill:#263238"/><path d="M187.75,163.21c.65.64,3.11-.1,6.1-.21s5.52.3,6.08-.4c.25-.34-.17-1-1.29-1.59a10,10,0,0,0-5-.95,9.76,9.76,0,0,0-4.83,1.45C187.79,162.21,187.46,162.9,187.75,163.21Z" style="fill:#263238"/><path d="M273.47,198.28c-1.81-9.31-7.48-39.17-15.81-54.74s-17.87-21.72-27.14-24a21.17,21.17,0,0,0-20.16,5.08c-4.07,3.82-5.23,14.67-5.23,14.67s22.32,4.42,30.1,16.9c8.93,14.35,11.19,21.61,11.19,21.61l3,7.9s2.36,38.41,1.58,46.05l33.53,12.11C277.33,229,275.28,207.6,273.47,198.28Z" style="fill:#263238"/><path d="M206.5,139.15s-14.72-.76-19.08,13.69c-2,6.53-2.2,25.55-2.2,25.55s-3.15-15.07-2.67-23.58,4.47-19.35,10.84-25.44c6.19-5.94,11.46-8.77,22.8-8.35,0,0-1.62,3.22-4.42,7.58C210.37,130.78,208.17,131,206.5,139.15Z" style="fill:#263238"/><path d="M246.29,178.94c.12-4.66,5.11-7.88,9.2-5.65,2.24,1.23,4,3.76,3.91,8.7-.24,13.18-13.41,10.23-13.43,9.85S246.15,184.39,246.29,178.94Z" style="fill:#b5715a"/><path d="M250.08,186.92c.06,0,.23.16.61.35a2.29,2.29,0,0,0,1.72.06c1.4-.48,2.61-2.67,2.72-5.05a7.61,7.61,0,0,0-.59-3.29,2.68,2.68,0,0,0-1.69-1.8,1.18,1.18,0,0,0-1.37.61c-.18.36-.1.63-.17.65s-.28-.23-.17-.77a1.42,1.42,0,0,1,.54-.81,1.69,1.69,0,0,1,1.27-.32,3.22,3.22,0,0,1,2.36,2.09,7.61,7.61,0,0,1,.73,3.68c-.13,2.66-1.53,5.12-3.45,5.63a2.44,2.44,0,0,1-2.09-.38C250.1,187.24,250,186.94,250.08,186.92Z" style="fill:#884c3b"/><path d="M221.42,119.12c0,.11-1.51.42-3.78,1.44a18,18,0,0,0-7.4,6.07,33.74,33.74,0,0,0-4.27,8.72c-.8,2.37-1.19,3.87-1.28,3.85a4.08,4.08,0,0,1,.18-1.08c.14-.69.4-1.67.75-2.89a30.48,30.48,0,0,1,4.2-8.9,17.24,17.24,0,0,1,7.67-6.11,14,14,0,0,1,1.61-.58,9.73,9.73,0,0,1,1.24-.33A4.47,4.47,0,0,1,221.42,119.12Z" style="fill:#455a64"/><path d="M267.62,221.12s0-.09-.11-.28-.18-.49-.3-.84a21.53,21.53,0,0,1-.86-3.29,44.48,44.48,0,0,1,0-12.49c.27-2.62.65-5.49.9-8.57a42.24,42.24,0,0,0-.19-9.82,29.54,29.54,0,0,0-3.7-10.13,41.74,41.74,0,0,0-7.26-9.1c-5.79-5.57-12.54-9.36-18.64-12.68s-11.74-6.18-16.2-9A114.43,114.43,0,0,1,211,137.68c-1.16-.91-2-1.65-2.63-2.15l-.66-.59q-.23-.19-.21-.21a1.12,1.12,0,0,1,.24.17l.7.55,2.68,2.07a124,124,0,0,0,10.29,7.06c4.47,2.79,10.06,5.65,16.22,8.91s12.93,7.1,18.78,12.74a41.71,41.71,0,0,1,7.34,9.21,29.8,29.8,0,0,1,3.73,10.31,42,42,0,0,1,.15,9.93c-.27,3.1-.68,6-1,8.58a46.38,46.38,0,0,0-.15,12.42,24.75,24.75,0,0,0,.76,3.29c.1.35.18.63.25.85A1.05,1.05,0,0,1,267.62,221.12Z" style="fill:#455a64"/><path d="M56.08,371a3.09,3.09,0,0,1,.79-.51,15.47,15.47,0,0,1,2.35-1,16.41,16.41,0,0,1,15.83,3.27,14.2,14.2,0,0,1,1.77,1.83,2.74,2.74,0,0,1,.52.78c-.07.06-.88-1-2.52-2.33a17.15,17.15,0,0,0-15.5-3.19C57.29,370.44,56.13,371.1,56.08,371Z" style="fill:#263238"/><path d="M70.54,363.56a6.79,6.79,0,0,1,1.82,1.34,18.67,18.67,0,0,1,3.45,4.26,18.47,18.47,0,0,1,2.08,5.07,6.92,6.92,0,0,1,.3,2.25,32.46,32.46,0,0,0-2.82-7.06A32.88,32.88,0,0,0,70.54,363.56Z" style="fill:#263238"/><path d="M146.9,449.34s10.62-51.74,33.13-61.7L269.28,385s29.49,19.75,34.21,64.62Z" style="fill:#263238"/><path d="M206.12,229.09s2.63,16.49,20.29,14.57S251,231.77,251,231.77l24.54,7.83,3.86,47.47a209.75,209.75,0,0,0-23,87.85c-.19,5.13-.37,10.75-3.79,14.58-2.11,2.36-5.15,3.65-8.14,4.68a74.35,74.35,0,0,1-58.4-4.82s-7.5-81.21-6.58-83.52,13.2-70.62,13.2-70.62Z" style="fill:#e0e0e0"/><path d="M180,232.83s-15.6,1.1-19.78,3.19-58.87,70.71-61,71.76c-1.74.87-34.29,31.12-47.72,60.39-2.65,5.78-4.7,14-.35,19.47,0,0,15.69-19.7,25.11-11.05l42.12-42.69,44-25.67Z" style="fill:#455a64"/><g style="opacity:0.30000000000000004"><path d="M196,366.93c18.53-35.77,18.53-87.58,9.7-135.16l-7.93,67.61Z"/></g><path d="M156,245.37l1.39,58s5.58,64.24,6.62,64.24,4.18,22.65,0,32.75-17.76,23.68-17.76,23.68l17.06,18.46s16-25.42,20.9-41.8,18.47-41.1,20.56-87.08S206,222.77,206,222.77l-13.42,9.72-12.89.26Z" style="fill:#455a64"/><path d="M186.92,397.6s0-.19.14-.55l.46-1.6,1.69-6.17c1.42-5.37,3.42-13.16,5.29-22.91.93-4.88,1.81-10.25,2.42-16.05.29-2.9.52-5.91.58-9a55.09,55.09,0,0,0-.52-9.53,29.45,29.45,0,0,0-1.14-4.81c-.54-1.58-1-3.2-1.72-4.78-.31-.8-.64-1.6-1-2.4s-.71-1.58-1.07-2.38c-.7-1.6-1.51-3.18-2.3-4.78-3.2-6.38-6.94-12.76-11-19.16-3.5-5.54-7.08-10.87-10.72-15.9l-.14-.2.18-.15,26.12-21.43.17.4-23,2.65-.46.05.29-.36,15.58-19.09,4.26-5.17,1.12-1.34c.25-.3.39-.44.39-.44s-.11.16-.35.47-.61.78-1.08,1.37c-1,1.22-2.37,3-4.18,5.24l-15.45,19.2-.16-.31,23-2.72.77-.1-.6.5-26.08,21.47,0-.35c3.66,5.05,7.25,10.39,10.76,15.93,4.05,6.41,7.79,12.81,11,19.21.79,1.61,1.6,3.19,2.3,4.8l1.07,2.39c.33.81.65,1.62,1,2.42.67,1.58,1.18,3.22,1.72,4.82a29.8,29.8,0,0,1,1.15,4.88,56.07,56.07,0,0,1,.5,9.61c-.07,3.12-.31,6.14-.61,9.05-.63,5.81-1.53,11.19-2.49,16.07-1.91,9.75-4,17.54-5.45,22.89-.75,2.68-1.36,4.75-1.79,6.15l-.51,1.58A5.27,5.27,0,0,1,186.92,397.6Z" style="fill:#263238"/><path d="M250.94,217.52s8.64,13.32,9.54,14.25c0,0,36.5,10.33,38.65,14.68,8.89,17.94,1.71,24.39,0,49.05-2.12,30.65-12.39,73.31-12.39,73.31s14.45,55.65,16,58.72-49.16,21.72-54.53,14.7-9.59-31.2-9.59-31.2-5-49.13-3.08-68.71,11-39.68,14.21-63.33C253.06,254,250.94,217.52,250.94,217.52Z" style="fill:#455a64"/><path d="M237.42,354.6a6.4,6.4,0,0,1,.12-.71c.1-.51.24-1.19.42-2s.44-2,.71-3.21L240,344.5a99.58,99.58,0,0,1,11.33-22.44,144.68,144.68,0,0,1,15.86-19.53c2.25-2.31,4.15-4.1,5.5-5.29.67-.6,1.22-1,1.58-1.34a3.16,3.16,0,0,1,.61-.4s-3,2.62-7.42,7.29a156.16,156.16,0,0,0-15.7,19.56,104.51,104.51,0,0,0-11.41,22.27L239,348.73c-.3,1.22-.57,2.28-.79,3.17s-.39,1.5-.52,2A2.79,2.79,0,0,1,237.42,354.6Z" style="fill:#263238"/><path d="M260.48,232.39a3.76,3.76,0,0,1,.37.68l1,2c.84,1.8,2,4.31,3.46,7.4.72,1.57,1.51,3.29,2.36,5.12.42.93.86,1.88,1.31,2.86a32.76,32.76,0,0,1,1.32,3.06l5.21,13.89c1.44,3.88,2.83,7.62,4.14,11.12l.1.27-.28.06L269.67,281l.15-.3c2,4.45,3.7,8.13,4.89,10.76.56,1.26,1,2.26,1.33,3l.34.8a.93.93,0,0,1,.09.28,1.5,1.5,0,0,1-.15-.26c-.11-.2-.24-.46-.39-.76-.36-.73-.84-1.72-1.44-3-1.23-2.61-3-6.27-5.06-10.68l-.11-.24.26-.06,9.74-2.17-.18.32c-1.31-3.49-2.71-7.22-4.16-11.1l-5.17-13.9a32.67,32.67,0,0,0-1.29-3.06c-.44-1-.87-1.94-1.29-2.87l-2.3-5.14-3.3-7.47-.88-2A4.68,4.68,0,0,1,260.48,232.39Z" style="fill:#263238"/><path d="M284.5,362.58s18.68,18.67,28.28,17.6,22.14-21.87,22.14-29.07-9-53.62-9-53.62L329.69,280l-35-.66-7,53.8Z" style="fill:#455a64"/><path d="M307.22,237.86a3.31,3.31,0,0,1-.13.39l-.41,1.11-.71,1.79c-.3.71-.65,1.52-1,2.42-.81,1.81-1.87,4-3.2,6.47s-3,5.24-5,8.15a96.49,96.49,0,0,1-16.56,18.53,84.17,84.17,0,0,1-11.9,8.64,48.85,48.85,0,0,1-14.65,5.87,33.63,33.63,0,0,1-15.73-.38,27.35,27.35,0,0,1-6.93-3,25.29,25.29,0,0,1-5.54-4.65,57.24,57.24,0,0,1-7.34-11.1c-2-3.66-3.82-7.08-5.35-10.28a80,80,0,0,1-3.6-8.86,51.66,51.66,0,0,1-1.77-7,32.13,32.13,0,0,1-.48-6.13,1.87,1.87,0,0,1,0,.4c0,.29,0,.68.07,1.18.07,1,.23,2.57.56,4.52a50.8,50.8,0,0,0,1.85,6.94,76.16,76.16,0,0,0,3.66,8.8c1.54,3.18,3.38,6.59,5.39,10.23a58,58,0,0,0,7.32,11,24.82,24.82,0,0,0,5.44,4.55,27.17,27.17,0,0,0,6.8,2.92,33.18,33.18,0,0,0,15.5.36,48.2,48.2,0,0,0,14.49-5.8,83,83,0,0,0,11.84-8.57A97.46,97.46,0,0,0,296.42,258c2-2.9,3.65-5.66,5.05-8.09s2.44-4.62,3.28-6.41c.4-.9.77-1.7,1.08-2.4l.75-1.77.46-1.09A2.21,2.21,0,0,1,307.22,237.86Z" style="fill:#263238"/><path d="M299.83,239.14a6.93,6.93,0,0,1-.59.65l-1.75,1.77L291,248l-9.66,9.59a39.55,39.55,0,0,1-6.31,5,18.81,18.81,0,0,1-8.16,2.91,14.38,14.38,0,0,1-8.49-1.63,10.25,10.25,0,0,1-4.87-6.36,27.92,27.92,0,0,1-.83-7.26c0-2.29.09-4.41.13-6.34a34.61,34.61,0,0,0-.65-9.08,13.2,13.2,0,0,0-.84-2.33,5.4,5.4,0,0,1-.35-.79,4.87,4.87,0,0,1,.44.75,11.22,11.22,0,0,1,1,2.31,33.54,33.54,0,0,1,.82,9.15c0,1.93-.09,4.06-.06,6.32a27.61,27.61,0,0,0,.85,7.14,9.82,9.82,0,0,0,4.66,6.05,14,14,0,0,0,8.19,1.55,18.16,18.16,0,0,0,7.94-2.83,39.28,39.28,0,0,0,6.25-4.93c1.87-1.75,3.52-3.53,5.18-5.1l4.55-4.41,6.61-6.35,1.82-1.71A4.71,4.71,0,0,1,299.83,239.14Z" style="fill:#263238"/><path d="M167.39,375.07a1,1,0,0,1-.06-.27c0-.22-.07-.48-.12-.81-.09-.76-.23-1.8-.4-3.13-.34-2.75-.82-6.66-1.41-11.49-1.18-9.7-2.84-23.1-4.42-37.93-.78-7.42-1.44-14.5-2-20.94s-.91-12.25-1.12-17.14c-.13-2.44-.2-4.65-.26-6.59s-.11-3.61-.12-5,0-2.39,0-3.15v-.82a.9.9,0,0,1,0-.28,1.07,1.07,0,0,1,0,.28c0,.22,0,.48,0,.82,0,.76.06,1.81.12,3.14s.1,3,.2,5,.18,4.14.34,6.58c.26,4.88.71,10.68,1.23,17.12s1.23,13.51,2,20.92c1.58,14.83,3.18,28.24,4.27,37.95.52,4.83.95,8.75,1.24,11.51.13,1.33.23,2.38.31,3.13,0,.34,0,.61.06.82S167.39,375.07,167.39,375.07Z" style="fill:#263238"/><path d="M329.69,280l-.17,0h-2.39l-7.19-.07-25.29-.39.24-.19c-1.42,7.52-2.57,16.07-3.46,25.13-1.58,16.61-2.24,31.71-3.06,42.62-.38,5.45-.75,9.86-1,12.91-.16,1.49-.28,2.67-.37,3.5,0,.38-.08.68-.1.91a.16.16,0,1,1-.06,0c0-.24,0-.54.06-.92.06-.83.15-2,.27-3.51.22-3,.54-7.46.88-12.92.72-10.91,1.32-26,2.9-42.64.89-9.07,2.06-17.64,3.51-25.17l0-.19h.2l25.29.58,7.18.2L329,280l.49,0Z" style="fill:#263238"/><circle cx="321.14" cy="289.95" r="2.74" style="fill:#e0e0e0"/><path d="M323.88,290s-.06-.24-.18-.64a2.84,2.84,0,0,0-1-1.39,2.54,2.54,0,0,0-4,2,2.55,2.55,0,0,0,1.63,2.36,2.59,2.59,0,0,0,2.41-.32,2.84,2.84,0,0,0,1-1.39,4.08,4.08,0,0,1,.18-.65s.09.25,0,.7a2.7,2.7,0,0,1-1,1.63,2.91,2.91,0,0,1-2.79.48,3,3,0,0,1,0-5.61,2.91,2.91,0,0,1,2.79.48,2.7,2.7,0,0,1,1,1.63C324,289.71,323.91,290,323.88,290Z" style="fill:#263238"/><circle cx="243.26" cy="374.3" r="2.74" style="fill:#e0e0e0"/><path d="M246,374.3a5.36,5.36,0,0,1-.18-.64,2.76,2.76,0,0,0-1-1.39,2.57,2.57,0,0,0-2.4-.32,2.51,2.51,0,0,0,0,4.7,2.6,2.6,0,0,0,2.4-.31,2.84,2.84,0,0,0,1-1.39,6,6,0,0,1,.18-.65s.09.25,0,.7a2.73,2.73,0,0,1-1,1.63,2.91,2.91,0,0,1-2.79.47,3,3,0,0,1,0-5.6A2.91,2.91,0,0,1,245,372a2.72,2.72,0,0,1,1,1.64C246.09,374.06,246,374.3,246,374.3Z" style="fill:#263238"/><path d="M251.66,416a2.74,2.74,0,1,1-2.74-2.74A2.74,2.74,0,0,1,251.66,416Z" style="fill:#e0e0e0"/><path d="M251.66,416a5.36,5.36,0,0,1-.18-.64,2.74,2.74,0,0,0-1-1.39,2.57,2.57,0,0,0-2.4-.32,2.51,2.51,0,0,0,0,4.7,2.57,2.57,0,0,0,2.4-.31,2.78,2.78,0,0,0,1-1.39,6,6,0,0,1,.18-.65s.09.25,0,.7a2.78,2.78,0,0,1-1,1.63,2.91,2.91,0,0,1-2.79.47,3,3,0,0,1,0-5.6,2.91,2.91,0,0,1,2.79.48,2.78,2.78,0,0,1,1,1.63C251.75,415.8,251.69,416,251.66,416Z" style="fill:#263238"/><path d="M326,297.49c0,.14-7.18-.07-16-.47s-16-.86-16-1,7.18.07,16,.48S326,297.35,326,297.49Z" style="fill:#263238"/><path d="M167.75,351.05l-10.32,4.12L135,299a25.82,25.82,0,1,0-48,19.17l22.46,56.18-10.33,4.13L76.69,322.29a36.94,36.94,0,1,1,68.61-27.42Z" style="fill:#e0e0e0"/><path d="M167.75,351.05s-.17-.39-.47-1.12L166,346.68c-1.15-2.87-2.85-7.07-5-12.49s-4.84-12-7.94-19.71L148,302.18c-1.83-4.31-3.3-9.11-6.14-13.48a36.06,36.06,0,0,0-11.55-11.29c-.61-.36-1.21-.75-1.83-1.1l-1.94-.94a36.81,36.81,0,0,0-4-1.63c-.69-.27-1.42-.4-2.14-.61a19.62,19.62,0,0,0-2.17-.53,35.12,35.12,0,0,0-4.49-.6,37.55,37.55,0,0,0-9.26.44l-2.31.54-1.17.27c-.38.11-.75.25-1.13.38l-2.28.78c-.75.3-1.47.67-2.21,1a36.39,36.39,0,0,0-15,12.93,36.76,36.76,0,0,0-6.09,19.85,39,39,0,0,0,1.48,10.73c1.11,3.48,2.61,6.91,4,10.4L97,372.48l2.36,5.89-.34-.15,10.32-4.12-.14.34q-6.7-16.77-13.08-32.73-3.18-8-6.27-15.7l-3.06-7.66A28.52,28.52,0,0,1,85,310.41a26.22,26.22,0,0,1,3.67-15.2c.35-.54.64-1.13,1-1.63L90.87,292a28.29,28.29,0,0,1,5.62-5.1c.52-.35,1.07-.64,1.6-1l.81-.48.84-.39a26.18,26.18,0,0,1,7-2.21,28,28,0,0,1,7.13-.2,26.26,26.26,0,0,1,12.6,5,26.69,26.69,0,0,1,4.75,4.49,27.14,27.14,0,0,1,3.32,5.37l.65,1.41c.19.47.37.95.56,1.42.37.94.75,1.87,1.11,2.79q1.11,2.76,2.16,5.43c2.83,7.09,5.42,13.61,7.76,19.49l10.75,27.07-.1,0,7.8-3.07,1.91-.74c.42-.17.64-.24.64-.24l-.6.25-1.89.77-7.8,3.17-.07,0,0-.07c-2.46-6.11-6.15-15.29-10.88-27-2.35-5.87-5-12.39-7.81-19.47-.71-1.78-1.44-3.58-2.18-5.43l-1.12-2.79c-.18-.47-.37-.94-.56-1.41s-.43-.92-.64-1.39a26.83,26.83,0,0,0-3.29-5.28A26.53,26.53,0,0,0,126.2,288a25.77,25.77,0,0,0-12.41-4.87,27.06,27.06,0,0,0-7,.2,25.62,25.62,0,0,0-6.84,2.19l-.83.38-.79.47c-.53.32-1.07.6-1.58.95a28,28,0,0,0-5.51,5l-1.14,1.52a18.86,18.86,0,0,0-1,1.6,25.74,25.74,0,0,0-3.59,14.93,27.83,27.83,0,0,0,1.8,7.79l3.06,7.66q3.09,7.71,6.28,15.69l13.09,32.72.09.25-.24.09-10.32,4.13-.24.09-.1-.24c-.78-1.95-1.56-3.92-2.35-5.89L79.3,329.51c-1.36-3.5-2.86-6.9-4-10.45a37.16,37.16,0,0,1,4.69-31A37,37,0,0,1,95.17,275c.75-.33,1.48-.7,2.24-1l2.31-.79c.39-.13.76-.27,1.15-.38l1.18-.28,2.34-.54a38,38,0,0,1,9.37-.43,36.07,36.07,0,0,1,4.55.61c.75.1,1.46.37,2.19.54s1.46.35,2.16.62a36.81,36.81,0,0,1,4.09,1.66l2,1c.63.35,1.24.74,1.85,1.11a36.21,36.21,0,0,1,11.65,11.44c2.86,4.42,4.33,9.25,6.15,13.58s3.38,8.5,4.91,12.36c3.06,7.71,5.7,14.35,7.85,19.78l4.94,12.48,1.27,3.24C167.62,350.68,167.75,351.05,167.75,351.05Z" style="fill:#263238"/><rect x="86.51" y="325.17" width="104.48" height="85.15" rx="10.01" transform="translate(-126.58 77.76) rotate(-21.79)" style="fill:#ff725e"/><g style="opacity:0.30000000000000004"><rect x="86.51" y="325.17" width="104.48" height="85.15" rx="10.39" transform="translate(-126.58 77.76) rotate(-21.79)"/></g><rect x="82.36" y="328.34" width="96.93" height="85.15" rx="9.98" transform="translate(-128.32 75.05) rotate(-21.79)" style="fill:#ff725e"/><g style="opacity:0.30000000000000004"><path d="M140.54,359a11.88,11.88,0,1,0-9.82,16.19l5.39,13.49a3.24,3.24,0,0,0,4.22,1.81h0a3.23,3.23,0,0,0,1.8-4.21l-5.39-13.5A11.84,11.84,0,0,0,140.54,359Z"/></g><path d="M188.71,385c-.13.05-5.68-13.7-12.4-30.71s-12.05-30.85-11.91-30.9,5.68,13.69,12.4,30.71S188.85,385,188.71,385Z" style="fill:#263238"/><path d="M139.7,373.87a20,20,0,0,0,2.83-3.75,14.57,14.57,0,0,0,1.6-4.79A13.09,13.09,0,0,0,140.48,354a14.55,14.55,0,0,0-4.09-3,19.59,19.59,0,0,0-4.47-1.4,4.38,4.38,0,0,1,1.27.07,12.78,12.78,0,0,1,3.36,1,14.1,14.1,0,0,1,4.27,3,13.23,13.23,0,0,1,3.78,11.77,14.18,14.18,0,0,1-1.75,4.89,12.11,12.11,0,0,1-2.15,2.76A4.58,4.58,0,0,1,139.7,373.87Z" style="fill:#263238"/><path d="M140.18,324.11c0,.13-12,5.24-26.82,11.41s-26.95,11.07-27,10.93,12-5.24,26.81-11.41S140.12,324,140.18,324.11Z" style="fill:#fff"/><path d="M120.48,373.86s-.29-.14-.73-.5a11.51,11.51,0,0,1-1.68-1.75,13.3,13.3,0,0,1-1-15.14,11.38,11.38,0,0,1,1.45-2,2.75,2.75,0,0,1,.66-.59c.07.06-.83,1-1.79,2.72a13.71,13.71,0,0,0,1,14.74C119.54,373,120.55,373.79,120.48,373.86Z" style="fill:#fff"/><path d="M126.94,377.35c0,.14-.79.13-1.7,0s-1.63-.39-1.61-.53.79-.13,1.7,0S127,377.21,126.94,377.35Z" style="fill:#fff"/><path d="M94.68,277.6s-.63.36-1.75,1a32.12,32.12,0,0,0-15.64,35.46A33.93,33.93,0,0,0,79,319.29c.49,1.2.8,1.85.76,1.87a2,2,0,0,1-.28-.45c-.15-.31-.41-.74-.67-1.34a28.65,28.65,0,0,1-1.82-5.22,31.53,31.53,0,0,1,11.24-32.73,28.84,28.84,0,0,1,4.65-3c.57-.32,1-.5,1.36-.65A1.89,1.89,0,0,1,94.68,277.6Z" style="fill:#fff"/><path d="M82.79,331.16a8.85,8.85,0,0,1-1.36-2.78,9.3,9.3,0,0,1-.88-3,9.7,9.7,0,0,1,1.36,2.79A9.53,9.53,0,0,1,82.79,331.16Z" style="fill:#fff"/><g style="opacity:0.30000000000000004"><path d="M157.61,272.08c-4.49,12.85-2.28,27.3,2.73,40C160.34,312,157.72,285.53,157.61,272.08Z"/></g><g style="opacity:0.30000000000000004"><path d="M236.23,365.88c4.94-11.17,9.91-22.39,16.28-32.82s14-20.35,23.75-27.67c2.65-2,7.58-5.73,7.58-5.73s-1.32-2.49-2.62-4.56c-1.51-2.4-4-6.57-5.32-8.61l5.85,1.17s-4-9.22-3.9-8.6a78.3,78.3,0,0,1-7.92,1.62c2,4.91,4.23,9.33,6.27,14.24-11,8.75-20,19.75-27.53,31.39s-12.77,25.16-12.5,39"/></g><path d="M257.13,190.39c.14-.1.45,0,.79.4a3.27,3.27,0,0,1,.69,2.11,3.94,3.94,0,0,1-.35,1.61,4.05,4.05,0,0,1-1.22,1.54,4.45,4.45,0,0,1-7.15-2.7,4.18,4.18,0,0,1,.11-2,4,4,0,0,1,.8-1.43,3.29,3.29,0,0,1,1.92-1.13c.52-.08.81.06.85.23.09.35-.78.82-1.25,1.94a2.42,2.42,0,0,0-.09,1.8,2.29,2.29,0,0,0,3.43,1.3,2.42,2.42,0,0,0,1.12-1.42C257.17,191.53,256.83,190.6,257.13,190.39Z" style="fill:#e0e0e0"/><path d="M76.55,404.12s3.41,11,5.17,13.21,13.53,3.4,13.53,3.4Z" style="fill:#b5715a"/><path d="M90.65,386.66l6.53,5.24,19.38,14.94s-.12,3.59-4.48,2.77c-3.54-.66-11.39-5-11.39-5s9.22,8.67,9.54,12.72v.73a3.5,3.5,0,0,1-1,2.4h0l-10.77-7.2s2.31,4.07,4.58,8.28a5.2,5.2,0,0,1-.74,5.14h0l-24-20.13-.16-15,12.46-4.9" style="fill:#b5715a"/><path d="M88.1,396a3.35,3.35,0,0,1,.9.21c.28.1.6.25,1,.42s.8.41,1.26.68c1.81,1.07,4.13,2.83,6.68,4.74a59.34,59.34,0,0,0,6.76,4.55c1.83,1,3.07,1.38,3,1.47a3.17,3.17,0,0,1-.89-.21,6.35,6.35,0,0,1-1-.36,12.32,12.32,0,0,1-1.3-.58,44.9,44.9,0,0,1-6.9-4.45c-2.56-1.92-4.83-3.71-6.57-4.85l-1.19-.73-.94-.49A2.93,2.93,0,0,1,88.1,396Z" style="fill:#884c3b"/><path d="M85.9,403.35A10.7,10.7,0,0,1,88,404.63c1.22.86,2.88,2.1,4.65,3.54S95.93,411,97,412a10.31,10.31,0,0,1,1.68,1.75,11.34,11.34,0,0,1-1.92-1.48c-1.3-1.07-2.82-2.32-4.49-3.71l-4.55-3.64A12.1,12.1,0,0,1,85.9,403.35Z" style="fill:#884c3b"/><path d="M53.52,385c-.17.19.09.55.25.89,2.61,5.45,25,20.93,25,20.93L91,386s8.87,4.29,12.51,3.3c3-.81,8.64-1.42,6-6.68,0,0-12.5-2.3-16.76-4.13s-6.9-2.78-6.9-2.78a60.07,60.07,0,0,1-14.45-1.43S63.9,373.24,53.52,385Z" style="fill:#b5715a"/><path d="M101.73,426.17A26.86,26.86,0,0,1,98.89,424l-6.73-5.46c-2.63-2.13-5-4.1-6.64-5.58-.83-.74-1.49-1.34-1.94-1.78a3.4,3.4,0,0,1-.66-.71,28.69,28.69,0,0,1,2.84,2.21l6.73,5.46c2.63,2.14,5,4.11,6.64,5.58.83.74,1.49,1.35,1.94,1.78A3.4,3.4,0,0,1,101.73,426.17Z" style="fill:#884c3b"/><path d="M311.6,204.31l7.71,1.22.92-5.89-3-.47.43-2.68-2.79-.44.37-2.35,3.21.5.32-2-5.14-.81c.05-.27.09-.52.13-.78l-.13.78h0c0-.26.09-.52.13-.78a1.85,1.85,0,0,0-1.68-2,1.88,1.88,0,0,0-2,1.67q-2.25,14.28-4.49,28.57l-1.2,7.62a10,10,0,0,0-3.19,19.37,10.93,10.93,0,0,0,1.91.5A10,10,0,0,0,308,227q1.73-11,3.46-22h0ZM312,237.6a7.43,7.43,0,1,1-6.19-8.49h0A7.45,7.45,0,0,1,312,237.6Z" style="fill:#e0e0e0"/><path d="M311.6,204.31l7.71,1.22.92-5.89-3-.47.43-2.68-2.79-.44.37-2.35,3.21.5.32-2-5.14-.81c.05-.27.09-.52.13-.78l-.13.78h0c0-.26.09-.52.13-.78a1.85,1.85,0,0,0-1.68-2,1.88,1.88,0,0,0-2,1.67q-2.25,14.28-4.49,28.57l-1.2,7.62a10,10,0,0,0-3.19,19.37,10.93,10.93,0,0,0,1.91.5A10,10,0,0,0,308,227q1.73-11,3.46-22h0ZM312,237.6a7.43,7.43,0,1,1-6.19-8.49h0A7.45,7.45,0,0,1,312,237.6Z" style="fill:none"/><path d="M312,237.6a10.27,10.27,0,0,0-.33-3.14,7.47,7.47,0,0,0-1.83-3.06,7.35,7.35,0,0,0-4.06-2.07l.12-.43h0l1.56.68-1.68-.25a7.19,7.19,0,0,0-7.49,10.41,7.25,7.25,0,0,0,9.81,3.09,7.46,7.46,0,0,0,3.3-3.51c.47-1.06.54-1.73.6-1.72a1.73,1.73,0,0,1,0,.48,7.08,7.08,0,0,1-.37,1.32,7.48,7.48,0,0,1-3.32,3.75,7.38,7.38,0,0,1-3.38.94,7.65,7.65,0,1,1,1-15.2l-.13.43h0l-1.62-.74,1.75.31a7.53,7.53,0,0,1,4.25,2.26,7.34,7.34,0,0,1,1.82,3.24,7,7,0,0,1,.22,2.38A3.32,3.32,0,0,1,312,237.6Z" style="fill:#263238"/><path d="M311.6,204.31s0,.24-.08.72h0c-.29,2.18-1.49,10.17-3.32,22l-.12-.2a10.21,10.21,0,0,1,4.75,15.78,10.24,10.24,0,1,1-9.53-16.34,10.45,10.45,0,0,1,1.1-.1l-.25.22c1.27-8.08,2.5-15.87,3.66-23.17.58-3.65,1.14-7.18,1.67-10.56.14-.85.27-1.69.4-2.51a2.11,2.11,0,0,1,1.86-1.79,2.05,2.05,0,0,1,2.13,1.34,2.17,2.17,0,0,1,0,1.28l-.05.29v.07h0c-.19,0,.43.08-.43-.06h0v0l0-.14.09-.58.43.07-.12.77-.18-.24,5.14.82.2,0,0,.2c-.11.72-.22,1.38-.32,2l0,.2-.2,0-3.21-.52.22-.15c-.14.84-.26,1.61-.38,2.35l-.15-.2,2.78.44.17,0,0,.17c-.16,1-.3,1.84-.43,2.67l-.13-.18,3,.49.15,0,0,.14q-.56,3.36-1,5.88v.11h-.11l-5.7-1-1.48-.26c-.34-.06-.51-.11-.51-.11l.48.06,1.46.2,5.78.85-.12.09q.38-2.53.89-5.89l.12.16-3-.46-.16,0,0-.16c.13-.83.26-1.69.41-2.68l.14.2-2.79-.43-.17,0,0-.18c.11-.74.23-1.5.36-2.35l0-.19.18,0,3.21.5-.22.16c.1-.65.2-1.31.32-2l.16.23-5.14-.8-.21,0,0-.22.12-.77.43.07-.09.57,0,.15v0l-.43-.07h0v-.08l.05-.29a1.77,1.77,0,0,0,0-1.05,1.61,1.61,0,0,0-1.67-1,1.64,1.64,0,0,0-1.45,1.42c-.13.82-.26,1.66-.39,2.5-.53,3.38-1.08,6.91-1.65,10.56-1.15,7.31-2.37,15.1-3.64,23.18l0,.2-.22,0c-.34,0-.69,0-1,.09A9.86,9.86,0,0,0,296.6,231a9.76,9.76,0,0,0,10.06,15A9.8,9.8,0,0,0,308,227.2l-.14,0,0-.15c1.91-11.84,3.21-19.82,3.61-22l.06,0h0l-.07,0A7.22,7.22,0,0,1,311.6,204.31Z" style="fill:#263238"/><path d="M294.61,233.29,307,230l6.43.83a3.43,3.43,0,0,1,2.7,2l4.16,9s6,5,5.32,8-6.27,29.91-6.27,29.91l-16.56-.5a22.74,22.74,0,0,1-5-12.58c-.18-3.78,1.25-6.09.9-8.09-.24-1.37.61-3.81,1-5.68l.51-1.82-1.11.52a3.34,3.34,0,0,1-4.77-2.5c0-.1,0-.2,0-.3h0a7.53,7.53,0,0,1,2.25-5.76l6.25-6.14S295.85,240.93,294.61,233.29Z" style="fill:#b5715a"/><path d="M315.64,248.33a5.9,5.9,0,0,1-1.14-.13l-3.07-.55-4.55-.88c-.86-.16-1.75-.39-2.66-.47a2.84,2.84,0,0,0-2.47.79,5.51,5.51,0,0,0-1.06,2.56c-.19.92-.38,1.82-.56,2.67a27.12,27.12,0,0,0-.81,4.51,3.11,3.11,0,0,0,1.19,2.61,3.48,3.48,0,0,0,1,.43.54.54,0,0,1-.3,0,1.83,1.83,0,0,1-.83-.28,3.25,3.25,0,0,1-1.45-2.77,24.49,24.49,0,0,1,.71-4.61c.17-.86.35-1.76.54-2.69a5.88,5.88,0,0,1,1.16-2.8,3.34,3.34,0,0,1,2.9-1c1,.1,1.86.34,2.72.51l4.52,1,3,.71A4.48,4.48,0,0,1,315.64,248.33Z" style="fill:#884c3b"/><path d="M309.2,262s0,.52-.62,1a2.32,2.32,0,0,1-1.37.39,7.18,7.18,0,0,1-1.82-.35,7,7,0,0,1-3.94-2.69,6.2,6.2,0,0,1-.08-5.78,10.71,10.71,0,0,1,1.53-2.65,3,3,0,0,1,1.25-.89,3.07,3.07,0,0,1,1.46-.1,22.43,22.43,0,0,1,4.55,1.44,25,25,0,0,1,2.85,1.45,4.29,4.29,0,0,1,1,.67c0,.08-1.46-.8-4-1.78a25.51,25.51,0,0,0-4.47-1.31,2.69,2.69,0,0,0-1.23.1,2.49,2.49,0,0,0-1,.75,10.82,10.82,0,0,0-1.44,2.52,5.85,5.85,0,0,0,0,5.33,6.81,6.81,0,0,0,3.66,2.59,6.43,6.43,0,0,0,1.71.4,2.15,2.15,0,0,0,1.25-.26A1.83,1.83,0,0,0,309.2,262Z" style="fill:#884c3b"/><path d="M309,260.21c0,.06-.29.23-.84.29a3.83,3.83,0,0,1-2.12-.41,3.66,3.66,0,0,1-1.55-1.49c-.27-.49-.32-.83-.25-.86s.67,1.19,2,1.89A8.34,8.34,0,0,0,309,260.21Z" style="fill:#884c3b"/><path d="M310.25,263.56c-.08.11-.86-.35-1.42-1.29s-.63-1.83-.49-1.85.41.75.93,1.58S310.34,263.44,310.25,263.56Z" style="fill:#884c3b"/><path d="M309.91,272.72a9.66,9.66,0,0,1,.3-9,31.57,31.57,0,0,0-.74,4.48A32.17,32.17,0,0,0,309.91,272.72Z" style="fill:#884c3b"/><path d="M309.61,264.53a11.68,11.68,0,0,0-6.51,6.36,2.8,2.8,0,0,1,.33-1.38,8.56,8.56,0,0,1,4.79-4.68A2.84,2.84,0,0,1,309.61,264.53Z" style="fill:#884c3b"/><path d="M304.53,243.94c.14,0,.23.51.06,1.1s-.51,1-.63.89,0-.51.13-1S304.39,243.94,304.53,243.94Z" style="fill:#884c3b"/><path d="M319.22,244.12a14.93,14.93,0,0,1-2.47-1.31c-1.49-.87-3.53-2.1-5.77-3.48a18.3,18.3,0,0,0-3.23-1.69,7.23,7.23,0,0,0-2.88-.5,7,7,0,0,0-2.62.72s.17-.23.6-.48a4.77,4.77,0,0,1,2-.61,7.08,7.08,0,0,1,3.07.42,17.34,17.34,0,0,1,3.35,1.7c2.24,1.38,4.24,2.66,5.69,3.61A15.09,15.09,0,0,1,319.22,244.12Z" style="fill:#884c3b"/><path d="M311.59,204.66a45,45,0,0,1,.74-6.76,45.16,45.16,0,0,1,1.25-6.69,45,45,0,0,1-.74,6.76A45.16,45.16,0,0,1,311.59,204.66Z" style="fill:#263238"/><g style="opacity:0.30000000000000004"><path d="M313.58,191.54A16.17,16.17,0,0,1,311.66,204c.72-3.65,1.44-8.59,1.92-12.44"/></g></g><g id="Plant"><path d="M424.32,369.84a19.25,19.25,0,0,0-31.53,7.57l2.28,8.82c.87-3,2.72-5.91,5.6-7.14s6.45-.56,9.5.55,6.06,2.6,9.31,2.8,6.91-1.34,7.89-4.44C428.28,375.08,426.52,372,424.32,369.84Z" style="fill:#ff725e"/><g style="opacity:0.30000000000000004"><path d="M424.32,369.84a19.25,19.25,0,0,0-31.53,7.57l2.28,8.82c.87-3,2.72-5.91,5.6-7.14s6.45-.56,9.5.55,6.06,2.6,9.31,2.8,6.91-1.34,7.89-4.44C428.28,375.08,426.52,372,424.32,369.84Z"/></g><path d="M369.34,399.28c-4.76-4.53-4.53-12.41-2.15-18.53s7.57-10.83,13.36-13.93a42.31,42.31,0,0,1,36.87-1.2,17.49,17.49,0,0,0-14.15,8.31c-2.61,4.34-3.19,9.6-5.35,14.18a22.33,22.33,0,0,1-28.58,11.17" style="fill:#ff725e"/><path d="M367.05,372.09c-5.27-6.23-6-16.23-5.2-24.35s2.66-16.3,1.38-24.36c-.76-4.77-2.61-9.33-3.24-14.12s.26-10.22,4-13.31c4.27-3.56,11-2.72,15.43.62s7,8.58,8.9,13.81c4.13,11.49,5.64,24.23,2.25,36s-11.36,22.21-23,25.75" style="fill:#ff725e"/><path d="M364.52,423.18a4,4,0,0,1,0-.72c0-.47,0-1.17,0-2.06.07-1.79.24-4.37.64-7.54a101.71,101.71,0,0,1,2-11,51.43,51.43,0,0,1,5-12.79,53.41,53.41,0,0,1,16.87-18.19c1.32-.91,2.6-1.6,3.69-2.24s2.11-1.08,2.91-1.47l1.9-.79a3.79,3.79,0,0,1,.67-.25,5.67,5.67,0,0,1-.63.33l-1.86.87c-.79.41-1.76.91-2.87,1.52s-2.34,1.36-3.63,2.29a54.14,54.14,0,0,0-16.66,18.14c-4.85,8.49-6.18,17.41-7.15,23.66-.43,3.16-.65,5.73-.77,7.51l-.12,2A5.21,5.21,0,0,1,364.52,423.18Z" style="fill:#263238"/><path d="M319,347.52c-9.76,5.89-9.73,11.25-8.1,16.31s7.62,8.57,12.59,6.68c2.8-1.07,4.84-3.51,6.57-6s3.37-5.08,5.81-6.84a8.55,8.55,0,0,1,5.82-1.66Z" style="fill:#ff725e"/><g style="opacity:0.30000000000000004"><path d="M319,347.52c-9.76,5.89-9.73,11.25-8.1,16.31s7.62,8.57,12.59,6.68c2.8-1.07,4.84-3.51,6.57-6s3.37-5.08,5.81-6.84a8.55,8.55,0,0,1,5.82-1.66Z"/></g><path d="M311.56,354.25c2.55-3.53,8.85-4.55,12.83-2.79s6.9,5.25,9.51,8.73,5.15,7.16,8.77,9.59,8.66,3.3,12.27.86a10.57,10.57,0,0,0,4.16-7.22,24,24,0,0,0-.57-8.51c-.86-4.09-2.27-8.37-5.54-11-3.65-2.9-8.72-3-13.38-2.88-5.34.17-10.77.57-15.79,2.43s-10.13,5.85-12.26,10.76" style="fill:#ff725e"/><path d="M356.41,415.36a.58.58,0,0,1,0-.21l0-.63q0-.88-.09-2.43c-.06-2.14-.14-5.17-.25-8.91s-.27-8.23-.54-13.2-.65-10.42-1.4-16.1a53.35,53.35,0,0,0-1.62-8.18,42.82,42.82,0,0,0-3-7.16,41.76,41.76,0,0,0-3.77-5.92,37.66,37.66,0,0,0-4.13-4.52,30,30,0,0,0-7.3-5c-.48-.22-.89-.44-1.27-.59l-.95-.37-.58-.23-.2-.1.21.05.6.2,1,.33c.38.14.81.35,1.29.55a29.08,29.08,0,0,1,7.44,4.91,37.3,37.3,0,0,1,4.2,4.53,40.61,40.61,0,0,1,3.84,6,42.43,42.43,0,0,1,3.05,7.22,52.84,52.84,0,0,1,1.64,8.25c.75,5.7,1.11,11.17,1.37,16.14s.37,9.45.45,13.22.1,6.81.11,8.91c0,1,0,1.83,0,2.42,0,.26,0,.47,0,.63A.89.89,0,0,1,356.41,415.36Z" style="fill:#263238"/><path d="M359.92,419.77a27.51,27.51,0,0,1-1.07-4.19,44.09,44.09,0,0,1-.45-11.78,78.43,78.43,0,0,1,3.72-17.08c2-6.28,4.72-13,7.05-20.21a92.94,92.94,0,0,0,2.8-10.7,94.09,94.09,0,0,0,1.38-10.2,148.35,148.35,0,0,0,.31-17.45c-.16-5-.43-9-.59-11.76-.08-1.37-.15-2.44-.19-3.2,0-.35,0-.63,0-.84a1,1,0,0,1,0-.28,1.18,1.18,0,0,1,0,.28c0,.21.05.48.09.83.06.76.15,1.83.27,3.19.21,2.78.53,6.8.73,11.77a145,145,0,0,1-.21,17.49,95.36,95.36,0,0,1-1.37,10.26,91.61,91.61,0,0,1-2.81,10.74c-2.33,7.24-5.06,13.95-7.07,20.2a78.93,78.93,0,0,0-3.8,17,45.2,45.2,0,0,0,.31,11.72c.24,1.37.46,2.42.65,3.13.08.34.15.6.2.81A1.17,1.17,0,0,1,359.92,419.77Z" style="fill:#263238"/><polygon points="390.39 417.3 332.19 417.3 330.86 406.1 390.39 406.1 390.39 417.3" style="fill:#455a64"/><polygon points="338.43 416.03 345.71 449.64 377.34 449.64 384.15 416.03 338.43 416.03" style="fill:#455a64"/><path d="M390.39,417.3c0,.16-12.8.24-28.58.2s-28.58-.2-28.58-.36,12.8-.24,28.58-.19S390.39,417.15,390.39,417.3Z" style="fill:#455a64"/><path d="M381,431.66a27.84,27.84,0,0,0-5.26-3.1,19.41,19.41,0,0,0-6.39-1.53,20.42,20.42,0,0,0-7.91,1.39,72.11,72.11,0,0,1-7.81,2.55,19.68,19.68,0,0,1-6.73,0,15.11,15.11,0,0,1-4.33-1.37,7.82,7.82,0,0,1-1.05-.65c-.23-.17-.34-.26-.33-.28s.51.3,1.47.74a16.69,16.69,0,0,0,4.3,1.17,20.33,20.33,0,0,0,6.57-.12,78.62,78.62,0,0,0,7.73-2.58,20.66,20.66,0,0,1,8.12-1.37,19.06,19.06,0,0,1,6.51,1.68,19.35,19.35,0,0,1,3.89,2.34,10.67,10.67,0,0,1,.93.81A1.52,1.52,0,0,1,381,431.66Z" style="fill:#fff"/><path d="M390.91,417.35c0,.15-13.1.28-29.24.28s-29.25-.13-29.25-.28,13.09-.28,29.25-.28S390.91,417.2,390.91,417.35Z" style="fill:#263238"/></g></g></svg>