<svg xmlns="http://www.w3.org/2000/svg" xmlns:xlink="http://www.w3.org/1999/xlink" viewBox="0 0 626.51 530.29"><defs><linearGradient id="Безымянный_градиент_263" y1="265.15" x2="626.51" y2="265.15" gradientUnits="userSpaceOnUse"><stop offset="0" stop-color="#f0f2f5"/><stop offset="0.99" stop-color="#f5f7f8"/></linearGradient><linearGradient id="Безымянный_градиент_5" x1="88.15" y1="428.14" x2="68.86" y2="281.78" gradientUnits="userSpaceOnUse"><stop offset="0" stop-color="#1f1844"/><stop offset="0.99" stop-color="#3d3c99"/></linearGradient><linearGradient id="Безымянный_градиент_10" x1="87.18" y1="424.37" x2="70.21" y2="295.63" gradientUnits="userSpaceOnUse"><stop offset="0" stop-color="#3f3d9e"/><stop offset="0.99" stop-color="#423e9f"/></linearGradient><linearGradient id="Безымянный_градиент_17" x1="97.07" y1="374.3" x2="168.63" y2="357.86" gradientUnits="userSpaceOnUse"><stop offset="0.01" stop-color="#bbc0d9"/><stop offset="1" stop-color="#d6dbf8"/></linearGradient><linearGradient id="Безымянный_градиент_164" x1="141.7" y1="930.23" x2="196.47" y2="940.25" gradientTransform="translate(-204.15 -503.48) rotate(-10.18)" gradientUnits="userSpaceOnUse"><stop offset="0" stop-color="#bac6d8"/><stop offset="0.99" stop-color="#d6dbf8"/></linearGradient><linearGradient id="Безымянный_градиент_5-2" x1="86.79" y1="377.3" x2="64.84" y2="355.74" xlink:href="#Безымянный_градиент_5"/><linearGradient id="Безымянный_градиент_5-3" x1="86.09" y1="395.42" x2="60.55" y2="386.53" xlink:href="#Безымянный_градиент_5"/><linearGradient id="Безымянный_градиент_5-4" x1="88" y1="377.25" x2="111.22" y2="358.97" xlink:href="#Безымянный_градиент_5"/><linearGradient id="Безымянный_градиент_5-5" x1="86.3" y1="395.46" x2="108.85" y2="384.66" xlink:href="#Безымянный_градиент_5"/><linearGradient id="Безымянный_градиент_5-6" x1="90.33" y1="412.42" x2="60.31" y2="408.83" xlink:href="#Безымянный_градиент_5"/><linearGradient id="Безымянный_градиент_5-7" x1="87" y1="414.53" x2="107.5" y2="402" xlink:href="#Безымянный_градиент_5"/><linearGradient id="Безымянный_градиент_18" x1="94.69" y1="329.97" x2="87.67" y2="358.66" gradientUnits="userSpaceOnUse"><stop offset="0.01" stop-color="#3d3c99"/><stop offset="1" stop-color="#1f1844"/></linearGradient><linearGradient id="Безымянный_градиент_33" x1="-571.95" y1="2873.9" x2="-562.69" y2="2873.9" gradientTransform="translate(-1570.93 -2055.66) rotate(-45.37)" gradientUnits="userSpaceOnUse"><stop offset="0" stop-color="#e0e4eb"/><stop offset="0.99" stop-color="#f3f6fd"/></linearGradient><linearGradient id="Безымянный_градиент_33-2" x1="-1808.58" y1="3961.1" x2="-1799.22" y2="3961.1" gradientTransform="translate(-3147.91 -2535.31) rotate(-72.22)" xlink:href="#Безымянный_градиент_33"/><linearGradient id="Безымянный_градиент_33-3" x1="-1561.92" y1="-2046.79" x2="-1552.64" y2="-2046.79" gradientTransform="matrix(0.63, 0.78, -0.78, 0.63, -510.45, 2863.22)" xlink:href="#Безымянный_градиент_33"/><linearGradient id="Безымянный_градиент_17-2" x1="99.78" y1="394.5" x2="109.45" y2="384.57" xlink:href="#Безымянный_градиент_17"/><linearGradient id="Безымянный_градиент_33-4" x1="-2032.86" y1="-2619.33" x2="-2023.35" y2="-2619.33" gradientTransform="matrix(0.5, 0.87, -0.77, 0.45, -902.65, 3309.09)" xlink:href="#Безымянный_градиент_33"/><linearGradient id="Безымянный_градиент_33-5" x1="121.12" y1="1127.41" x2="134.78" y2="1127.41" gradientTransform="translate(-293.76 -676.21) rotate(-13.38)" xlink:href="#Безымянный_градиент_33"/><linearGradient id="Безымянный_градиент_33-6" x1="-2577.88" y1="4237.37" x2="-2568.16" y2="4237.37" gradientTransform="matrix(0.04, -0.93, 1, 0.04, -4077.97, -2165.02)" xlink:href="#Безымянный_градиент_33"/><linearGradient id="Безымянный_градиент_17-3" x1="100" y1="410.07" x2="109.65" y2="399.37" xlink:href="#Безымянный_градиент_17"/><linearGradient id="Безымянный_градиент_33-7" x1="-2530.95" y1="-3206.35" x2="-2520.43" y2="-3206.35" gradientTransform="matrix(0.35, 0.94, -0.74, 0.28, -1399.69, 3652.39)" xlink:href="#Безымянный_градиент_33"/><linearGradient id="Безымянный_градиент_11" x1="96.19" y1="329.56" x2="89.18" y2="358.25" gradientUnits="userSpaceOnUse"><stop offset="0" stop-color="#e6eaf1"/><stop offset="0.99" stop-color="#f3f6fd"/></linearGradient><linearGradient id="Безымянный_градиент_16" x1="67.51" y1="455.45" x2="120.97" y2="443.16" gradientUnits="userSpaceOnUse"><stop offset="0.11" stop-color="#8988d5"/><stop offset="0.56" stop-color="#9d9ce8"/><stop offset="1" stop-color="#a7a5ee"/></linearGradient><linearGradient id="Безымянный_градиент_139" x1="-6112.61" y1="-448.41" x2="-6068.93" y2="-448.41" gradientTransform="matrix(-0.99, -0.17, -0.17, 0.99, -5819.07, -482.97)" gradientUnits="userSpaceOnUse"><stop offset="0" stop-color="#201f4f"/><stop offset="0.26" stop-color="#27275a"/><stop offset="0.72" stop-color="#393c76"/><stop offset="1" stop-color="#464b8b"/></linearGradient><linearGradient id="Безымянный_градиент_139-2" x1="-6106.07" y1="-447.28" x2="-6062.39" y2="-447.28" xlink:href="#Безымянный_градиент_139"/><linearGradient id="Безымянный_градиент_139-3" x1="-6120.29" y1="-452.14" x2="-6076.61" y2="-452.14" xlink:href="#Безымянный_градиент_139"/><linearGradient id="Безымянный_градиент_29" x1="237.59" y1="146.51" x2="248.83" y2="84.96" gradientUnits="userSpaceOnUse"><stop offset="0.28" stop-color="#201f4f"/><stop offset="1" stop-color="#201f4f"/></linearGradient><linearGradient id="Безымянный_градиент_29-2" x1="198.42" y1="107.22" x2="260.27" y2="78.59" xlink:href="#Безымянный_градиент_29"/><linearGradient id="Безымянный_градиент_48" x1="-7613.89" y1="1141.05" x2="-7635.55" y2="1162.31" gradientTransform="matrix(-0.98, 0.21, 0.21, 0.98, -7454.61, 630.53)" gradientUnits="userSpaceOnUse"><stop offset="0" stop-color="#a04400"/><stop offset="1" stop-color="#753200"/></linearGradient><linearGradient id="Безымянный_градиент_157" x1="274.01" y1="145.37" x2="217.35" y2="132.75" gradientUnits="userSpaceOnUse"><stop offset="0" stop-color="#a96e46"/><stop offset="1" stop-color="#ffd0b9"/></linearGradient><linearGradient id="Безымянный_градиент_162" x1="223.89" y1="125.76" x2="249.39" y2="139.93" gradientUnits="userSpaceOnUse"><stop offset="0" stop-color="#a96e46"/><stop offset="1" stop-color="#ffd0b9" stop-opacity="0"/></linearGradient><linearGradient id="Безымянный_градиент_157-2" x1="-7613.94" y1="1125.92" x2="-7616.73" y2="1128.67" gradientTransform="matrix(-0.98, 0.21, 0.21, 0.98, -7454.61, 630.53)" xlink:href="#Безымянный_градиент_157"/><linearGradient id="Безымянный_градиент_30" x1="236.2" y1="91.34" x2="272.06" y2="91.34" gradientUnits="userSpaceOnUse"><stop offset="0" stop-color="#ffd0b9" stop-opacity="0"/><stop offset="1" stop-color="#a96e46"/></linearGradient><linearGradient id="Безымянный_градиент_139-4" x1="201.12" y1="102.04" x2="244.8" y2="102.04" gradientTransform="matrix(1, 0, 0, 1, 0, 0)" xlink:href="#Безымянный_градиент_139"/><linearGradient id="Безымянный_градиент_139-5" x1="206.83" y1="108.67" x2="254.25" y2="108.67" gradientTransform="matrix(1, 0, 0, 1, 0, 0)" xlink:href="#Безымянный_градиент_139"/><linearGradient id="Безымянный_градиент_139-6" x1="194.09" y1="104.02" x2="237.78" y2="104.02" gradientTransform="matrix(1, 0, 0, 1, 0, 0)" xlink:href="#Безымянный_градиент_139"/><linearGradient id="Безымянный_градиент_139-7" x1="131.62" y1="-176.6" x2="175.63" y2="-176.6" gradientTransform="translate(45.73 261.53) rotate(4.85)" xlink:href="#Безымянный_градиент_139"/><linearGradient id="Безымянный_градиент_139-8" x1="205.06" y1="101.57" x2="253.08" y2="101.57" gradientTransform="matrix(1, 0, 0, 1, 0, 0)" xlink:href="#Безымянный_градиент_139"/><linearGradient id="Безымянный_градиент_139-9" x1="212.59" y1="106.85" x2="243.93" y2="106.85" gradientTransform="matrix(1, 0, 0, 1, 0, 0)" xlink:href="#Безымянный_градиент_139"/><linearGradient id="Безымянный_градиент_139-10" x1="218.3" y1="108.43" x2="260.63" y2="108.43" gradientTransform="matrix(1, 0, 0, 1, 0, 0)" xlink:href="#Безымянный_градиент_139"/><linearGradient id="Безымянный_градиент_39" x1="241.99" y1="99.57" x2="281.87" y2="99.57" gradientUnits="userSpaceOnUse"><stop offset="0" stop-color="#464b8b"/><stop offset="0.28" stop-color="#393c76"/><stop offset="0.74" stop-color="#27275a"/><stop offset="1" stop-color="#201f4f"/></linearGradient><linearGradient id="Безымянный_градиент_39-2" x1="285.98" y1="353.94" x2="321.96" y2="353.94" gradientTransform="matrix(1, -0.08, 0.08, 1, -61.44, -232.07)" xlink:href="#Безымянный_градиент_39"/><linearGradient id="Безымянный_градиент_39-3" x1="-3363.85" y1="2229.08" x2="-3324.84" y2="2229.08" gradientTransform="matrix(-0.82, -0.57, 0.57, -0.82, -3795.4, 8.39)" xlink:href="#Безымянный_градиент_39"/><linearGradient id="Безымянный_градиент_39-4" x1="-3237.91" y1="2317.24" x2="-3197.09" y2="2317.24" gradientTransform="matrix(-0.78, -0.62, 0.62, -0.78, -3749.97, -98.71)" xlink:href="#Безымянный_градиент_39"/><linearGradient id="Безымянный_градиент_20" x1="-3318.51" y1="2223.31" x2="-3287.94" y2="2223.31" gradientTransform="translate(-3771.85 32.31) rotate(-145.12)" gradientUnits="userSpaceOnUse"><stop offset="0" stop-color="#464b8b"/><stop offset="0.3" stop-color="#3d417d"/><stop offset="0.88" stop-color="#252558"/><stop offset="1" stop-color="#201f4f"/></linearGradient><linearGradient id="Безымянный_градиент_39-5" x1="276.56" y1="663.79" x2="312.81" y2="663.79" gradientTransform="matrix(0.98, -0.2, -0.2, -0.98, 114.55, 815.54)" xlink:href="#Безымянный_градиент_39"/><linearGradient id="Безымянный_градиент_39-6" x1="352.48" y1="550.64" x2="391.7" y2="550.64" gradientTransform="matrix(0.95, -0.25, -0.25, -0.95, 59.06, 700.92)" xlink:href="#Безымянный_градиент_39"/><linearGradient id="Безымянный_градиент_20-2" x1="310.98" y1="670.07" x2="348.49" y2="670.07" gradientTransform="matrix(0.98, -0.19, -0.19, -0.98, 83.36, 827.95)" xlink:href="#Безымянный_градиент_20"/><linearGradient id="Безымянный_градиент_163" x1="214.64" y1="475.62" x2="212" y2="438.97" gradientUnits="userSpaceOnUse"><stop offset="0" stop-color="#ffd0b9"/><stop offset="1" stop-color="#a96e46"/></linearGradient><linearGradient id="Безымянный_градиент_9" x1="202.33" y1="459.02" x2="206.02" y2="459.02" gradientUnits="userSpaceOnUse"><stop offset="0.05" stop-color="#f7e5e3"/><stop offset="1" stop-color="#f7d6d2"/></linearGradient><linearGradient id="Безымянный_градиент_157-3" x1="263.6" y1="437.21" x2="269.75" y2="477.37" xlink:href="#Безымянный_градиент_157"/><linearGradient id="Безымянный_градиент_7" x1="271.03" y1="489.37" x2="269.28" y2="469.12" xlink:href="#Безымянный_градиент_9"/><linearGradient id="Безымянный_градиент_9-2" x1="254.22" y1="464.37" x2="258.74" y2="464.37" xlink:href="#Безымянный_градиент_9"/><linearGradient id="Безымянный_градиент_9-3" x1="175.88" y1="336.53" x2="293.74" y2="336.53" xlink:href="#Безымянный_градиент_9"/><linearGradient id="Безымянный_градиент_157-4" x1="222.19" y1="229.71" x2="271.31" y2="229.71" xlink:href="#Безымянный_градиент_157"/><linearGradient id="Безымянный_градиент_157-5" x1="309.7" y1="193.28" x2="416.85" y2="193.28" xlink:href="#Безымянный_градиент_157"/><linearGradient id="Безымянный_градиент_157-6" x1="192.79" y1="266.53" x2="219.65" y2="266.53" xlink:href="#Безымянный_градиент_157"/><linearGradient id="Безымянный_градиент_12" x1="246.04" y1="246.64" x2="247.04" y2="240.47" gradientUnits="userSpaceOnUse"><stop offset="0" stop-color="#f7e5e3"/><stop offset="1" stop-color="#d4aca7"/></linearGradient><linearGradient id="Безымянный_градиент_9-4" x1="229.87" y1="244.68" x2="231.71" y2="239.84" xlink:href="#Безымянный_градиент_9"/><linearGradient id="Безымянный_градиент_9-5" x1="264.95" y1="243.91" x2="269.08" y2="243.91" xlink:href="#Безымянный_градиент_9"/><linearGradient id="Безымянный_градиент_12-2" x1="212.91" y1="274.61" x2="224.33" y2="274.61" xlink:href="#Безымянный_градиент_12"/><linearGradient id="Безымянный_градиент_28" x1="243.66" y1="74.52" x2="259.85" y2="74.52" gradientUnits="userSpaceOnUse"><stop offset="0" stop-color="#363972"/><stop offset="0.37" stop-color="#3d417d"/><stop offset="1" stop-color="#464b8b"/></linearGradient></defs><title>Recurso 2</title><g id="Capa_2" data-name="Capa 2"><g id="_18" data-name="18"><path d="M605.11,277.63C550.09,165.16,392.74.43,188.27,0c-213.36-.44-234,211.17-119,270S16.12,402.13,136.33,475.8C258,550.36,518,543.36,582,485.36S628.88,326.22,605.11,277.63Z" style="fill:url(#Безымянный_градиент_263)"/><path d="M88.37,429.18s21.23-23.63,19-32.95,10.92-20.62,11.17-34.19c.3-15.36-7.91-11.26-10.75-17.83-4.21-9.73,5.16-18.36-9-22.09-9.68-2.54-16.49,2.42-15.6-9.55S79.71,285.78,72,280.4c-11.07-7.68-33.61-8.28-26,7.2,8,16.28,1,43.09-.91,50.43C25.37,415.62,88.37,429.18,88.37,429.18Z" style="fill:url(#Безымянный_градиент_5)"/><path d="M64.68,296.37c2.43,20,27.55,52,16.17,73.43s5.87,54.5,5.87,54.5" style="fill:none;stroke-miterlimit:10;stroke-width:0.729298367679554px;stroke:url(#Безымянный_градиент_10)"/><path d="M152.7,384.43c-13.79,4.87,1.14,22.71-13.94,30.74s-34.4,12.11-35.29,8.21c-.06-.26-.87-2.85-1.73-6.63-.2-.87-.39-1.81-.59-2.8-.05-.28-.1-.56-.16-.84A76.87,76.87,0,0,1,99.85,404a2.62,2.62,0,0,0,0-.28c-.07-1.22-.1-2.45-.07-3.67s.08-2.34.21-3.48c.45-4.34,1.69-8.34,4.23-11.21a11.52,11.52,0,0,1,2.2-2c10.48-7.29,14.66-3.75,14.58-14.52-.14-18.46,5.12-21.22,11.31-19.39s11,2.33,11.92-4.49-4.68-37.23,9.37-37.17c24.34.07,12,31.14,9.57,36.18-5.89,12.08,6.37,14,9.29,22.78S166.48,379.56,152.7,384.43Z" style="fill:url(#Безымянный_градиент_17)"/><path d="M100.77,449.9s-3.7-34,22.19-53c11.7-8.61,33.44-39.32,31.47-72.54" style="fill:none;stroke-miterlimit:10;stroke-width:2.09818932049865px;stroke:url(#Безымянный_градиент_164)"/><path d="M64.47,355.41c3.22-5.46,26.34,17,22.29,22S61.4,360.6,64.47,355.41Z" style="fill:url(#Безымянный_градиент_5-2)"/><path d="M58.63,386.09c.47-6.35,28.38,2.78,26.95,9.05S58.19,392.14,58.63,386.09Z" style="fill:url(#Безымянный_градиент_5-3)"/><path d="M111.33,358.05c4.94,3.88-19.47,24.9-23.82,20.24S106.62,354.36,111.33,358.05Z" style="fill:url(#Безымянный_градиент_5-4)"/><path d="M108.77,384.54c4.15,4.7-19.41,16.51-23,11.18S104.81,380.07,108.77,384.54Z" style="fill:url(#Безымянный_градиент_5-5)"/><path d="M60.49,408.92c-1.22-5.83,29.55-2.47,29.81,3.53S61.65,414.47,60.49,408.92Z" style="fill:url(#Безымянный_градиент_5-6)"/><path d="M107.27,402.13c3.19,5.39-18.86,18.86-21.42,13S104.23,397,107.27,402.13Z" style="fill:url(#Безымянный_градиент_5-7)"/><path d="M95.11,329.18c6.21.45-1.83,31.74-8,30.3S89.19,328.75,95.11,329.18Z" style="fill:url(#Безымянный_градиент_18)"/><path d="M66.8,353.92c3.22-5.45,26.34,17,22.29,22S63.74,359.12,66.8,353.92Z" style="fill:url(#Безымянный_градиент_33)"/><path d="M60.49,384.79c.46-6.36,28.38,2.77,26.95,9S60.05,390.84,60.49,384.79Z" style="fill:url(#Безымянный_градиент_33-2)"/><path d="M112.27,356.66c4.94,3.87-19.47,24.89-23.82,20.23S107.56,353,112.27,356.66Z" style="fill:url(#Безымянный_градиент_33-3)"/><path d="M100.5,395.34c.43-4.26,1.62-8.19,4.06-11,3-.58,5.42-.47,6.5.75C113.37,387.69,107.11,392.5,100.5,395.34Z" style="fill:url(#Безымянный_градиент_17-2)"/><path d="M109.94,383.54c4.15,4.7-19.42,16.51-23,11.19S106,379.07,109.94,383.54Z" style="fill:url(#Безымянный_градиент_33-4)"/><path d="M88.81,352.1s.71,16.25-1.45,30.45,3.28,38.2,12.12,45.87" style="fill:none;stroke-miterlimit:10;stroke-width:1.22114954995555px;stroke:url(#Безымянный_градиент_33-5)"/><path d="M60.49,407.81C59.27,402,90,405.33,90.3,411.33S61.65,413.36,60.49,407.81Z" style="fill:url(#Безымянный_градиент_33-6)"/><path d="M101.62,412.43l-.15-.83a78.67,78.67,0,0,1-1.1-9,2.62,2.62,0,0,0,0-.28c5-2.78,10.39-4.18,11.8-1.77C114,403.61,107.81,409.17,101.62,412.43Z" style="fill:url(#Безымянный_градиент_17-3)"/><path d="M111,398.28c3.18,5.39-18.86,18.86-21.43,13S108,393.14,111,398.28Z" style="fill:url(#Безымянный_градиент_33-7)"/><path d="M96.61,328.76c6.22.46-1.82,31.75-8,30.31S90.7,328.33,96.61,328.76Z" style="fill:url(#Безымянный_градиент_11)"/><path d="M102,478.93H82.82A17.24,17.24,0,0,1,65.75,464L61,428.81A4,4,0,0,1,65,424.3h54.87a4,4,0,0,1,3.94,4.51L119,464A17.22,17.22,0,0,1,102,478.93Z" style="fill:url(#Безымянный_градиент_16)"/><rect x="318.52" y="33.64" width="214.33" height="443.86" rx="16.49" style="fill:#1f1844"/><rect x="331.11" y="51.86" width="189.14" height="407.42" rx="12.18" style="fill:#737cbd"/><path d="M379.8,45.44h91.77a0,0,0,0,1,0,0v0a19.19,19.19,0,0,1-19.19,19.19H399A19.19,19.19,0,0,1,379.8,45.44v0A0,0,0,0,1,379.8,45.44Z" style="fill:#1f1844"/><rect x="454.46" y="75.69" width="53.58" height="16.88" rx="4.2" style="fill:#f0eff3"/><rect x="345.6" y="108.42" width="63.18" height="18.01" rx="4.2" style="fill:#f0eff3"/><rect x="350.79" y="80.91" width="52.78" height="6.44" rx="3.22" style="fill:#f0eff3"/><rect x="350.91" y="137.06" width="149.55" height="225.42" rx="7.07" style="fill:#f0eff3"/><rect x="350.91" y="383.27" width="149.55" height="39.89" rx="7.07" style="fill:#f0eff3"/><circle cx="425.68" cy="209.35" r="54.78" style="fill:none;stroke:#fff;stroke-miterlimit:10;stroke-width:5.99807322025299px"/><rect x="365.69" y="280.36" width="119.99" height="29.19" rx="7.41" style="fill:#fff"/><rect x="365.69" y="321.55" width="119.99" height="29.19" rx="7.41" style="fill:#fff"/><path d="M246.1,72.29l5.7-1.17a1.42,1.42,0,0,1,1.57.77l2,4.12a1.4,1.4,0,0,0,1,.77l3.18.55a1.44,1.44,0,0,1,1.19,1.51l-.24,3.78a1.44,1.44,0,0,0,1.18,1.51l2.88.49a1.43,1.43,0,0,1,1.19,1.49l-.16,3.11a1.45,1.45,0,0,0,.68,1.29l3.46,2.14a1.43,1.43,0,0,1,.32,2.16l-2.21,2.53a1.42,1.42,0,0,0,.25,2.11l3.94,2.79a1.43,1.43,0,0,1,.41,1.9l-1.7,2.91a1.43,1.43,0,0,0,.14,1.65l2,2.43a1.44,1.44,0,0,1-.29,2.11l-2.16,1.46a1.44,1.44,0,0,0-.36,2l3.37,4.66a1.43,1.43,0,0,1-.09,1.8l-2.07,2.29a1.44,1.44,0,0,0-.06,1.85l3.18,4a1.43,1.43,0,0,1,0,1.8l-3,3.64a1.43,1.43,0,0,0-.07,1.75l1.68,2.35a1.41,1.41,0,0,1,.08,1.54L271.73,145c-.11.19.14.63.17,1.22a7,7,0,0,1,0,1.13" style="fill:none;stroke-linecap:round;stroke-miterlimit:10;stroke-width:5px;stroke:url(#Безымянный_градиент_139)"/><path d="M239.46,72.29l5.7-1.17a1.42,1.42,0,0,1,1.57.77L248.78,76a1.4,1.4,0,0,0,1,.77l3.19.55a1.44,1.44,0,0,1,1.18,1.51L254,82.62a1.44,1.44,0,0,0,1.19,1.51l2.87.49a1.43,1.43,0,0,1,1.19,1.49l-.15,3.11a1.41,1.41,0,0,0,.68,1.29l3.45,2.14a1.43,1.43,0,0,1,.32,2.16l-2.21,2.53a1.43,1.43,0,0,0,.25,2.11l3.94,2.79a1.43,1.43,0,0,1,.41,1.9l-1.7,2.91a1.43,1.43,0,0,0,.14,1.65l2.05,2.43a1.44,1.44,0,0,1-.29,2.11l-2.16,1.46a1.44,1.44,0,0,0-.36,2l3.38,4.66a1.45,1.45,0,0,1-.1,1.8l-2.07,2.29a1.45,1.45,0,0,0-.06,1.85l3.18,4a1.43,1.43,0,0,1,0,1.8l-3,3.64a1.43,1.43,0,0,0-.06,1.75l1.67,2.35a1.41,1.41,0,0,1,.08,1.54L265.09,145c-.11.19.15.63.17,1.22a8.43,8.43,0,0,1,0,1.13" style="fill:none;stroke-linecap:round;stroke-miterlimit:10;stroke-width:5px;stroke:url(#Безымянный_градиент_139-2)"/><path d="M254.31,69.91,260,68.74a1.44,1.44,0,0,1,1.58.77l2,4.12a1.44,1.44,0,0,0,1,.77l3.19.55A1.44,1.44,0,0,1,269,76.46l-.24,3.78a1.42,1.42,0,0,0,1.19,1.5l2.87.5A1.43,1.43,0,0,1,274,83.73l-.15,3.11a1.41,1.41,0,0,0,.68,1.29L278,90.27a1.43,1.43,0,0,1,.32,2.16L276.13,95a1.43,1.43,0,0,0,.25,2.11l3.94,2.79a1.43,1.43,0,0,1,.41,1.9l-1.7,2.9a1.45,1.45,0,0,0,.14,1.65l2.05,2.44a1.44,1.44,0,0,1-.29,2.11l-2.16,1.46a1.43,1.43,0,0,0-.35,2l3.37,4.66a1.45,1.45,0,0,1-.1,1.8l-2.06,2.29a1.43,1.43,0,0,0-.06,1.85l3.17,4a1.43,1.43,0,0,1,0,1.8l-3,3.64a1.43,1.43,0,0,0-.06,1.75l1.67,2.34a1.45,1.45,0,0,1,.09,1.55l-1.47,2.59c-.11.18.15.63.17,1.22a8.43,8.43,0,0,1,0,1.13" style="fill:none;stroke-linecap:round;stroke-miterlimit:10;stroke-width:5px;stroke:url(#Безымянный_градиент_139-3)"/><path d="M266.62,85.2c-19.27-16.86-49.9-7.44-54.71,14.23-1,4.37-1.67,11.18-2,18.68a32,32,0,0,0,37.06,33c5.34-.88,9.61-1.25,11.32-.62C280.6,135.24,283.09,100.92,266.62,85.2Z" style="fill:url(#Безымянный_градиент_29)"/><path d="M272.47,93.9c-.11,1.16-.25,2.32-.41,3.45-1.54-5.91-11.62-12.6-23-11.56,0,0,0,1.38-2.16,1.77s-3.09-2.3-3.58,0S242.81,93,240.19,93s-4.31,1.67-4.54,3.34,4.2,7.68,2,9.15c-2.55,1.69-4.39,8-4.39,8s-2-14.65-9.87-6.07c-.55,1.57-1,3.16-1.42,4.74a5.53,5.53,0,0,1,1.49-5.22,5,5,0,0,1,1.2-.8,40.89,40.89,0,0,1-1.91-12c0-2.25-5.09-10.53-4.49-12.85,3.12-12,24.12-19.3,34.28-18.6S273.44,82.61,272.47,93.9Z" style="fill:url(#Безымянный_градиент_29-2)"/><path d="M228.22,127.21a35.29,35.29,0,0,0,25.31,15.26l-.07-1.36-.08-1.67c-7.26-2.14-15.94-7.16-26.06-17.69.07.09.15.17.22.25a33.71,33.71,0,0,1,.62,4.51C228.18,126.73,228.2,127,228.22,127.21Z" style="fill:url(#Безымянный_градиент_48)"/><path d="M273,123.47c-2.27,9.88-11.43,14.38-17.36,15.64-.57.11-1.11.2-1.61.25a5.69,5.69,0,0,1-.68.08l.08,1.67.15,2.13.13,1.89,8.09,53.72a2.49,2.49,0,0,1-3.84,2.62c-8.47-5.91-27.3-50.18-27.47-53.17,0,0-.87-4.55-2.07-18.38-.07-.87-.14-1.77-.22-2.71,0-.24,0-.47-.07-.7,0-.46-.1-1-.17-1.59a20.74,20.74,0,0,0-.45-2.92,1.64,1.64,0,0,1-.21-.25c-3.32-3.74-5-7-5.38-9.64.22-.91.48-1.83.76-2.73a7,7,0,0,1,2.94-4c2.82-1.75,4.35-1.22,5.18-.17a.92.92,0,0,0,1.63-.34,44,44,0,0,1,3.74-10.2c2.73-5.13,7-10.07,13.72-11.41,1.22-.24,11.89-1.65,15.06.57,2.38,1.67,5.95,8.11,7.08,13.5h0c-.13.92-.27,1.82-.4,2.71a29.1,29.1,0,0,0-.35,6.52C271.66,110.56,274.63,116.58,273,123.47Z" style="fill:url(#Безымянный_градиент_157)"/><path d="M253.46,141.11s-16.72-2-25-11.2c-.07-.86-.14-1.76-.22-2.7,0-.24,0-.47-.07-.7,0-.46-.1-1-.17-1.59,10.15,8.2,18.78,12.47,26.07,14.44a5.69,5.69,0,0,1-.68.08Z" style="fill:url(#Безымянный_градиент_162)"/><path d="M228.67,110.61s-2.35-2.78-3.69-.43,1.3,6,1.3,6Z" style="fill:url(#Безымянный_градиент_157-2)"/><path d="M272.06,97.35h0c-.13.92-.27,1.82-.4,2.71-2-3.23-7.25-10.6-13.53-11.59-5.67-.88-14.43,2.23-21.93,6.21,2.73-5.13,7-10.07,13.72-11.41,1.22-.24,11.89-1.65,15.06.57C267.36,85.52,270.93,92,272.06,97.35Z" style="fill:url(#Безымянный_градиент_30)"/><path d="M242.3,65l-5.41-2.13a1.42,1.42,0,0,0-1.68.49L232.49,67a1.44,1.44,0,0,1-1.16.59H228.1a1.43,1.43,0,0,0-1.42,1.29l-.4,3.76A1.45,1.45,0,0,1,224.85,74h-2.92a1.43,1.43,0,0,0-1.42,1.26l-.38,3.09a1.42,1.42,0,0,1-.89,1.16L215.48,81a1.43,1.43,0,0,0-.69,2.08l1.75,2.86a1.44,1.44,0,0,1-.6,2l-4.36,2.08a1.43,1.43,0,0,0-.73,1.79L212,95a1.44,1.44,0,0,1-.42,1.6l-2.43,2.05a1.42,1.42,0,0,0-.07,2.13l1.87,1.81a1.43,1.43,0,0,1,0,2.06l-4.11,4a1.43,1.43,0,0,0-.21,1.79l1.64,2.6a1.43,1.43,0,0,1-.25,1.84l-3.81,3.43a1.42,1.42,0,0,0-.29,1.78l2.36,4.09a1.44,1.44,0,0,1-.24,1.74L204,128a1.44,1.44,0,0,0-.34,1.5l1,2.81a2.07,2.07,0,0,1-.38,1.17,3.49,3.49,0,0,0,1.06,4.5l.17,3.4" style="fill:none;stroke-linecap:round;stroke-miterlimit:10;stroke-width:5px;stroke:url(#Безымянный_градиент_139-4)"/><path d="M251.75,72.7l-9.15-3.25a1.43,1.43,0,0,0-1.68.49l-2.72,3.72a1.45,1.45,0,0,1-1.16.58h-3.23a1.43,1.43,0,0,0-1.42,1.29l-.4,3.76a1.45,1.45,0,0,1-1.43,1.29h-2.92a1.43,1.43,0,0,0-1.42,1.26l-.38,3.09a1.42,1.42,0,0,1-.89,1.16l-3.76,1.52a1.43,1.43,0,0,0-.69,2.08l1.75,2.86a1.44,1.44,0,0,1-.6,2l-4.36,2.08a1.44,1.44,0,0,0-.73,1.8l1.19,3.15a1.44,1.44,0,0,1-.42,1.6l-2.43,2a1.42,1.42,0,0,0-.07,2.13l1.87,1.81a1.43,1.43,0,0,1,0,2.06l-4.11,4a1.43,1.43,0,0,0-.21,1.79l1.64,2.6a1.43,1.43,0,0,1-.25,1.84L210,125a1.42,1.42,0,0,0-.29,1.78l2.36,4.1a1.43,1.43,0,0,1-.24,1.73l-2.05,2a1.44,1.44,0,0,0-.34,1.5l1,2.81a2.07,2.07,0,0,1-.38,1.17,3.49,3.49,0,0,0,1.06,4.5l.17,3.4" style="fill:none;stroke-linecap:round;stroke-miterlimit:10;stroke-width:5px;stroke:url(#Безымянный_градиент_139-5)"/><path d="M235.28,69.18l-5.41-2.13a1.47,1.47,0,0,0-1.69.49l-2.71,3.72a1.43,1.43,0,0,1-1.16.58h-3.23a1.45,1.45,0,0,0-1.43,1.29l-.4,3.76a1.43,1.43,0,0,1-1.42,1.29h-2.92a1.44,1.44,0,0,0-1.43,1.26l-.37,3.09a1.42,1.42,0,0,1-.89,1.16l-3.77,1.52a1.43,1.43,0,0,0-.68,2.08l1.75,2.86a1.44,1.44,0,0,1-.61,2l-4.35,2.08a1.43,1.43,0,0,0-.73,1.8L205,99.23a1.41,1.41,0,0,1-.42,1.6l-2.43,2a1.44,1.44,0,0,0-.07,2.13l1.88,1.81a1.44,1.44,0,0,1,0,2.06l-4.11,4a1.43,1.43,0,0,0-.22,1.79l1.65,2.61a1.43,1.43,0,0,1-.25,1.83l-3.82,3.43a1.43,1.43,0,0,0-.28,1.78l2.36,4.1a1.44,1.44,0,0,1-.24,1.73l-2,2a1.43,1.43,0,0,0-.34,1.51l1,2.8c.08.2-.1.65-.37,1.17-.55,1,2.44,2.43,2.93,3.41" style="fill:none;stroke-linecap:round;stroke-miterlimit:10;stroke-width:5px;stroke:url(#Безымянный_градиент_139-6)"/><path d="M236.13,65.33l-5.21-2.58a1.43,1.43,0,0,0-1.72.35l-3,3.47a1.45,1.45,0,0,1-1.21.48l-3.21-.27a1.43,1.43,0,0,0-1.53,1.16l-.72,3.72A1.44,1.44,0,0,1,218,72.82l-2.91-.25a1.45,1.45,0,0,0-1.53,1.14l-.63,3.05a1.45,1.45,0,0,1-1,1.08L208.05,79a1.45,1.45,0,0,0-.87,2l1.51,3a1.43,1.43,0,0,1-.78,2l-4.52,1.71a1.44,1.44,0,0,0-.87,1.73l.91,3.24a1.43,1.43,0,0,1-.55,1.56l-2.6,1.84a1.44,1.44,0,0,0-.25,2.12l1.72,2a1.44,1.44,0,0,1-.17,2.06l-4.43,3.65a1.42,1.42,0,0,0-.36,1.77l1.41,2.74a1.43,1.43,0,0,1-.4,1.8l-4.09,3.1a1.44,1.44,0,0,0-.44,1.75l2,4.28a1.44,1.44,0,0,1-.38,1.71l-2.22,1.85a1.44,1.44,0,0,0-.47,1.47l.77,2.88c.05.2-.3.57-.48,1.13-.7,2.26-1.95,3.48-.93,3.65" style="fill:none;stroke-linecap:round;stroke-miterlimit:10;stroke-width:5px;stroke:url(#Безымянный_градиент_139-7)"/><path d="M213.08,137.7l.94-7.15c0-.21-3.26.75-3.45.65l-2.74-4.15a.48.48,0,0,1-.08-.82l6.78-5.35a.49.49,0,0,0,.1-.67l-2-2.85a.5.5,0,0,1,0-.57l3.65-5.05a.53.53,0,0,0,.06-.46l-1.8-4.92a.49.49,0,0,1,.15-.54l3-2.55a.49.49,0,0,0,.13-.56l-2.07-5a.49.49,0,0,1,.12-.54l3-2.93a.5.5,0,0,0,0-.69L217.43,92a.5.5,0,0,1,0-.72l3.75-3a.49.49,0,0,0,.11-.64l-1.68-2.75a.49.49,0,0,1,.42-.75h3.4a.49.49,0,0,0,.48-.41l.6-3.81a.49.49,0,0,1,.49-.41h4.25a.5.5,0,0,0,.49-.59l-.61-3.16a.49.49,0,0,1,.48-.59h4.41a.49.49,0,0,0,.49-.49V71.47a.49.49,0,0,1,.5-.49h3.47a.49.49,0,0,0,.49-.49V66.86c0-.27,4.27-1.42,4.54-1.42l7,3.27" style="fill:none;stroke-linecap:round;stroke-miterlimit:10;stroke-width:5px;stroke:url(#Безымянный_градиент_139-8)"/><path d="M241.43,71.24l-9,9.21a1.61,1.61,0,0,0-.14,2h0a1.6,1.6,0,0,1-.57,2.3l-2.95,1.58a1.6,1.6,0,0,0-.68,2.12c.34.68,2.52,4.09,2.48,4.33-.1.5-5.58,1.64-5.94,2.14-.22.32.22,2.18.58,3.51a1.59,1.59,0,0,1-1,1.91l-1.35.52a1.61,1.61,0,0,0-1,1.49v5.1a1.57,1.57,0,0,1-.25.87,19.39,19.39,0,0,1-2.52,3.27c-.79.66-.32,3.68-.09,4.87a1.52,1.52,0,0,1-.12.94l-1.25,2.8a1.62,1.62,0,0,0-.12.92l1.15,6.85a1.63,1.63,0,0,1-.24,1.14l-1.59,2.44a1.56,1.56,0,0,0-.2,1.31l1.54,5.48a1.6,1.6,0,0,1-.42,1.58l-2.64,2.6" style="fill:none;stroke-linecap:round;stroke-miterlimit:10;stroke-width:5px;stroke:url(#Безымянный_градиент_139-9)"/><path d="M220.8,142.93l2.65-2.6a1.63,1.63,0,0,0,.42-1.57l-1.55-5.49a1.64,1.64,0,0,1,.2-1.31l1.59-2.43a1.59,1.59,0,0,0,.24-1.14l-1.15-6.86a1.62,1.62,0,0,1,.12-.92l1.26-2.79a1.63,1.63,0,0,0,.11-.95c-.22-1.18-.7-4.2.1-4.87a18.82,18.82,0,0,0,2.51-3.27,1.55,1.55,0,0,0,.26-.86v-5.1a1.6,1.6,0,0,1,1-1.5l1.35-.52a1.62,1.62,0,0,0,1-1.92c-.33-1.31,2.13-1,2.36-1.26a10.47,10.47,0,0,0,2.95-4.35,49.59,49.59,0,0,0-2.43-4.35,1.6,1.6,0,0,1,.68-2.12l3-1.58a1.6,1.6,0,0,0,.58-2.3h0a1.6,1.6,0,0,1,.14-2l4.35-.5,2.15-3.48a3.59,3.59,0,0,1,2.27-.29,6.3,6.3,0,0,0,4.11-.43l3.57-1.8c.86.73-2.13,5.69-1,5.46l.51-.11a3.62,3.62,0,0,1,4,1.87l.1.18" style="fill:none;stroke-linecap:round;stroke-miterlimit:10;stroke-width:5px;stroke:url(#Безымянный_градиент_139-10)"/><path d="M244.49,64.77s6.1-2,8.61-1.72,6.47,4.33,6.75,5l.81,1.91a1.82,1.82,0,0,0,.94,1h0a1.77,1.77,0,0,1,1,1.33l-2.5,3.46c.15.86,3.69-.25,4.56-.25h.82a1.78,1.78,0,0,1,1.34.61c.91,1,2.67,3.08,2.59,3.43a4.62,4.62,0,0,1-1,1.17,1.77,1.77,0,0,0,.12,2.64,6,6,0,0,0,2.6,1.5c1.16,0,1.78,3.34,1.42,3.51-2.33,1.13,1.79,3,2.62,4.35a1.8,1.8,0,0,1,.19,1.5,9.35,9.35,0,0,0-.61,2.55c.1.26,1.66,2.82,2.57,4.32a1.77,1.77,0,0,1-.15,2.07l-2.18,2.59a1.79,1.79,0,0,0-.2,2l4.5,2.13c.19.35-2.37,2.1-2.44,2.49l-.81,4.69a1.66,1.66,0,0,0,.08.91l1.6,4.47a1.77,1.77,0,0,1-.1,1.44l-1.34,2.54a2,2,0,0,1-.33.44l-1.15,1.13a1.78,1.78,0,0,0,.24,2.75l.13,5.44" style="fill:none;stroke-linecap:round;stroke-miterlimit:10;stroke-width:5px;stroke:url(#Безымянный_градиент_39)"/><path d="M251.75,73.44l5.31-5.5.23-.2c.36-.37,1.65-1.64,2-1.24s1.47.1,2.47-.09a2.07,2.07,0,0,1,2.13.91l.72,1.14a2,2,0,0,0,.64.64l2.86,1.79A2.09,2.09,0,0,1,269,72l.87,2.62a2.09,2.09,0,0,0,.74,1l1.9,1.38a2.16,2.16,0,0,1,.41.39L274.14,79a2.07,2.07,0,0,1,.44,1.19l.06,1.68a2.06,2.06,0,0,0,1.69,1.94h0a2.05,2.05,0,0,1,1.6,2.62l-.24.78a2.05,2.05,0,0,0,.74,2.24l2.23,1.65a2,2,0,0,1,.72,2.31l-.14.42a2,2,0,0,0,.62,2.22L284.12,98a2,2,0,0,1,.31,2.81l-1.37,1.78a2.06,2.06,0,0,0,.36,2.86l.21.17a2.05,2.05,0,0,1,.73,2.11l-.62,2.46a2,2,0,0,0,.85,2.2l.45.31a2,2,0,0,1,.55,2.86l-2.14,3.12a2.07,2.07,0,0,0-.25,1.84l1.1,3.13a2.17,2.17,0,0,1,.07.24l.78,3.56" style="fill:none;stroke-linecap:round;stroke-miterlimit:10;stroke-width:5px;stroke:url(#Безымянный_градиент_39-2)"/><path d="M187,123.28l5.12-1.2a1.5,1.5,0,0,0,1-.78l1.89-3.64a1.5,1.5,0,0,1,1.93-.7l.64.27a1.51,1.51,0,0,0,2.07-1.68l-1.07-5.5a1.51,1.51,0,0,1,2-1.72l1.77.61a1.52,1.52,0,0,0,2-1.35l.22-4a1.49,1.49,0,0,1,1.88-1.37l1.06.27a1.5,1.5,0,0,0,1.83-1L211,95.24a1.51,1.51,0,0,1,1.81-1.06l2.07.51a1.51,1.51,0,0,0,1.84-1.2l1-5.53a1.51,1.51,0,0,1,2.35-1l3.42,2.39a1.49,1.49,0,0,0,1,.27c1.94-.16,8.28-.88,7.16-3-1-1.91,2.54,2.88,4.44,4a5.89,5.89,0,0,0,2.69-.38,4,4,0,0,0,2.75-2.74l.2-.69a6.09,6.09,0,0,1,1.68-2.68c1.32-1.27,2.38-3.21,4.27-3,1.38.13,3.62,2.33,4.88,1.76l5.73-2.24" style="fill:none;stroke-linecap:round;stroke-miterlimit:10;stroke-width:5px;stroke:url(#Безымянный_градиент_39-3)"/><path d="M179,114.31l.25-4.69a2.33,2.33,0,0,1,1.19-1.92l1.26-.71a2.36,2.36,0,0,0,1.15-2.53l-.71-3.38a2.36,2.36,0,0,1,2.79-2.78l.66.14A2.35,2.35,0,0,0,188.39,96l-.17-2.07a2.35,2.35,0,0,1,2.3-2.54H191a2.32,2.32,0,0,0,2.25-1.83c.57-2.49,1.57-6.74,1.95-7.13s2.81.42,4.69,1.07a2.36,2.36,0,0,0,2.94-1.35c1-2.38,2.59-5.88,3.69-5.44s3.81,2.72,5.86,4.48a2.35,2.35,0,0,0,3.65-.77l1.69-3.55a2.34,2.34,0,0,1,3.58-.83l3.78,3a2.36,2.36,0,0,0,3.44-.56l2.73-4.21a2.37,2.37,0,0,1,2.88-.89l5.63,2.36c.31.13,1-.85,1.73-2a3.38,3.38,0,0,1,4.93-.85l1.31,1" style="fill:none;stroke-linecap:round;stroke-miterlimit:10;stroke-width:5px;stroke:url(#Безымянный_градиент_39-4)"/><path d="M186.23,120.69l-.06-4.68a2.34,2.34,0,0,1,1.07-2l1.22-.79a2.37,2.37,0,0,0,1-2.6l-.92-3.32a2.35,2.35,0,0,1,2.6-3l.67.09a2.35,2.35,0,0,0,2.66-2.66l-.3-2.06A2.35,2.35,0,0,1,196.28,97l.47,0a2.35,2.35,0,0,0,2.13-2c.41-2.53,1.14-6.84,1.49-7.25s2.84.25,4.75.77A2.33,2.33,0,0,0,208,87c.81-2.44,2.22-6.05,3.34-5.68s4,2.48,6.14,4.11a2.34,2.34,0,0,0,3.59-1l1.46-3.65a2.35,2.35,0,0,1,3.53-1l4.66.9c1.14.79,7.09-1.57,7.77-2.78" style="fill:none;stroke-linecap:round;stroke-miterlimit:10;stroke-width:5px;stroke:url(#Безымянный_градиент_20)"/><path d="M291.36,140.39l-4-1.7a2.66,2.66,0,0,1-.77-2.57c.35-1.18,6-5.36,6-5.36a1.51,1.51,0,0,0-1.48-1.42h-.7a1.51,1.51,0,0,1-1.22-2.37l3.2-4.61a1.52,1.52,0,0,0-1.11-2.37l-1.87-.15a1.51,1.51,0,0,1-1.28-2l1.4-3.74a1.51,1.51,0,0,0-1.17-2l-1.08-.17a1.5,1.5,0,0,1-1.25-1.7l.89-6.4a1.51,1.51,0,0,0-1.23-1.69l-2.1-.38a1.51,1.51,0,0,1-1.2-1.83l1.29-5.48a1.5,1.5,0,0,0-1.76-1.82l-4.1.81a1.47,1.47,0,0,1-1-.15c-1.7-.93-7.24-4.14-5.35-5.63,1.7-1.34-3.9,1.33-5-.59-2-3.45-5.61-3.77-5.87-4.39l1.55-3a36.15,36.15,0,0,0-4.23-4.07l-6.44-1.07" style="fill:none;stroke-linecap:round;stroke-miterlimit:10;stroke-width:5px;stroke:url(#Безымянный_градиент_39-5)"/><path d="M295.14,99.29c0-.47-1.78-3.1-3.71-3.27a2.29,2.29,0,0,1-2.11-2.37c.07-2.53,0-6.33-1.17-6.37s-2.59-1.57-5.12-.8c-.66.2-1-.52-1.19-1.51a2.71,2.71,0,0,0-3.79-2h0a2.31,2.31,0,0,0-2.89-2.17L270.55,82a2.31,2.31,0,0,1-2.86-1.87l-.79-4.87a2.31,2.31,0,0,0-2.24-1.94l-6-.12c-.34,0-.57-1.17-.77-2.48A3.31,3.31,0,0,0,253.82,68l-1.59.4" style="fill:none;stroke-linecap:round;stroke-miterlimit:10;stroke-width:4.911748304106px;stroke:url(#Безымянный_градиент_39-6)"/><path d="M292.73,136.94l1.94-4.27a2.33,2.33,0,0,0-.17-2.26l-.79-1.22a2.34,2.34,0,0,1,.14-2.77l2.18-2.67a2.35,2.35,0,0,0-1.19-3.75l-.65-.18a2.35,2.35,0,0,1-1.36-3.51l1.1-1.76a2.34,2.34,0,0,0-.88-3.31l-.41-.23a2.34,2.34,0,0,1-1.16-2.65c.65-2.48,1.72-6.72,1.56-7.24s-2.69-.91-4.65-1.21a2.33,2.33,0,0,1-2-2.53c.25-2.56.41-6.43-.77-6.54s-4.64.66-7.27,1.28a2.34,2.34,0,0,1-2.88-2.37l.13-3.92a2.34,2.34,0,0,0-2.8-2.39l-4.63-1c-1.36.27-8.28-7.3-12.69-3.76" style="fill:none;stroke-linecap:round;stroke-miterlimit:10;stroke-width:5px;stroke:url(#Безымянный_градиент_20-2)"/><path d="M207,477c.86,1.7,16.52-2.52,16.52-2.52l-.36-1.57-4.49-19.64A81,81,0,0,1,220,436c-4.65,2.49-14.76.7-14.76.7s.94,6.62-.14,8.76a6.89,6.89,0,0,0-.5,1.5,30.77,30.77,0,0,0-.11,10.36c.41,2.21,1,8.79,1.58,13.78h0A30.57,30.57,0,0,0,207,477Z" style="fill:url(#Безымянный_градиент_163)"/><path d="M205.76,470.14h0c.1.35.19.65.26.94-.59-5-1.17-11.57-1.58-13.78a30.77,30.77,0,0,1,.11-10.36,8,8,0,0,0-2.21,5.91C202.46,456.29,204.53,465.69,205.76,470.14Z" style="fill:url(#Безымянный_градиент_9)"/><path d="M205.66,480c1.49,4.41,8.14,8.59,13.66,7.8,5.13-.73,8.87-8.12,3.88-14.89l.36,1.57S207.9,478.68,207,477a30.57,30.57,0,0,1-1-5.88h0c-.07-.29-.73-5.67-.83-6C204.67,468.28,204.84,477.52,205.66,480Z" style="fill:#f7e0dd"/><path d="M278.18,471.58c0,1.3-6.94,4.63-8.73,5.21s-5.29-1.89-5.14-6.66-8.39-24-8.82-25.15c-.33-.85.45-1.77.88-2.2.16-.16.27-.25.27-.25l-1.15-5.79,15.74-3.32s1,9.11,1.6,11.71.43,7.09,1.3,11.67c.79,4.17,3.48,11.85,4,14.23A2.38,2.38,0,0,1,278.18,471.58Z" style="fill:url(#Безымянный_градиент_157-3)"/><path d="M285.84,484.31c-2.32,1.58-12.86-.87-17.93-2s-5.34-9.54-5.63-12.72c-.13-1.47-1.87-4.66-3.95-8h0c-1.34-2.18-2.82-4.45-4.11-6.37h0c-.52-.8-1-1.53-1.45-2.19a4.59,4.59,0,0,1-.61-3.66c1-3.69,2.72-5.55,4.22-6.49-.43.43-1.21,1.35-.88,2.2.43,1.17,8.95,20.38,8.82,25.15s3.35,7.24,5.14,6.66,8.73-3.91,8.73-5.21a2.38,2.38,0,0,0-.08-.55C281.51,474.78,287.71,483,285.84,484.31Z" style="fill:url(#Безымянный_градиент_7)"/><path d="M258.74,473.6h-1.95l-2.57-18.46c1.29,1.92,2.77,4.19,4.11,6.37h0Z" style="fill:url(#Безымянный_градиент_9-2)"/><path d="M271.31,234.49c12.51,37.52,8.91,113.71,8.91,113.71l-7.34,91H253.33c-4.79-55,1.48-88,1.48-88l-7-60.36L238,352.3l-16.13,86.86H201.93c-.58-14.66,3.24-51.3,10.86-89.79-5.86-34-7.34-42.3-5-71.5s17-44,17-44Z" style="fill:url(#Безымянный_градиент_9-3)"/><path d="M258.8,221.28V197l-13.48-38.11-15.24-11.73C179.65,168.82,173,226.87,173,226.87l17.79,33.42,12.9-11.73-8.21-22.28,19.35-32.54,7.36,25.33C234.33,220.68,246.7,222,258.8,221.28Z" style="fill:#fff"/><path d="M277.17,195.79l32.06,16,3.51-19s-36.66-21.62-39.4-34.91c-14.54-9.67-18-12.58-18-12.58l-.36,1.76-1.6,8L258.8,197v24.31a90.68,90.68,0,0,0,11.64-1.42c0-3.36.21-6.33.87-7.65C273.27,208.3,277.17,195.79,277.17,195.79Z" style="fill:#fff"/><path d="M270.44,219.86a90.68,90.68,0,0,1-11.64,1.42c-12.1.74-24.47-.6-36.61-2.21l4.53,15.6,32.08,5.68,12.51-5.86S270.46,226.43,270.44,219.86Z" style="fill:url(#Безымянный_градиент_157-4)"/><path d="M390.24,185.78c-.73-1.94-13.13,4.36-13.32,3-.1-.81,11.66-5.06,11-6.53s-6.8,1.61-10.81,2.76-8.61,1.06-9.85-.44,8.15-5.59,5.77-8c-1.22-1.23-15.4,10.36-15.4,10.36A13.35,13.35,0,0,0,355.2,190a.43.43,0,0,0-.1-.09c-6.74,4.84-42.74,5-42.74,5a39.5,39.5,0,0,0-2.66,14.33c19.52,4.11,49.21-8.65,49.21-8.65v0a63.07,63.07,0,0,0,11.34.48,51.57,51.57,0,0,0,9-2c3.77-1.11,8.66-2.62,7.95-4s-6.9,1.68-7.44.9,11.08-4.36,10.46-6-11.74,3.59-12,2.84S390.82,187.31,390.24,185.78Z" style="fill:url(#Безымянный_градиент_157-5)"/><path d="M201.85,250.24l4,7.41,13.76,8-4.88,17.18s-13.86-8.47-15.62-12-1-5-1-5l-5.33-7.39Z" style="fill:url(#Безымянный_градиент_157-6)"/><path d="M221.83,237.53s24.94,5.43,31.5,5.63,19.73-2.82,19.73-2.82l.93,3.83s-11,3.2-20,3.1c-8.63-.1-34.66-6.11-34.66-6.11Z" style="fill:url(#Безымянный_градиент_12)"/><polygon points="231.16 238.18 233.51 238.76 231.16 244.63 228.72 244.04 231.16 238.18" style="fill:url(#Безымянный_градиент_9-4)"/><polygon points="264.95 241.4 267.13 240.35 269.08 246.36 266.82 247.47 264.95 241.4" style="fill:url(#Безымянный_градиент_9-5)"/><polygon points="230.08 147.13 222.03 147.13 222.66 156.97 235.22 161.22 234.06 168.85 258.8 196.97 245.32 158.86 230.08 147.13" style="fill:#fff"/><polygon points="221.45 259.32 212.91 289.36 215.16 290.23 224.33 258.98 221.45 259.32" style="fill:url(#Безымянный_градиент_12-2)"/><path d="M257.22,83.27s2.12-8.75-11.06-17.5" style="fill:none;stroke-linecap:round;stroke-miterlimit:10;stroke-width:5px;stroke:url(#Безымянный_градиент_28)"/></g></g></svg>