<svg xmlns="http://www.w3.org/2000/svg" xmlns:xlink="http://www.w3.org/1999/xlink" viewBox="0 0 606.55 544.58"><defs><linearGradient id="Безымянный_градиент_263" x1="22.75" y1="247.07" x2="606.55" y2="247.07" gradientUnits="userSpaceOnUse"><stop offset="0" stop-color="#f0f2f5"/><stop offset="0.99" stop-color="#f5f7f8"/></linearGradient><linearGradient id="Безымянный_градиент_170" y1="180.13" x2="403.3" y2="180.13" gradientUnits="userSpaceOnUse"><stop offset="0.01" stop-color="#bbbfd9"/><stop offset="1" stop-color="#d6dbf8"/></linearGradient><linearGradient id="Безымянный_градиент_263-2" x1="265.48" y1="216.34" x2="377.24" y2="216.34" xlink:href="#Безымянный_градиент_263"/><linearGradient id="Безымянный_градиент_263-3" x1="265.48" y1="256.09" x2="377.24" y2="256.09" xlink:href="#Безымянный_градиент_263"/><linearGradient id="Безымянный_градиент_35" x1="451.3" y1="453.94" x2="553.96" y2="453.94" gradientUnits="userSpaceOnUse"><stop offset="0.01" stop-color="#bbbfd9"/><stop offset="0.69" stop-color="#cacee2"/><stop offset="1" stop-color="#d3d6e7"/></linearGradient><linearGradient id="Безымянный_градиент_6" y1="431.63" x2="354.14" y2="431.63" gradientUnits="userSpaceOnUse"><stop offset="0" stop-color="#d3d6e7"/><stop offset="0.31" stop-color="#cacee2"/><stop offset="0.99" stop-color="#bbbfd9"/></linearGradient><linearGradient id="Безымянный_градиент_35-2" x1="13.19" y1="430.18" x2="340.95" y2="430.18" xlink:href="#Безымянный_градиент_35"/><linearGradient id="Безымянный_градиент_123" x1="-101.16" y1="1249.52" x2="-117.44" y2="1220.93" gradientTransform="translate(1424.07 -219.75) rotate(49.23)" gradientUnits="userSpaceOnUse"><stop offset="0" stop-color="#753200"/><stop offset="1" stop-color="#a04400"/></linearGradient><linearGradient id="Безымянный_градиент_123-2" x1="-33.89" y1="1292.73" x2="-50.16" y2="1264.14" gradientTransform="matrix(0.59, 0.81, -0.81, 0.59, 1531.4, -208.42)" xlink:href="#Безымянный_градиент_123"/><linearGradient id="Безымянный_градиент_123-3" x1="-118.25" y1="618.49" x2="-111.75" y2="618.49" gradientTransform="translate(759.34 -485.55) rotate(14.6)" xlink:href="#Безымянный_градиент_123"/><linearGradient id="Безымянный_градиент_123-4" x1="-187.38" y1="670.67" x2="-138.86" y2="642.94" gradientTransform="translate(759.34 -485.55) rotate(14.6)" xlink:href="#Безымянный_градиент_123"/><linearGradient id="Безымянный_градиент_122" x1="-154.76" y1="618.23" x2="-126.24" y2="599.8" gradientTransform="translate(759.34 -485.55) rotate(14.6)" gradientUnits="userSpaceOnUse"><stop offset="0" stop-color="#a04400" stop-opacity="0"/><stop offset="0.18" stop-color="#9a4100" stop-opacity="0.14"/><stop offset="0.52" stop-color="#8a3b00" stop-opacity="0.52"/><stop offset="0.9" stop-color="#753200"/></linearGradient><linearGradient id="Безымянный_градиент_48" x1="-115.55" y1="644.2" x2="-142.98" y2="671.12" gradientTransform="translate(759.34 -485.55) rotate(14.6)" gradientUnits="userSpaceOnUse"><stop offset="0" stop-color="#a04400"/><stop offset="1" stop-color="#753200"/></linearGradient><linearGradient id="Безымянный_градиент_123-5" x1="-115.1" y1="626.84" x2="-118.33" y2="630" gradientTransform="translate(759.34 -485.55) rotate(14.6)" xlink:href="#Безымянный_градиент_123"/><linearGradient id="Безымянный_градиент_123-6" x1="59.93" y1="494.68" x2="86.89" y2="494.68" gradientTransform="matrix(1, 0, 0, 1, 0, 0)" xlink:href="#Безымянный_градиент_123"/><linearGradient id="Безымянный_градиент_123-7" x1="96.83" y1="501.98" x2="136.06" y2="501.98" gradientTransform="matrix(1, 0, 0, 1, 0, 0)" xlink:href="#Безымянный_градиент_123"/><linearGradient id="Безымянный_градиент_48-2" x1="-1211.08" y1="519.27" x2="-1235.92" y2="543.65" gradientTransform="translate(1601.26 -125.17) rotate(12.28)" xlink:href="#Безымянный_градиент_48"/><linearGradient id="Безымянный_градиент_123-8" x1="918.4" y1="143.5" x2="848.38" y2="127.9" gradientTransform="matrix(-1, 0, 0, 1, 1172.12, 0)" xlink:href="#Безымянный_градиент_123"/><linearGradient id="Безымянный_градиент_48-3" x1="860.22" y1="124.12" x2="889.46" y2="140.37" gradientTransform="matrix(-1, 0, 0, 1, 1172.12, 0)" xlink:href="#Безымянный_градиент_48"/><linearGradient id="Безымянный_градиент_123-9" x1="-1211.14" y1="501.92" x2="-1217.86" y2="508.51" gradientTransform="translate(1601.26 -125.17) rotate(12.28)" xlink:href="#Безымянный_градиент_123"/><linearGradient id="Безымянный_градиент_123-10" x1="848.67" y1="524.19" x2="845.64" y2="482.16" gradientTransform="matrix(-1, 0, 0, 1, 1172.12, 0)" xlink:href="#Безымянный_градиент_123"/><linearGradient id="Безымянный_градиент_123-11" x1="904.82" y1="480.13" x2="911.88" y2="526.19" gradientTransform="matrix(-1, 0, 0, 1, 1172.12, 0)" xlink:href="#Безымянный_градиент_123"/><linearGradient id="Безымянный_градиент_9" x1="804.21" y1="364.66" x2="939.4" y2="364.66" gradientTransform="matrix(-1, 0, 0, 1, 1172.12, 0)" gradientUnits="userSpaceOnUse"><stop offset="0.05" stop-color="#f7e5e3"/><stop offset="1" stop-color="#f7d6d2"/></linearGradient><linearGradient id="Безымянный_градиент_123-12" x1="823.6" y1="281.93" x2="844.46" y2="281.93" gradientTransform="matrix(-1, 0, 0, 1, 1172.12, 0)" xlink:href="#Безымянный_градиент_123"/><linearGradient id="Безымянный_градиент_139" x1="857.14" y1="176.01" x2="899.32" y2="176.01" gradientTransform="matrix(-1, 0, 0, 1, 1172.12, 0)" gradientUnits="userSpaceOnUse"><stop offset="0" stop-color="#201f4f"/><stop offset="0.26" stop-color="#27275a"/><stop offset="0.72" stop-color="#393c76"/><stop offset="1" stop-color="#464b8b"/></linearGradient><linearGradient id="Безымянный_градиент_3" x1="63.59" y1="383.15" x2="164.64" y2="383.15" gradientUnits="userSpaceOnUse"><stop offset="0.09" stop-color="#d9d9d9"/><stop offset="0.12" stop-color="#d6d6d6"/><stop offset="0.7" stop-color="#aeaeae"/><stop offset="1" stop-color="#9f9f9f"/></linearGradient><linearGradient id="Безымянный_градиент_250" x1="1446.7" y1="519.94" x2="1482.02" y2="519.94" gradientTransform="matrix(-1, 0, 0, 1, 1929.9, 0)" gradientUnits="userSpaceOnUse"><stop offset="0" stop-color="#a7a5ee"/><stop offset="0.44" stop-color="#9d9ce8"/><stop offset="0.89" stop-color="#8988d5"/></linearGradient><linearGradient id="Безымянный_градиент_250-2" x1="1499.09" y1="514.28" x2="1563.88" y2="514.28" xlink:href="#Безымянный_градиент_250"/><linearGradient id="Безымянный_градиент_48-4" x1="-424.69" y1="352.15" x2="-449.66" y2="376.67" gradientTransform="matrix(-0.98, 0.21, 0.21, 0.98, -406.13, -125.17)" xlink:href="#Безымянный_градиент_48"/><linearGradient id="Безымянный_градиент_123-13" x1="110.27" y1="137.26" x2="51.51" y2="124.17" gradientTransform="translate(23.01)" xlink:href="#Безымянный_градиент_123"/><linearGradient id="Безымянный_градиент_48-5" x1="56.25" y1="128.07" x2="85.65" y2="144.4" gradientTransform="translate(23.01)" xlink:href="#Безымянный_градиент_48"/><linearGradient id="Безымянный_градиент_157" x1="-424.74" y1="334.71" x2="-431.41" y2="341.26" gradientTransform="matrix(-0.98, 0.21, 0.21, 0.98, -406.13, -125.17)" gradientUnits="userSpaceOnUse"><stop offset="0" stop-color="#a96e46"/><stop offset="1" stop-color="#ffd0b9"/></linearGradient><linearGradient id="Безымянный_градиент_29" x1="33.54" y1="106.11" x2="99.26" y2="75.69" gradientTransform="translate(23.01)" gradientUnits="userSpaceOnUse"><stop offset="0.28" stop-color="#201f4f"/><stop offset="1" stop-color="#201f4f"/></linearGradient><linearGradient id="Безымянный_градиент_29-2" x1="89.64" y1="78.84" x2="96.47" y2="41.41" gradientTransform="matrix(1, 0, 0, 1, 0, 0)" xlink:href="#Безымянный_градиент_29"/><linearGradient id="Безымянный_градиент_29-3" x1="71.01" y1="74.61" x2="81.05" y2="74.61" gradientTransform="matrix(1, 0, 0, 1, 0, 0)" xlink:href="#Безымянный_градиент_29"/><linearGradient id="Безымянный_градиент_29-4" x1="72.19" y1="83.64" x2="82.23" y2="83.64" gradientTransform="matrix(1, 0, 0, 1, 0, 0)" xlink:href="#Безымянный_градиент_29"/><linearGradient id="Безымянный_градиент_29-5" x1="72.8" y1="92.39" x2="82.84" y2="92.39" gradientTransform="matrix(1, 0, 0, 1, 0, 0)" xlink:href="#Безымянный_градиент_29"/><linearGradient id="Безымянный_градиент_29-6" x1="75.06" y1="100.79" x2="85.1" y2="100.79" gradientTransform="matrix(1, 0, 0, 1, 0, 0)" xlink:href="#Безымянный_градиент_29"/><linearGradient id="Безымянный_градиент_29-7" x1="108.17" y1="63.08" x2="117.06" y2="63.08" gradientTransform="matrix(1, 0, 0, 1, 0, 0)" xlink:href="#Безымянный_градиент_29"/><linearGradient id="Безымянный_градиент_29-8" x1="109" y1="56.56" x2="117.89" y2="56.56" gradientTransform="matrix(1, 0, 0, 1, 0, 0)" xlink:href="#Безымянный_градиент_29"/><linearGradient id="Безымянный_градиент_29-9" x1="109" y1="49.89" x2="117.89" y2="49.89" gradientTransform="matrix(1, 0, 0, 1, 0, 0)" xlink:href="#Безымянный_градиент_29"/><linearGradient id="Безымянный_градиент_29-10" x1="104.56" y1="44.69" x2="113.44" y2="44.69" gradientTransform="matrix(1, 0, 0, 1, 0, 0)" xlink:href="#Безымянный_градиент_29"/><linearGradient id="Безымянный_градиент_29-11" x1="99.17" y1="40.25" x2="108.06" y2="40.25" gradientTransform="matrix(1, 0, 0, 1, 0, 0)" xlink:href="#Безымянный_градиент_29"/><linearGradient id="Безымянный_градиент_29-12" x1="90.96" y1="38.39" x2="99.85" y2="38.39" gradientTransform="matrix(1, 0, 0, 1, 0, 0)" xlink:href="#Безымянный_градиент_29"/><linearGradient id="Безымянный_градиент_29-13" x1="84.29" y1="38.39" x2="93.18" y2="38.39" gradientTransform="matrix(1, 0, 0, 1, 0, 0)" xlink:href="#Безымянный_градиент_29"/><linearGradient id="Безымянный_градиент_29-14" x1="78.6" y1="41" x2="87.49" y2="41" gradientTransform="matrix(1, 0, 0, 1, 0, 0)" xlink:href="#Безымянный_градиент_29"/><linearGradient id="Безымянный_градиент_29-15" x1="72.77" y1="43.68" x2="81.65" y2="43.68" gradientTransform="matrix(1, 0, 0, 1, 0, 0)" xlink:href="#Безымянный_градиент_29"/><linearGradient id="Безымянный_градиент_29-16" x1="71.01" y1="70.39" x2="79.9" y2="70.39" gradientTransform="matrix(1, 0, 0, 1, 0, 0)" xlink:href="#Безымянный_градиент_29"/><linearGradient id="Безымянный_градиент_29-17" x1="68.12" y1="63.98" x2="77.01" y2="63.98" gradientTransform="matrix(1, 0, 0, 1, 0, 0)" xlink:href="#Безымянный_градиент_29"/><linearGradient id="Безымянный_градиент_29-18" x1="67.3" y1="56.56" x2="76.18" y2="56.56" gradientTransform="matrix(1, 0, 0, 1, 0, 0)" xlink:href="#Безымянный_градиент_29"/><linearGradient id="Безымянный_градиент_29-19" x1="69.08" y1="49.89" x2="77.97" y2="49.89" gradientTransform="matrix(1, 0, 0, 1, 0, 0)" xlink:href="#Безымянный_градиент_29"/><linearGradient id="Безымянный_градиент_123-14" x1="119.19" y1="225.11" x2="151.27" y2="225.11" gradientTransform="matrix(1, 0, 0, 1, 0, 0)" xlink:href="#Безымянный_градиент_123"/><linearGradient id="Безымянный_градиент_123-15" x1="59.1" y1="208.22" x2="114.83" y2="208.22" gradientTransform="matrix(1, 0, 0, 1, 0, 0)" xlink:href="#Безымянный_градиент_123"/><linearGradient id="Безымянный_градиент_123-16" x1="97.73" y1="217.19" x2="163.39" y2="217.19" gradientTransform="matrix(1, 0, 0, 1, 0, 0)" xlink:href="#Безымянный_градиент_123"/><linearGradient id="Безымянный_градиент_16" x1="473.47" y1="125.27" x2="492.49" y2="125.27" gradientUnits="userSpaceOnUse"><stop offset="0.11" stop-color="#8988d5"/><stop offset="0.56" stop-color="#9d9ce8"/><stop offset="1" stop-color="#a7a5ee"/></linearGradient><linearGradient id="Безымянный_градиент_250-3" x1="395.67" y1="185.28" x2="469.54" y2="185.28" gradientTransform="matrix(1, 0, 0, 1, 0, 0)" xlink:href="#Безымянный_градиент_250"/><linearGradient id="Безымянный_градиент_250-4" x1="420.45" y1="216.95" x2="521.76" y2="216.95" gradientTransform="matrix(1, 0, 0, 1, 0, 0)" xlink:href="#Безымянный_градиент_250"/><linearGradient id="Безымянный_градиент_123-17" x1="431.39" y1="147.05" x2="458.85" y2="147.05" gradientTransform="matrix(1, 0, 0, 1, 0, 0)" xlink:href="#Безымянный_градиент_123"/><linearGradient id="Безымянный_градиент_123-18" x1="452.57" y1="220.09" x2="470.53" y2="220.09" gradientTransform="matrix(1, 0, 0, 1, 0, 0)" xlink:href="#Безымянный_градиент_123"/><linearGradient id="Безымянный_градиент_250-5" x1="422.44" y1="203.95" x2="451.88" y2="203.95" gradientTransform="matrix(1, 0, 0, 1, 0, 0)" xlink:href="#Безымянный_градиент_250"/><linearGradient id="Безымянный_градиент_250-6" x1="443.94" y1="178.64" x2="521.97" y2="178.64" gradientTransform="matrix(1, 0, 0, 1, 0, 0)" xlink:href="#Безымянный_градиент_250"/><linearGradient id="Безымянный_градиент_123-19" x1="474.18" y1="189.88" x2="489.44" y2="189.88" gradientTransform="matrix(1, 0, 0, 1, 0, 0)" xlink:href="#Безымянный_градиент_123"/><linearGradient id="Безымянный_градиент_250-7" x1="456.39" y1="175.38" x2="475.42" y2="175.38" gradientTransform="matrix(1, 0, 0, 1, 0, 0)" xlink:href="#Безымянный_градиент_250"/><linearGradient id="Безымянный_градиент_123-20" x1="164.5" y1="187.9" x2="224.99" y2="187.9" gradientTransform="matrix(1, 0, 0, 1, 0, 0)" xlink:href="#Безымянный_градиент_123"/><linearGradient id="Безымянный_градиент_29-20" x1="134.84" y1="216.53" x2="202.47" y2="216.53" gradientTransform="translate(177.58 -173.89) rotate(14.29)" xlink:href="#Безымянный_градиент_29"/></defs><title>Ресурс 1</title><g id="Capa_2" data-name="Capa 2"><g id="_12" data-name="12"><path d="M586.61,258.71C535.34,153.9,388.71.4,198.19,0-.63-.41-19.86,196.78,87.3,251.58S37.77,374.72,149.78,443.36c113.37,69.48,355.65,63,415.29,8.91S608.76,304,586.61,258.71Z" style="fill:url(#Безымянный_градиент_263)"/><rect y="46.1" width="403.3" height="268.07" rx="14.41" style="fill:url(#Безымянный_градиент_170)"/><rect x="11.47" y="57.6" width="380.36" height="245.06" rx="8.6" style="fill:#fff"/><rect x="62.5" y="83.09" width="180.97" height="96.43" rx="8.99" style="fill:#e9ecf5"/><rect x="62.5" y="205.24" width="180.97" height="26.26" rx="13.13" style="fill:#e9ecf5"/><rect x="62.5" y="242.96" width="180.97" height="26.26" rx="13.13" style="fill:#e9ecf5"/><path d="M311.15,74.16h-.23a48.08,48.08,0,0,0-48.07,47.78h48.3Z" style="fill:#e9ecf5"/><path d="M270.78,131.21c0,.11,0,.21,0,.31a48.08,48.08,0,0,0,48.08,48.08h.23V131.21Z" style="fill:#e9ecf5"/><path d="M319.08,83.44v47.77h47.85A48.09,48.09,0,0,0,319.08,83.44Z" style="fill:#e9ecf5"/><path d="M319.08,131.21v48.38a48.07,48.07,0,0,0,47.85-48.07v-.31Z" style="fill:#e9ecf5"/><line x1="270.77" y1="216.34" x2="371.96" y2="216.34" style="fill:none;stroke-linecap:round;stroke-miterlimit:10;stroke-width:10.575088360176px;stroke:url(#Безымянный_градиент_263-2)"/><line x1="270.77" y1="256.09" x2="371.96" y2="256.09" style="fill:none;stroke-linecap:round;stroke-miterlimit:10;stroke-width:10.575088360176px;stroke:url(#Безымянный_градиент_263-3)"/><path d="M456.66,382.2H554a0,0,0,0,1,0,0V525.67a0,0,0,0,1,0,0H458.7a7.4,7.4,0,0,1-7.4-7.4V387.56A5.36,5.36,0,0,1,456.66,382.2Z" style="fill:url(#Безымянный_градиент_35)"/><path d="M554,382.2h24a14.25,14.25,0,0,1,14.25,14.25V518.27a7.4,7.4,0,0,1-7.4,7.4H554a0,0,0,0,1,0,0V382.2A0,0,0,0,1,554,382.2Z" style="fill:#bcc0da"/><line x1="451.3" y1="428.75" x2="553.96" y2="428.75" style="fill:none;stroke:#fff;stroke-miterlimit:10;stroke-width:1.86575173753709px"/><line x1="451.3" y1="478.17" x2="553.96" y2="478.17" style="fill:none;stroke:#fff;stroke-miterlimit:10;stroke-width:1.86575173753709px"/><rect x="483.82" y="401.17" width="32.52" height="10.52" rx="5.26" style="fill:#fff"/><rect x="483.82" y="448.68" width="32.52" height="10.52" rx="5.26" style="fill:#fff"/><rect x="483.82" y="496.34" width="32.52" height="10.52" rx="5.26" style="fill:#fff"/><path d="M470.43,332.47h93.41a0,0,0,0,1,0,0V382.2a0,0,0,0,1,0,0H464.05a0,0,0,0,1,0,0V338.85A6.38,6.38,0,0,1,470.43,332.47Z" style="fill:#aeb1c9"/><path d="M563.84,332.47h2.55a9.25,9.25,0,0,1,9.25,9.25V373a9.25,9.25,0,0,1-9.25,9.25h-2.55a0,0,0,0,1,0,0V332.47A0,0,0,0,1,563.84,332.47Z" style="fill:#bcc0da"/><path d="M472.34,332.47h79.07a0,0,0,0,1,0,0v6.22a10,10,0,0,1-10,10h-59a10,10,0,0,1-10-10v-6.22A0,0,0,0,1,472.34,332.47Z" style="fill:#dee0ed"/><path d="M500.08,332.47s-2.23-19.77,10.2-25.19H558.1S545.19,317.8,546,332.47Z" style="fill:#fff"/><rect x="472.34" y="368.81" width="79.07" height="6.06" rx="3.03" style="fill:#dee0ed"/><path d="M558.1,332.47l-1.27-3.89a6.39,6.39,0,0,0-6.09-4.42H547l-1,8.31Z" style="fill:#aeb1c9"/><rect y="340.25" width="354.14" height="182.75" rx="6.73" style="fill:url(#Безымянный_градиент_6)"/><rect x="13.19" y="351.87" width="327.76" height="156.62" rx="9.24" style="stroke:#fff;stroke-miterlimit:10;stroke-width:0.803298500423991px;fill:url(#Безымянный_градиент_35-2)"/><line x1="116.45" y1="351.87" x2="116.45" y2="507.48" style="fill:none;stroke:#fff;stroke-miterlimit:10;stroke-width:1.71295430969779px"/><line x1="231.92" y1="351.87" x2="231.92" y2="507.48" style="fill:none;stroke:#fff;stroke-miterlimit:10;stroke-width:1.71295430969779px"/><polygon points="409.3 490.11 404.53 502.99 406.36 516.29 409.93 519.46 424.91 514.96 428.59 509.27 424.76 489.11 409.3 490.11" style="fill:url(#Безымянный_градиент_123)"/><polygon points="464.13 491.78 459.2 500.89 457.24 515.8 462.24 521.07 477.55 517.87 481.71 512.52 479.62 492.1 464.13 491.78" style="fill:url(#Безымянный_градиент_123-2)"/><path d="M492.08,90c1.48-2.31,3.67-8.82,4.63-10.79-3.47-.43-7.71,3.82-8.5,6.85C489.12,86.13,491.31,89.05,492.08,90Z" style="fill:url(#Безымянный_градиент_123-3)"/><path d="M462.57,153.58c-9.9-.94-18.63-15.11-18.63-15.11a82.77,82.77,0,0,1,0-9.74l3-5.78,2.6.73.18-1.92a29.75,29.75,0,0,0,3.1.62c-6.76-1.72-17.09-7.32-19.25-18.79-1.52-8,2.18-14.8,2.77-19.34s-.9-8-1.13-13.17c-.3-6.65,3.28-14.5,6.71-16,15.46-7,40.66,4.14,40.66,4.14s8.31,4.91,2.69,22.75c1-.49-1.26,3.16,0,3.06a7.79,7.79,0,0,1,6.14,1.83c3,2.93,2.32,9.14-5.16,16.93L486,104a42.35,42.35,0,0,0-.92,5.16c0,.26-.07.52-.11.8-.39,3.2-.91,7.35-1.4,11.36-.7,5.78-1.09,10.79-1.27,12.73C481.87,138.78,472.47,154.51,462.57,153.58Z" style="fill:url(#Безымянный_градиент_123-4)"/><path d="M485.31,81.93c5.62-17.84-2.68-22.75-2.68-22.75S457.42,48,442,55c-2.42,1.09-3.22,4.57-4.09,7.53,6.31-3.92,17.75-.63,26.93.76,4.39.67,1.84,5.14,3,5.51,10-.57,15.82,5.13,12.4,18.72l5-2.58C484.2,84.85,486.25,81.46,485.31,81.93Z" style="fill:url(#Безымянный_градиент_122)"/><path d="M497.37,78.19c.95-3.14,1.21-6.64,1.36-11.47.3-10.4-5.22-16.23-15.05-20.77l-9.55-3.7c-.87-.34-17.05-5.84-25.92-3.33-3.32.94-8.18,4.08-8.85,6.84-1.71,7-2.83,10.76-2.6,16.51,7.1-13.48,10.36,5.32,32.16-4.63,4-1.84,1.85,5.14,3,5.51,11.28-.64,17.27,6.69,10.62,24.32,3.12-.89,5.29-2.1,7-1.88C492.3,83.56,496.88,79.83,497.37,78.19Z" style="fill:#1f1844"/><path d="M485,110c-9.54,12.43-23.67,15.94-32.31,16.72l-2.85-2.08c-.78-.1,4-2,3-2.24,6.46-3.16,24.49-12.18,33.43-18.63L486,104a42.35,42.35,0,0,0-.92,5.16C485.07,109.44,485,109.7,485,110Z" style="fill:url(#Безымянный_градиент_48)"/><path d="M484.64,87.14c.42-.28,1.66-.92,1.66-.92l.1-3.55-5.55,1.93a3,3,0,0,0-2,2.44l-1.51,12.3c-7.6,2.31-25.52,10-28.47,9.69-3.73-.33-3.76-5.11-6-4.58s-2.61,3.3-4,3c-.69-.18-4.52-4.23-5.52-6.55,0,0,.35,8.19.5,9.65.35,3.39,5.47,11.39,5.47,11.39a3.26,3.26,0,0,0,2.38,1.6l8.72,1.18,4.93-1.53c6.81-1.86,24-11.71,24.55-13.53C483.09,99,480.48,89.94,484.64,87.14Z" style="fill:#1f1844"/><path d="M485.26,90.86s2.83-3.09,4.26-.33-1.77,6.82-1.77,6.82Z" style="fill:url(#Безымянный_градиент_123-5)"/><path d="M86.89,476.46c-4.41,8.41-8.23,14.1-11.93,17.15C69.63,498,67.78,515.93,69.34,523a3.48,3.48,0,0,1-.36,0c-5.7-.7-8.09-7.87-7.49-18.37A86.14,86.14,0,0,0,60,484a.15.15,0,0,1,0-.06l12.4-17.58C77,470.4,79.92,474.74,86.89,476.46Z" style="fill:url(#Безымянный_градиент_123-6)"/><path d="M80.16,533.18s-18.82,1.89-24.79-2.52-3.29-10.5-3.91-19.76-3.61-11-3.61-11l-7.06,7.21-3.6-3.6s5.48-8.47,10.18-14.28c3.34-4.11,9.36-5.07,12.58-5.27a86.14,86.14,0,0,1,1.54,20.59c-.6,10.5,1.79,17.67,7.49,18.37,2.58,1.07,6.49.9,9.3,1.76C82.36,526,80.16,533.18,80.16,533.18Z" style="fill:#201f4f"/><path d="M136.06,520.63h-5.91c-4.28,0-15.82-5.44-20.75-11.84s-7.84-6.24-7.84-6.24l-.35-1.4-4.38-17.83H116c1.23,5.92,3.39,15.91,5.29,21.63,2.34,7.08,11.08,13.27,13.9,15.1a0,0,0,0,1,0,0Z" style="fill:url(#Безымянный_градиент_123-7)"/><path d="M154.76,533.76s-32.65,3-34.13-1.64-12.33-11-12.33-11v12.64h-5.91s-3.79-11.65-4.12-20.7a23.28,23.28,0,0,1,2.2-10.59s4.7-3.22,9.63,3.19,15.77,15,20.05,15h5.91l-.86-.56c6.21,2.27,11,5.64,15.6,6.79C158,528.67,154.76,533.76,154.76,533.76Z" style="fill:#201f4f"/><path d="M306.94,125.78a40.46,40.46,0,0,1-29,17.5l.08-1.56.1-1.91c8.32-2.45,18.28-8.21,29.88-20.29l-.25.29A40.16,40.16,0,0,0,307,125C307,125.24,307,125.5,306.94,125.78Z" style="fill:url(#Безымянный_градиент_48-2)"/><path d="M255.55,121.49c2.6,11.33,13.11,16.49,19.91,17.93.65.13,1.27.23,1.84.3a7.79,7.79,0,0,0,.78.09l-.09,1.92-.17,2.44-.15,2.16L268.39,208a2.85,2.85,0,0,0,4.41,3c9.71-6.78,31.31-57.55,31.5-61,0,0,1-5.22,2.38-21.09.08-1,.16-2,.25-3.1,0-.27.06-.54.08-.8,0-.53.12-1.18.19-1.82a21.73,21.73,0,0,1,.52-3.35,2.17,2.17,0,0,0,.24-.29c3.81-4.29,6.49-8.32,6.65-11.35a13.73,13.73,0,0,0-.48-5c-.57-1.86-.83-27.47-2.49-28.49-6.88-4.27-15.55-4.14-32.57-7.22-8.23-1.49-14.58,2.81-18.21,5.36-2.73,1.91-4,11.71-4.2,18.72h0c.53,3.7,1.16,7.24.86,10.58C257.12,106.68,253.71,113.59,255.55,121.49Z" style="fill:url(#Безымянный_градиент_123-8)"/><path d="M278,141.73s19.18-2.24,28.69-12.85c.08-1,.16-2,.25-3.1,0-.27.06-.54.08-.8,0-.53.12-1.18.19-1.82-11.64,9.4-21.53,14.3-29.9,16.56a7.79,7.79,0,0,0,.78.09Z" style="fill:url(#Безымянный_градиент_48-3)"/><path d="M306.43,106.74s2.69-3.18,4.23-.49-1.5,6.85-1.5,6.85Z" style="fill:url(#Безымянный_градиент_123-9)"/><path d="M332.17,525.75c-1,2-18.95-2.89-18.95-2.89l.41-1.8,5.16-22.53a92.9,92.9,0,0,0-1.43-19.79c5.34,2.85,16.93.79,16.93.79s-1.08,7.6.16,10.06a7.74,7.74,0,0,1,.57,1.71,35.33,35.33,0,0,1,.14,11.88c-.48,2.54-1.15,10.09-1.82,15.81h0A35.83,35.83,0,0,1,332.17,525.75Z" style="fill:url(#Безымянный_градиент_123-10)"/><path d="M333.64,517.9h0c-.12.4-.22.75-.3,1.08.67-5.72,1.34-13.27,1.82-15.81A35.33,35.33,0,0,0,335,491.3a9.23,9.23,0,0,1,2.54,6.78C337.42,502,335.05,512.8,333.64,517.9Z" style="fill:#201f4f"/><path d="M333.75,529.19c-1.71,5.06-9.34,9.85-15.67,8.95-5.88-.85-10.17-9.32-4.45-17.08l-.41,1.8s18,4.84,18.95,2.89a35.83,35.83,0,0,0,1.16-6.75h0c.08-.33.84-6.5,1-6.9C334.89,515.77,334.7,526.37,333.75,529.19Z" style="fill:#201f4f"/><path d="M250.57,519.56c0,1.49,8,5.3,10,6s6.07-2.16,5.9-7.63,9.62-27.52,10.11-28.85c.37-1-.51-2-1-2.53-.18-.18-.31-.29-.31-.29l1.32-6.63-18.05-3.81s-1.17,10.44-1.84,13.43-.5,8.12-1.49,13.39c-.91,4.77-4,13.59-4.56,16.31A3.39,3.39,0,0,0,250.57,519.56Z" style="fill:url(#Безымянный_градиент_123-11)"/><path d="M241.79,534.15c2.65,1.82,14.75-1,20.56-2.33s6.13-10.94,6.46-14.58c.15-1.69,2.14-5.34,4.53-9.22h0c1.54-2.51,3.23-5.1,4.72-7.31h0c.59-.92,1.16-1.76,1.66-2.52a5.23,5.23,0,0,0,.69-4.2c-1.1-4.23-3.11-6.36-4.83-7.44.5.49,1.38,1.55,1,2.53-.49,1.33-10.27,23.37-10.11,28.85s-3.85,8.29-5.9,7.63-10-4.48-10-6a3.39,3.39,0,0,1,.09-.64C246.75,523.23,239.64,532.67,241.79,534.15Z" style="fill:#201f4f"/><path d="M272.87,521.88h2.24l2.95-21.18c-1.49,2.21-3.18,4.8-4.72,7.31h0Z" style="fill:#201f4f"/><path d="M258.45,247.62C244.11,290.66,248.24,378,248.24,378l8.42,104.33h22.41c5.5-63.08-1.69-101-1.69-101l8.06-69.22,11.21,70.57,18.51,99.62H338c.68-16.82-3.71-58.84-12.45-103,6.72-39,8.42-48.52,5.73-82S311.8,247,311.8,247Z" style="fill:url(#Безымянный_градиент_9)"/><path d="M305.75,147.43l-17.49,13.45-15.46,43.7v66.56l51.58-5.46L315,243l8.25-42.07,22.19,37.32L336,263.76l14.79,13.45,20.41-38.33S363.58,172.31,305.75,147.43Z" style="fill:#201f4f"/><path d="M276.83,145.41l.4,2,1.84,9.19-6.27,48v66.56l-25.11-2.95s13-41.64,10.76-46.12-6.72-18.83-6.72-18.83l-30.49,23.4a5,5,0,0,1-8-3.59l-1.37-18.47s41.13-29.5,44.27-44.74C272.8,148.74,276.83,145.41,276.83,145.41Z" style="fill:#201f4f"/><path d="M338.12,265.68l-4.63,8.5-5.83,3,3.7,21s7.84-4.83,9.86-8.87,1.17-5.71,1.17-5.71l6.13-8.47Z" style="fill:url(#Безымянный_градиент_123-12)"/><polygon points="305.75 147.43 314.98 147.43 314.26 158.72 299.85 163.59 301.18 172.33 272.8 204.59 288.26 160.88 305.75 147.43" style="fill:url(#Безымянный_градиент_139)"/><path d="M149.76,274.92c-4.71,1.71-4.87-1.17-18.08,1.74-3.42.75-6.77,4.56-10.54,4.75-22.69,1.22-36.06-5.47-46.38-8.71-3.42,8-9.92,35.59-2.94,65.84,8.59,37.21,11.09,69.71,15,96.78-13.29,22.45-23.21,41.26-23.21,41.26a36.94,36.94,0,0,0,6.22,6.95,25,25,0,0,0,10.12,5.55,17.2,17.2,0,0,0,3.16.48c1.62-5,5.17-11.36,10-18.48a217.53,217.53,0,0,0,5.8,22.53H119s-4-20.93-6.75-47.78c25.21-30.72,43-45,49.9-57.43C171.42,371.76,151.85,303,149.76,274.92ZM132.1,381c-8.14,7.92-16.75,12.72-22.17,22.21.17-12.34,1.5-64.67,6.52-85.65C118.88,334.66,126.52,352.06,132.1,381Z" style="fill:url(#Безымянный_градиент_3)"/><path d="M156,272.55A143.45,143.45,0,0,1,132,280a65.39,65.39,0,0,1-10.83,1.39c-22.69,1.22-42.1-6.47-52.42-9.7,2.17-5.37,14.54-39.67,13.6-46.6,3,3-1.24,1.21,2.14,2.49l.63.24c15.88,5.9,27.94,6.83,38.59-2.76,2.57-2.31,4.8-4.43,6.7-6.33a75.27,75.27,0,0,0,15.17-1c-.34,2.08-2.43,9.9-.57,18.8C147.69,249.57,154.9,269.5,156,272.55Z" style="fill:#d5527e"/><path d="M483.19,515.37s4.55,2-4.1,22c-2,4.68-11.19,7.45-20.13,7.21s-12.8-1.62-13.42-4.1,4.72-10.5,4.72-10.5Z" style="fill:#1f1844"/><path d="M483.1,513.38s.09-4.26-1.84-5.24c-.9,5-3.33,1.12-6.1-1.72-2.39-2.45-3.34-4.48-7.92-4.83s-6,3.36-7.92,4.83c-3.38,2.61-3.46,1.07-4.54,4.9-1,3.39-3.91,15.76-6.53,20.74a2.94,2.94,0,0,0,.43,3.47c4.25,4.18,13.84,2.66,19.1,1.78,6-1,11.35-4.71,13.67-12.67S483.1,513.38,483.1,513.38Z" style="fill:url(#Безымянный_градиент_250)"/><path d="M430.62,518.77v5.73a4.08,4.08,0,0,1-3.51,4c-4,.56-10.51,1.5-14,2.19-5.35,1-18.13,5.7-25.34,6.16s-15.34.58-18.94-1.74-2.79-7.79-2.79-7.79Z" style="fill:#1f1844"/><path d="M428.54,503.43s3.72,14.18,1.63,16.27-17.78,3.14-22,5.81-21.26,6.86-30.33,6.16-11.62-1.86-11.85-4.3,18-5.81,21.26-8.25,5.23-11,9.77-13.95,1-8.13,5.81-8.36,3.49,7.43,10.57,7.9A64,64,0,0,0,428.54,503.43Z" style="fill:url(#Безымянный_градиент_250-2)"/><path d="M84.26,129.74a40.65,40.65,0,0,0,29.18,17.59l-.08-1.56-.1-1.92c-8.37-2.47-18.38-8.27-30-20.4l.25.28a41.94,41.94,0,0,1,.72,5.2C84.21,129.19,84.24,129.46,84.26,129.74Z" style="fill:url(#Безымянный_градиент_48-4)"/><path d="M135.92,125.43c-2.62,11.39-13.18,16.57-20,18-.65.13-1.27.24-1.85.3a7.47,7.47,0,0,1-.78.09l.09,1.93.17,2.45.15,2.18,2.83,34.66a2.87,2.87,0,0,1-4.44,3c-9.76-6.81-25.87-23.46-26.06-26.91,0,0-.11-12.36-1.49-28.31-.08-1-.17-2-.26-3.12,0-.28-.05-.55-.07-.81,0-.53-.12-1.18-.2-1.83a22,22,0,0,0-.52-3.37,2.37,2.37,0,0,1-.25-.29,32,32,0,0,1-4.77-6.83,10.09,10.09,0,0,1-.56-7.4v0a8.12,8.12,0,0,1,3.39-4.58c6.92-4.29,10-41.62,37.94-22.9,1.39-.38,8.11-2.83,11.76-.27,2.75,1.93,2.51,7.67,3.81,13.89h0c-.52,3.72-1.16,7.28-.86,10.64C134.34,110.53,137.76,117.48,135.92,125.43Z" style="fill:url(#Безымянный_градиент_123-13)"/><path d="M113.36,145.77s-19.28-2.25-28.84-12.91c-.08-1-.17-2-.26-3.12,0-.28-.05-.55-.07-.81,0-.53-.12-1.18-.2-1.83,11.7,9.45,21.65,14.38,30.06,16.65a7.47,7.47,0,0,1-.78.09Z" style="fill:url(#Безымянный_градиент_48-5)"/><path d="M84.77,110.59s-2.71-3.2-4.25-.49S82,117,82,117Z" style="fill:url(#Безымянный_градиент_157)"/><path d="M135.28,91.33c-.13,1.34-.29,2.67-.48,4-.6-2.31-3.44-10.24-6-12.38-1.81-1.52-3.32,3-5.83,1.86-4.37-1.91-5-3.33-10.49-2.83A52.63,52.63,0,0,1,105.75,84c-2.47.43-3.57-2.65-4.13,0s-.54,6.22-3.57,6.22-5,1.92-5.23,3.85,4.84,8.85,2.28,10.55c-2.93,1.94-5,9.22-5,9.22s-3.55-12.79-10.76-7.43c-2-6.22-1.37-7.37-1.37-14.92,0-2.6.58-11.07,1.28-13.74C82.8,63.87,101,60.3,112.74,61.11S136.39,78.31,135.28,91.33Z" style="fill:url(#Безымянный_градиент_29)"/><path d="M64.11,37.38l2.4.48a1.33,1.33,0,0,1,.94.77l.31.7a1.33,1.33,0,0,0,1.26.79l1.77-.1a1.29,1.29,0,0,1,1.31,1.64L72,42a1.3,1.3,0,0,0,1.16,1.64l1.08.08a1.31,1.31,0,0,1,1.2,1.38v.24a1.29,1.29,0,0,0,.84,1.29,27.66,27.66,0,0,1,3.6,1.56c.15.2-.35,1.41-.77,2.32a1.27,1.27,0,0,0,.56,1.61c1.19.68,2.93,1.79,2.65,2.32a18.69,18.69,0,0,1-2.58,2.66A1.23,1.23,0,0,0,80,59l1.76,1.14A1.25,1.25,0,0,1,82,62.07l-1.72,1.7a1.23,1.23,0,0,0,.13,1.81l2,1.73a1.26,1.26,0,0,1,.33,1.54l-1.47,2.7a1.23,1.23,0,0,0,0,1.09L83,76.27" style="fill:none;stroke:#201f4f;stroke-linecap:round;stroke-miterlimit:10;stroke-width:4.65914945329764px"/><path d="M65.56,45.91,68,45.45a1.32,1.32,0,0,1,1.16.35l.55.53a1.3,1.3,0,0,0,1.46.25l1.6-.76a1.3,1.3,0,0,1,1.84,1l0,.34a1.29,1.29,0,0,0,1.69,1.08l1-.34a1.32,1.32,0,0,1,1.64.82l.07.23a1.31,1.31,0,0,0,1.27.88,25.45,25.45,0,0,1,3.92.08c.23.12.22,1.43.18,2.44a1.27,1.27,0,0,0,1.12,1.28c1.36.17,3.39.54,3.33,1.14a19,19,0,0,1-1.38,3.44,1.23,1.23,0,0,0,1,1.69l2.06.4a1.24,1.24,0,0,1,1,1.66l-1,2.23a1.23,1.23,0,0,0,.81,1.62l2.55.82A1.26,1.26,0,0,1,94.77,68L94.43,71a1.2,1.2,0,0,0,.39,1l2.92,2.72" style="fill:none;stroke:#201f4f;stroke-linecap:round;stroke-miterlimit:10;stroke-width:4.65914945329764px"/><path d="M74.4,32.67l2.4.49a1.3,1.3,0,0,1,.94.76l.31.7a1.32,1.32,0,0,0,1.26.79l1.77-.1A1.3,1.3,0,0,1,82.39,37l-.1.33a1.3,1.3,0,0,0,1.16,1.65l1.07.07a1.31,1.31,0,0,1,1.21,1.38v.24a1.31,1.31,0,0,0,.84,1.3,25.76,25.76,0,0,1,3.59,1.55c.16.2-.34,1.41-.76,2.32A1.27,1.27,0,0,0,90,47.4c1.18.68,2.92,1.79,2.65,2.32A18.33,18.33,0,0,1,90,52.38a1.24,1.24,0,0,0,.24,1.93L92,55.46a1.24,1.24,0,0,1,.26,1.9l-1.72,1.7a1.23,1.23,0,0,0,.13,1.81l2,1.73a1.26,1.26,0,0,1,.33,1.54l-1.48,2.71a1.24,1.24,0,0,0,0,1.08l1.68,3.63" style="fill:none;stroke:#201f4f;stroke-linecap:round;stroke-miterlimit:10;stroke-width:4.65914945329764px"/><path d="M83.74,30.66l2.11,1.25a1.31,1.31,0,0,1,.64,1l.06.77a1.31,1.31,0,0,0,.93,1.15l1.71.49a1.3,1.3,0,0,1,.7,2l-.2.28a1.29,1.29,0,0,0,.55,1.93l1,.42a1.31,1.31,0,0,1,.69,1.7l-.09.23a1.31,1.31,0,0,0,.37,1.5A25.36,25.36,0,0,1,95.09,46c.08.23-.79,1.21-1.48,1.94a1.26,1.26,0,0,0,0,1.7c.9,1,2.18,2.65,1.74,3.06A19,19,0,0,1,92,54.4a1.23,1.23,0,0,0-.41,1.9L92.92,58a1.25,1.25,0,0,1-.38,1.89l-2.19,1a1.22,1.22,0,0,0-.46,1.74l1.37,2.31a1.25,1.25,0,0,1-.2,1.57l-2.27,2.07a1.2,1.2,0,0,0-.38,1l.39,4" style="fill:none;stroke:#201f4f;stroke-linecap:round;stroke-miterlimit:10;stroke-width:4.65914945329764px"/><path d="M103.63,31.68l-2.41.49a1.32,1.32,0,0,0-.94.76l-.31.7a1.32,1.32,0,0,1-1.26.79l-1.77-.1A1.3,1.3,0,0,0,95.63,36l.1.33a1.29,1.29,0,0,1-1.16,1.64L93.5,38a1.31,1.31,0,0,0-1.21,1.38l0,.24a1.32,1.32,0,0,1-.84,1.3,25.49,25.49,0,0,0-3.6,1.55c-.16.2.34,1.41.76,2.32a1.27,1.27,0,0,1-.56,1.61c-1.18.68-2.92,1.79-2.65,2.32A18.89,18.89,0,0,0,88,51.39a1.24,1.24,0,0,1-.24,1.93L86,54.46a1.25,1.25,0,0,0-.26,1.91l1.72,1.7a1.23,1.23,0,0,1-.13,1.81l-2,1.73A1.26,1.26,0,0,0,85,63.15l1.48,2.7a1.23,1.23,0,0,1,0,1.09l-1.68,3.63" style="fill:none;stroke:#201f4f;stroke-linecap:round;stroke-miterlimit:10;stroke-width:4.65914945329764px"/><path d="M94.28,29.66l-2.11,1.25a1.37,1.37,0,0,0-.64,1l-.06.77a1.31,1.31,0,0,1-.93,1.15l-1.71.49a1.3,1.3,0,0,0-.7,2l.21.28a1.3,1.3,0,0,1-.56,1.93l-1,.42a1.31,1.31,0,0,0-.69,1.7l.09.22a1.3,1.3,0,0,1-.37,1.5A27.42,27.42,0,0,0,82.93,45c-.08.24.79,1.22,1.48,1.95a1.27,1.27,0,0,1,0,1.7c-.9,1-2.18,2.65-1.75,3.06A19.7,19.7,0,0,0,86,53.41a1.23,1.23,0,0,1,.41,1.9L85.11,57a1.24,1.24,0,0,0,.37,1.89l2.19,1a1.23,1.23,0,0,1,.46,1.75L86.76,64a1.25,1.25,0,0,0,.2,1.56l2.28,2.08a1.22,1.22,0,0,1,.37,1l-.39,4" style="fill:none;stroke:#201f4f;stroke-linecap:round;stroke-miterlimit:10;stroke-width:4.65914945329764px"/><path d="M114.5,39.19l-2.41.49a1.32,1.32,0,0,0-.94.76l-.31.71a1.32,1.32,0,0,1-1.25.78l-1.78-.1a1.31,1.31,0,0,0-1.31,1.65l.1.33a1.3,1.3,0,0,1-1.16,1.64l-1.07.07a1.31,1.31,0,0,0-1.21,1.38l0,.24a1.31,1.31,0,0,1-.84,1.3A24.08,24.08,0,0,0,98.74,50c-.16.19.34,1.4.76,2.32A1.28,1.28,0,0,1,99,53.93c-1.19.68-2.93,1.79-2.65,2.32a19.21,19.21,0,0,0,2.58,2.66,1.24,1.24,0,0,1-.24,1.93L96.88,62a1.24,1.24,0,0,0-.26,1.9l1.73,1.71a1.23,1.23,0,0,1-.14,1.8l-2,1.73a1.26,1.26,0,0,0-.32,1.55l1.47,2.7a1.23,1.23,0,0,1,0,1.09l-1.67,3.62" style="fill:none;stroke:#201f4f;stroke-linecap:round;stroke-miterlimit:10;stroke-width:4.65914945329764px"/><path d="M107.76,34.13l-2.11,1.25a1.28,1.28,0,0,0-.64,1l-.06.77a1.31,1.31,0,0,1-.93,1.15l-1.71.49a1.31,1.31,0,0,0-.7,2l.2.27a1.29,1.29,0,0,1-.55,1.93l-1,.43a1.3,1.3,0,0,0-.69,1.69l.09.23a1.31,1.31,0,0,1-.37,1.5,25.36,25.36,0,0,0-2.89,2.65c-.09.23.79,1.21,1.48,1.94a1.26,1.26,0,0,1,0,1.7c-.9,1-2.18,2.65-1.74,3.06a19,19,0,0,0,3.31,1.67,1.24,1.24,0,0,1,.41,1.9l-1.29,1.66A1.24,1.24,0,0,0,99,63.31l2.19,1a1.23,1.23,0,0,1,.46,1.75l-1.37,2.3a1.25,1.25,0,0,0,.2,1.57l2.27,2.07a1.2,1.2,0,0,1,.38,1l-.39,4" style="fill:none;stroke:#201f4f;stroke-linecap:round;stroke-miterlimit:10;stroke-width:4.65914945329764px"/><path d="M120.21,44.54,117.8,45a1.35,1.35,0,0,0-.94.77l-.31.7a1.3,1.3,0,0,1-1.25.79l-1.78-.1a1.3,1.3,0,0,0-1.31,1.64l.11.33a1.3,1.3,0,0,1-1.16,1.64l-1.08.08a1.32,1.32,0,0,0-1.21,1.38l0,.24a1.3,1.3,0,0,1-.84,1.29,27,27,0,0,0-3.6,1.56c-.16.2.35,1.41.76,2.32a1.26,1.26,0,0,1-.55,1.61c-1.19.68-2.93,1.79-2.65,2.32a18.14,18.14,0,0,0,2.58,2.66,1.23,1.23,0,0,1-.24,1.93l-1.75,1.14a1.24,1.24,0,0,0-.27,1.91l1.73,1.7a1.24,1.24,0,0,1-.13,1.81l-2.05,1.73a1.23,1.23,0,0,0-.33,1.54l1.47,2.7a1.2,1.2,0,0,1,0,1.09l-1.67,3.63" style="fill:none;stroke:#201f4f;stroke-linecap:round;stroke-miterlimit:10;stroke-width:4.65914945329764px"/><path d="M122.58,53.78l-2.36-.71a1.32,1.32,0,0,0-1.18.23l-.61.47a1.3,1.3,0,0,1-1.48.1L115.44,53a1.3,1.3,0,0,0-1.94.83l-.06.33a1.3,1.3,0,0,1-1.8.9l-1-.44a1.31,1.31,0,0,0-1.72.64l-.1.22a1.31,1.31,0,0,1-1.35.75,25.07,25.07,0,0,0-3.91-.34c-.23.1-.36,1.41-.43,2.41a1.27,1.27,0,0,1-1.25,1.16c-1.36,0-3.42.19-3.43.79a19.46,19.46,0,0,0,1,3.56,1.23,1.23,0,0,1-1.12,1.59l-2.09.17a1.25,1.25,0,0,0-1.14,1.56l.72,2.31a1.23,1.23,0,0,1-1,1.53l-2.63.55a1.27,1.27,0,0,0-1,1.21l0,3.08a1.24,1.24,0,0,1-.49,1l-3.19,2.4" style="fill:none;stroke:#201f4f;stroke-linecap:round;stroke-miterlimit:10;stroke-width:4.65914945329764px"/><path d="M110.87,42.52l-2.12,1.25a1.37,1.37,0,0,0-.64,1l-.06.77a1.3,1.3,0,0,1-.92,1.15l-1.71.49a1.3,1.3,0,0,0-.7,2l.2.28a1.3,1.3,0,0,1-.56,1.93l-1,.42a1.32,1.32,0,0,0-.69,1.7l.1.22a1.3,1.3,0,0,1-.37,1.5,25.41,25.41,0,0,0-2.89,2.65c-.09.24.78,1.22,1.48,2a1.27,1.27,0,0,1,0,1.7c-.9,1-2.18,2.65-1.74,3.06a18.93,18.93,0,0,0,3.31,1.67,1.23,1.23,0,0,1,.4,1.9l-1.28,1.65a1.25,1.25,0,0,0,.37,1.89l2.19,1a1.23,1.23,0,0,1,.47,1.75l-1.37,2.31a1.25,1.25,0,0,0,.19,1.56l2.28,2.08a1.2,1.2,0,0,1,.38,1l-.4,4" style="fill:none;stroke:#201f4f;stroke-linecap:round;stroke-miterlimit:10;stroke-width:4.65914945329764px"/><path d="M72,38.48,74.43,38a1.32,1.32,0,0,1,1.15.35l.56.54a1.34,1.34,0,0,0,1.46.25l1.6-.77a1.31,1.31,0,0,1,1.84,1l0,.34a1.29,1.29,0,0,0,1.69,1.08l1-.34a1.31,1.31,0,0,1,1.64.82l.07.23a1.32,1.32,0,0,0,1.27.88,25.5,25.5,0,0,1,3.92.08c.22.12.22,1.43.18,2.43A1.26,1.26,0,0,0,92,46.22c1.36.18,3.39.55,3.33,1.14a18.42,18.42,0,0,1-1.38,3.44,1.23,1.23,0,0,0,1,1.7l2.06.39a1.24,1.24,0,0,1,1,1.66l-1,2.23a1.22,1.22,0,0,0,.8,1.62l2.56.83a1.24,1.24,0,0,1,.88,1.3l-.33,3.06a1.22,1.22,0,0,0,.39,1l2.92,2.72" style="fill:none;stroke:#201f4f;stroke-linecap:round;stroke-miterlimit:10;stroke-width:4.65914945329764px"/><path d="M59.5,50.85l2.41-.47a1.34,1.34,0,0,1,1.16.34l.56.53a1.29,1.29,0,0,0,1.45.25l1.61-.77a1.29,1.29,0,0,1,1.83,1l0,.34a1.3,1.3,0,0,0,1.7,1.07l1-.34a1.31,1.31,0,0,1,1.64.81l.08.23a1.32,1.32,0,0,0,1.27.88,24.92,24.92,0,0,1,3.92.06c.22.12.22,1.43.19,2.43a1.27,1.27,0,0,0,1.13,1.28c1.35.17,3.39.53,3.33,1.13a18.77,18.77,0,0,1-1.37,3.44,1.24,1.24,0,0,0,1,1.69l2.06.39a1.23,1.23,0,0,1,1,1.65l-.94,2.24a1.22,1.22,0,0,0,.81,1.61l2.55.82a1.25,1.25,0,0,1,.9,1.3l-.33,3.06a1.2,1.2,0,0,0,.4,1l2.93,2.71" style="fill:none;stroke:#201f4f;stroke-linecap:round;stroke-miterlimit:10;stroke-width:4.65914945329764px"/><path d="M59.52,57.13l2-1.35a1.36,1.36,0,0,1,1.21-.12l.72.28a1.31,1.31,0,0,0,1.44-.32l1.19-1.32a1.3,1.3,0,0,1,2.09.24l.16.31a1.29,1.29,0,0,0,2,.34l.82-.7a1.32,1.32,0,0,1,1.83.13l.16.18a1.31,1.31,0,0,0,1.51.33,24.9,24.9,0,0,1,3.65-1.43c.25,0,.74,1.24,1.09,2.18a1.27,1.27,0,0,0,1.53.75c1.32-.35,3.34-.79,3.52-.22a19.55,19.55,0,0,1,0,3.71A1.23,1.23,0,0,0,86,61.32l2.06-.42a1.24,1.24,0,0,1,1.53,1.16l0,2.42A1.23,1.23,0,0,0,91,65.67l2.67-.22a1.26,1.26,0,0,1,1.32.87l.86,3a1.21,1.21,0,0,0,.75.78l3.74,1.4" style="fill:none;stroke:#201f4f;stroke-linecap:round;stroke-miterlimit:10;stroke-width:4.65914945329764px"/><path d="M60.75,65l1.64-1.84a1.33,1.33,0,0,1,1.13-.42l.77.08a1.31,1.31,0,0,0,1.31-.68l.81-1.58a1.3,1.3,0,0,1,2.08-.31l.23.26a1.3,1.3,0,0,0,2-.17l.61-.89a1.3,1.3,0,0,1,1.8-.35l.2.14a1.32,1.32,0,0,0,1.55-.08A26.26,26.26,0,0,1,78,56.82c.24,0,1,1,1.61,1.83a1.26,1.26,0,0,0,1.67.33c1.19-.68,3-1.62,3.34-1.11a19,19,0,0,1,1,3.57,1.23,1.23,0,0,0,1.78.77l1.87-.94a1.24,1.24,0,0,1,1.78.73l.6,2.35a1.25,1.25,0,0,0,1.63.8l2.53-.9a1.26,1.26,0,0,1,1.5.5l1.59,2.63a1.2,1.2,0,0,0,.92.57l4,.38" style="fill:none;stroke:#201f4f;stroke-linecap:round;stroke-miterlimit:10;stroke-width:4.65914945329764px"/><path d="M58.92,77.16,60,75a1.31,1.31,0,0,1,1-.73l.76-.13a1.3,1.3,0,0,0,1.07-1l.34-1.75A1.31,1.31,0,0,1,65,70.46l.29.18a1.31,1.31,0,0,0,1.88-.73l.33-1a1.31,1.31,0,0,1,1.63-.83l.23.07a1.31,1.31,0,0,0,1.47-.49,24.7,24.7,0,0,1,2.39-3.11c.23-.11,1.28.68,2.06,1.3a1.27,1.27,0,0,0,1.7-.14c1-1,2.45-2.4,2.9-2a19.24,19.24,0,0,1,1.94,3.15,1.23,1.23,0,0,0,1.93.25l1.54-1.42a1.24,1.24,0,0,1,1.91.2L88.47,68a1.23,1.23,0,0,0,1.78.32l2.18-1.57a1.28,1.28,0,0,1,1.58.06l2.26,2.09a1.2,1.2,0,0,0,1,.29l3.92-.73" style="fill:none;stroke:#201f4f;stroke-linecap:round;stroke-miterlimit:10;stroke-width:4.65914945329764px"/><path d="M61.07,85.9l1.06-2.22a1.33,1.33,0,0,1,1-.72l.76-.13a1.3,1.3,0,0,0,1.07-1l.34-1.75a1.3,1.3,0,0,1,1.91-.86l.3.17a1.29,1.29,0,0,0,1.87-.72l.34-1a1.31,1.31,0,0,1,1.63-.83l.23.07a1.31,1.31,0,0,0,1.47-.5,24.19,24.19,0,0,1,2.39-3.1c.23-.11,1.28.68,2.06,1.3a1.27,1.27,0,0,0,1.7-.14c1-1,2.45-2.4,2.89-2a18.48,18.48,0,0,1,2,3.15,1.23,1.23,0,0,0,1.93.25l1.54-1.43a1.25,1.25,0,0,1,1.91.21l1.23,2.09A1.23,1.23,0,0,0,92.4,77l2.18-1.57a1.26,1.26,0,0,1,1.58.06l2.26,2.09a1.2,1.2,0,0,0,1,.29l3.92-.73" style="fill:none;stroke:#201f4f;stroke-linecap:round;stroke-miterlimit:10;stroke-width:4.65914945329764px"/><path d="M67.58,93.17,68.64,91a1.33,1.33,0,0,1,1-.73l.76-.13a1.32,1.32,0,0,0,1.07-1l.34-1.75a1.29,1.29,0,0,1,1.91-.86l.29.18a1.31,1.31,0,0,0,1.88-.73l.33-1a1.32,1.32,0,0,1,1.64-.83l.23.07a1.3,1.3,0,0,0,1.46-.5,26.21,26.21,0,0,1,2.39-3.1c.23-.11,1.28.68,2.06,1.3a1.27,1.27,0,0,0,1.7-.14c1-1,2.45-2.4,2.9-2a18.48,18.48,0,0,1,2,3.15,1.22,1.22,0,0,0,1.92.25L94,81.67a1.25,1.25,0,0,1,1.91.21L97.12,84a1.24,1.24,0,0,0,1.79.32l2.17-1.57a1.27,1.27,0,0,1,1.58.06l2.26,2.09a1.21,1.21,0,0,0,1,.29l3.93-.73" style="fill:none;stroke:#201f4f;stroke-linecap:round;stroke-miterlimit:10;stroke-width:4.65914945329764px"/><circle cx="93.23" cy="59.19" r="22.87" style="fill:url(#Безымянный_градиент_29-2)"/><circle cx="76.03" cy="74.61" r="5.02" style="fill:url(#Безымянный_градиент_29-3)"/><circle cx="77.21" cy="83.64" r="5.02" style="fill:url(#Безымянный_градиент_29-4)"/><circle cx="77.82" cy="92.39" r="5.02" style="fill:url(#Безымянный_градиент_29-5)"/><circle cx="80.08" cy="100.79" r="5.02" style="fill:url(#Безымянный_градиент_29-6)"/><circle cx="112.62" cy="63.08" r="4.44" style="fill:url(#Безымянный_градиент_29-7)"/><circle cx="113.44" cy="56.56" r="4.44" style="fill:url(#Безымянный_градиент_29-8)"/><circle cx="113.44" cy="49.89" r="4.44" style="fill:url(#Безымянный_градиент_29-9)"/><circle cx="109" cy="44.69" r="4.44" style="fill:url(#Безымянный_градиент_29-10)"/><circle cx="103.61" cy="40.25" r="4.44" style="fill:url(#Безымянный_градиент_29-11)"/><circle cx="95.41" cy="38.39" r="4.44" style="fill:url(#Безымянный_градиент_29-12)"/><circle cx="88.74" cy="38.39" r="4.44" style="fill:url(#Безымянный_градиент_29-13)"/><circle cx="83.04" cy="41" r="4.44" style="fill:url(#Безымянный_градиент_29-14)"/><circle cx="77.21" cy="43.68" r="4.44" style="fill:url(#Безымянный_градиент_29-15)"/><circle cx="75.45" cy="70.39" r="4.44" style="fill:url(#Безымянный_градиент_29-16)"/><circle cx="72.56" cy="63.98" r="4.44" style="fill:url(#Безымянный_градиент_29-17)"/><circle cx="71.74" cy="56.56" r="4.44" style="fill:url(#Безымянный_градиент_29-18)"/><circle cx="73.53" cy="49.89" r="4.44" style="fill:url(#Безымянный_градиент_29-19)"/><path d="M497.81,247.07l-46.43,11.14-24.7-4.51S389.5,359.57,387,371.59s17.8,123.24,17.8,123.24h24.55s2.51-31.56,0-60.12-7.27-43.58-7.27-49.59S454.89,316,454.89,316s7.72,37.65,10.75,64.63c5.33,47.6-9.35,117.74-9.35,117.74h27.53S494,479.1,502.47,432.51s-8.69-44.66.92-82C518.77,290.84,497.81,247.07,497.81,247.07Z" style="fill:#1f1844"/><path d="M150.66,233l0,.19a25.26,25.26,0,0,1-6.76.73c-3.62,0-18.48-2-24.67-2.86,4-2.92,21-14,21-14l4.77-.73c2.07,1.48,4.77,3.83,5.64,6.48C151.92,226.77,150.89,232,150.66,233Z" style="fill:url(#Безымянный_градиент_123-14)"/><path d="M159.64,231.73a21.09,21.09,0,0,1-9,1.27c.23-1.05,1.26-6.23,0-10.22-.87-2.65-3.57-5-5.64-6.48l1.88-.31c.18-.06,8.41-1.89,11-3a5.35,5.35,0,0,1,3.23-.19c.32,2.44,1,7.58,1,10.13C162.24,226.36,161.6,230.83,159.64,231.73Z" style="fill:#d5527e"/><path d="M114.83,211.54l-17.1,5.07-.16,0L84.88,220s-3.48-2.19-5.55-3.23-8.17-.91-11.59-1-2.68-2.4-2.64-2.57c-.19.06-2.94.92-3.77-.55S61.27,210.5,63,209c-1-.06-3.42.67-3.84-1.4s2.74-2.93,5.67-4.08a31.56,31.56,0,0,1,7.81-1.41s-4-1.41-5.61-.92-4.89.31-5.62-.54-1.34-2.2,1.59-3.17a23.59,23.59,0,0,1,9.15-.86c2.93.24,6.1,1.34,10.37,2.81s2.32,1.1,4,2.19,10.62,8.91,10.62,8.91a8.82,8.82,0,0,0,3.42.91c1.12,0,7.3.06,11.16.1Z" style="fill:url(#Безымянный_градиент_123-15)"/><path d="M163.08,211.9a1.71,1.71,0,0,1-2,.91,5.35,5.35,0,0,0-3.23.19c-2.63,1.1-10.86,2.93-11,3l-1.88.31-4.77.73s-17,11.11-21,14l-.13.1c-3,2.26-15.33,7.55-19.73,9.41l-.21.09-.36.15-1,.38a52,52,0,0,0,1.46-13.69c-.31-4.72-.78-8.74-1.49-10.89l17.1-5.07-3.11,0,15.14-4.92s9.93-4.39,10.74-4.71,14.12-8.42,15.36-8.64l.15,0c2.28-.3,4.18,2.2,4.11,3.26a2.72,2.72,0,0,1-.3,1.39s2.44,0,2.93,2a17.55,17.55,0,0,1,.42,4.14s1.53-.61,2.08.61.24,3.84-.43,4.21S164.36,209.89,163.08,211.9Z" style="fill:url(#Безымянный_градиент_123-16)"/><path d="M153.11,193.22l-.15,0c-1.24.22-14.55,8.31-15.36,8.64s-10.74,4.71-10.74,4.71l-15.14,4.92c-3.86,0-10-.1-11.16-.1a8.82,8.82,0,0,1-3.42-.91s-8.91-7.81-10.62-8.91.25-.73-4-2.19-7.44-2.57-10.37-2.81a23.59,23.59,0,0,0-9.15.86c-2.93,1-2.32,2.32-1.59,3.17s4,1,5.62.54,5.61.92,5.61.92a31.56,31.56,0,0,0-7.81,1.41c-2.93,1.15-6.1,2-5.67,4.08S62,208.91,63,209c-1.71,1.53-2.5,2.08-1.65,3.6s3.58.61,3.77.55c0,.17-.66,2.44,2.64,2.57s9.51,0,11.59,1S84.88,220,84.88,220l12.69-3.29.16,0c.71,2.15,1.18,6.17,1.49,10.89a52,52,0,0,1-1.46,13.69c-3.27,1.24-10.91,3.78-15.54,2.65-6-1.46-16-13.17-19.69-22s-12.3-43.13-10-51.23c4-14.45,28.34-15.26,37.28-15.26,5.81,0,9.27,9.22,17.54,9.2,4.46,0,6.77-10,9.47-9.74C143.06,157.4,145,161.83,153.11,193.22Z" style="fill:#d5527e"/><path d="M492.49,123.58v0c0,1.88-1.76,16.65-4.94,13.33-2.15-2.25-9.37-3.38-14.08-3.88,4.28-5.39,12.77-19.94,12.77-19.94S492.49,121.83,492.49,123.58Z" style="fill:url(#Безымянный_градиент_16)"/><path d="M469.54,228.28c-.78,1.25-18.42,8-19.46,8.54-1.92,1-20,2.41-29.63,2.82v-.75s-13.94.22-19.6-5.23-6.32-9.36-3.71-20.26,16.12-62.52,18.09-65.79,6.1-11.11,11.32-12.63a63.73,63.73,0,0,0,9.68-4.07c-.67.76-1.15,1.4-1.13,1.73.06.81-1.85,2.83-1.74,3.38s-.82,2.28-1.14,3.32a13.3,13.3,0,0,0-.82,3.65c-.11,1.63.55,2.45,2.78,7.07s5,9.75,5,9.75l4.21,12.52.54-.43c.42,2.44,1.34,7.42,2.68,15,1.67,9.51,6.81,21.65,12.05,30.16C458.3,217.29,469.54,228.28,469.54,228.28Z" style="fill:url(#Безымянный_градиент_250-3)"/><path d="M521.76,164.94c-.06.9-.14,1.84-.23,2.79-1.3,14.09-8.85,29.19-10.74,40.66s-6.47,54.25-6.47,54.25-49.27,9.21-63.82,5.4-20-9.86-20-9.86l0-18.54c9.63-.41,27.71-1.81,29.63-2.82a8.79,8.79,0,0,0,2.82-3.09l14-4.9c2.74,2.89,5.59,4.6,9.58,4.83,7.41.44,24.11-21.34,27.6-29C506.39,199.58,515.64,178.74,521.76,164.94Z" style="fill:url(#Безымянный_градиент_250-4)"/><path d="M457.49,128.34a11.71,11.71,0,0,1-3.05-2.68c-.53-.77-1.1-1.19-1.68-.8-1-.77-2.94-2.22-4.37-2.3-2-.11-3.49-1.41-4.84-.43s-2,4.24-2,4.24-.93-.65-2.18,1c-.75,1-2.14,2.38-3.12,3.5-.67.76-1.15,1.4-1.13,1.73.06.81-1.85,2.83-1.74,3.38s-.82,2.28-1.14,3.32a13.3,13.3,0,0,0-.82,3.65c-.11,1.63.55,2.45,2.78,7.07s5,9.75,5,9.75l4.21,12.52.54-.43,12.45-9.77c-1.22-2.7-2.84-7-1.37-8,2.18-1.6,3.48-10.6,3.48-10.6a3.22,3.22,0,0,1,.27-.18c0-2-.07-5.07.05-7.34C459,132.37,458,128.55,457.49,128.34Zm-5,6c-.33,1.25-.49,3.05-1.85,2.07a20.74,20.74,0,0,1-3.82-4.35c0-.22.06-3.6,0-4s-.48-1.41.39-1.36a38.85,38.85,0,0,1,4.23,1.26c.07.24.16.51.28.81C452.86,131.55,452.8,133.13,452.48,134.38Z" style="fill:url(#Безымянный_градиент_123-17)"/><path d="M470.53,223.86l-14,4.9-2.93,1s-1.42-6.31-.87-10.23c.34-2.44,8.09-9.13,8.55-9.15.47.73,1.38,2.94,1.87,3.62A90.14,90.14,0,0,0,470.53,223.86Z" style="fill:url(#Безымянный_градиент_123-18)"/><path d="M426.68,212.53l1.4-22.65L422.44,215s4.77,1,5.31,1.23,12.85,2,17.43,1.74c2.43-.17-19,.45,6.7-1.71Z" style="fill:url(#Безымянный_градиент_250-5)"/><path d="M518.92,141.59c-2-2.91-7.26-7-12.93-10.31-4.12-2.44-10.39-5.94-13.5-7.67,0,1.88-1.76,16.65-4.94,13.33-2.15-2.25-9.37-3.38-14.08-3.88a9.41,9.41,0,0,1-1.75,1.85l-13,8.39a3.22,3.22,0,0,0-.27.18s-1.3,9-3.48,10.6c-1.47,1.07.15,5.35,1.37,8l-12.45,9.77c.42,2.44,1.34,7.42,2.68,15a89.11,89.11,0,0,0,11.06,29.28l.42.68c.46.73.94,1.45,1.42,2.13a91.44,91.44,0,0,0,7.41,9.84c2.74,2.89,5.59,4.6,9.58,4.83,7.41.44,24.11-21.34,27.6-29,2.28-5,11.53-25.88,17.65-39.68C522.58,152.43,520.82,144.29,518.92,141.59Z" style="fill:url(#Безымянный_градиент_250-6)"/><path d="M485.84,192.65s1.31,2,.33,3-3.38,3.21-3.38,3.21-6.31-5-8.61-9.43a15.47,15.47,0,0,0,2.3-3.26,10.36,10.36,0,0,1,2.45-3.32c.38-.21,2.83-2.39,3.7-2s.24,2.79.22,2.88c.18-.14,4-3.11,5.12-1a3.85,3.85,0,0,1-.55,4.09s1.8-.34,2,1.25S485.84,192.65,485.84,192.65Z" style="fill:url(#Безымянный_градиент_123-19)"/><polygon points="456.39 162.13 472.94 188.62 475.42 185.28 456.39 162.13" style="fill:url(#Безымянный_градиент_250-7)"/><path d="M213.25,177.84h0a.35.35,0,0,0-.06-.14h0a44.59,44.59,0,0,0-.74-9,37.64,37.64,0,0,0-9.6-18.37c-.73-.84-7.84-3.75-8.62-4.89s-4,1.51-.72,5.43,6.27,5.63,5.73,6c-.34.26-4.19-2.17-10.83-3.33-9.94-1.73-17.33-1.87-17.35.75a2.05,2.05,0,0,0,2.34,2.23c-1.47.13-8.88.89-8.9,3.25,0,2.62,5,2,5,2s-4.86.95-.11,2.44,13.17,2.06,13.17,2.06-9.33-.4-8.61,2.18,10.24,1.15,13.68,1.75,6.57,2.22,11,5.5a30.83,30.83,0,0,1,3,2.41l.11,1.92c-.38,7.84-.74,29,4.88,45.16a8.13,8.13,0,0,0,12.4,3.92,34.66,34.66,0,0,0,6-5.39S216.05,188.46,213.25,177.84Z" style="fill:url(#Безымянный_градиент_123-20)"/><path d="M282.17,78.53s-17.44-2.08-24.77,4.24c-6.76-10.38-1.61-26.16,13.37-26.61S306,52.23,314.19,67.67s4.33,28.52.36,37.5c-3.69-7.56-9.79-4.69-12.11,0A99.94,99.94,0,0,1,292.25,81s14.18,1.82,14.18-1.51C306.43,77.48,290.84,81.52,282.17,78.53Z" style="fill:url(#Безымянный_градиент_29-20)"/></g></g></svg>