<svg xmlns="http://www.w3.org/2000/svg" viewBox="0 0 427.05 434.22"><title>recuperar_pass</title><g id="Capa_2" data-name="Capa 2"><g id="Background_Complete" data-name="Background Complete"><path d="M148.07,181.79a23.66,23.66,0,1,0-.28-37.12h0l-5.19-4-7.71,2.4.89-7.71-6.51-5-7.7,2.4.88-7.71-5.59-4.34-4.69,1.46.53-4.69-3.25-2.53-7.37.73-1,11.33L139.74,157A23.67,23.67,0,0,0,148.07,181.79Zm28.17-8.06a6.79,6.79,0,1,1-1.2-9.52A6.78,6.78,0,0,1,176.24,173.73Z" style="fill:#ebebeb"/><path d="M179.23,91.41a12.67,12.67,0,1,0-19.88-.33h0l-2.23,2.73L158.31,98l-4.12-.57-2.78,3.41,1.18,4.16-4.11-.57-2.4,2.93.72,2.53-2.5-.34-1.4,1.7.29,4,6.06.68,16.59-20.3A12.68,12.68,0,0,0,179.23,91.41Zm-3.95-15.18a3.64,3.64,0,1,1-5.12.51A3.63,3.63,0,0,1,175.28,76.23Z" style="fill:#ebebeb"/><polygon points="125.74 5.51 125.74 78.9 20.34 78.9 16.54 6.02 125.74 5.51" style="fill:#e0e0e0"/><rect x="32.88" y="-10.32" width="72.72" height="105.41" transform="translate(26.86 111.62) rotate(-90)" style="fill:#fff"/><path d="M122.44,79.24H16V5.52h106.4ZM17,78.24h104.4V6.52H17Z" style="fill:#e0e0e0"/><rect x="27.95" y="15.06" width="82.57" height="54.65" style="fill:#fff"/><path d="M110.53,15.06H109l-4.54,0-17,.07L28,15.29l.24-.23c0,16.69,0,35.2,0,54.64h0L28,69.45l82.58,0-.21.21c.05-16.63.08-30.27.11-39.77,0-4.74,0-8.45,0-11,0-1.26,0-2.22,0-2.89s0-1,0-1,0,.31,0,1,0,1.62,0,2.86c0,2.53,0,6.22.06,10.94,0,9.53.06,23.21.11,39.9v.2h-.21L28,70h-.26v-.26h0c0-19.44,0-37.95,0-54.64v-.24H28l59.6.11,17,.07L109,15h1.15Z" style="fill:#e0e0e0"/><path d="M16.54,5.82A8.68,8.68,0,0,1,18.35,7c1.08.78,2.55,1.88,4.13,3.15s3,2.47,4,3.37A7.8,7.8,0,0,1,28,15.06c-.09.11-2.63-2-5.79-4.51A57,57,0,0,1,16.54,5.82Z" style="fill:#e0e0e0"/><path d="M121.94,6a50.64,50.64,0,0,1-5.54,4.72,52,52,0,0,1-5.87,4.32,50,50,0,0,1,5.54-4.73A53.74,53.74,0,0,1,121.94,6Z" style="fill:#e0e0e0"/><path d="M121.86,78.75l-11.75-9.52" style="fill:#fff"/><path d="M110.11,69.23a56,56,0,0,1,6,4.56,56.29,56.29,0,0,1,5.71,5,56,56,0,0,1-6-4.56A56.29,56.29,0,0,1,110.11,69.23Z" style="fill:#e0e0e0"/><path d="M16.54,78.74A50.93,50.93,0,0,1,22,74.07a48.35,48.35,0,0,1,5.81-4.26,50.93,50.93,0,0,1-5.49,4.67A48.35,48.35,0,0,1,16.54,78.74Z" style="fill:#e0e0e0"/><rect x="61.55" y="15.25" width="18.3" height="51.96" transform="translate(29.47 111.93) rotate(-90)" style="fill:#e0e0e0"/></g><g id="Floor"><path d="M387.41,422.34c0,.15-85.88.26-191.8.26s-191.82-.11-191.82-.26,85.86-.26,191.82-.26S387.41,422.2,387.41,422.34Z" style="fill:#263238"/></g><g id="Character"><polygon points="307.21 386.14 331.97 422.13 340.81 422.34 324.59 385.33 307.21 386.14" style="fill:#263238"/><polygon points="46.04 387.98 33 421.97 39.52 421.97 62.3 388.13 46.04 387.98" style="fill:#263238"/><path d="M40.45,264.44l1,44A11.63,11.63,0,0,0,52.77,319.8L299,325.28a11.62,11.62,0,0,0,11.88-11.62v-53a31.3,31.3,0,0,0-27-31c-45.07-6.2-138-15.73-213.15-2.18A36.76,36.76,0,0,0,40.45,264.44Z" style="fill:#e8505b"/><path d="M39.35,279.81s-20.29-9.38-24.43,0,.46,20.92,5.07,27.37,4.53,85.74,4.53,85.74l307.58-3.29,3.64-76.27s14.75-18.17,13.83-26-13.37-19.24-27.66-7.55-18,36.13-18,36.13L58.71,317.78S59.52,283.45,39.35,279.81Z" style="fill:#e8505b"/><path d="M300.8,331.17c0,.14-54.48.26-121.68.26s-121.7-.12-121.7-.26,54.47-.26,121.7-.26S300.8,331,300.8,331.17Z" style="fill:#263238"/><path d="M57.42,364.74a.75.75,0,0,1,0-.24c0-.19,0-.42,0-.71,0-.62,0-1.54,0-2.72,0-2.41,0-5.83,0-10,0-8.46.06-20.14-.32-33a142,142,0,0,0-1.41-18.09c-.18-.66-.36-1.31-.53-2s-.49-1.25-.76-1.85c-.53-1.21-1.07-2.37-1.66-3.46a36.27,36.27,0,0,0-3.74-5.76,27.15,27.15,0,0,0-4-4,20.63,20.63,0,0,0-3.6-2.31c-2.11-1-3.41-1.29-3.39-1.37l.24.05.68.18a14.17,14.17,0,0,1,2.56,1,20.54,20.54,0,0,1,3.69,2.26,26.55,26.55,0,0,1,4.08,4A36,36,0,0,1,53,292.45c.61,1.1,1.16,2.27,1.7,3.48.27.61.52,1.24.78,1.87s.37,1.35.56,2A136.62,136.62,0,0,1,57.48,318c.38,12.91.25,24.59.17,33.05-.06,4.2-.11,7.61-.14,10,0,1.15,0,2.05,0,2.72l0,.71A.64.64,0,0,1,57.42,364.74Z" style="fill:#263238"/><path d="M37,297.52a1.55,1.55,0,0,1,.82-.26,3.42,3.42,0,0,1,2.25.63,3.3,3.3,0,0,1,1.1,1.25,3.1,3.1,0,0,1,.3,1.9,3.73,3.73,0,0,1-2.88,3.07,3.81,3.81,0,0,1-3.8-1.82,3.33,3.33,0,0,1-.48-1.85,3.79,3.79,0,0,1,.44-1.6,3.69,3.69,0,0,1,1.69-1.62,1.5,1.5,0,0,1,.83-.21s-.28.12-.74.39A3.75,3.75,0,0,0,35,299a3.1,3.1,0,0,0,.12,3,3.36,3.36,0,0,0,3.3,1.55A3.27,3.27,0,0,0,40.94,301a2.84,2.84,0,0,0-1.14-2.77,3.4,3.4,0,0,0-2-.72C37.25,297.46,37,297.56,37,297.52Z" style="fill:#263238"/><path d="M38.34,317.26A4.85,4.85,0,0,1,37,315.61a9.83,9.83,0,0,1-.12-10,4.76,4.76,0,0,1,1.35-1.67c.07.05-.45.68-1,1.84a10.51,10.51,0,0,0,.11,9.66C37.87,316.58,38.41,317.2,38.34,317.26Z" style="fill:#263238"/><path d="M35.13,287.57a9.42,9.42,0,0,1-.31,1.49,9.22,9.22,0,0,0,1.46,6.87c.52.77.95,1.18.89,1.24s-.56-.27-1.18-1A8,8,0,0,1,34.46,289,3,3,0,0,1,35.13,287.57Z" style="fill:#263238"/><path d="M29.14,298.63c.11-.11,1,.83,2.46,1.56s2.71,1,2.69,1.13a4.51,4.51,0,0,1-2.93-.67A4.47,4.47,0,0,1,29.14,298.63Z" style="fill:#263238"/><path d="M333.29,364.74c0,.14-69.38.26-154.94.26s-155-.12-155-.26,69.36-.26,155-.26S333.29,364.6,333.29,364.74Z" style="fill:#263238"/><path d="M299.73,316.19c.15,0,.27,10.86.27,24.26s-.12,24.26-.27,24.26-.26-10.86-.26-24.26S299.59,316.19,299.73,316.19Z" style="fill:#263238"/><path d="M197,232.28l-.48,0-1.39.05-5.38.15L170,233l-65.25,1.31c-6.37.16-12.6.14-18.58.53a62.68,62.68,0,0,0-16.92,3.09,30,30,0,0,0-12.87,8.43,28.22,28.22,0,0,0-3.94,5.83,37.43,37.43,0,0,0-2.45,6,56.64,56.64,0,0,0-2,11c-.31,3.3-.34,6.16-.36,8.49s0,4.15.07,5.37c0,.6,0,1.06,0,1.4s0,.48,0,.48,0-.16,0-.48,0-.8-.08-1.39c-.07-1.23-.15-3-.17-5.38s0-5.2.27-8.51a56.63,56.63,0,0,1,2-11.12,37.13,37.13,0,0,1,2.44-6.1,28.25,28.25,0,0,1,4-5.93,30.23,30.23,0,0,1,13-8.6,63.09,63.09,0,0,1,17-3.15c6-.4,12.24-.38,18.61-.54L170,232.61l19.78-.29,5.37,0H197Z" style="fill:#263238"/><path d="M118.29,266.54s-.34.17-.85.55a4.57,4.57,0,0,0-1.55,2.17,3.89,3.89,0,0,0,.55,3.72,4.35,4.35,0,0,0,4.25,1.59,4.29,4.29,0,0,0,3.06-3.34,3.85,3.85,0,0,0-1.18-3.56,4.55,4.55,0,0,0-2.36-1.24c-.63-.11-1-.06-1-.11a2.11,2.11,0,0,1,1-.09,4.55,4.55,0,0,1,2.59,1.17A4.62,4.62,0,0,1,124,269a4.21,4.21,0,0,1,.24,2.3,4.51,4.51,0,0,1-8.17,1.95,4.16,4.16,0,0,1-.82-2.16,4.62,4.62,0,0,1,2.08-4.18A2,2,0,0,1,118.29,266.54Z" style="fill:#263238"/><path d="M114.07,292.45a12.69,12.69,0,0,1-.76-3,17,17,0,0,1,.16-7.38,10.1,10.1,0,0,1,4.31-5.94,6.75,6.75,0,0,1,2.09-.85,2.05,2.05,0,0,1,.82-.07,11.85,11.85,0,0,0-2.71,1.23,10.3,10.3,0,0,0-4,5.77,18.92,18.92,0,0,0-.3,7.19C113.91,291.29,114.15,292.43,114.07,292.45Z" style="fill:#263238"/><path d="M117.71,251.09a22.92,22.92,0,0,0-1.47,2.21,9.06,9.06,0,0,0-.84,6.12,9.16,9.16,0,0,0,3.41,5.16,22.57,22.57,0,0,0,2.29,1.34,1.64,1.64,0,0,1-.72-.15,7.84,7.84,0,0,1-1.78-.89,8.7,8.7,0,0,1-2.68-11.76,7.55,7.55,0,0,1,1.22-1.58C117.48,251.22,117.69,251.07,117.71,251.09Z" style="fill:#263238"/><path d="M116.8,271.11a50.15,50.15,0,0,0-5.43,1.22,54.9,54.9,0,0,0-5.06,2.3,14.63,14.63,0,0,1,10.49-3.52Z" style="fill:#263238"/><g style="opacity:0.30000000000000004"><path d="M84.49,332.08a50.17,50.17,0,0,0,34,10.25q-3.78,17.64-7.58,35.27c-.67,3.14-1.3,6.62.34,9.38,2.3,3.87,7.65,4.26,12.15,4.19,5-.06,10.23-.18,14.67-2.5,6.29-3.29,9.66-10.24,12.1-16.91S154.7,358,159.72,353a39,39,0,0,0,22.15,12.62c2.51.46,5.34.59,7.35-1s2.56-4.43,2.06-6.9a20.68,20.68,0,0,0-3.28-6.8q-7.32-11.34-14.63-22.7c-2-3.07-4.15-6.31-7.5-7.77-2.62-1.15-5.61-1-8.47-.87a390.18,390.18,0,0,0-70.87,10.72"/></g><g style="opacity:0.30000000000000004"><path d="M162.7,219.55c-5.92,15.63-28,19.22-35.78,34-7.68,14.65,1.84,34-6.07,48.57-2.93,5.37-7.95,9.39-10.81,14.8-1.93,3.65-2.92,8-6,10.69-3.62,3.16-9.23,3.09-13.57,1.05s-7.7-5.69-10.8-9.37c-5.8-6.88-11.25-14.32-14-22.9-4.67-14.78-.39-31.48,9-43.83s23.27-20.67,37.94-25.65,30.2-6.88,45.62-8.33"/></g><path d="M91.6,178.42a24.28,24.28,0,0,1,9-8.32,15.94,15.94,0,0,1,12-1.2,11.9,11.9,0,0,1,8,8.64c.63,3.2-.22,6.78,1.43,9.6,1.91,3.24,6.5,4.27,8.11,7.66a7.43,7.43,0,0,1-.48,6.53,20.35,20.35,0,0,1-4.4,5.14,10.75,10.75,0,0,1,2.74,2.46,3.73,3.73,0,0,1,.58,3.5,5.1,5.1,0,0,1-3,2.4,29.55,29.55,0,0,1-17.69,1.66c-1.58-.34-3.39-.77-4.69.19" style="fill:#263238"/><path d="M131.63,190.28l-3.23,9.8,21.87,12.4-22,.71L129.93,231l42.34-10.39s2.54-17.27-40.64-30.35l-3-.72a3.42,3.42,0,0,1-2.42-2.09h0a3.75,3.75,0,0,0-1.73-1.93l-3.61-1.88,0,2.86,2,2.33-.32,5.53a5,5,0,0,0,3.84,5.22l2,.48" style="fill:#b78876"/><path d="M83.74,225.68c-.87,0-8.94,2-13.56,7.85s-11.3,27.93-11.3,27.93l17,2.94,7.33,18.44s43.45-5.7,41.14-8a85.9,85.9,0,0,0-7.05-5.82l10-33.31,12-6.48-4-16.64-24.18,3.27Z" style="fill:#fafafa"/><path d="M125.28,243.41c0,.15-13.54.26-30.25.26s-30.25-.11-30.25-.26,13.54-.26,30.25-.26S125.28,243.27,125.28,243.41Z" style="fill:#e8505b"/><path d="M122.57,253.2c0,.15-13.55.26-30.25.26s-30.26-.11-30.26-.26,13.55-.26,30.26-.26S122.57,253.06,122.57,253.2Z" style="fill:#e8505b"/><path d="M122.57,263.78c0,.14-10.26.26-22.91.26s-22.92-.12-22.92-.26,10.26-.26,22.92-.26S122.57,263.63,122.57,263.78Z" style="fill:#e8505b"/><path d="M126.09,274c0,.14-10.26.26-22.92.26s-22.91-.12-22.91-.26,10.26-.26,22.91-.26S126.09,273.82,126.09,274Z" style="fill:#e8505b"/><path d="M136.93,230.25c0,.14-6.77.26-15.13.26s-15.14-.12-15.14-.26,6.78-.26,15.14-.26S136.93,230.1,136.93,230.25Z" style="fill:#e8505b"/><path d="M138,219.87c0,.14-6.74.41-15.07.61s-15.09.23-15.09.09,6.74-.42,15.08-.61S138,219.72,138,219.87Z" style="fill:#e8505b"/><path d="M79.43,248.5a67.34,67.34,0,0,1-1.63,8.18,68.18,68.18,0,0,1-2.13,8.06,67.34,67.34,0,0,1,1.63-8.18A64.7,64.7,0,0,1,79.43,248.5Z" style="fill:#263238"/><polygon points="126.72 373.35 114.06 413.29 129.32 414.82 143.66 380.13 126.72 373.35" style="fill:#b78876"/><path d="M137.89,399.28l-7.27,18s15.89,13.45,14.87,16.91L110,421.38l10.18-28.56Z" style="fill:#455a64"/><path d="M120.21,411.81a1.54,1.54,0,0,0-1.6,1.29,1.47,1.47,0,0,0,1.26,1.59,1.62,1.62,0,0,0,1.69-1.37c0-.76-.75-1.63-1.5-1.52" style="fill:#e0e0e0"/><path d="M110,421.38l1.14-2.84,33.58,13.38s1.33,1.26.75,2.3Z" style="fill:#e0e0e0"/><path d="M131.26,417.34c-.07.17-1-.06-2,.19s-1.77.81-1.9.68.48-1,1.77-1.31S131.36,417.2,131.26,417.34Z" style="fill:#263238"/><path d="M134.42,420.23c0,.18-.87.2-1.73.72s-1.3,1.24-1.47,1.17.07-1.09,1.15-1.72S134.48,420.06,134.42,420.23Z" style="fill:#263238"/><path d="M134.92,425.45c-.17,0-.09-1,.69-1.76s1.74-.88,1.76-.71-.66.5-1.3,1.16S135.1,425.49,134.92,425.45Z" style="fill:#263238"/><path d="M132.46,413.05c-.13.13-.84-.4-1.84-.68s-1.88-.26-1.91-.44.92-.53,2.09-.18S132.6,412.94,132.46,413.05Z" style="fill:#263238"/><path d="M133.86,409.38c0,.08-.75-.06-1.77-.65a8.35,8.35,0,0,1-1.65-1.24,10.58,10.58,0,0,1-.83-.91,2.46,2.46,0,0,1-.38-.61.8.8,0,0,1,.25-1,1,1,0,0,1,.9-.13,2.55,2.55,0,0,1,.64.34,6.27,6.27,0,0,1,1,.78,6.5,6.5,0,0,1,1.25,1.66,3.2,3.2,0,0,1,.53,1.83c-.1,0-.31-.66-.92-1.6a7.35,7.35,0,0,0-1.26-1.46,7.12,7.12,0,0,0-.9-.69c-.34-.23-.66-.35-.82-.22s-.07.08,0,.22a1.76,1.76,0,0,0,.28.44,9.36,9.36,0,0,0,.75.88,10.07,10.07,0,0,0,1.47,1.28A12.64,12.64,0,0,1,133.86,409.38Z" style="fill:#263238"/><path d="M133.55,409.55a3,3,0,0,1,.15-1.88,6,6,0,0,1,1-1.86,5.51,5.51,0,0,1,.84-.92,1.56,1.56,0,0,1,1.46-.48.89.89,0,0,1,.56.76,2.72,2.72,0,0,1,0,.72,4.19,4.19,0,0,1-.44,1.2,4.35,4.35,0,0,1-1.42,1.56,2.51,2.51,0,0,1-1.82.55,16.08,16.08,0,0,0,1.55-.92,4.34,4.34,0,0,0,1.17-1.47,4.15,4.15,0,0,0,.34-1c.08-.4,0-.76-.11-.77s-.58.11-.83.36a6,6,0,0,0-.79.8,6.8,6.8,0,0,0-1,1.65C133.7,408.84,133.65,409.56,133.55,409.55Z" style="fill:#263238"/><polygon points="174.77 335.76 193.67 368.61 209.13 358.69 190.15 325.34 174.77 335.76" style="fill:#b78876"/><path d="M203.8,349.31l9.76,16.81s20.37-4.28,22.47-1.34l-31.92,20.09L187.83,359.3Z" style="fill:#455a64"/><path d="M202.82,371a1.56,1.56,0,0,0,0,2.06,1.49,1.49,0,0,0,2,0,1.63,1.63,0,0,0,0-2.18,1.54,1.54,0,0,0-2.12.26" style="fill:#e0e0e0"/><path d="M204.11,384.87l-1.54-2.64L233.75,364s1.81-.28,2.28.83Z" style="fill:#e0e0e0"/><path d="M214,365.63c.1.16-.64.72-1.09,1.71s-.45,1.89-.63,1.92-.52-1,.05-2.2S213.92,365.47,214,365.63Z" style="fill:#263238"/><path d="M218.19,364.91c.13.13-.37.82-.49,1.81s.17,1.79,0,1.88-.81-.73-.64-2S218.1,364.76,218.19,364.91Z" style="fill:#263238"/><path d="M222.62,367.72c-.12.12-.83-.52-1-1.63s.38-1.9.53-1.81,0,.83.11,1.73S222.76,367.61,222.62,367.72Z" style="fill:#263238"/><path d="M211.32,362.05c0,.18-.82.41-1.67,1s-1.35,1.32-1.52,1.24.15-1.05,1.15-1.76S211.32,361.88,211.32,362.05Z" style="fill:#263238"/><path d="M209.29,358.69c0,.06-.51.55-1.6,1a8.6,8.6,0,0,1-2,.54,9.59,9.59,0,0,1-1.22.09,2.39,2.39,0,0,1-.72-.07.81.81,0,0,1-.6-.79,1,1,0,0,1,.46-.78,2.47,2.47,0,0,1,.65-.3,6.19,6.19,0,0,1,1.21-.28,6.52,6.52,0,0,1,2.09,0,3.15,3.15,0,0,1,1.75.7c0,.1-.7-.16-1.81-.25a7.21,7.21,0,0,0-1.93.09,6.69,6.69,0,0,0-1.1.3c-.39.12-.68.3-.68.5s0,.11.15.16a1.67,1.67,0,0,0,.53.05,8.62,8.62,0,0,0,1.15-.05,10.18,10.18,0,0,0,1.92-.38A12.24,12.24,0,0,1,209.29,358.69Z" style="fill:#263238"/><path d="M209.23,359c0,.06-.7-.3-1.39-1.28a5.87,5.87,0,0,1-.89-1.88,6.08,6.08,0,0,1-.2-1.23,1.57,1.57,0,0,1,.51-1.45.9.9,0,0,1,1,0,2.54,2.54,0,0,1,.53.49,4.11,4.11,0,0,1,.68,1.07,4.44,4.44,0,0,1,.36,2.08c-.11,1.23-.64,1.82-.69,1.78a13.67,13.67,0,0,0,.23-1.79,4.21,4.21,0,0,0-.44-1.82,3.67,3.67,0,0,0-.61-.9c-.26-.31-.56-.5-.67-.39a1.09,1.09,0,0,0-.23.88,6.6,6.6,0,0,0,.15,1.11,7.11,7.11,0,0,0,.7,1.79C208.76,358.49,209.3,359,209.23,359Z" style="fill:#263238"/><path d="M118.52,331.13l37.11-25.24L179,351.46l21.28-11.52s-24.51-59.77-33.31-61.7c-4.93-1.08-61.47,9.72-61.47,9.72l-6.31-3.18-16-1.94-1,2.58A54.58,54.58,0,0,0,84,329.54l.78,1.59Z" style="fill:#263238"/><path d="M105.49,299.57c.27,1.25,31,30,31,30L118.74,389l26.42,5.05,26.53-71.66L123.2,274.86l-22.15,9.32Z" style="fill:#263238"/><path d="M155.63,305.89c.08.12-8.16,5.87-18.41,12.84s-18.62,12.52-18.7,12.4,8.16-5.87,18.41-12.84S155.55,305.77,155.63,305.89Z" style="fill:#455a64"/><path d="M174.68,343a11.38,11.38,0,0,1-.9-1.38c-.55-.9-1.31-2.23-2.24-3.87-1.85-3.29-4.31-7.89-6.91-13s-4.89-9.82-6.51-13.23c-.8-1.71-1.44-3.09-1.87-4.06a9.81,9.81,0,0,1-.62-1.52,12,12,0,0,1,.8,1.43l2,4,6.64,13.16c2.61,5.13,5,9.75,6.77,13.09l2.1,3.94A10.06,10.06,0,0,1,174.68,343Z" style="fill:#455a64"/><path d="M142,318.92a45.5,45.5,0,0,1-2.84,6.38,46.14,46.14,0,0,1-3.31,6.14,46.9,46.9,0,0,1,2.84-6.37A47.28,47.28,0,0,1,142,318.92Z" style="fill:#455a64"/><path d="M58.88,261.46l-6,22.16a11.61,11.61,0,0,0,1,8.53h0A11.62,11.62,0,0,0,66.77,298l47.54-11.72-5-9.87-37.46,3.25,4-15.23Z" style="fill:#b78876"/><polygon points="79.97 295.1 80.59 291.88 106.36 287.25 113.85 247.52 161.71 241.81 153.67 284.23 79.97 295.1" style="fill:#455a64"/><path d="M135.34,268.91a2.69,2.69,0,1,1,2.78-2.18A2.51,2.51,0,0,1,135.34,268.91Z" style="fill:#ebebeb"/><path d="M87,181.16l.09,2.87,1.07,43c.13,5,4.52,8.86,9.87,8.69h0c5.39-.18,9.73-4.41,9.69-9.46,0-5.29,0-10.87,0-10.87s6.81-1.21,8.12-10.13c.65-4.43.35-11.69-.1-17.62A9.4,9.4,0,0,0,105.25,179Z" style="fill:#b78876"/><path d="M112.27,192.61a1.13,1.13,0,0,1-1.08,1.17,1.09,1.09,0,0,1-1.19-1,1.14,1.14,0,0,1,1.08-1.16A1.09,1.09,0,0,1,112.27,192.61Z" style="fill:#263238"/><path d="M114.19,191.45c-.14.15-1-.48-2.24-.46s-2.12.64-2.25.49.07-.34.46-.63a3.15,3.15,0,0,1,1.8-.58,3,3,0,0,1,1.79.56C114.13,191.11,114.26,191.38,114.19,191.45Z" style="fill:#263238"/><path d="M100.15,193.06a1.14,1.14,0,0,1-1.09,1.16,1.09,1.09,0,0,1-1.19-1A1.14,1.14,0,0,1,99,192,1.09,1.09,0,0,1,100.15,193.06Z" style="fill:#263238"/><path d="M102.12,191.82c-.14.15-1-.48-2.24-.46s-2.12.64-2.26.49.08-.34.47-.63a3.15,3.15,0,0,1,1.8-.58,3,3,0,0,1,1.79.56C102.06,191.48,102.19,191.75,102.12,191.82Z" style="fill:#263238"/><path d="M106.68,200.88a8.51,8.51,0,0,1,2-.39c.31,0,.6-.1.65-.31a1.5,1.5,0,0,0-.22-.93l-1-2.38a41.87,41.87,0,0,1-2.16-6.22,40.76,40.76,0,0,1,2.66,6c.31.84.62,1.63.91,2.4a1.85,1.85,0,0,1,.18,1.23.8.8,0,0,1-.51.46,2.27,2.27,0,0,1-.53.08A8.28,8.28,0,0,1,106.68,200.88Z" style="fill:#263238"/><path d="M107.7,215.4a22.62,22.62,0,0,1-12-3s3,6.08,11.87,5.15Z" style="fill:#aa6550"/><path d="M102.61,189.8c-.13.32-1.35.11-2.8.22s-2.63.44-2.81.13c-.07-.14.14-.45.63-.75a4.86,4.86,0,0,1,4.27-.27C102.42,189.36,102.67,189.64,102.61,189.8Z" style="fill:#263238"/><path d="M113.68,187.19c-.21.28-1.06,0-2.08,0s-1.88.21-2.08-.08,0-.43.42-.69a2.84,2.84,0,0,1,1.68-.48,2.88,2.88,0,0,1,1.67.54C113.65,186.76,113.77,187.05,113.68,187.19Z" style="fill:#263238"/><path d="M106.55,205.32a2,2,0,0,1-1.07-.11l-1-.28-.93-.34a2.08,2.08,0,0,1-.93-.55c-.21-.28-.17-.76.32-1.19a2.46,2.46,0,0,1,2.36-.39,2.49,2.49,0,0,1,1.67,1.73C107.14,204.82,106.89,205.23,106.55,205.32Z" style="fill:#aa6550"/><path d="M106.72,205.22c-.12.08-.72-1.15-2.15-1.52a5.26,5.26,0,0,0-2.62.3c0-.05.16-.33.65-.58a3,3,0,0,1,3.83,1C106.73,204.85,106.78,205.19,106.72,205.22Z" style="fill:#263238"/><path d="M97.27,175.36a11.19,11.19,0,0,1-1.61,14c-2.13,2-5.3,3.53-5.51,6.43-.24,3.21,3.48,5.62,3.48,8.84s-3.81,5.42-4.55,8.64c-.6,2.6,1,5.21,2.75,7.17s4,3.72,5,6.15a10.88,10.88,0,0,1-.3,8.57,26.87,26.87,0,0,1-5,7.19,33.66,33.66,0,0,0-8.24-1.83c.18-1.06.35-2.12.53-3.19A3,3,0,0,1,81.68,240a7.76,7.76,0,0,1-3.68,0,59.81,59.81,0,0,1-11-2.82,19.84,19.84,0,0,0,4-5,6.67,6.67,0,0,0,.11-6.2c-.88-1.5-2.5-2.46-3.3-4-1.22-2.3-.22-5.22,1.5-7.16s4.06-3.23,6.11-4.83,3.93-3.76,4.09-6.35c.22-3.37-2.5-6.43-2.17-9.79.38-3.82,4.42-6.16,6-9.65,1.14-2.53,1-5.66,2.75-7.81a6.75,6.75,0,0,1,5.53-2.2,12.41,12.41,0,0,1,5.76,2" style="fill:#263238"/><path d="M108.45,216.36c-1.61.89-1.52,3.33-.54,4.88s2.55,2.66,3.52,4.23a6.89,6.89,0,0,1-1.63,8.81l3.85,1.45.83-.47,2.36-1.33-1.1,2.72h2.45A7,7,0,0,0,124,225.51c-1-1.4-2.58-2.52-2.92-4.21-.41-2,1.13-3.89,1.88-5.83a8.25,8.25,0,0,0-2.68-9.34" style="fill:#263238"/></g><g id="Speech_Bubble" data-name="Speech Bubble"><path d="M32.67,135.43a1.35,1.35,0,0,1,.76,1.21v6.66a1.34,1.34,0,0,1-1.7,1.29,4.12,4.12,0,0,0-3.26.5,3.72,3.72,0,0,0-1.78,2.37,3.84,3.84,0,0,0,.68,2.91,4.22,4.22,0,0,0,2.75,1.82,5,5,0,0,0,5.24-3.38,1.34,1.34,0,1,1,2.55.81,7.71,7.71,0,0,1-8.21,5.21,6.87,6.87,0,0,1-4.53-2.94,6.52,6.52,0,0,1-1.1-5,6.42,6.42,0,0,1,3-4.12,7,7,0,0,1,3.68-1v-5.13a1.34,1.34,0,0,1,1.34-1.34A1.37,1.37,0,0,1,32.67,135.43Z" style="fill:#e8505b"/><path d="M30.83,132.63a1.1,1.1,0,1,1,2.19,0A1.11,1.11,0,0,1,32,133.7,1.09,1.09,0,0,1,30.83,132.63Z" style="fill:#e8505b"/><path d="M63.46,168.29s-.34.06-.88.28a4,4,0,0,0-1.86,1.59,3.77,3.77,0,0,0-.57,1.59,3.33,3.33,0,0,0,.33,1.88,3.68,3.68,0,0,0,6.89-.41,3.49,3.49,0,0,0,.11-1.91,3.87,3.87,0,0,0-.76-1.5,4.09,4.09,0,0,0-2-1.37c-.57-.15-.91-.13-.91-.17a.93.93,0,0,1,.24,0,1,1,0,0,1,.3,0,2.25,2.25,0,0,1,.4.07,4.12,4.12,0,0,1,3,2.92,3.7,3.7,0,0,1-.09,2.05,4.27,4.27,0,0,1-1.29,1.86,3.72,3.72,0,0,1-4.59.27,4.28,4.28,0,0,1-1.5-1.7,3.64,3.64,0,0,1-.33-2,4.08,4.08,0,0,1,.64-1.67,4,4,0,0,1,2-1.58,2.69,2.69,0,0,1,.38-.12l.29,0A1.19,1.19,0,0,1,63.46,168.29Z" style="fill:#263238"/><path d="M73.18,178s-.2,0-.54.19a2.57,2.57,0,0,0-1.15,1,2.17,2.17,0,0,0-.13,2.14,2.27,2.27,0,0,0,4.24-.25,2.17,2.17,0,0,0-.39-2.11,2.58,2.58,0,0,0-1.25-.86c-.36-.1-.57-.1-.57-.13a1.34,1.34,0,0,1,.59,0,2.58,2.58,0,0,1,1.92,1.85,2.22,2.22,0,0,1-.05,1.32,2.52,2.52,0,0,1-4.73.28,2.33,2.33,0,0,1-.21-1.3,2.63,2.63,0,0,1,.41-1.07,2.57,2.57,0,0,1,1.28-1C73,177.93,73.18,178,73.18,178Z" style="fill:#263238"/><path d="M61.84,148.47s0-.17,0-.5,0-.83,0-1.47q0-.5,0-1.08c0-.4-.06-.84-.09-1.31s-.08-1-.12-1.52a6.1,6.1,0,0,0-.11-.83c-.06-.28-.11-.58-.16-.88a29.75,29.75,0,0,0-2.77-8.45,30.74,30.74,0,0,0-7.13-9.33L50.26,122c-.44-.34-.91-.66-1.37-1l-.7-.5a7.06,7.06,0,0,0-.73-.48l-1.54-.89-.78-.45-.82-.38-1.68-.76c-.57-.24-1.18-.41-1.77-.63l-.9-.3c-.15-.05-.3-.11-.46-.15l-.47-.11a29.64,29.64,0,0,0-3.84-.76c-.66-.07-1.32-.19-2-.23l-2-.05c-.34,0-.68,0-1,0l-1,.08c-.69.06-1.39.09-2.09.17a34.72,34.72,0,0,0-4.19.88l-1,.3-.53.15-.51.2-2,.8c-.68.3-1.33.66-2,1-.33.18-.68.32-1,.53l-1,.6A36.36,36.36,0,0,0,11,122.69l-1.69,1.59-.43.4c-.13.15-.25.3-.38.44l-.78.89L7,126.9l-.7,1-.69,1-.35.48c-.11.17-.2.35-.3.52L3.7,131.91c-.33.73-.67,1.47-1,2.21a32.37,32.37,0,0,0-2.34,9.55,32.72,32.72,0,0,0,.82,9.8l.66,2.34.87,2.24.22.56.27.54.54,1.06.54,1.06.63,1,.63,1,.31.5.36.46,1.43,1.84a35.37,35.37,0,0,0,3.25,3.23l.85.74c.28.25.6.45.9.68.61.43,1.2.88,1.82,1.29l1.91,1.11.47.27c.17.09.33.16.5.23l1,.46a33.48,33.48,0,0,0,4,1.52c.67.19,1.36.33,2,.49l1,.24c.34.07.69.09,1,.14l2,.27c.67.06,1.34.05,2,.08a29.89,29.89,0,0,0,3.92-.15l.48,0,.47-.07.94-.17c.62-.12,1.25-.19,1.85-.34l1.77-.5.88-.24.84-.32,1.65-.64A5.8,5.8,0,0,0,44,174l.77-.38c.51-.27,1-.51,1.51-.78l1.41-.88a30.91,30.91,0,0,0,8.48-8.11c.25-.36.51-.7.75-1l.62-1.07.6-1c.1-.17.2-.33.29-.5s.16-.34.23-.51q.48-1,.9-1.95c.27-.62.45-1.25.66-1.82.1-.29.19-.57.29-.84a6.7,6.7,0,0,0,.24-.81c.12-.53.24-1,.35-1.48s.22-.88.29-1.28.1-.75.15-1.07c.09-.63.15-1.12.2-1.45s.08-.5.08-.5,0,.17-.05.5-.1.82-.17,1.46c0,.32-.09.68-.14,1.08s-.18.81-.28,1.28-.22,1-.34,1.49a5.55,5.55,0,0,1-.23.81l-.29.85c-.21.57-.38,1.2-.65,1.83s-.57,1.28-.88,2l-.24.51c-.08.18-.19.34-.28.51l-.6,1c-.2.36-.41.71-.62,1.08s-.49.69-.75,1a30.92,30.92,0,0,1-8.5,8.19L46.4,173c-.49.28-1,.52-1.52.79l-.77.39a5.75,5.75,0,0,1-.8.36l-1.66.65c-.28.11-.56.23-.85.33l-.88.25-1.79.5c-.61.15-1.23.23-1.86.35l-.94.17-.48.08-.48,0a28.74,28.74,0,0,1-3.95.16c-.67,0-1.35,0-2-.07l-2-.27c-.34-.05-.69-.07-1-.14l-1-.24c-.68-.17-1.38-.3-2.06-.5a32.26,32.26,0,0,1-4-1.52l-1-.46-.5-.23-.48-.28-1.92-1.12c-.63-.4-1.22-.86-1.84-1.3-.3-.22-.63-.42-.91-.67l-.86-.76a34.67,34.67,0,0,1-3.28-3.25L6,164.38l-.36-.46-.32-.5-.64-1-.64-1-.54-1.07-.55-1.07-.27-.54-.22-.57c-.29-.75-.59-1.5-.88-2.26l-.66-2.36a33,33,0,0,1-.84-9.89A33.36,33.36,0,0,1,2.43,134l1-2.22,1.22-2.1c.11-.18.2-.35.31-.52l.35-.49.71-1,.7-1,.79-.89.78-.9.39-.44.43-.4,1.71-1.61a34.56,34.56,0,0,1,3.75-2.71l1-.61c.32-.2.68-.35,1-.53.68-.33,1.34-.69,2-1l2.07-.8.52-.2c.17-.06.35-.1.53-.15l1.05-.3A33.12,33.12,0,0,1,27,115.3c.7-.09,1.41-.12,2.1-.17l1.05-.08c.34,0,.69,0,1,0l2,.05c.68,0,1.35.17,2,.24a29,29,0,0,1,3.88.77l.47.11.46.15.9.31c.6.22,1.21.39,1.79.64l1.68.77.84.38L46,119l1.54.9a5.21,5.21,0,0,1,.74.48l.7.51c.47.34.94.66,1.38,1l1.26,1.1a30.8,30.8,0,0,1,7.13,9.41,29.41,29.41,0,0,1,2.74,8.5c0,.31.1.6.15.89a4.82,4.82,0,0,1,.1.83c0,.55.08,1.06.11,1.53s.07.91.08,1.3,0,.76,0,1.09c0,.64,0,1.13-.05,1.47Z" style="fill:#263238"/></g><g id="Sreen"><rect x="196.19" y="0.26" width="206.45" height="313.39" style="fill:#fff"/><rect x="195.76" y="16.22" width="206.51" height="134.87" style="fill:#f5f5f5"/><path d="M246.21,170.11v3.06h4.42v1.08h-4.42v3.56H245V169h6.21v1.1Z" style="fill:#263238"/><path d="M251.94,174.48a3.46,3.46,0,1,1,3.47,3.41A3.31,3.31,0,0,1,251.94,174.48Zm5.7,0a2.24,2.24,0,1,0-2.23,2.35A2.18,2.18,0,0,0,257.64,174.48Z" style="fill:#263238"/><path d="M264.12,171.09v1.17a1.37,1.37,0,0,0-.28,0,2,2,0,0,0-2.1,2.25v3.32h-1.2v-6.66h1.15v1.12A2.55,2.55,0,0,1,264.12,171.09Z" style="fill:#263238"/><path d="M271.92,171.15v5.76c0,2.35-1.2,3.42-3.46,3.42a4.9,4.9,0,0,1-3.18-1l.58-.93a4,4,0,0,0,2.56.87c1.57,0,2.29-.73,2.29-2.24v-.52a3.06,3.06,0,0,1-2.4,1,3.23,3.23,0,1,1,0-6.45,3,3,0,0,1,2.46,1.09v-1Zm-1.19,3.15a2.29,2.29,0,1,0-2.28,2.18A2.12,2.12,0,0,0,270.73,174.3Z" style="fill:#263238"/><path d="M273.6,174.48a3.47,3.47,0,1,1,3.47,3.41A3.31,3.31,0,0,1,273.6,174.48Zm5.71,0a2.25,2.25,0,1,0-2.24,2.35A2.19,2.19,0,0,0,279.31,174.48Z" style="fill:#263238"/><path d="M286,177.42a2.26,2.26,0,0,1-1.46.47,1.9,1.9,0,0,1-2.11-2.09v-3.66h-1.13v-1h1.13v-1.46h1.21v1.46h1.91v1h-1.91v3.61a1,1,0,0,0,1,1.12,1.52,1.52,0,0,0,.94-.31Z" style="fill:#263238"/><path d="M297.69,174.48a3.24,3.24,0,0,1-3.37,3.41,2.85,2.85,0,0,1-2.32-1.08v3.44h-1.21v-9.1H292v1a2.82,2.82,0,0,1,2.37-1.11A3.23,3.23,0,0,1,297.69,174.48Zm-1.22,0a2.24,2.24,0,1,0-2.25,2.35A2.2,2.2,0,0,0,296.47,174.48Z" style="fill:#263238"/><path d="M304.58,173.79v4h-1.14v-.88a2.45,2.45,0,0,1-2.19,1c-1.51,0-2.46-.81-2.46-2s.69-2,2.68-2h1.91v-.24c0-1-.59-1.61-1.79-1.61a3.38,3.38,0,0,0-2.11.72l-.5-.91a4.44,4.44,0,0,1,2.75-.85C303.55,171.09,304.58,172,304.58,173.79Zm-1.2,2v-.93h-1.86c-1.2,0-1.54.46-1.54,1s.56,1.08,1.47,1.08A1.94,1.94,0,0,0,303.38,175.78Z" style="fill:#263238"/><path d="M306,177.11l.5-1a4.25,4.25,0,0,0,2.34.69c1.12,0,1.59-.33,1.59-.9,0-1.5-4.21-.2-4.21-2.85,0-1.2,1.06-2,2.77-2a4.83,4.83,0,0,1,2.43.6l-.52,1a3.45,3.45,0,0,0-1.92-.53c-1,0-1.57.39-1.57.91,0,1.58,4.22.29,4.22,2.88,0,1.21-1.1,2-2.87,2A4.84,4.84,0,0,1,306,177.11Z" style="fill:#263238"/><path d="M312.28,177.11l.5-1a4.23,4.23,0,0,0,2.34.69c1.12,0,1.59-.33,1.59-.9,0-1.5-4.21-.2-4.21-2.85,0-1.2,1.06-2,2.77-2a4.83,4.83,0,0,1,2.43.6l-.52,1a3.45,3.45,0,0,0-1.92-.53c-1.05,0-1.57.39-1.57.91,0,1.58,4.22.29,4.22,2.88,0,1.21-1.1,2-2.87,2A4.82,4.82,0,0,1,312.28,177.11Z" style="fill:#263238"/><path d="M329.38,171.15l-2.49,6.66h-1.15l-1.93-5.05-1.95,5.05h-1.15l-2.48-6.66h1.14l1.94,5.3,2-5.3h1l2,5.33,2-5.33Z" style="fill:#263238"/><path d="M329.8,174.48a3.47,3.47,0,1,1,3.47,3.41A3.31,3.31,0,0,1,329.8,174.48Zm5.71,0a2.25,2.25,0,1,0-2.24,2.35A2.19,2.19,0,0,0,335.51,174.48Z" style="fill:#263238"/><path d="M342,171.09v1.17a1.32,1.32,0,0,0-.27,0,2,2,0,0,0-2.1,2.25v3.32H338.4v-6.66h1.15v1.12A2.55,2.55,0,0,1,342,171.09Z" style="fill:#263238"/><path d="M349.69,168.48v9.33h-1.16v-1.05a2.81,2.81,0,0,1-2.37,1.13,3.4,3.4,0,0,1,0-6.8,2.82,2.82,0,0,1,2.32,1.07v-3.68Zm-1.19,6a2.25,2.25,0,1,0-2.24,2.35A2.2,2.2,0,0,0,348.5,174.48Z" style="fill:#263238"/><path d="M355.91,171.34c0-.81-.66-1.36-1.79-1.36a2.67,2.67,0,0,0-2.25,1l-.92-.65a3.91,3.91,0,0,1,3.26-1.41c1.81,0,3,.84,3,2.24,0,2.1-2.22,2.24-2.22,3.88H353.7C353.7,173.06,355.91,172.78,355.91,171.34Zm-2.38,5.74a.81.81,0,0,1,1.62,0,.81.81,0,1,1-1.62,0Z" style="fill:#263238"/><path d="M381,195.88c0,.14-35.37.26-79,.26s-79-.12-79-.26,35.37-.26,79-.26S381,195.73,381,195.88Z"/><path d="M347.31,204.32c0,.14-20.28.26-45.29.26s-45.28-.12-45.28-.26,20.27-.26,45.28-.26S347.31,204.18,347.31,204.32Z"/><path d="M333,97.23a24.08,24.08,0,1,0-37.35-5.71l-4.9,4.57,1.17,8.13-7.6-2.13-6.13,5.72,1.17,8.13-7.61-2.13-5.26,4.91.71,5-4.63-1.3-3.07,2.86-.46,7.53,11.23,2.83,36.45-34A24.09,24.09,0,0,0,333,97.23Zm-3.56-29.6a6.91,6.91,0,1,1-9.76-.34A6.91,6.91,0,0,1,329.46,67.63Z" style="fill:#263238"/><path d="M333,97.23a24.08,24.08,0,1,0-37.35-5.71l-4.9,4.57,1.17,8.13-7.6-2.13-6.13,5.72,1.17,8.13-7.61-2.13-5.26,4.91.71,5-4.63-1.3-3.07,2.86-.46,7.53,11.23,2.83,36.45-34A24.09,24.09,0,0,0,333,97.23Zm-3.56-29.6a6.91,6.91,0,1,1-9.76-.34A6.91,6.91,0,0,1,329.46,67.63Z" style="fill:none"/><path d="M329.46,67.63s-.45-.43-1.37-1a6.87,6.87,0,0,0-4.34-1A6.65,6.65,0,1,0,331,73.46a6.86,6.86,0,0,0-.65-4.4c-.5-1-.93-1.39-.89-1.43s.13.08.33.29a5.53,5.53,0,0,1,.77,1,6.9,6.9,0,0,1,.86,4.59,7.12,7.12,0,0,1-8.34,5.87,7.15,7.15,0,0,1-5.81-6.23,7.11,7.11,0,0,1,6.43-7.92,6.91,6.91,0,0,1,4.52,1.18,5.34,5.34,0,0,1,1,.83C329.38,67.49,329.48,67.61,329.46,67.63Z" style="fill:#263238"/><path d="M333,97.23s-.11.12-.34.34-.61.53-1.06.94a25.27,25.27,0,0,1-4.66,3,24.24,24.24,0,0,1-20.3.29l.2,0L270.48,135.8l-.11.1-.14,0L259,133.05l-.22-.06v-.23c.14-2.35.3-4.93.45-7.54v-.11l.08-.08,3.07-2.86.12-.11.15,0,4.64,1.3-.37.32c-.22-1.55-.47-3.24-.72-5l0-.16.11-.1,5.27-4.92.12-.11.16,0,7.61,2.13-.38.33c-.37-2.57-.77-5.34-1.17-8.13l0-.15.11-.11,1.63-1.52,4.5-4.2.12-.11.17,0,7.6,2.13-.38.33c-.39-2.73-.78-5.45-1.17-8.13l0-.15.11-.11,4.91-4.57-.06.36a24.47,24.47,0,0,1-3.13-11,23,23,0,0,1,.4-5.57,23.83,23.83,0,0,1,1.6-5.23,24.3,24.3,0,0,1,44.07-1,24.11,24.11,0,0,1,2.37,12.63,23.67,23.67,0,0,1-2.7,9.27c-.15.3-.3.58-.45.86l-.49.77c-.33.48-.6,1-.91,1.36-.65.78-1.15,1.49-1.64,2l-1.12,1.11a5,5,0,0,1-.39.36l.36-.4,1.07-1.14c.47-.5,1-1.21,1.59-2,.3-.4.57-.88.89-1.37.15-.25.31-.5.48-.76l.43-.86A24.06,24.06,0,0,0,338,69.06a23.85,23.85,0,0,0-43.22,1.06,23.18,23.18,0,0,0-1.55,5.12,22.93,22.93,0,0,0-.39,5.44,24.11,24.11,0,0,0,3.07,10.69l.11.21-.16.15L291,96.31l.09-.26q.58,4,1.17,8.13l.07.45-.44-.12-7.61-2.13.29-.07-4.5,4.2L278.41,108l.09-.26,1.17,8.13.07.45-.44-.12-7.61-2.13L272,114l-5.27,4.91.09-.26c.24,1.71.49,3.41.71,5l.06.44-.43-.12-4.63-1.3.27-.07-3.06,2.86.09-.19c-.16,2.61-.32,5.18-.47,7.53l-.21-.29,11.23,2.84-.25.06,36.5-33.93.09-.09.11.05a24.38,24.38,0,0,0,11.57,2.06,24.66,24.66,0,0,0,8.49-2.19,26.19,26.19,0,0,0,4.68-2.87l1.09-.9Z" style="fill:#263238"/><path d="M332.22,94.5a24.08,24.08,0,1,0-37.36-5.71h0L290,93.36l1.17,8.13-7.6-2.13-6.13,5.72,1.17,8.13-7.6-2.13L265.7,116l.71,5-4.63-1.3-3.07,2.86-.46,7.53,11.24,2.83,36.44-34A24.11,24.11,0,0,0,332.22,94.5Zm-3.56-29.61a6.91,6.91,0,1,1-9.76-.34A6.91,6.91,0,0,1,328.66,64.89Z" style="fill:#e8505b"/><path d="M332.22,94.5a24.08,24.08,0,1,0-37.36-5.71h0L290,93.36l1.17,8.13-7.6-2.13-6.13,5.72,1.17,8.13-7.6-2.13L265.7,116l.71,5-4.63-1.3-3.07,2.86-.46,7.53,11.24,2.83,36.44-34A24.11,24.11,0,0,0,332.22,94.5Zm-3.56-29.61a6.91,6.91,0,1,1-9.76-.34A6.91,6.91,0,0,1,328.66,64.89Z" style="fill:none"/><path d="M328.66,64.89c-.05,0-.45-.42-1.37-1a6.9,6.9,0,0,0-4.35-1,6.65,6.65,0,1,0,7.26,7.78,6.93,6.93,0,0,0-.65-4.4c-.5-1-.94-1.4-.89-1.44a1.46,1.46,0,0,1,.33.3,5.57,5.57,0,0,1,.76,1,6.85,6.85,0,0,1,.87,4.58,7.11,7.11,0,0,1-8.35,5.87,7.15,7.15,0,0,1-5.81-6.22,7.13,7.13,0,0,1,6.44-7.92,6.88,6.88,0,0,1,4.51,1.18,5.34,5.34,0,0,1,1,.83A1.55,1.55,0,0,1,328.66,64.89Z" style="fill:#263238"/><path d="M332.22,94.5s-.11.12-.35.33l-1.06,1a24.92,24.92,0,0,1-4.66,3,24.22,24.22,0,0,1-20.29.29l.19,0c-9.39,8.79-21.89,20.49-36.38,34.07l-.11.1-.14,0-11.24-2.82-.22-.05V130c.14-2.34.3-4.92.46-7.53v-.11l.09-.08,3.06-2.86.12-.11.16,0,4.63,1.3-.37.32c-.22-1.55-.47-3.25-.71-5l0-.15.12-.1,5.26-4.92.13-.12.16.05,7.6,2.13-.38.33c-.37-2.58-.77-5.34-1.17-8.13l0-.16.11-.1,1.63-1.52,4.5-4.2.13-.12.16,0,7.6,2.13-.38.33q-.58-4.11-1.16-8.13l0-.15.12-.11,4.9-4.57-.06.36a24.64,24.64,0,0,1-3.13-11,24.49,24.49,0,0,1,2-10.81,24.26,24.26,0,0,1,46.44,11.63,23.83,23.83,0,0,1-2.71,9.27l-.44.86-.5.76c-.33.49-.6,1-.91,1.37-.65.78-1.15,1.49-1.64,2l-1.11,1.12-.39.36s.11-.14.35-.4.61-.65,1.07-1.15,1-1.21,1.59-2c.31-.41.57-.89.89-1.37l.48-.77L337,88a23.8,23.8,0,0,0,2.59-9.2A23.85,23.85,0,0,0,294,67.39a23.88,23.88,0,0,0-1.94,10.55,24,24,0,0,0,3.06,10.7l.12.2-.17.16-4.9,4.57.09-.26q.58,4,1.18,8.14l.06.45-.44-.12-7.6-2.13.28-.07-4.5,4.2-1.63,1.52.1-.27c.4,2.79.8,5.56,1.17,8.13l.06.46-.44-.12-7.6-2.14.28-.07c-1.81,1.7-3.61,3.37-5.27,4.92L266,116c.25,1.71.49,3.41.71,5l.07.44-.44-.12-4.63-1.3.28-.07-3.07,2.86.09-.19c-.16,2.61-.32,5.18-.47,7.53l-.21-.29,11.23,2.83-.25.07,36.51-33.94.09-.08.11,0a24.08,24.08,0,0,0,20.06-.14,26.43,26.43,0,0,0,4.68-2.86l1.09-.91A4.33,4.33,0,0,1,332.22,94.5Z" style="fill:#263238"/><path d="M330,92.62a33.17,33.17,0,0,0,3.23-4.08A20.39,20.39,0,0,0,335.72,83a21,21,0,0,0-10.67-24.49,19.5,19.5,0,0,0-5.69-1.92,18.91,18.91,0,0,0-6.26-.2A20.82,20.82,0,0,0,295,73.24a24.34,24.34,0,0,0-.37,3.15,22.9,22.9,0,0,0,.14,3.11,19.82,19.82,0,0,0,1.52,5.82A21.06,21.06,0,0,0,303.14,94,20.8,20.8,0,0,0,312,97.78a21,21,0,0,0,8-.13,20.13,20.13,0,0,0,5.7-2.09,33.48,33.48,0,0,0,4.3-2.94,2.27,2.27,0,0,1-.25.25l-.75.67a10.76,10.76,0,0,1-1.29,1,16.44,16.44,0,0,1-1.89,1.21A20.35,20.35,0,0,1,320.09,98a21.41,21.41,0,0,1-17.24-3.59,21.5,21.5,0,0,1-7-8.86,20.09,20.09,0,0,1-1.58-6,24.24,24.24,0,0,1-.16-3.2,25.75,25.75,0,0,1,.38-3.24A21.37,21.37,0,0,1,313,55.8a19.92,19.92,0,0,1,6.43.22,20.07,20.07,0,0,1,5.84,2,21.49,21.49,0,0,1,8.35,7.63A21.33,21.33,0,0,1,336,83.09a20.2,20.2,0,0,1-2.6,5.58,14.77,14.77,0,0,1-1.34,1.8A9.35,9.35,0,0,1,331,91.69c-.3.29-.54.52-.72.71Z" style="fill:#263238"/><path d="M329,75.54c0-.05.5-.52,1.17-1.6a8,8,0,0,0,1.14-5.11,7.87,7.87,0,0,0-4.28-6.17,7.68,7.68,0,0,0-4.47-.78,7.76,7.76,0,0,0-6.74,6.29,7.64,7.64,0,0,0,.47,4.51,7.76,7.76,0,0,0,2.54,3.25,7.84,7.84,0,0,0,3.32,1.45,8.09,8.09,0,0,0,5.17-.78c1.13-.6,1.63-1.11,1.68-1.06a2.26,2.26,0,0,1-.36.38,6.19,6.19,0,0,1-1.2.88,8.08,8.08,0,0,1-5.37,1,8.24,8.24,0,0,1-6.29-4.9,8.24,8.24,0,0,1-.54-4.84,8.34,8.34,0,0,1,15.28-2.91,8.23,8.23,0,0,1-.15,8.92,6.62,6.62,0,0,1-1,1.14A2.12,2.12,0,0,1,329,75.54Z" style="fill:#263238"/><path d="M266.54,131.53c-.11-.12,8.1-8,18.33-17.51S303.5,96.83,303.61,97s-8.09,8-18.33,17.51S266.66,131.66,266.54,131.53Z" style="fill:#263238"/><path d="M271.07,83.81l.33-.74.45.68A3.27,3.27,0,0,0,273.31,85l.74.34-.68.44a3.47,3.47,0,0,0-1.25,1.46l-.33.75-.44-.68a3.47,3.47,0,0,0-1.46-1.25l-.75-.33.68-.45A3.35,3.35,0,0,0,271.07,83.81Z" style="fill:#e8505b"/><path d="M248.75,78.25l.19-.43.26.39a2,2,0,0,0,.85.73l.43.19-.4.26a2.06,2.06,0,0,0-.72.85l-.19.43-.26-.4a2.06,2.06,0,0,0-.85-.72l-.43-.19.4-.26A2.06,2.06,0,0,0,248.75,78.25Z" style="fill:#e8505b"/><path d="M319,116.29l.2-.44.26.4a1.89,1.89,0,0,0,.84.72l.44.2-.4.25a2,2,0,0,0-.72.85l-.2.43-.25-.39a2,2,0,0,0-.85-.72l-.43-.2.39-.26A1.89,1.89,0,0,0,319,116.29Z" style="fill:#e8505b"/><path d="M353.43,96.78l.33-.74.45.68A3.41,3.41,0,0,0,355.67,98l.74.33-.68.44a3.44,3.44,0,0,0-1.24,1.46l-.33.75-.45-.68A3.47,3.47,0,0,0,352.25,99l-.74-.33.68-.45A3.4,3.4,0,0,0,353.43,96.78Z" style="fill:#e8505b"/><path d="M349,69.46l.56-1.25.75,1.15a5.72,5.72,0,0,0,2.45,2.09L354,72l-1.14.75a5.65,5.65,0,0,0-2.09,2.45l-.56,1.25-.75-1.15A5.72,5.72,0,0,0,347,73.23l-1.24-.56,1.14-.75A5.74,5.74,0,0,0,349,69.46Z" style="fill:#e8505b"/><path d="M264.13,61l.56-1.25.75,1.14A5.65,5.65,0,0,0,267.89,63l1.25.56-1.14.75a5.74,5.74,0,0,0-2.09,2.46L265.35,68l-.75-1.14a5.72,5.72,0,0,0-2.45-2.09l-1.25-.56,1.14-.75A5.72,5.72,0,0,0,264.13,61Z" style="fill:#e8505b"/><path d="M370.3,251.45l.95-.07a7.23,7.23,0,0,0,1.15-.14l.74-.12.83-.21a13.69,13.69,0,0,0,4.07-1.83,13.94,13.94,0,0,0,4.26-4.32,14.4,14.4,0,0,0,1.55-3.28,14.25,14.25,0,0,0,.66-3.94c0-.69,0-1.42,0-2.15l-.06-1.1c-.06-.37-.12-.74-.17-1.11a14.94,14.94,0,0,0-1.6-4.41,14.24,14.24,0,0,0-7.86-6.48,16.06,16.06,0,0,0-5.62-.73h-6.06l-129.39.08a14.08,14.08,0,0,0-8.59,2.94A14.52,14.52,0,0,0,222,227.9a14.21,14.21,0,0,0-1.87,4.12,15,15,0,0,0-.43,2.22c0,.75-.09,1.49-.08,2.26a15.32,15.32,0,0,0,.54,4.44,15,15,0,0,0,1.85,4,14.77,14.77,0,0,0,3,3.21,13.38,13.38,0,0,0,3.79,2.13,15,15,0,0,0,2.08.61,14,14,0,0,0,2.14.25c2.9.07,5.81,0,8.67,0h16.82l58.17.06,39.21.08,10.67.05,2.77,0,.94,0-.94,0-2.77,0-10.67.05-39.21.08-58.17.06H241.72c-2.87,0-5.75,0-8.7,0a16.45,16.45,0,0,1-2.21-.26,16.22,16.22,0,0,1-2.16-.64,13.85,13.85,0,0,1-3.93-2.2,14.35,14.35,0,0,1-5-7.49,15.73,15.73,0,0,1-.57-4.58c0-.76,0-1.54.09-2.32a16.37,16.37,0,0,1,.44-2.3,14.71,14.71,0,0,1,1.94-4.27,15.16,15.16,0,0,1,3.24-3.45,14.61,14.61,0,0,1,8.91-3l129.39.08h6.06a16.27,16.27,0,0,1,5.72.77,14.44,14.44,0,0,1,8,6.65,14.66,14.66,0,0,1,1.61,4.5l.17,1.13c0,.38,0,.75.05,1.12,0,.75,0,1.46,0,2.17a14.42,14.42,0,0,1-6.62,11.66A13.67,13.67,0,0,1,374,251c-.3.07-.57.15-.84.2l-.74.11a6.85,6.85,0,0,1-1.16.11Z" style="fill:#263238"/><rect x="219.39" y="257.88" width="165.26" height="30.07" rx="14.35" style="fill:#e8505b"/><path d="M252.57,242.41a8.1,8.1,0,0,1,0-.88c0-.62,0-1.43-.06-2.44,0-2.14-.06-5.09-.11-8.67l.21.21-17.87.05c0,.06.49-.49.26-.26h0v6.21c0,2,0,3.93,0,5.76l-.24-.24,12.81.12,3.7.07,1,0,.36,0a9.6,9.6,0,0,1-1.26.06l-3.65.06-13,.12h-.24v-.24c0-1.83,0-3.76,0-5.76,0-1,0-2,0-3.07v-3.14h0l.26-.26,17.87.05h.21v.21c-.05,3.63-.08,6.63-.11,8.8,0,1,0,1.78,0,2.39A4.47,4.47,0,0,1,252.57,242.41Z" style="fill:#263238"/><path d="M252.57,230.42a22.47,22.47,0,0,1-2.5,2.4c-1.58,1.44-3.8,3.39-6.26,5.53h-.37l0,0-.06-.05-.11-.1L243,238l-.46-.39-.88-.77L240,235.32l-2.8-2.5a22.47,22.47,0,0,1-2.5-2.4,21.9,21.9,0,0,1,2.74,2.12c.86.72,1.82,1.54,2.88,2.42L242,236.4l.89.77.46.39.23.2.11.1.06,0,0,0v0h0c-.15,0,.35,0-.33,0,2.46-2.14,4.72-4.05,6.36-5.41A21.51,21.51,0,0,1,252.57,230.42Z" style="fill:#263238"/><path d="M241.16,236a19.79,19.79,0,0,1-3,3.38,20.16,20.16,0,0,1-3.41,3,20.05,20.05,0,0,1,3.05-3.39A20.36,20.36,0,0,1,241.16,236Z" style="fill:#263238"/><path d="M252.57,242.41a38.74,38.74,0,0,1-6-6.77,39.85,39.85,0,0,1,6,6.77Z" style="fill:#263238"/><path d="M263.36,238.81v.4h-4.15v-6h4v.39h-3.58V236h3.21v.39h-3.21v2.46Z" style="fill:#263238"/><path d="M272.19,236.59v2.62h-.43v-2.59c0-1-.52-1.54-1.4-1.54a1.58,1.58,0,0,0-1.64,1.74v2.39h-.43v-2.59c0-1-.52-1.54-1.4-1.54a1.58,1.58,0,0,0-1.64,1.74v2.39h-.43v-4.48h.41v1a1.78,1.78,0,0,1,1.72-1,1.59,1.59,0,0,1,1.64,1.08,1.9,1.9,0,0,1,1.81-1.08A1.68,1.68,0,0,1,272.19,236.59Z" style="fill:#263238"/><path d="M277.19,236.37v2.84h-.41v-.8a1.73,1.73,0,0,1-1.62.83c-1,0-1.61-.51-1.61-1.28s.43-1.25,1.67-1.25h1.54v-.36a1.17,1.17,0,0,0-1.33-1.28,2.31,2.31,0,0,0-1.55.57l-.21-.31a2.72,2.72,0,0,1,1.79-.64A1.53,1.53,0,0,1,277.19,236.37Zm-.43,1.52V237h-1.53c-.93,0-1.25.39-1.25.91s.45.94,1.24.94A1.54,1.54,0,0,0,276.76,237.89Z" style="fill:#263238"/><path d="M278.82,233.29a.35.35,0,0,1,.35-.35.35.35,0,1,1-.35.35Zm.14,1.44h.43v4.48H279Z" style="fill:#263238"/><path d="M281.2,232.84h.43v6.37h-.43Z" style="fill:#263238"/><path d="M269.09,277l-1.62-2.26a4.65,4.65,0,0,1-.66.05h-1.94V277h-.49v-6.78h2.43c1.71,0,2.73.86,2.73,2.29a2.08,2.08,0,0,1-1.58,2.12l1.69,2.37Zm-2.28-2.65c1.45,0,2.23-.68,2.23-1.84s-.78-1.84-2.23-1.84h-1.94v3.68Z" style="fill:#fff"/><path d="M275.47,274.54h-4.35a2,2,0,0,0,2.15,2,2,2,0,0,0,1.61-.71l.29.32a2.44,2.44,0,0,1-1.91.82,2.48,2.48,0,0,1-2.61-2.56,2.42,2.42,0,0,1,2.42-2.57,2.39,2.39,0,0,1,2.41,2.55S275.47,274.49,275.47,274.54Zm-4.34-.38H275a1.94,1.94,0,0,0-3.88,0Z" style="fill:#fff"/><path d="M276.24,276.34l.22-.38a3,3,0,0,0,1.83.61c1.06,0,1.49-.38,1.49-.95,0-1.47-3.36-.39-3.36-2.38,0-.76.64-1.38,1.92-1.38a3.13,3.13,0,0,1,1.74.49l-.22.39a2.63,2.63,0,0,0-1.53-.46c-1,0-1.42.41-1.42,1,0,1.53,3.35.45,3.35,2.38,0,.82-.71,1.38-2,1.38A3.17,3.17,0,0,1,276.24,276.34Z" style="fill:#fff"/><path d="M285.89,274.54h-4.35a2.16,2.16,0,0,0,3.76,1.31l.28.32a2.41,2.41,0,0,1-1.91.82,2.47,2.47,0,0,1-2.6-2.56,2.42,2.42,0,1,1,4.83,0S285.89,274.49,285.89,274.54Zm-4.34-.38h3.88a1.94,1.94,0,0,0-3.88,0Z" style="fill:#fff"/><path d="M289.91,276.64a1.53,1.53,0,0,1-1,.35,1.26,1.26,0,0,1-1.38-1.37v-3.31h-.93v-.41h.93v-1.11H288v1.11h1.6v.41H288v3.26c0,.65.31,1,.93,1a1.17,1.17,0,0,0,.79-.28Z" style="fill:#fff"/><path d="M299.07,272.46c0,1.42-1,2.28-2.73,2.28H294.4V277h-.49v-6.78h2.43C298,270.17,299.07,271,299.07,272.46Zm-.5,0c0-1.17-.78-1.84-2.23-1.84H294.4v3.67h1.94C297.79,274.29,298.57,273.62,298.57,272.46Z" style="fill:#fff"/><path d="M304.19,273.75V277h-.47v-.9a1.93,1.93,0,0,1-1.82.94c-1.13,0-1.82-.58-1.82-1.44s.48-1.41,1.89-1.41h1.73v-.41a1.32,1.32,0,0,0-1.5-1.45,2.64,2.64,0,0,0-1.74.64l-.25-.34a3.1,3.1,0,0,1,2-.72A1.72,1.72,0,0,1,304.19,273.75Zm-.49,1.71v-.95H302c-1.05,0-1.42.44-1.42,1s.52,1.07,1.41,1.07A1.73,1.73,0,0,0,303.7,275.46Z" style="fill:#fff"/><path d="M305.44,276.34l.22-.38a3,3,0,0,0,1.82.61c1.07,0,1.49-.38,1.49-.95,0-1.47-3.35-.39-3.35-2.38,0-.76.64-1.38,1.92-1.38a3.13,3.13,0,0,1,1.74.49l-.23.39a2.6,2.6,0,0,0-1.52-.46c-1,0-1.42.41-1.42,1,0,1.53,3.35.45,3.35,2.38,0,.82-.71,1.38-2,1.38A3.16,3.16,0,0,1,305.44,276.34Z" style="fill:#fff"/><path d="M310.07,276.34l.22-.38a3,3,0,0,0,1.83.61c1.06,0,1.49-.38,1.49-.95,0-1.47-3.36-.39-3.36-2.38,0-.76.64-1.38,1.92-1.38a3.13,3.13,0,0,1,1.74.49l-.22.39a2.63,2.63,0,0,0-1.53-.46c-1,0-1.42.41-1.42,1,0,1.53,3.35.45,3.35,2.38,0,.82-.71,1.38-2,1.38A3.17,3.17,0,0,1,310.07,276.34Z" style="fill:#fff"/><path d="M322.58,271.9,320.66,277h-.45l-1.71-4.38L316.79,277h-.45l-1.92-5.05h.47l1.68,4.51,1.73-4.51h.41l1.72,4.5,1.7-4.5Z" style="fill:#fff"/><path d="M323,274.43a2.53,2.53,0,1,1,2.53,2.56A2.46,2.46,0,0,1,323,274.43Zm4.56,0a2,2,0,1,0-2,2.13A2,2,0,0,0,327.57,274.43Z" style="fill:#fff"/><path d="M332,271.86v.47h-.12c-1.12,0-1.79.75-1.79,2V277h-.48V271.9H330V273A1.93,1.93,0,0,1,332,271.86Z" style="fill:#fff"/><path d="M337.75,269.77V277h-.48v-1.19A2.22,2.22,0,0,1,335.2,277a2.57,2.57,0,0,1,0-5.13,2.25,2.25,0,0,1,2.06,1.21v-3.3Zm-.49,4.66a2,2,0,1,0-2,2.13A2,2,0,0,0,337.26,274.43Z" style="fill:#fff"/><path d="M402.26,16.22c0,.15-46.23.26-103.24.26s-103.26-.11-103.26-.26S242,16,299,16,402.26,16.08,402.26,16.22Z" style="fill:#263238"/><path d="M207.47,8A2.52,2.52,0,1,1,205,5.51,2.51,2.51,0,0,1,207.47,8Z" style="fill:#263238"/><path d="M214.69,8a2.52,2.52,0,1,1-2.52-2.51A2.51,2.51,0,0,1,214.69,8Z" style="fill:#263238"/><path d="M221.9,8a2.51,2.51,0,1,1-2.51-2.51A2.51,2.51,0,0,1,221.9,8Z" style="fill:#263238"/><path d="M402.63,313.65c0-2.14-.1-128.94-.24-313.39l.24.24L195.84.52h0l.26-.26c0,118.26,0,227.29-.05,313.39l-.21-.21,206.81.21-206.81.2h-.21v-.2c0-86.1,0-195.13-.05-313.39V0h.28L402.63,0h.24V.26C402.73,184.71,402.63,311.51,402.63,313.65Z" style="fill:#263238"/></g><g id="Plant"><path d="M398.85,398.11a2.1,2.1,0,0,0-.17-.41c-.13-.29-.32-.68-.55-1.17a30.6,30.6,0,0,1-1.61-4.69,41.35,41.35,0,0,1,.14-18.11A97,97,0,0,1,400,361.57c1.43-4.32,3.08-8.9,4.43-13.85a53.8,53.8,0,0,0,2.18-15.92c-.21-5.64-1.87-11.26-3.71-16.85s-3.72-11.09-4.29-16.6A25.25,25.25,0,0,1,401.67,283c2.42-4.47,5.48-8.3,7.76-12.26A42.55,42.55,0,0,0,414.1,259a44,44,0,0,0,.3-18.26,33.45,33.45,0,0,0-1.91-6.44,2.9,2.9,0,0,0,.11.42c.1.31.23.72.39,1.24a45.64,45.64,0,0,1,1.18,4.83,44.38,44.38,0,0,1-.47,18.11A42.38,42.38,0,0,1,409,270.53c-2.28,3.91-5.35,7.72-7.83,12.25a25.84,25.84,0,0,0-3.13,15.63c.57,5.6,2.47,11.12,4.3,16.72s3.48,11.15,3.69,16.69a53.37,53.37,0,0,1-2.13,15.76c-1.33,4.92-3,9.51-4.36,13.83a95.33,95.33,0,0,0-3.31,12.24c-1.53,7.62-1.1,14.06.05,18.24a26.75,26.75,0,0,0,1.73,4.69l.6,1.15A3.88,3.88,0,0,0,398.85,398.11Z" style="fill:#263238"/><path d="M406.33,274.68s4.64-14.84-3.69-23.53a.51.51,0,0,0-.88.26C401.32,253.86,400.76,261.32,406.33,274.68Z" style="fill:#e8505b"/><path d="M403.55,256.1a13.33,13.33,0,0,0,.31,2.74c.31,1.88.66,4.09,1.06,6.54l1,6.54a15,15,0,0,0,.49,2.71,11.1,11.1,0,0,0-.08-2.76c-.16-1.69-.46-4-.88-6.58s-.86-4.87-1.22-6.53A12.57,12.57,0,0,0,403.55,256.1Z" style="fill:#263238"/><path d="M400.88,309.68S398,294.39,386.62,290.6a.52.52,0,0,0-.66.64C386.71,293.62,389.71,300.47,400.88,309.68Z" style="fill:#e8505b"/><path d="M389.73,294.55a13.76,13.76,0,0,0,1.56,2.28l4,5.29c1.49,2,2.84,3.77,4,5.3a15.67,15.67,0,0,0,1.7,2.16,10.84,10.84,0,0,0-1.36-2.4c-.93-1.43-2.28-3.35-3.85-5.42s-3-3.89-4.14-5.19A12.66,12.66,0,0,0,389.73,294.55Z" style="fill:#263238"/><path d="M404,348s1.73-15.46-8.1-22.4a.52.52,0,0,0-.82.42C395.07,328.54,396,336,404,348Z" style="fill:#e8505b"/><path d="M397.69,330.32a13.65,13.65,0,0,0,.83,2.62l2.29,6.23,2.26,6.22a15.34,15.34,0,0,0,1,2.57,10.88,10.88,0,0,0-.6-2.7c-.48-1.63-1.22-3.86-2.12-6.3s-1.78-4.61-2.45-6.17A12,12,0,0,0,397.69,330.32Z" style="fill:#263238"/><path d="M395.36,386.6s1.17-15.5-8.9-22.09a.52.52,0,0,0-.8.45C385.78,367.45,386.92,374.84,395.36,386.6Z" style="fill:#e8505b"/><path d="M388.46,369.12a12.9,12.9,0,0,0,.92,2.6l2.51,6.14,2.49,6.14a14.24,14.24,0,0,0,1.09,2.52,11.92,11.92,0,0,0-.71-2.66c-.53-1.62-1.35-3.82-2.33-6.22s-1.95-4.55-2.67-6.08A12.94,12.94,0,0,0,388.46,369.12Z" style="fill:#263238"/><path d="M413,261.64s13.78-7.19,14.05-19.22a.51.51,0,0,0-.8-.45C424.2,243.39,418.52,248.27,413,261.64Z" style="fill:#e8505b"/><path d="M424.19,246.55a13.62,13.62,0,0,0-1.72,2.15l-3.88,5.38-3.9,5.35a14,14,0,0,0-1.57,2.27,12.54,12.54,0,0,0,1.89-2c1.09-1.31,2.53-3.17,4.05-5.27s2.83-4,3.75-5.48A13.07,13.07,0,0,0,424.19,246.55Z" style="fill:#263238"/><path d="M398.2,293.51s14.19-6.35,15.19-18.34a.51.51,0,0,0-.77-.49C410.49,276,404.53,280.5,398.2,293.51Z" style="fill:#e8505b"/><path d="M410.28,279.12a15.57,15.57,0,0,0-1.84,2.05l-4.2,5.13L400,291.41a15.17,15.17,0,0,0-1.71,2.16,11.42,11.42,0,0,0,2-1.89c1.17-1.24,2.72-3,4.36-5s3.07-3.87,4.07-5.25A11.56,11.56,0,0,0,410.28,279.12Z" style="fill:#263238"/><path d="M406.37,329.06s9.74-12.12,5.17-23.25a.51.51,0,0,0-.91-.08C409.32,307.85,406.07,314.59,406.37,329.06Z" style="fill:#e8505b"/><path d="M410.57,310.74a14.46,14.46,0,0,0-.71,2.67c-.4,1.86-.88,4-1.41,6.48L407,326.36a13.41,13.41,0,0,0-.53,2.7,11.87,11.87,0,0,0,.93-2.6c.47-1.63,1.05-3.91,1.59-6.45s1-4.85,1.25-6.53A12,12,0,0,0,410.57,310.74Z" style="fill:#263238"/><path d="M396.71,370.89s14.09-6.59,14.89-18.59a.52.52,0,0,0-.79-.48C408.7,353.14,402.82,357.77,396.71,370.89Z" style="fill:#e8505b"/><path d="M408.56,356.3a12.61,12.61,0,0,0-1.81,2.08l-4.12,5.19-4.13,5.19a15.17,15.17,0,0,0-1.67,2.18,11,11,0,0,0,2-1.92c1.15-1.25,2.67-3,4.27-5.09s3-3.92,4-5.31A12.86,12.86,0,0,0,408.56,356.3Z" style="fill:#263238"/><path d="M368.66,309.76a1.3,1.3,0,0,0,0,.34c0,.27,0,.6,0,1,0,.93.09,2.19.16,3.77.18,3.31.44,7.93.74,13.46h0v0c1,5.63,3.88,11.86,7.72,17.92,2.83,4.46,5.79,8.51,8.34,12.28a87.24,87.24,0,0,1,6.25,10.33,44,44,0,0,1,2.92,7.58c.25.93.43,1.65.54,2.15a4.35,4.35,0,0,0,.21.75,3.69,3.69,0,0,0-.09-.77c-.07-.51-.23-1.24-.44-2.19a40.42,40.42,0,0,0-2.77-7.7,83.69,83.69,0,0,0-6.18-10.45c-2.53-3.8-5.48-7.86-8.28-12.29-3.83-6-6.68-12.17-7.73-17.7v0c-.39-5.52-.71-10.14-.95-13.45-.12-1.57-.23-2.83-.3-3.76,0-.4-.07-.72-.1-1A1.66,1.66,0,0,0,368.66,309.76Z" style="fill:#263238"/><path d="M377.05,345.12s-6-14.36,1.53-23.76a.52.52,0,0,1,.91.17C380.15,323.93,381.38,331.31,377.05,345.12Z" style="fill:#e8505b"/><path d="M378.13,326.36a12.44,12.44,0,0,0-.47,2.72c-.21,1.69-.45,4-.63,6.61s-.28,4.94-.28,6.64a12.06,12.06,0,0,0,.17,2.75,14.51,14.51,0,0,0,.24-2.74c.13-1.9.28-4.14.45-6.61s.33-4.71.46-6.61A14,14,0,0,0,378.13,326.36Z" style="fill:#263238"/><g style="opacity:0.30000000000000004"><path d="M377.05,345.12s-6-14.36,1.53-23.76a.52.52,0,0,1,.91.17C380.15,323.93,381.38,331.31,377.05,345.12Z"/></g><path d="M395.52,379.72s-4.78-14.8,3.46-23.56a.51.51,0,0,1,.88.24C400.33,358.85,401,366.31,395.52,379.72Z" style="fill:#e8505b"/><path d="M398.12,361.11a13.68,13.68,0,0,0-.69,2.67c-.34,1.66-.77,4-1.16,6.54s-.68,4.9-.81,6.59a11,11,0,0,0-.06,2.76,14.73,14.73,0,0,0,.46-2.71c.29-1.89.62-4.11,1-6.55s.71-4.67,1-6.56A13.39,13.39,0,0,0,398.12,361.11Z" style="fill:#263238"/><g style="opacity:0.30000000000000004"><path d="M395.52,379.72s-4.78-14.8,3.46-23.56a.51.51,0,0,1,.88.24C400.33,358.85,401,366.31,395.52,379.72Z"/></g><path d="M369.45,327.57s-12.74-8.91-11.45-20.88a.51.51,0,0,1,.85-.33C360.7,308,365.7,313.6,369.45,327.57Z" style="fill:#e8505b"/><g style="opacity:0.30000000000000004"><path d="M369.45,327.57s-12.74-8.91-11.45-20.88a.51.51,0,0,1,.85-.33C360.7,308,365.7,313.6,369.45,327.57Z"/></g><path d="M360.3,311.16a12.35,12.35,0,0,0,1.06,2.55c.73,1.53,1.78,3.63,3,5.91s2.42,4.32,3.34,5.76a11.65,11.65,0,0,0,1.61,2.23,13.85,13.85,0,0,0-1.26-2.44l-3.17-5.82c-1.19-2.18-2.25-4.15-3.16-5.83A13.74,13.74,0,0,0,360.3,311.16Z" style="fill:#263238"/><path d="M390.38,365.05s-15.36-2.39-19.47-13.7a.51.51,0,0,1,.62-.68C373.92,351.36,380.86,354.16,390.38,365.05Z" style="fill:#e8505b"/><g style="opacity:0.30000000000000004"><path d="M390.38,365.05s-15.36-2.39-19.47-13.7a.51.51,0,0,1,.62-.68C373.92,351.36,380.86,354.16,390.38,365.05Z"/></g><path d="M374.94,354.35a13.49,13.49,0,0,0,2.08,1.82c1.32,1.06,3.2,2.47,5.31,4s4.07,2.81,5.52,3.7a12,12,0,0,0,2.44,1.29,15.43,15.43,0,0,0-2.21-1.64l-5.42-3.82c-2-1.44-3.84-2.74-5.4-3.84A12.57,12.57,0,0,0,374.94,354.35Z" style="fill:#263238"/><polygon points="408.56 393.32 404.15 422.22 386.56 422.19 380.63 393.32 408.56 393.32" style="fill:#455a64"/><path d="M392.5,402.6a4.89,4.89,0,0,0,.82-2.42,2.63,2.63,0,0,0-1.2-2.48,2.84,2.84,0,0,0-2.95.24,4.32,4.32,0,0,0-1.68,2.66,11.42,11.42,0,0,0-.22,3.26,11,11,0,0,0,.71,3.34,7.42,7.42,0,0,0,2,2.91,5.71,5.71,0,0,0,3.39,1.41,6.15,6.15,0,0,0,3.52-1,10.52,10.52,0,0,0,2.63-2.38,5.76,5.76,0,0,0,1.33-3.17,3.66,3.66,0,0,0-1.25-3.06,2.86,2.86,0,0,0-3.12-.19,3.37,3.37,0,0,0-1.8,2.35,4.54,4.54,0,0,0,2.23,4.58,6.25,6.25,0,0,0,4.25.61,9.6,9.6,0,0,0,3-1.18,16.46,16.46,0,0,0,1.7-1.15,3.8,3.8,0,0,0,.54-.46,3.82,3.82,0,0,0-.6.38,19.91,19.91,0,0,1-1.73,1.06,9.54,9.54,0,0,1-3,1.09,6,6,0,0,1-4-.65,4.15,4.15,0,0,1-2-4.2,2.93,2.93,0,0,1,1.6-2.06,2.43,2.43,0,0,1,2.65.17,3.22,3.22,0,0,1,1.06,2.68,5.32,5.32,0,0,1-1.24,2.91,10,10,0,0,1-2.51,2.26,5.79,5.79,0,0,1-3.25,1,5.17,5.17,0,0,1-3.1-1.3,7,7,0,0,1-1.91-2.72,10.48,10.48,0,0,1-.69-3.19,10.83,10.83,0,0,1,.19-3.13,3.87,3.87,0,0,1,1.49-2.41,2.44,2.44,0,0,1,2.51-.24,2.23,2.23,0,0,1,1,2.12,4.5,4.5,0,0,1-.72,2.24,6.55,6.55,0,0,1-3.29,2.46,7.17,7.17,0,0,1-3.12.37,7.88,7.88,0,0,1-2.6-.77s0,0,.15.11a4.7,4.7,0,0,0,.46.26,6.27,6.27,0,0,0,2,.59,7.25,7.25,0,0,0,3.23-.3,6.81,6.81,0,0,0,3.48-2.53" style="fill:#263238"/></g></g></svg>