<svg xmlns="http://www.w3.org/2000/svg" viewBox="0 0 731.93 470.84"><title>Red</title><g id="Capa_2" data-name="Capa 2"><g id="Background_Complete" data-name="Background Complete"><path d="M452.58,234.25l-122.87-1.14-37.23-.17-10.13,0-2.63,0a6.3,6.3,0,0,0-.9,0,5.27,5.27,0,0,0,.9.06l2.63.06,10.13.12,37.23.19,122.87.08c48,0,91.38.06,122.82.28,15.72.11,28.44.25,37.23.41,4.4.09,7.81.17,10.13.26a19.53,19.53,0,0,1,3.53.25,18.9,18.9,0,0,1-3.54.23c-2.31.06-5.73.11-10.12.15-8.79.08-21.52.09-37.24.05C544,235.09,500.53,234.72,452.58,234.25Z" style="fill:#ebebeb"/><path d="M451.62,244.65,330.43,225.17l-36.75-5.73-10-1.49-2.6-.36a5.44,5.44,0,0,0-.9-.08,8.33,8.33,0,0,0,.88.19l2.59.45,10,1.64,36.75,5.76L451.74,244C499.11,251.12,542,257.66,573,262.58c15.51,2.46,28.06,4.5,36.71,6,4.33.73,7.69,1.33,10,1.76a17.73,17.73,0,0,1,3.45.79,20.1,20.1,0,0,1-3.53-.31c-2.3-.28-5.68-.74-10-1.36-8.69-1.23-21.27-3.11-36.79-5.51C541.75,259.15,498.91,252.3,451.62,244.65Z" style="fill:#ebebeb"/><path d="M449,254.79,332.5,217.19,297.14,206l-9.64-3-2.51-.75a5.49,5.49,0,0,0-.87-.22,4.68,4.68,0,0,0,.83.32l2.49.85,9.58,3.12,35.35,11.25,116.84,36.56c45.61,14.24,86.9,27.19,116.72,36.74,14.92,4.78,27,8.7,35.28,11.47,4.15,1.38,7.37,2.48,9.54,3.25a18.33,18.33,0,0,1,3.27,1.3,19.42,19.42,0,0,1-3.43-.83c-2.22-.63-5.49-1.59-9.68-2.86-8.39-2.54-20.49-6.3-35.43-11C535.61,282.76,494.43,269.5,449,254.79Z" style="fill:#ebebeb"/><path d="M444.72,264.39,335.84,209.65l-33.08-16.43-9-4.41-2.36-1.12a8.45,8.45,0,0,0-.83-.35,5.34,5.34,0,0,0,.77.45l2.32,1.2,9,4.54L335.65,210l109.4,53.79c42.71,21,81.36,40,109.25,53.94,14,7,25.21,12.66,33,16.65,3.88,2,6.88,3.56,8.89,4.65a18.22,18.22,0,0,1,3,1.78,19,19,0,0,1-3.26-1.35c-2.09-.95-5.15-2.4-9.09-4.29-7.86-3.77-19.2-9.32-33.18-16.23C525.69,305.1,487.19,285.79,444.72,264.39Z" style="fill:#ebebeb"/><path d="M438.94,273.23,340.3,202.8l-30-21.2c-3.54-2.47-6.29-4.39-8.2-5.71l-2.15-1.46a8,8,0,0,0-.75-.47,5.17,5.17,0,0,0,.69.56l2.09,1.53c1.88,1.36,4.6,3.32,8.11,5.83l30,21.22,99.31,69.57c38.78,27.12,73.85,51.73,99.13,69.7,12.65,9,22.84,16.29,29.85,21.4,3.51,2.55,6.21,4.55,8,5.93a18.13,18.13,0,0,1,2.7,2.21,17.72,17.72,0,0,1-3-1.82c-1.91-1.26-4.7-3.14-8.28-5.6-7.16-4.91-17.45-12.09-30.14-21C512.3,325.61,477.41,300.75,438.94,273.23Z" style="fill:#ebebeb"/><path d="M431.8,281.09l-86.05-84.32-26.21-25.43-7.17-6.86-1.89-1.77a6,6,0,0,0-.67-.57,6.93,6.93,0,0,0,.59.65l1.82,1.83,7.06,7L345.47,197l86.84,83.56c33.92,32.59,64.59,62.15,86.66,83.68,11,10.76,19.92,19.51,26,25.6,3,3.05,5.4,5.43,7,7.06a18.58,18.58,0,0,1,2.31,2.59,19,19,0,0,1-2.67-2.25c-1.68-1.52-4.13-3.81-7.27-6.77C538.05,384.59,529,376,518,365.24,495.79,343.81,465.35,314,431.8,281.09Z" style="fill:#ebebeb"/><path d="M423.47,287.79l-71.35-96.16-21.78-29-6-7.85-1.58-2a5.79,5.79,0,0,0-.56-.67,4.71,4.71,0,0,0,.47.73c.36.49.86,1.18,1.5,2.08l5.86,7.94c5.15,6.89,12.58,16.8,21.75,29l72.26,95.54c28.23,37.26,53.75,71.05,72.06,95.61,9.16,12.28,16.53,22.25,21.57,29.18,2.52,3.47,4.45,6.17,5.74,8a17.44,17.44,0,0,1,1.86,2.9,18,18,0,0,1-2.27-2.61c-1.42-1.77-3.47-4.39-6.09-7.78-5.24-6.79-12.74-16.67-22-28.91C476.54,359.31,451.29,325.35,423.47,287.79Z" style="fill:#ebebeb"/><path d="M414.16,293.17,359.33,187.46c-7.08-13.47-12.81-24.38-16.78-32l-4.64-8.66c-.53-1-.93-1.71-1.23-2.24a4.42,4.42,0,0,0-.45-.74,5.11,5.11,0,0,0,.35.79l1.14,2.28c1,2,2.55,5,4.49,8.73l16.76,32,55.84,105.22c21.83,41,41.53,78.26,55.63,105.27,7.05,13.51,12.7,24.46,16.55,32.07,1.92,3.8,3.4,6.76,4.37,8.78a16.86,16.86,0,0,1,1.36,3.14,17.39,17.39,0,0,1-1.81-2.92c-1.12-1.95-2.72-4.85-4.75-8.6-4.08-7.49-9.88-18.37-17-31.85C455,371.78,435.53,334.44,414.16,293.17Z" style="fill:#ebebeb"/><path d="M404.09,297.07,367.24,184.38,355.9,150.29c-1.37-4-2.43-7.1-3.16-9.25-.37-1-.65-1.83-.85-2.4a4.8,4.8,0,0,0-.33-.8,5.44,5.44,0,0,0,.22.84c.18.57.43,1.38.75,2.42l3,9.3c2.68,8.08,6.54,19.72,11.32,34.1C376.57,213.28,390,253,404.78,296.85S433,380.42,442.49,409.23c4.76,14.4,8.55,26.08,11.1,34.16,1.28,4.05,2.25,7.2,2.88,9.34a17.91,17.91,0,0,1,.83,3.31,17,17,0,0,1-1.32-3.16c-.78-2.1-1.89-5.2-3.28-9.21-2.8-8-6.75-19.64-11.57-34C431.5,380.87,418.44,341.06,404.09,297.07Z" style="fill:#ebebeb"/><path d="M393.51,299.39c-7-45.63-13.36-86.92-18-116.85-2.37-14.92-4.29-27-5.62-35.39l-1.6-9.61q-.29-1.6-.45-2.49a5.63,5.63,0,0,0-.19-.85,5.08,5.08,0,0,0,.08.87c.08.59.2,1.42.35,2.5.33,2.24.82,5.48,1.44,9.64,1.33,8.39,3.24,20.47,5.6,35.39,4.88,29.89,11.62,71.12,19.06,116.69S408.4,386.08,413.07,416c2.33,14.94,4.17,27,5.37,35.42.6,4.18,1,7.44,1.31,9.65a16.55,16.55,0,0,1,.28,3.39,16.93,16.93,0,0,1-.78-3.32c-.43-2.18-1-5.42-1.74-9.59-1.45-8.33-3.45-20.41-5.85-35.35C406.86,386.3,400.48,345,393.51,299.39Z" style="fill:#ebebeb"/><path d="M382.67,300.1c.43-46.12.82-87.86,1.1-118.12.07-15.09.12-27.31.16-35.79,0-4.2,0-7.48,0-9.73,0-1.09,0-1.93,0-2.54a4.35,4.35,0,0,0-.05-.86,8.08,8.08,0,0,0-.05.86c0,.61,0,1.45-.06,2.54,0,2.25-.07,5.52-.13,9.73,0,8.48-.1,20.7-.17,35.79,0,30.26,0,72,0,118.13s0,87.85-.21,118.07c-.11,15.11-.25,27.34-.41,35.79-.08,4.23-.17,7.51-.26,9.74a18.41,18.41,0,0,1-.26,3.39,16.7,16.7,0,0,1-.24-3.4c-.06-2.22-.12-5.5-.16-9.73-.09-8.45-.11-20.68-.08-35.8C381.85,388,382.2,346.2,382.67,300.1Z" style="fill:#ebebeb"/><path d="M371.84,299.19c7.89-45.5,15-86.67,20.2-116.52,2.5-14.9,4.53-27,5.93-35.33.67-4.16,1.19-7.39,1.54-9.62.16-1.08.29-1.91.37-2.51a4.67,4.67,0,0,0,.09-.86,5.81,5.81,0,0,0-.2.84c-.11.59-.26,1.42-.47,2.49-.39,2.23-1,5.45-1.69,9.6-1.42,8.37-3.45,20.43-6,35.33C386.75,212.5,380,253.74,372.56,299.3s-14.19,86.79-19.29,116.61c-2.54,14.91-4.66,27-6.19,35.3-.77,4.16-1.38,7.39-1.83,9.57a16.22,16.22,0,0,1-.82,3.31,18.09,18.09,0,0,1,.32-3.38c.29-2.21.76-5.46,1.4-9.65,1.29-8.36,3.23-20.44,5.72-35.37C356.82,385.85,363.92,344.66,371.84,299.19Z" style="fill:#ebebeb"/><path d="M361.3,296.66l39-112,11.65-34,3.1-9.27c.33-1,.59-1.84.77-2.42a4.73,4.73,0,0,0,.23-.84,5.26,5.26,0,0,0-.33.81l-.88,2.38c-.75,2.14-1.84,5.24-3.25,9.22-2.76,8.06-6.75,19.66-11.67,34-9.73,28.78-23.14,68.48-38,112.35s-28.23,83.55-38.14,112.23c-5,14.34-9,25.93-11.9,33.92-1.44,4-2.58,7.09-3.38,9.18a17.69,17.69,0,0,1-1.35,3.15,16.77,16.77,0,0,1,.86-3.3c.65-2.14,1.65-5.28,3-9.31,2.63-8.07,6.54-19.71,11.43-34.07C332.26,380,346,340.36,361.3,296.66Z" style="fill:#ebebeb"/><path d="M351.31,292.56l56.87-104.7L425.25,156c2-3.75,3.52-6.66,4.58-8.68.5-1,.89-1.73,1.16-2.27a4,4,0,0,0,.36-.79,6,6,0,0,0-.46.74c-.29.53-.71,1.27-1.25,2.23l-4.71,8.61c-4.06,7.54-9.89,18.39-17.1,31.8L352,292.88C330.17,334,310.39,371.12,295.9,398c-7.24,13.41-13.15,24.24-17.3,31.69-2.07,3.73-3.7,6.62-4.83,8.56a18.1,18.1,0,0,1-1.84,2.9,16.86,16.86,0,0,1,1.39-3.12c1-2,2.5-5,4.46-8.75,3.92-7.56,9.68-18.47,16.87-31.91C309,370.44,329.08,333.41,351.31,292.56Z" style="fill:#ebebeb"/><path d="M342.11,287l73.2-94.87,22-28.85,5.94-7.89,1.51-2.07a4.57,4.57,0,0,0,.49-.73,6.86,6.86,0,0,0-.58.67q-.57.71-1.59,2c-1.41,1.81-3.45,4.43-6.06,7.8L415,191.92l-72.3,95.51c-28.18,37.29-53.76,71-72.44,95.35-9.33,12.16-16.93,22-22.24,28.71-2.65,3.37-4.73,6-6.16,7.72a17.88,17.88,0,0,1-2.3,2.59,17.55,17.55,0,0,1,1.89-2.88c1.31-1.84,3.27-4.52,5.82-8,5.11-6.88,12.57-16.78,21.85-29C287.67,357.57,313.51,324,342.11,287Z" style="fill:#ebebeb"/><path d="M333.92,280.15l87.66-82.77L448,172.17l7.13-6.9,1.84-1.82a5.91,5.91,0,0,0,.6-.64,4,4,0,0,0-.68.57L455,165.12l-7.24,6.8-26.45,25.19-86.88,83.54c-33.87,32.63-64.6,62.13-87,83.36-11.19,10.61-20.28,19.17-26.62,25-3.16,2.93-5.64,5.19-7.34,6.71a18.28,18.28,0,0,1-2.68,2.21,17.87,17.87,0,0,1,2.33-2.56c1.59-1.62,4-4,7-7,6.16-6,15.13-14.71,26.27-25.37C268.73,341.72,299.69,312.44,333.92,280.15Z" style="fill:#ebebeb"/><path d="M327,272.16l100-68.66,30.2-20.95,8.16-5.76,2.11-1.52a5.37,5.37,0,0,0,.69-.54,4.7,4.7,0,0,0-.76.46l-2.16,1.44-8.26,5.63L426.7,203.19l-99.33,69.53c-38.74,27.17-73.87,51.72-99.41,69.34-12.77,8.81-23.14,15.9-30.34,20.75-3.6,2.42-6.41,4.28-8.34,5.52a18.37,18.37,0,0,1-3,1.79,18.27,18.27,0,0,1,2.72-2.18c1.83-1.36,4.56-3.34,8.08-5.86,7.06-5,17.33-12.26,30.06-21.13C252.59,323.22,287.91,298.93,327,272.16Z" style="fill:#ebebeb"/><path d="M321.36,263.21l109.92-52.78,33.23-16.16,9-4.45,2.32-1.19a4.78,4.78,0,0,0,.78-.44,6.11,6.11,0,0,0-.83.35l-2.37,1.09L464.34,194,431.1,210.08,321.68,263.83c-42.68,21-81.37,40-109.46,53.55-14.05,6.78-25.44,12.23-33.34,15.93-4,1.85-7,3.27-9.14,4.2a19.32,19.32,0,0,1-3.26,1.32,17.47,17.47,0,0,1,3-1.75c2-1.07,5.05-2.61,8.94-4.57,7.79-3.92,19.11-9.51,33.13-16.35C239.6,302.47,278.44,283.78,321.36,263.21Z" style="fill:#ebebeb"/><path d="M317.29,253.53,434.48,218l35.46-10.93,9.62-3,2.49-.81a6.58,6.58,0,0,0,.84-.32,6,6,0,0,0-.87.21l-2.53.73-9.66,2.89-35.47,10.9L317.51,254.2c-45.59,14.29-86.9,27.17-116.86,36.32-15,4.58-27.12,8.23-35.54,10.69-4.2,1.23-7.48,2.16-9.7,2.77a19.59,19.59,0,0,1-3.44.8,19.13,19.13,0,0,1,3.28-1.27c2.18-.75,5.41-1.81,9.58-3.16,8.33-2.69,20.42-6.5,35.38-11.14C230.13,279.93,271.54,267.35,317.29,253.53Z" style="fill:#ebebeb"/><path d="M314.86,243.35,436.41,226l36.8-5.42,10-1.55,2.59-.43a6,6,0,0,0,.88-.19,7.51,7.51,0,0,0-.9.08l-2.61.34-10,1.39-36.8,5.4L315,244c-47.36,7.22-90.26,13.69-121.35,18.19-15.54,2.26-28.13,4-36.84,5.19-4.36.58-7.74,1-10,1.26a19,19,0,0,1-3.53.28,18.61,18.61,0,0,1,3.45-.76c2.28-.41,5.64-1,10-1.67,8.67-1.4,21.23-3.33,36.76-5.65C224.47,256.24,267.42,250.08,314.86,243.35Z" style="fill:#ebebeb"/><path d="M314.12,232.94l122.87,1,37.23.13,10.13,0,2.63,0a7.85,7.85,0,0,0,.9,0,5.27,5.27,0,0,0-.9-.06l-2.63-.06-10.13-.11L437,233.56l-122.87.07c-48,.07-91.38.06-122.82-.13-15.72-.09-28.44-.22-37.23-.37-4.4-.08-7.81-.16-10.13-.24a19.53,19.53,0,0,1-3.53-.25,18.72,18.72,0,0,1,3.53-.23c2.32-.07,5.73-.12,10.13-.17,8.79-.08,21.51-.12,37.23-.09C222.74,232.2,266.17,232.52,314.12,232.94Z" style="fill:#ebebeb"/><path d="M315.06,222.53l121.22,19.34L473,247.55l10,1.48,2.6.35a6.55,6.55,0,0,0,.9.09,4.68,4.68,0,0,0-.88-.19l-2.59-.46-10-1.62-36.76-5.71L315,223.22c-47.39-7.1-90.29-13.59-121.31-18.47-15.51-2.44-28.06-4.47-36.72-5.93-4.33-.73-7.69-1.32-10-1.75a19.74,19.74,0,0,1-3.45-.78,18.21,18.21,0,0,1,3.53.3c2.3.27,5.68.73,10,1.34,8.7,1.23,21.27,3.09,36.8,5.47C224.91,208.14,267.76,214.94,315.06,222.53Z" style="fill:#ebebeb"/><path d="M317.69,212.39l116.53,37.45L469.59,261l9.64,3,2.52.75a8.07,8.07,0,0,0,.87.22,4.61,4.61,0,0,0-.83-.33l-2.49-.83-9.59-3.12-35.36-11.21L317.46,213.06c-45.63-14.18-86.93-27.09-116.77-36.6-14.92-4.76-27-8.66-35.29-11.42-4.15-1.38-7.37-2.47-9.55-3.24a17.42,17.42,0,0,1-3.27-1.3,19.2,19.2,0,0,1,3.43.83c2.23.62,5.49,1.58,9.69,2.85,8.39,2.52,20.5,6.27,35.44,11C231,184.53,272.22,197.74,317.69,212.39Z" style="fill:#ebebeb"/><path d="M321.94,202.78l109,54.61,33.1,16.4,9,4.39,2.36,1.11a4.78,4.78,0,0,0,.83.35,8,8,0,0,0-.78-.44l-2.31-1.2-9-4.53-33.09-16.42L321.61,203.4c-42.74-20.91-81.41-39.9-109.32-53.81-14-7-25.23-12.63-33-16.61-3.88-2-6.88-3.56-8.9-4.65a17.33,17.33,0,0,1-3-1.77,19.74,19.74,0,0,1,3.26,1.34c2.09,1,5.16,2.4,9.09,4.28,7.87,3.77,19.22,9.3,33.21,16.2C240.91,162.17,279.44,181.44,321.94,202.78Z" style="fill:#ebebeb"/><path d="M327.71,193.94l98.73,70.31,30,21.16,8.21,5.7,2.15,1.46a7.2,7.2,0,0,0,.76.47,4.34,4.34,0,0,0-.69-.56L464.81,291l-8.12-5.82-30-21.19-99.4-69.44c-38.81-27.08-73.92-51.65-99.23-69.58-12.65-9-22.86-16.27-29.87-21.36-3.51-2.55-6.22-4.55-8-5.93a18.59,18.59,0,0,1-2.7-2.2,18.49,18.49,0,0,1,3,1.81c1.91,1.26,4.71,3.14,8.29,5.59,7.16,4.91,17.47,12.08,30.16,21C254.28,141.64,289.2,166.47,327.71,193.94Z" style="fill:#ebebeb"/><path d="M334.84,186.06,421,270.28l26.24,25.4,7.18,6.86c.82.75,1.44,1.34,1.89,1.76a4.84,4.84,0,0,0,.67.57,4.47,4.47,0,0,0-.59-.65l-1.82-1.83-7.07-7L421.28,270l-86.95-83.46c-34-32.55-64.67-62.08-86.77-83.58-11.05-10.74-19.95-19.48-26.05-25.57-3.06-3-5.41-5.42-7-7a17.45,17.45,0,0,1-2.31-2.58A17.83,17.83,0,0,1,214.88,70c1.69,1.53,4.15,3.81,7.29,6.76,6.28,5.92,15.3,14.54,26.4,25.24C270.76,123.43,301.24,153.17,334.84,186.06Z" style="fill:#ebebeb"/><path d="M343.15,179.35l71.49,96.08,21.81,29,6,7.85,1.58,2a5,5,0,0,0,.57.67,4.85,4.85,0,0,0-.48-.73l-1.5-2.08-5.86-7.93-21.79-29-72.39-95.45c-28.29-37.23-53.84-71-72.19-95.53C261.2,72,253.82,62,248.78,55.08c-2.52-3.46-4.46-6.16-5.76-8a17.44,17.44,0,0,1-1.86-2.9,18,18,0,0,1,2.27,2.61c1.42,1.76,3.48,4.38,6.1,7.77,5.25,6.79,12.77,16.65,22,28.89C290,107.9,315.29,141.84,343.15,179.35Z" style="fill:#ebebeb"/><path d="M352.46,174l55,105.64,16.83,31.93c2,3.74,3.56,6.65,4.64,8.65l1.23,2.24a6.33,6.33,0,0,0,.46.75,7,7,0,0,0-.36-.8l-1.14-2.28c-1-2-2.56-5-4.5-8.72l-16.8-31.94-56-105.15c-21.88-41-41.64-78.21-55.77-105.21C289,55.59,283.31,44.64,279.45,37c-1.93-3.8-3.41-6.76-4.38-8.78a17.5,17.5,0,0,1-1.37-3.14A17.47,17.47,0,0,1,275.52,28c1.12,1.95,2.72,4.85,4.76,8.59,4.09,7.49,9.91,18.37,17,31.84C311.57,95.4,331,132.72,352.46,174Z" style="fill:#ebebeb"/><path d="M362.52,170.06c14.45,44,27.53,83.79,37,112.64,4.81,14.37,8.69,26,11.39,34.08,1.37,4,2.44,7.1,3.17,9.24.37,1,.65,1.83.86,2.4a4.41,4.41,0,0,0,.32.8,4.25,4.25,0,0,0-.22-.84c-.18-.57-.43-1.38-.75-2.42-.7-2.16-1.72-5.28-3-9.29l-11.36-34.09c-9.75-28.77-23.21-68.45-38.08-112.31S333.51,86.75,324,58c-4.77-14.4-8.57-26.07-11.14-34.16-1.28-4-2.25-7.19-2.89-9.33a16,16,0,0,1-.83-3.31,18.92,18.92,0,0,1,1.32,3.16c.78,2.1,1.89,5.2,3.3,9.2,2.8,8,6.77,19.64,11.6,34C335,86.28,348.12,126.08,362.52,170.06Z" style="fill:#ebebeb"/><path d="M373.11,167.72c7.07,45.62,13.47,86.91,18.1,116.83,2.39,14.92,4.33,27,5.67,35.38.7,4.15,1.24,7.38,1.62,9.61q.28,1.6.45,2.49a5.63,5.63,0,0,0,.19.85,4.94,4.94,0,0,0-.08-.86c-.08-.6-.2-1.43-.35-2.51l-1.46-9.63c-1.34-8.39-3.26-20.47-5.64-35.39-4.92-29.88-11.72-71.11-19.22-116.67s-14.29-86.77-19-116.65c-2.35-14.94-4.2-27-5.41-35.42-.61-4.18-1.05-7.44-1.33-9.65a16.55,16.55,0,0,1-.28-3.39A18.22,18.22,0,0,1,347.15,6c.43,2.19,1,5.42,1.75,9.59C350.36,24,352.38,36,354.8,51,359.64,80.82,366.08,122.11,373.11,167.72Z" style="fill:#ebebeb"/><path d="M383.94,167c-.37,46.12-.71,87.86-.95,118.12-.05,15.09-.08,27.31-.11,35.79,0,4.21,0,7.48,0,9.73,0,1.09,0,1.93,0,2.54a8.08,8.08,0,0,0,.05.86,4.73,4.73,0,0,0,.06-.86c0-.61,0-1.45.06-2.54,0-2.25.06-5.52.11-9.73,0-8.48.07-20.7.13-35.79,0-30.26-.09-72-.15-118.13s-.11-87.85.06-118.07c.08-15.11.21-27.34.36-35.79.08-4.23.16-7.51.25-9.74A16.39,16.39,0,0,1,384.15,0a18.33,18.33,0,0,1,.23,3.39c.07,2.23.13,5.51.18,9.74.1,8.45.14,20.68.12,35.79C384.65,79.15,384.35,120.9,383.94,167Z" style="fill:#ebebeb"/><path d="M394.77,167.9c-7.82,45.5-14.91,86.69-20,116.54-2.48,14.9-4.49,27-5.89,35.34-.66,4.16-1.17,7.39-1.53,9.62-.15,1.08-.28,1.91-.36,2.51a4.67,4.67,0,0,0-.09.86,5.81,5.81,0,0,0,.2-.84c.11-.59.26-1.42.47-2.49.39-2.23,1-5.46,1.68-9.6,1.4-8.38,3.42-20.44,5.92-35.34,4.84-29.9,11.53-71.14,18.92-116.72S408.13,81,413.19,51.15c2.52-14.91,4.62-27,6.14-35.3.76-4.17,1.37-7.4,1.82-9.58A15.91,15.91,0,0,1,422,3a17.51,17.51,0,0,1-.31,3.39c-.29,2.21-.76,5.46-1.4,9.64-1.27,8.36-3.2,20.45-5.66,35.38C409.68,81.22,402.63,122.42,394.77,167.9Z" style="fill:#ebebeb"/><path d="M405.32,170.41,366.43,282.47l-11.6,34c-1.33,4-2.37,7.12-3.09,9.27-.33,1-.58,1.84-.77,2.42a4.06,4.06,0,0,0-.22.84,7,7,0,0,0,.33-.81c.21-.56.5-1.36.87-2.38.75-2.15,1.84-5.24,3.24-9.23,2.75-8.06,6.73-19.66,11.63-34,9.68-28.79,23-68.51,37.81-112.39s28.11-83.59,38-112.29c4.93-14.34,9-25.94,11.85-33.93,1.43-4,2.57-7.09,3.37-9.18a17.81,17.81,0,0,1,1.34-3.15,16.07,16.07,0,0,1-.86,3.3c-.64,2.14-1.64,5.28-2.95,9.31C452.75,32.33,448.86,44,444,58.34,434.24,87.08,420.53,126.69,405.32,170.41Z" style="fill:#ebebeb"/><path d="M415.31,174.5,358.58,279.27l-17,31.84c-2,3.75-3.51,6.67-4.56,8.68l-1.16,2.28a6,6,0,0,0-.37.79,4.51,4.51,0,0,0,.46-.74c.3-.53.72-1.27,1.25-2.23,1.1-2,2.68-4.9,4.71-8.62l17.05-31.82c14.28-27,34-64.16,55.74-105.27s41.45-78.29,55.91-105.13c7.22-13.43,13.12-24.26,17.25-31.72,2.07-3.73,3.7-6.62,4.83-8.56a17.14,17.14,0,0,1,1.84-2.91A18.76,18.76,0,0,1,493.1,29c-1,2-2.48,5-4.44,8.75-3.91,7.57-9.66,18.48-16.83,31.93C457.51,96.57,437.49,133.62,415.31,174.5Z" style="fill:#ebebeb"/><path d="M424.52,180l-73.08,95-22,28.88-5.92,7.89L322,313.84a5.57,5.57,0,0,0-.48.73,5.35,5.35,0,0,0,.57-.66l1.6-2,6-7.8,22-28.87c18.49-24.48,44-58.27,72.17-95.6s53.68-71.1,72.32-95.44c9.31-12.17,16.9-22,22.2-28.73,2.65-3.37,4.73-6,6.16-7.73a18.87,18.87,0,0,1,2.29-2.6A17.3,17.3,0,0,1,525,48c-1.3,1.84-3.26,4.52-5.81,8-5.09,6.89-12.54,16.8-21.81,29C478.87,109.41,453.07,143,424.52,180Z" style="fill:#ebebeb"/><path d="M432.71,186.88l-87.55,82.89L318.76,295l-7.12,6.91-1.84,1.82a5,5,0,0,0-.59.64,4.84,4.84,0,0,0,.67-.57c.45-.41,1.09-1,1.9-1.75l7.24-6.8L345.44,270l86.76-83.64c33.84-32.67,64.53-62.21,86.88-83.46,11.17-10.63,20.25-19.2,26.58-25.07,3.16-2.94,5.63-5.2,7.33-6.71a19.62,19.62,0,0,1,2.68-2.23,17.73,17.73,0,0,1-2.32,2.57c-1.59,1.62-4,4-7,7-6.14,6.05-15.11,14.73-26.24,25.4C497.83,125.24,466.91,154.56,432.71,186.88Z" style="fill:#ebebeb"/><path d="M439.7,194.87l-99.89,68.79-30.17,21-8.16,5.77-2.1,1.52a4.12,4.12,0,0,0-.69.55,8,8,0,0,0,.75-.47l2.17-1.44c1.91-1.31,4.68-3.21,8.25-5.64L340,264l99.23-69.65c38.71-27.21,73.81-51.8,99.32-69.46,12.76-8.83,23.12-15.93,30.32-20.79,3.6-2.42,6.41-4.29,8.33-5.53a18.37,18.37,0,0,1,3-1.79,20,20,0,0,1-2.72,2.18c-1.83,1.37-4.55,3.35-8.08,5.87-7.05,5-17.31,12.28-30,21.16C514,143.72,478.71,168.06,439.7,194.87Z" style="fill:#ebebeb"/><path d="M445.3,203.81,335.45,256.73l-33.2,16.2-9,4.46-2.32,1.19a6,6,0,0,0-.78.44,5.13,5.13,0,0,0,.83-.34l2.37-1.1,9.06-4.33,33.22-16.17L445,203.19c42.65-21.06,81.32-40.08,109.39-53.68,14-6.8,25.42-12.26,33.32-16,3.95-1.86,7-3.28,9.13-4.22a19.32,19.32,0,0,1,3.26-1.32,17.81,17.81,0,0,1-3,1.76c-2,1.07-5,2.62-8.94,4.58-7.78,3.93-19.09,9.53-33.1,16.39C527,164.46,488.19,183.19,445.3,203.81Z" style="fill:#ebebeb"/><path d="M449.38,213.49,332.24,249.13l-35.45,11-9.61,3.06-2.49.82a8.1,8.1,0,0,0-.84.31,4.66,4.66,0,0,0,.87-.21l2.53-.73,9.66-2.9,35.45-10.95,116.8-36.68C494.73,198.47,536,185.54,566,176.36c15-4.6,27.12-8.27,35.52-10.74,4.21-1.23,7.48-2.17,9.71-2.78a19,19,0,0,1,3.44-.81,18.94,18.94,0,0,1-3.29,1.27c-2.17.76-5.4,1.83-9.57,3.18-8.33,2.7-20.41,6.53-35.37,11.18C536.5,187,495.11,199.61,449.38,213.49Z" style="fill:#ebebeb"/><path d="M451.82,223.66,330.3,241.14l-36.79,5.48-10,1.55-2.59.44a7.3,7.3,0,0,0-.88.18,5.51,5.51,0,0,0,.9-.08l2.61-.33,10-1.41,36.8-5.45L451.71,223C499.07,215.7,542,209.17,573,204.63c15.54-2.27,28.13-4.06,36.84-5.23,4.35-.58,7.74-1,10-1.28a18.17,18.17,0,0,1,3.52-.27,19,19,0,0,1-3.45.75c-2.27.42-5.64,1-10,1.69-8.67,1.41-21.23,3.36-36.76,5.69C542.2,210.66,499.25,216.87,451.82,223.66Z" style="fill:#ebebeb"/><path d="M140.66,396.37a10.23,10.23,0,0,0,6.1-9.48c0-5.65-4.25-10.26-9.56-10.28s-9.62,4.54-9.64,10.2a10.22,10.22,0,0,0,6.12,9.56c-14.79,2.23-14.12,18.29-14.12,18.29l35,.16S155.31,398.58,140.66,396.37Z" style="fill:#ebebeb"/><path d="M371.34,284a29.46,29.46,0,0,1,7.23-3.14l1.49-7.16,12.1-.21,1.74,7.1a29.75,29.75,0,0,1,7.34,2.89l6.12-4,8.7,8.41-3.79,6.25a29.66,29.66,0,0,1,3.15,7.23l7.16,1.49.21,12.1-7.1,1.74A29.75,29.75,0,0,1,412.8,324l4,6.12-8.41,8.71L402.15,335a29.53,29.53,0,0,1-7.24,3.14l-1.49,7.16-12.09.21-1.75-7.1a30.06,30.06,0,0,1-7.34-2.89l-6.11,4-8.71-8.41,3.79-6.25a29.63,29.63,0,0,1-3.14-7.23l-7.16-1.49-.21-12.1,7.1-1.74a29.58,29.58,0,0,1,2.89-7.35l-4-6.11,8.4-8.71,6.26,3.79Zm6.45,16.12a13,13,0,1,0,18.35-.32A13,13,0,0,0,377.79,300.09Z" style="fill:#e0e0e0"/><path d="M377.79,300.09A10,10,0,0,1,380.2,298a12.91,12.91,0,0,1,8.47-2,13.12,13.12,0,0,1,10.41,7.29,13.38,13.38,0,0,1,1.26,7.64,13.27,13.27,0,0,1-11,11.35,12.8,12.8,0,0,1-4,.07,12.22,12.22,0,0,1-3.68-1.06,13.25,13.25,0,0,1-5.41-4.46,13.14,13.14,0,0,1-.54-14.22,9.63,9.63,0,0,1,2-2.49,30.72,30.72,0,0,0-1.79,2.64,12.9,12.9,0,0,0-1.43,8.31,12.53,12.53,0,0,0,2.23,5.4,12.68,12.68,0,0,0,5.18,4.2,12.73,12.73,0,0,0,7.28.89,12.55,12.55,0,0,0,10.35-10.73,12.73,12.73,0,0,0-1.14-7.24,12.7,12.7,0,0,0-9.86-7.07,12.91,12.91,0,0,0-8.25,1.73C378.61,299.28,377.85,300.16,377.79,300.09Z" style="fill:#e0e0e0"/><path d="M371.34,284a1.84,1.84,0,0,1-.41-.21l-1.2-.69L365,280.29l.15,0L356.82,289l0-.23,4,6.09.07.11-.06.12A29.29,29.29,0,0,0,358,302.4l0,.15-.14,0-7.1,1.76.2-.26c.08,3.81.16,7.86.24,12.1l-.23-.28,7.16,1.48.18,0,.05.18a29.72,29.72,0,0,0,3.13,7.16l.1.16-.1.17c-1.17,1.94-2.47,4.08-3.78,6.26l-.06-.42,8.72,8.4-.43,0,6.11-4,.18-.11.19.1a29.23,29.23,0,0,0,7.25,2.85l.21,0,.05.21c.55,2.23,1.15,4.65,1.75,7.11l-.36-.28,12.1-.22-.36.29,1.49-7.16.05-.22.21-.06a29,29,0,0,0,7.14-3.1h0l.19-.12.19.12c2.1,1.27,4.19,2.53,6.25,3.79l-.46.06q4.28-4.41,8.41-8.71l0,.46-4-6.12-.12-.18.11-.19a29.74,29.74,0,0,0,2.86-7.25l.05-.21.21-.06,7.11-1.73-.27.35q-.1-6.19-.2-12.1l.27.33-7.16-1.5-.2,0,0-.2a30,30,0,0,0-3.1-7.16l-.1-.16.1-.17c1.3-2.14,2.56-4.22,3.8-6.24l.05.38-8.69-8.42.35,0-6.12,4-.14.09-.14-.08a29.56,29.56,0,0,0-7.27-2.88l-.14,0,0-.14L392,273.51l.21.17-12.1.16.16-.14c-.61,2.86-1.11,5.2-1.53,7.15l0,.08-.07,0a31,31,0,0,0-5.53,2.12l-1.3.68a2,2,0,0,1-.43.22s.13-.1.4-.27.7-.43,1.27-.74a28.91,28.91,0,0,1,5.53-2.24l-.09.09c.4-2,.87-4.31,1.45-7.17l0-.13h.14l12.1-.26h.17l0,.17c.55,2.2,1.13,4.52,1.77,7.1l-.18-.18a29.91,29.91,0,0,1,7.41,2.9h-.27l6.1-4,.19-.12.17.16,8.72,8.38.18.17-.13.22-3.78,6.25v-.33a30.17,30.17,0,0,1,3.19,7.31l-.25-.23,7.16,1.48.27.05v.28q.1,5.9.23,12.1v.28l-.27.07L415.77,317l.27-.26a30.22,30.22,0,0,1-2.92,7.43l0-.38,4,6.12.17.24-.21.22-8.4,8.7-.21.22-.25-.16L402,335.35h.38a30.22,30.22,0,0,1-7.32,3.18l.26-.29-1.49,7.17-.06.28h-.3l-12.1.21H381l-.07-.28c-.6-2.45-1.19-4.88-1.74-7.11l.27.27a30.14,30.14,0,0,1-7.43-2.93h.37l-6.12,4-.23.15-.2-.19-8.7-8.42-.19-.18.14-.23,3.8-6.24v.33a30.13,30.13,0,0,1-3.17-7.32l.24.22-7.16-1.51-.23-.05v-.23c-.06-4.24-.12-8.29-.18-12.1v-.21l.2-.05,7.11-1.72-.18.18a29.86,29.86,0,0,1,2.94-7.39v.22l-4-6.13-.08-.12.1-.11L365,280.1l.07-.07.08.05,4.6,2.87,1.19.75A4.69,4.69,0,0,1,371.34,284Z" style="fill:#e0e0e0"/><path d="M444.76,324.84a17.44,17.44,0,0,1,4.33-1.88l.9-4.29,7.24-.13,1,4.26a18,18,0,0,1,4.4,1.72l3.66-2.39,5.21,5-2.27,3.74a17.82,17.82,0,0,1,1.88,4.33l4.29.89.12,7.24-4.25,1.05a17.67,17.67,0,0,1-1.73,4.39l2.4,3.66-5,5.21-3.74-2.27a17.85,17.85,0,0,1-4.33,1.89l-.9,4.28-7.24.13-1-4.25a17.76,17.76,0,0,1-4.39-1.73l-3.66,2.4-5.22-5,2.27-3.75a18,18,0,0,1-1.88-4.33l-4.29-.89-.12-7.24,4.25-1a17.59,17.59,0,0,1,1.73-4.4l-2.4-3.66,5-5.21,3.74,2.27Zm3.86,9.65a7.77,7.77,0,1,0,11-.2A7.77,7.77,0,0,0,448.62,334.49Z" style="fill:#ebebeb"/><path d="M448.62,334.49a5.78,5.78,0,0,1,1.45-1.27,7.74,7.74,0,0,1,5.07-1.2,7.84,7.84,0,0,1,6.23,4.36,7.64,7.64,0,0,1,.71,2.18,7.42,7.42,0,0,1,0,2.4,7.9,7.9,0,0,1-6.56,6.79,7.38,7.38,0,0,1-2.39,0,7.26,7.26,0,0,1-2.2-.63,8,8,0,0,1-3.24-2.67,7.84,7.84,0,0,1-1.34-3.4,7.68,7.68,0,0,1,1-5.11,5.82,5.82,0,0,1,1.21-1.49c.05,0-.47.51-1.06,1.57a7.7,7.7,0,0,0-.86,5,7.47,7.47,0,0,0,1.33,3.23,7.62,7.62,0,0,0,3.1,2.52,7.34,7.34,0,0,0,2.1.58,7.16,7.16,0,0,0,2.26-.05,7.53,7.53,0,0,0,6.2-6.42,7.55,7.55,0,0,0-.69-4.34,7.66,7.66,0,0,0-10.84-3.19C449.12,334,448.66,334.53,448.62,334.49Z" style="fill:#ebebeb"/><path d="M444.76,324.84a1.55,1.55,0,0,1-.24-.13l-.72-.41L441,322.63h.09l-5,5.24v-.14l2.42,3.65,0,.07,0,.07a17.53,17.53,0,0,0-1.7,4.36l0,.09-.09,0-4.25,1,.13-.15c0,2.28.09,4.7.14,7.24l-.14-.17,4.29.88.11,0,0,.1a17.76,17.76,0,0,0,1.87,4.29l.06.09-.06.1c-.7,1.17-1.48,2.45-2.27,3.75l0-.25,5.22,5-.26,0,3.66-2.4.11-.07.11.06a17.62,17.62,0,0,0,4.34,1.71l.13,0,0,.13c.33,1.33.68,2.78,1,4.25l-.21-.17,7.24-.13-.21.18c.28-1.36.58-2.82.89-4.29l0-.13.13,0a17.49,17.49,0,0,0,4.27-1.85h0l.12-.07.11.07,3.75,2.27-.28,0,5-5.21,0,.27-2.4-3.66-.07-.11.06-.11a17.66,17.66,0,0,0,1.71-4.34l0-.13.13,0,4.25-1-.16.21c0-2.47-.08-4.89-.12-7.24l.16.19-4.28-.89-.12,0,0-.12A17.84,17.84,0,0,0,469.1,331l-.06-.1.06-.1,2.28-3.74,0,.23-5.2-5,.21,0-3.67,2.39-.08,0-.08,0a18,18,0,0,0-4.35-1.72l-.09,0,0-.09c-.37-1.55-.71-2.94-1-4.26l.13.11-7.24.09.09-.08c-.36,1.71-.67,3.11-.92,4.28v0l0,0a17.59,17.59,0,0,0-3.31,1.27l-.78.41a1.56,1.56,0,0,1-.26.13l.24-.17c.17-.1.42-.25.77-.43a16.91,16.91,0,0,1,3.3-1.35l-.05.05c.24-1.17.52-2.58.87-4.29v-.08H450l7.25-.16h.1l0,.1c.32,1.32.67,2.71,1.05,4.25l-.1-.11a18.27,18.27,0,0,1,4.43,1.73h-.16l3.65-2.41.12-.07.09.09,5.23,5,.1.11-.08.12L469.43,331v-.2a18,18,0,0,1,1.91,4.38l-.15-.15,4.29.89.16,0v.17c.05,2.35.09,4.77.14,7.24v.17l-.17,0-4.25,1.05.16-.16a18.15,18.15,0,0,1-1.75,4.45v-.23l2.4,3.66.09.15-.12.13-5,5.21L467,358l-.15-.1-3.75-2.27h.23a18,18,0,0,1-4.38,1.9l.15-.17c-.3,1.47-.61,2.93-.89,4.29l0,.17H458l-7.24.13h-.18l0-.17c-.36-1.47-.71-2.92-1-4.25l.16.16a18,18,0,0,1-4.45-1.76h.22l-3.66,2.39-.14.09-.12-.11-5.2-5-.12-.11.08-.14c.8-1.3,1.57-2.58,2.28-3.73v.19a17.69,17.69,0,0,1-1.9-4.38l.14.13-4.28-.9-.14,0v-.14c0-2.54-.08-5-.11-7.24v-.13l.12,0c1.49-.36,2.93-.7,4.25-1l-.1.11a18,18,0,0,1,1.75-4.42v.13l-2.39-3.67,0-.07.06-.07,5.06-5.18,0,0,.05,0,2.75,1.71.71.46Z" style="fill:#ebebeb"/><rect x="265.6" y="368.97" width="50.57" height="40.43" transform="translate(-118.62 127.68) rotate(-20.66)" style="fill:#fafafa"/><path d="M307.41,361.35l-.22.09-.67.26-2.56,1-9.67,3.69-34.15,12.94.08-.17c4.25,11.26,9.12,24.17,14.28,37.82h0l-.19-.09,47.33-17.82-.08.16c-4.27-11.4-7.81-20.85-10.28-27.46-1.24-3.31-2.2-5.9-2.87-7.68-.32-.88-.57-1.56-.75-2s-.25-.7-.25-.7.1.22.27.67.43,1.13.77,2c.67,1.76,1.66,4.34,2.91,7.63l10.43,27.48,0,.12-.12,0-47.31,17.87-.13,0,0-.14h0c-5.14-13.66-10-26.57-14.25-37.83l0-.13.12,0,34.27-12.85,9.67-3.61,2.55-.95.65-.24Z" style="fill:#e0e0e0"/><rect x="267.35" y="371.53" width="47.02" height="35.34" transform="translate(-118.62 127.67) rotate(-20.66)" style="fill:#ebebeb"/><polygon points="275.1 414.02 282.71 387.68 297.08 396.94 300.94 387.63 319.09 397.43 275.1 414.02" style="fill:#e0e0e0"/><path d="M295.32,380a3.7,3.7,0,1,1-4.77-2.15A3.7,3.7,0,0,1,295.32,380Z" style="fill:#e0e0e0"/><rect x="179.11" y="269.12" width="75.01" height="59.97" transform="translate(-20.49 15.97) rotate(-4.03)" style="fill:#fafafa"/><path d="M251.92,266.56l-.36,0-1.05.08-4.06.31-15.32,1.13-54,3.91.18-.21c1.26,17.8,2.71,38.21,4.24,59.81h0l-.23-.2,74.82-5.24-.16.19c-1.23-18-2.25-32.95-3-43.39-.35-5.22-.62-9.32-.81-12.13-.09-1.39-.15-2.46-.2-3.2s-.06-1.11-.06-1.11,0,.36.1,1.07.13,1.78.24,3.16c.21,2.8.51,6.88.9,12.08.76,10.47,1.85,25.44,3.16,43.5v.18h-.18l-74.82,5.31-.22,0,0-.22h0c-1.51-21.6-2.94-42-4.19-59.81v-.2h.19l54.16-3.72,15.28-1,4-.26,1-.06Z" style="fill:#e0e0e0"/><rect x="181.7" y="272.9" width="69.74" height="52.42" transform="translate(-20.49 15.97) rotate(-4.03)" style="fill:#ebebeb"/><polygon points="183.63 327.71 205.63 293.49 222.12 312.76 231.56 301.18 253.19 322.8 183.63 327.71" style="fill:#e0e0e0"/><path d="M226.79,288a5.49,5.49,0,1,1-5.86-5.09A5.48,5.48,0,0,1,226.79,288Z" style="fill:#e0e0e0"/><path d="M312.17,96.45l13.43,33.68,14.06-5,14.93,12-14.18-26.54-12.53,4.12Z" style="fill:#e0e0e0"/><path d="M346.88,60.13c0,1.2-.08,24.37-.08,24.37l9.59.42,6,11.23L360.34,76l-8.47-.58Z" style="fill:#e0e0e0"/><path d="M455.85,93.07c-.54,1.38-11.89,36.79-11.89,36.79l-7.48-5.62L416.8,140.51l18.64-31.93,7,4.72Z" style="fill:#e0e0e0"/><path d="M564.76,297a16,16,0,0,0-2.67-9.21,15.37,15.37,0,0,0-7.12-6.13,12.4,12.4,0,0,0-14.48,4.13,12.45,12.45,0,0,0-3-4.53,12.6,12.6,0,0,0-9.25-3.41,15.37,15.37,0,0,0-8.68,3.6,15.91,15.91,0,0,0-5.42,7.91,19.4,19.4,0,0,0,.49,12.19,27.46,27.46,0,0,0,7.94,10.27c5.53,4.66,12.83,10.56,12.83,10.56s7.62-4,14.32-6.69a27.6,27.6,0,0,0,10.77-7.26A19.52,19.52,0,0,0,564.76,297Z" style="fill:#ebebeb"/><path d="M251.38,146.69l-50.55-6a6.38,6.38,0,0,1-5.57-7.08l8.34-70a6.37,6.37,0,0,1,7.08-5.57l32,3.82L264.5,90.41l-6.05,50.71A6.36,6.36,0,0,1,251.38,146.69Z" style="fill:#ebebeb"/><path d="M242.73,61.88l-2.34,19.69a5.91,5.91,0,0,0,5.18,6.58l18.93,2.26Z" style="fill:#f5f5f5"/><path d="M240.44,83.33s-.82,4.74,4.43,7a6.32,6.32,0,0,0,.61.22c2.42.73,18.34,5.57,18.39,5.19s.63-5.29.63-5.29l-18.93-2.25S240.86,87.43,240.44,83.33Z" style="fill:#e0e0e0"/><path d="M236.25,80.26c0,.25-5.29-.16-11.75-.93s-11.67-1.6-11.64-1.86,5.29.17,11.75.94S236.28,80,236.25,80.26Z" style="fill:#fafafa"/><path d="M250,93.19c0,.26-8.67-.56-19.3-1.83s-19.22-2.5-19.18-2.75,8.66.56,19.29,1.83S250.05,92.94,250,93.19Z" style="fill:#fafafa"/><path d="M252.38,102.9c0,.26-9.45-.66-21-2s-20.95-2.7-20.92-3,9.44.66,21,2S252.41,102.65,252.38,102.9Z" style="fill:#fafafa"/><path d="M251.33,111.67c0,.26-9.44-.66-21-2s-21-2.7-20.92-3,9.45.66,21,2S251.36,111.42,251.33,111.67Z" style="fill:#fafafa"/><path d="M250.29,120.44c0,.26-9.45-.66-21-2s-20.95-2.7-20.92-3,9.44.66,21,2S250.32,120.19,250.29,120.44Z" style="fill:#fafafa"/><path d="M249.24,129.21c0,.26-9.45-.66-21-2s-21-2.7-20.92-3,9.44.66,21,2.05S249.27,129,249.24,129.21Z" style="fill:#fafafa"/><circle cx="521.19" cy="119.6" r="30.3" style="fill:#ebebeb"/><path d="M513.89,128.46V110.58a1.14,1.14,0,0,1,1.7-1l16,9a1.13,1.13,0,0,1,0,2l-16,8.88A1.14,1.14,0,0,1,513.89,128.46Z" style="fill:#fff"/><rect x="667.61" y="78.56" width="31.83" height="47.23" transform="translate(373.02 719.61) rotate(-71.8)" style="fill:#ebebeb"/><path d="M711,94.83a2.28,2.28,0,0,1-.55.27l-1.61.68-5.95,2.45-19.74,7.93-.17.07-.09-.15-.24-.36L670.85,87.64c-1.47-2.29-2.67-4.16-3.52-5.5l-.94-1.51a3.05,3.05,0,0,1-.3-.54,3.25,3.25,0,0,1,.37.49l1,1.47c.88,1.32,2.12,3.16,3.63,5.43l11.86,18,.24.35-.26-.08L702.73,98l6-2.32,1.64-.61A3.84,3.84,0,0,1,711,94.83Z" style="fill:#e0e0e0"/><path d="M656.14,110.33c-.06-.1,4.68-3.14,10.58-6.78s10.74-6.52,10.81-6.42-4.68,3.14-10.58,6.78S656.21,110.43,656.14,110.33Z" style="fill:#e0e0e0"/><path d="M692.56,101.65c.12,0,2.1,5.17,4.43,11.64s4.13,11.75,4,11.79-2.09-5.17-4.42-11.64S692.45,101.69,692.56,101.65Z" style="fill:#e0e0e0"/><path d="M607.84,43.5a19.38,19.38,0,1,0-36.09,9.8h0l0,.07c.74,1.25,1.68,2.15,2.62,3.47l11.25,14.91a3.51,3.51,0,0,0,5.59,0l11.07-14.67a41.11,41.11,0,0,0,2.82-3.73l0-.05h0A19.29,19.29,0,0,0,607.84,43.5ZM588.46,52A8.54,8.54,0,1,1,597,43.41,8.54,8.54,0,0,1,588.46,52Z" style="fill:#ebebeb"/><path d="M112.51,49.28a10.24,10.24,0,0,0,6.11-9.47c0-5.66-4.26-10.26-9.57-10.29s-9.62,4.54-9.64,10.2a10.2,10.2,0,0,0,6.12,9.56C90.75,51.51,91.42,67.57,91.42,67.57l35,.17S127.16,51.5,112.51,49.28Z" style="fill:#ebebeb"/><path d="M35.19,122.31a14.2,14.2,0,0,1,3.4-1.48l.7-3.37,5.69-.1.82,3.35a13.74,13.74,0,0,1,3.45,1.35l2.88-1.88,4.09,3.95-1.78,2.94a14.2,14.2,0,0,1,1.48,3.4l3.37.7.1,5.69-3.34.82a14.16,14.16,0,0,1-1.36,3.45L56.57,144l-4,4.09-2.94-1.78a14.2,14.2,0,0,1-3.4,1.48l-.7,3.37-5.69.1-.82-3.34a14.16,14.16,0,0,1-3.45-1.36l-2.88,1.88-4.09-3.95,1.78-2.94a14,14,0,0,1-1.48-3.4l-3.37-.7-.1-5.69,3.34-.82a14.32,14.32,0,0,1,1.36-3.45l-1.88-2.88,3.95-4.09,2.94,1.78Zm3,7.58a6.11,6.11,0,1,0,8.63-.15A6.11,6.11,0,0,0,38.22,129.89Z" style="fill:#ebebeb"/><path d="M38.22,129.89a4.65,4.65,0,0,1,1.14-1,6.18,6.18,0,0,1,6.69,0,6.29,6.29,0,0,1,2.19,2.47,5.71,5.71,0,0,1,.55,1.71,5.92,5.92,0,0,1,0,1.88,6.25,6.25,0,0,1-5.16,5.34,6.32,6.32,0,0,1-3.61-.46,6.32,6.32,0,0,1-2.54-2.11,6.14,6.14,0,0,1-1.06-2.67,6,6,0,0,1,.81-4,4.38,4.38,0,0,1,.95-1.17s-.37.4-.84,1.24a6.09,6.09,0,0,0-.67,3.91,6,6,0,0,0,3.48,4.51,5.69,5.69,0,0,0,1.65.46,5.61,5.61,0,0,0,1.78,0,5.92,5.92,0,0,0,4.87-5,6.11,6.11,0,0,0-.54-3.41,6.21,6.21,0,0,0-2.06-2.37,6.1,6.1,0,0,0-6.46-.14C38.61,129.51,38.25,129.92,38.22,129.89Z" style="fill:#ebebeb"/><path d="M35.19,122.31l-.19-.1-.56-.33-2.22-1.3h.07l-3.93,4.11v-.11c.58.87,1.21,1.84,1.9,2.87l0,0,0,.06A13.46,13.46,0,0,0,28.94,131l0,.06-.07,0-3.34.83.1-.12c0,1.79.07,3.69.11,5.68l-.11-.13L29,138h.09l0,.09a13.48,13.48,0,0,0,1.47,3.36l.05.08-.05.08-1.78,2.94,0-.19,4.09,4-.2,0,2.88-1.89.08-.06.09,0a13.62,13.62,0,0,0,3.41,1.34l.1,0,0,.1c.26,1,.54,2.18.82,3.34l-.17-.13,5.69-.11-.16.14.7-3.37,0-.1.1,0a14.1,14.1,0,0,0,3.36-1.46h0l.09,0,.09,0L52.71,148l-.22,0,4-4.09,0,.21c-.64-1-1.27-1.92-1.89-2.87l0-.09,0-.09a13.82,13.82,0,0,0,1.34-3.41l0-.1.1,0,3.34-.82-.13.17c0-2-.06-3.84-.1-5.69l.13.15-3.36-.7-.1,0,0-.09a13.75,13.75,0,0,0-1.46-3.37l-.05-.08.05-.08,1.79-2.93,0,.18-4.08-4h.16l-2.88,1.88-.06,0-.07,0a13.66,13.66,0,0,0-3.42-1.35l-.06,0,0-.07c-.29-1.21-.56-2.31-.81-3.34l.1.08-5.69.07.08-.06c-.29,1.34-.53,2.45-.72,3.36v0h0a13.91,13.91,0,0,0-2.6,1l-.62.32-.2.1.19-.13c.13-.08.33-.2.6-.34a13,13,0,0,1,2.6-1.06l0,0c.18-.92.4-2,.68-3.37v-.06h.06l5.69-.13h.08l0,.08c.26,1,.53,2.12.83,3.34l-.08-.09A14.39,14.39,0,0,1,49.31,122h-.13l2.88-1.89.08-.06.08.07,4.1,4,.09.08-.06.1-1.78,2.94V127a14,14,0,0,1,1.5,3.44l-.12-.11,3.37.7.12,0v.13c0,1.85.07,3.75.1,5.69V137l-.13,0-3.34.82.12-.13a14.14,14.14,0,0,1-1.37,3.5V141c.62,1,1.25,1.91,1.89,2.87l.07.12-.09.1-4,4.1-.1.1-.12-.08-2.94-1.78h.18a14.56,14.56,0,0,1-3.44,1.5l.12-.13-.7,3.36,0,.14h-.14l-5.69.1h-.14l0-.13c-.28-1.16-.56-2.3-.82-3.34l.13.12a13.74,13.74,0,0,1-3.49-1.38h.17l-2.88,1.88-.11.07-.09-.09c-1.42-1.37-2.81-2.71-4.09-4l-.09-.08.06-.11c.63-1,1.24-2,1.79-2.94v.16a14.23,14.23,0,0,1-1.49-3.44l.11.1-3.36-.71-.11,0v-.11c0-2-.06-3.9-.09-5.69v-.1l.09,0,3.35-.81-.09.08a14.2,14.2,0,0,1,1.38-3.47v.1l-1.88-2.88,0-.06.05,0,4-4.07,0,0,0,0,2.16,1.35.56.35Z" style="fill:#ebebeb"/><path d="M619,394.55a14,14,0,0,1,3.4-1.48l.7-3.36,5.69-.1.82,3.34a13.89,13.89,0,0,1,3.45,1.35l2.88-1.88,4.09,3.95-1.78,2.94a14.2,14.2,0,0,1,1.48,3.4l3.36.71.1,5.68-3.34.82a13.81,13.81,0,0,1-1.35,3.46l1.88,2.87-3.95,4.1-2.94-1.79a13.81,13.81,0,0,1-3.4,1.48l-.7,3.37-5.69.1-.82-3.34a14,14,0,0,1-3.45-1.36l-2.88,1.88-4.09-3.95,1.78-2.94a13.65,13.65,0,0,1-1.48-3.4l-3.37-.7-.1-5.69,3.34-.82a14.32,14.32,0,0,1,1.36-3.45l-1.88-2.88,4-4.09,2.94,1.78Zm3,7.58a6.1,6.1,0,1,0,8.63-.15A6.11,6.11,0,0,0,622.05,402.13Z" style="fill:#ebebeb"/><path d="M622.05,402.13a4.65,4.65,0,0,1,1.14-1,6.08,6.08,0,0,1,4-.94,6.18,6.18,0,0,1,4.9,3.43,6.12,6.12,0,0,1,.55,1.71,5.92,5.92,0,0,1,0,1.88,6.25,6.25,0,0,1-5.16,5.34,5.94,5.94,0,0,1-1.88,0,5.85,5.85,0,0,1-1.73-.49,6.3,6.3,0,0,1-2.54-2.1,6.18,6.18,0,0,1-1.06-2.68,6.1,6.1,0,0,1,.8-4,4.75,4.75,0,0,1,1-1.17,14.35,14.35,0,0,0-.84,1.24,6.09,6.09,0,0,0-.67,3.91,6,6,0,0,0,3.48,4.51,5.39,5.39,0,0,0,1.65.46,5.62,5.62,0,0,0,1.78,0,5.91,5.91,0,0,0,3.26-1.72,6,6,0,0,0,1.61-3.32,5.89,5.89,0,0,0,0-1.78,5.54,5.54,0,0,0-.51-1.63,6.1,6.1,0,0,0-2.06-2.36,5.88,5.88,0,0,0-2.58-1,6.09,6.09,0,0,0-3.88.81C622.44,401.75,622.08,402.16,622.05,402.13Z" style="fill:#ebebeb"/><path d="M619,394.55l-.19-.1-.56-.32-2.22-1.31h.07l-3.93,4.11v-.11c.58.87,1.21,1.84,1.9,2.87l0,.05,0,.06a13.85,13.85,0,0,0-1.34,3.43v.07h-.07l-3.34.83.1-.12c0,1.79.07,3.69.11,5.69l-.11-.14,3.37.7.08,0,0,.08a13.48,13.48,0,0,0,1.47,3.36l0,.08,0,.08-1.78,2.94,0-.19,4.1,3.95-.2,0,2.87-1.89.09-.05.09,0a13.62,13.62,0,0,0,3.41,1.34l.1,0,0,.1c.26,1,.54,2.18.82,3.34l-.17-.13,5.69-.11-.16.14c.22-1.06.45-2.21.7-3.36l0-.11.1,0a13.33,13.33,0,0,0,3.36-1.46h0l.09-.05.09.05,2.94,1.79-.22,0,4-4.09,0,.22-1.89-2.88,0-.09,0-.09a13.82,13.82,0,0,0,1.34-3.41l0-.1.1,0,3.34-.82-.12.17c0-1.94-.07-3.84-.1-5.69l.13.15-3.36-.7-.1,0,0-.09a13.75,13.75,0,0,0-1.46-3.37l0-.08,0-.08,1.79-2.93,0,.18-4.09-4H636l-2.88,1.88-.06,0-.07,0a13.66,13.66,0,0,0-3.42-1.35l-.07,0V393c-.3-1.21-.56-2.31-.81-3.34l.1.08-5.69.07.08-.06c-.29,1.34-.53,2.45-.72,3.36v0h0a14.37,14.37,0,0,0-2.61,1l-.61.32-.2.1.19-.13c.13-.08.33-.2.6-.34a13.59,13.59,0,0,1,2.6-1.06l0,0c.18-.92.4-2,.67-3.37l0-.06h.06l5.69-.13h.08l0,.08c.26,1,.53,2.13.83,3.34l-.08-.09a14.39,14.39,0,0,1,3.48,1.36H633l2.87-1.89.09-.06.08.07,4.1,3.95.09.08-.06.1-1.78,2.94v-.16a14.35,14.35,0,0,1,1.5,3.44l-.12-.11,3.37.7.12,0v.13c0,1.85.07,3.75.1,5.69v.13l-.13,0-3.34.82L640,410a14.54,14.54,0,0,1-1.37,3.5v-.18l1.89,2.88.07.11-.09.1-4,4.1-.09.1-.12-.08-2.94-1.78h.18a14.45,14.45,0,0,1-3.45,1.5l.13-.13-.7,3.36,0,.14h-.14l-5.69.1h-.14l0-.13c-.28-1.15-.56-2.3-.82-3.34l.13.12a14,14,0,0,1-3.5-1.38h.18l-2.88,1.88-.11.07-.09-.09c-1.42-1.37-2.81-2.71-4.09-4l-.09-.08.06-.11,1.79-2.94v.16a14.23,14.23,0,0,1-1.49-3.44l.11.1-3.37-.71-.1,0v-.11c0-2,0-3.9-.08-5.69v-.1l.09,0,3.35-.81-.09.08a14.2,14.2,0,0,1,1.38-3.47v.1c-.68-1-1.31-2-1.88-2.88l0-.06,0-.05,4-4.07,0,0,0,0,2.16,1.35.56.35Z" style="fill:#ebebeb"/></g><g id="Flor"><path d="M729.36,450c0,.15-163.28.26-364.66.26S0,450.14,0,450s163.25-.26,364.7-.26S729.36,449.85,729.36,450Z" style="fill:#263238"/></g><g id="Plant"><path d="M389.68,393.85a11,11,0,0,1,5.68,6.43,19.48,19.48,0,0,1,.75,8.72c-.64,5.66-3.85,11.37-7.31,15.89-4.77-4.16-5.86-11.41-6.19-15.12-.51-5.87,2.13-16.79,7.07-15.92" style="fill:#ff725e"/><path d="M394.33,434.22a9.36,9.36,0,0,1,3-8.89,12.44,12.44,0,0,1,9.16-2.86,5.25,5.25,0,0,1,4,1.81,4,4,0,0,1,.06,4.05,8.19,8.19,0,0,1-3,3c-4.13,2.59-8.6,4.33-13.27,2.93" style="fill:#ff725e"/><path d="M388.23,451.57a5.69,5.69,0,0,1,.17-1.16l.57-3.14a32.89,32.89,0,0,1,3.24-10,20.1,20.1,0,0,1,7.21-7.65,13.42,13.42,0,0,1,2.93-1.3c.36-.12.65-.17.85-.22a1,1,0,0,1,.3,0,21.23,21.23,0,0,0-3.93,1.81,20.74,20.74,0,0,0-7,7.6,35.41,35.41,0,0,0-3.31,9.89c-.29,1.32-.53,2.39-.71,3.12A7.92,7.92,0,0,1,388.23,451.57Z" style="fill:#263238"/><path d="M388.41,402.34a3,3,0,0,1,0,.51c0,.38.05.86.09,1.46.07,1.27.14,3.1.22,5.36.14,4.54.26,10.8.23,17.72s-.2,13.19-.39,17.72c-.09,2.26-.18,4.1-.26,5.36,0,.6-.07,1.08-.1,1.46a3.61,3.61,0,0,1-.06.51,2.09,2.09,0,0,1,0-.51c0-.38,0-.87,0-1.46,0-1.32.08-3.14.13-5.37.11-4.53.23-10.79.27-17.71s0-13.18-.12-17.71c0-2.23-.06-4.05-.08-5.37,0-.6,0-1.08,0-1.46A1.71,1.71,0,0,1,388.41,402.34Z" style="fill:#263238"/><path d="M386.09,437.67a21.87,21.87,0,0,0-11.94-16c-1.59-.76-3.67-1.26-5-.07s-1,3.31-.38,5A18.7,18.7,0,0,0,386,438.13" style="fill:#ff725e"/><path d="M374.92,427a5.16,5.16,0,0,1,1,.44,10.26,10.26,0,0,1,1.14.61,14.47,14.47,0,0,1,1.46.91,20,20,0,0,1,1.66,1.25,21.33,21.33,0,0,1,1.77,1.61,24.47,24.47,0,0,1,3.36,4.32,23.39,23.39,0,0,1,2.22,5,21.13,21.13,0,0,1,.56,2.33,19.17,19.17,0,0,1,.29,2.06c.08.63.05,1.21.07,1.72a8.69,8.69,0,0,1,0,1.29,5.9,5.9,0,0,1-.13,1.1c-.09,0,.07-1.58-.2-4.08a19.53,19.53,0,0,0-.34-2,21.23,21.23,0,0,0-.58-2.28,25,25,0,0,0-2.21-4.91,25.41,25.41,0,0,0-3.28-4.27c-.59-.58-1.15-1.14-1.72-1.61a19.69,19.69,0,0,0-1.61-1.27C376.31,427.74,374.88,427.09,374.92,427Z" style="fill:#263238"/></g><g id="Lines"><path d="M376.74,138.4c-.12.09-3.49-4-7.54-9.14s-7.24-9.37-7.13-9.46,3.49,4,7.54,9.14S376.85,138.32,376.74,138.4Z" style="fill:#263238"/><path d="M390.49,141.42c-.14,0-1.1-10.33-2.14-23.1s-1.77-23.14-1.63-23.15,1.11,10.33,2.15,23.11S390.64,141.41,390.49,141.42Z" style="fill:#263238"/><path d="M401.17,138.89c-.13-.07,2.67-6.24,6.24-13.8s6.58-13.64,6.71-13.58-2.67,6.24-6.24,13.8S401.3,139,401.17,138.89Z" style="fill:#263238"/><path d="M396.76,229.51c.11-.09,3.43,4.05,7.41,9.24s7.11,9.47,7,9.56-3.44-4.05-7.42-9.24S396.64,229.6,396.76,229.51Z" style="fill:#263238"/><path d="M387.58,230.44c.14,0,1,10.35,1.83,23.13s1.45,23.16,1.31,23.17-1-10.35-1.83-23.14S387.43,230.45,387.58,230.44Z" style="fill:#263238"/><path d="M379.36,228.33c.13.06-2.74,6.2-6.42,13.71s-6.76,13.55-6.89,13.48,2.75-6.2,6.42-13.71S379.23,228.26,379.36,228.33Z" style="fill:#263238"/></g><g id="Character_2" data-name="Character 2"><path d="M513,210.43s33.37,39.61,40.81,39.66c11.43.08,40.8-27,40.8-27s-13.73-19.79-13.86-19.17l-25.92,24.14L518,203.33Z" style="fill:#ffbf9d"/><path d="M557.92,240.09a29.56,29.56,0,0,0-.74-6.3,30.07,30.07,0,0,0-2.55-5.81,4.91,4.91,0,0,1,1.2,1.47,15.26,15.26,0,0,1,1.85,4.2,14.89,14.89,0,0,1,.53,4.56A5,5,0,0,1,557.92,240.09Z" style="fill:#ff9a6c"/><path d="M706.08,190.94c.54.14,5.9,3.22,7.1,8.58s-2.41,9.11-4.28,10.44-30.77,11.62-43,11.71l-2.44-9.78,22.94-11.44-17.14-4.95,7.9-15.94Z" style="fill:#ffbf9d"/><path d="M586.48,127.1a16.93,16.93,0,0,0-2.55,15.51c.86,2.5,2.32,5.23,1.15,7.62s-4.43,3.15-5.51,5.55c-1.26,2.83,1.2,5.9,1.28,9a6.17,6.17,0,0,1-5.2,6,24.05,24.05,0,0,0,12.81,1.95l2.16-4.94c-.85,1.75.07,4,1.63,5.12a10.09,10.09,0,0,0,5.55,1.58,30.75,30.75,0,0,0,24.78-10.9" style="fill:#263238"/><path d="M640.72,137c-1.15-1.78-2.7-3.32-3.66-5.22-2-4.08-1.18-9.51-4.3-12.85-2.23-2.38-5.79-2.9-9.07-3s-6.73-.07-9.57-1.69c-2.08-1.19-3.6-3.17-5.67-4.37-3-1.7-6.64-1.58-10-.91a20.8,20.8,0,0,0-9.57,4.2,11.28,11.28,0,0,0-4.18,9.23c.16,1.69.8,3.35.69,5-.13,1.87-1.14,3.56-1.57,5.39a8.88,8.88,0,0,0,4.87,9.82l31.09,23.84c5.39.56,16.7-4.77,19.57-9.35S643.62,141.57,640.72,137Z" style="fill:#263238"/><path d="M588.32,138.69c-.8-7,2.34-16.43,9.47-17l22.81,1.53a4.15,4.15,0,0,1,4.42,3.47l9.3,51s-.92.65,0,0a.29.29,0,0,1,.45.33c-1.59,4.29-9.4,23.27-22.92,21.62-3-.37-2.21-9.72-3.35-12.81l-1.73-8.2c-.79-4.21-1.1-5.94-1.1-5.9s-9.23.14-13.14-11.13C590.58,156,589.2,146.52,588.32,138.69Z" style="fill:#ffbf9d"/><path d="M591.53,148a1.51,1.51,0,0,0,1.71,1.24,1.47,1.47,0,0,0,1.31-1.62,1.51,1.51,0,0,0-1.71-1.25A1.47,1.47,0,0,0,591.53,148Z" style="fill:#263238"/><path d="M605.82,146.36a1.5,1.5,0,0,0,1.71,1.24,1.46,1.46,0,0,0,1.31-1.62,1.51,1.51,0,0,0-1.71-1.24A1.45,1.45,0,0,0,605.82,146.36Z" style="fill:#263238"/><path d="M590.68,143.55c.23.23,1.38-1,3.16-1.19s3.18.68,3.35.41-.17-.55-.79-1a4,4,0,0,0-2.71-.64,4.16,4.16,0,0,0-2.48,1.26C590.71,143,590.57,143.45,590.68,143.55Z" style="fill:#263238"/><path d="M606.43,141.34c.27.19,1.36-1.13,3.23-1.53s3.44.29,3.59,0c.07-.13-.23-.51-.93-.84a4.62,4.62,0,0,0-2.93-.3,4.56,4.56,0,0,0-2.51,1.52C606.41,140.78,606.3,141.26,606.43,141.34Z" style="fill:#263238"/><path d="M603.43,153.61a11.09,11.09,0,0,0-2.7,0c-.43,0-.83,0-1-.25a2.14,2.14,0,0,1,.06-1.26c.21-1.06.44-2.17.67-3.34.91-4.74,1.49-8.61,1.29-8.64s-1.08,3.78-2,8.52c-.21,1.17-.42,2.28-.61,3.35a2.39,2.39,0,0,0,.07,1.64,1.07,1.07,0,0,0,.78.48,3.24,3.24,0,0,0,.72,0A10.93,10.93,0,0,0,603.43,153.61Z" style="fill:#263238"/><path d="M605.67,172.77a30.52,30.52,0,0,0,14.94-7s-2.49,8.86-14.4,9.89Z" style="fill:#ff9a6c"/><path d="M605,157.43a3,3,0,0,1,2.7-1,2.69,2.69,0,0,1,1.81,1.07,1.7,1.7,0,0,1,0,1.95,2,2,0,0,1-2.17.44,6,6,0,0,1-2-1.33,1.65,1.65,0,0,1-.45-.5.53.53,0,0,1,0-.6" style="fill:#ff9a6c"/><path d="M608.55,154.81c-.26,0,0,1.77-1.24,3.28s-3.18,1.65-3.15,1.89.47.27,1.26.14a4.44,4.44,0,0,0,2.65-1.48,3.82,3.82,0,0,0,.93-2.73C608.94,155.17,608.67,154.78,608.55,154.81Z" style="fill:#263238"/><path d="M604.54,136.12c.3.36,1.76-.43,3.64-.9s3.52-.54,3.62-1c0-.22-.36-.51-1.1-.69a6.56,6.56,0,0,0-5.53,1.45C604.61,135.5,604.4,136,604.54,136.12Z" style="fill:#263238"/><path d="M589.73,138.63c.39.34,1.78-.15,3.49-.3s3.17,0,3.47-.41c.13-.19-.12-.54-.78-.85a6.27,6.27,0,0,0-5.61.57C589.73,138.07,589.56,138.46,589.73,138.63Z" style="fill:#263238"/><path d="M625.67,123.68c-1.48-1.34-3.6-1.67-5.59-1.89a110.17,110.17,0,0,0-25.92.19c-.6,2,1,4,2.84,4.84s4,.79,6.06,1,4.25.77,5.49,2.4,1.22,4.21,2.45,6c2.12,3.09,7.21,2.94,9.31,6,1.59,2.34.79,5.48,1.11,8.29a10.27,10.27,0,0,0,5.18,7.69,10.44,10.44,0,0,0,7.4.93q-2.94-14.89-5.87-29.78C627.72,127.32,627.23,125.1,625.67,123.68Z" style="fill:#263238"/><path d="M651.93,143.21c-1.92-1-4.18-1.66-5.32-3.48-1.65-2.65-.18-6.65-2.37-8.89-2-2-6-.86-7.91-3-1.49-1.65-.78-3.64-1.6-5.22s-3.59-2.42-5.26-1.77L621,143.73c.43,6.82.07,10.61,2.45,14a31.47,31.47,0,0,1,3.71,5.77c.87,2.13,1,4.76-.53,6.54,8.22-1.47,14.69-7.62,20.62-13.48l6.28-6.2a5.56,5.56,0,0,0,1.59-2.21C655.74,146.14,653.84,144.19,651.93,143.21Z" style="fill:#263238"/><path d="M646.94,154.59a4.11,4.11,0,0,1-.82.39,7.83,7.83,0,0,1-2.56.48,8.1,8.1,0,0,1-4-1,7.81,7.81,0,0,1-3.51-4.07,8.21,8.21,0,0,1-.53-3.13,13.49,13.49,0,0,1,.73-3.36,12.09,12.09,0,0,0,.75-3.48,4.06,4.06,0,0,0-1.3-3.27c-1-.79-2.41-.67-3.8-.85a3.73,3.73,0,0,1-2-.81,3.66,3.66,0,0,1-1.09-1.95,23.26,23.26,0,0,1-.16-4.4,4.61,4.61,0,0,0-.52-2,2.92,2.92,0,0,0-1.58-1.32,8.44,8.44,0,0,0-4.35,0,9,9,0,0,1-4.46-.12,8,8,0,0,1-3.63-2.32,12.85,12.85,0,0,1-2-3.55,18.26,18.26,0,0,0-1.72-3.39,8.11,8.11,0,0,0-2.63-2.33,9.41,9.41,0,0,0-10.94,1.28,11.19,11.19,0,0,0-2.49,3.15,15.11,15.11,0,0,0-1.22,3.22.73.73,0,0,1,0-.22c0-.15.06-.38.13-.66a10.59,10.59,0,0,1,.9-2.43,11.49,11.49,0,0,1,2.48-3.26,9.68,9.68,0,0,1,11.32-1.43,8.49,8.49,0,0,1,2.78,2.44,18.73,18.73,0,0,1,1.78,3.45,12.63,12.63,0,0,0,2,3.43,7.71,7.71,0,0,0,3.43,2.17,8.66,8.66,0,0,0,4.24.1,8.9,8.9,0,0,1,4.61,0,3.45,3.45,0,0,1,1.83,1.53,5.21,5.21,0,0,1,.57,2.25,23.5,23.5,0,0,0,.14,4.32,3.25,3.25,0,0,0,.94,1.71,3.41,3.41,0,0,0,1.8.71c.67.09,1.36.1,2,.2a3.91,3.91,0,0,1,2,.75,4.46,4.46,0,0,1,1.46,3.62,12.53,12.53,0,0,1-.79,3.6,12.35,12.35,0,0,0-.74,3.25,7.78,7.78,0,0,0,.47,3,7.57,7.57,0,0,0,3.33,3.95,7.93,7.93,0,0,0,3.84,1A9.28,9.28,0,0,0,646.94,154.59Z" style="fill:#455a64"/><path d="M654.13,138a1.68,1.68,0,0,1,.43.58,3,3,0,0,1,.17,2.07A3.21,3.21,0,0,1,654,142a3.25,3.25,0,0,1-1.6.91,4.17,4.17,0,0,1-4.1-1.3,5.49,5.49,0,0,1-1.21-2.29,7.88,7.88,0,0,1-.11-2.79c.19-1.89.92-3.88.42-5.9a3.82,3.82,0,0,0-1.64-2.51,4.23,4.23,0,0,0-3.16-.14,10.44,10.44,0,0,1-3.59.55,3.14,3.14,0,0,1-1.74-.82,4.46,4.46,0,0,1-1-1.61,14.72,14.72,0,0,1-.63-3.63,7.87,7.87,0,0,0-1-3.24,8.52,8.52,0,0,0-5-3.9,12.3,12.3,0,0,0-5.92.19,17.05,17.05,0,0,1-5.3.53,10.94,10.94,0,0,1-4.19-1.31,10.72,10.72,0,0,1-2.63-2,7.84,7.84,0,0,1-1.61-2.29,14.08,14.08,0,0,0,1.74,2.16,11,11,0,0,0,2.63,1.89,10.81,10.81,0,0,0,4.09,1.21,17,17,0,0,0,5.19-.58,12.67,12.67,0,0,1,6.12-.23A9,9,0,0,1,635,119a8.45,8.45,0,0,1,1.1,3.42,14.4,14.4,0,0,0,.6,3.51,3.07,3.07,0,0,0,2.4,2.14,10.17,10.17,0,0,0,3.41-.54,4.62,4.62,0,0,1,3.5.21,4.2,4.2,0,0,1,1.85,2.79,8.26,8.26,0,0,1,0,3.17c-.16,1-.38,2-.49,2.89a7.32,7.32,0,0,0,.08,2.65,5,5,0,0,0,1.1,2.15,3.87,3.87,0,0,0,3.78,1.27,3.21,3.21,0,0,0,1.5-.81,3,3,0,0,0,.74-1.23,2.94,2.94,0,0,0-.08-2A4.76,4.76,0,0,0,654.13,138Z" style="fill:#263238"/><path d="M570.46,164.92A3.34,3.34,0,0,0,571,167a2.86,2.86,0,0,0,2.11,1.25,3,3,0,0,0,2.75-1.57,2.79,2.79,0,0,0,.26-1.86,5.75,5.75,0,0,0-.83-1.94c-.78-1.24-2-2.48-2.35-4.28a6.62,6.62,0,0,1,1.25-5.25,7.91,7.91,0,0,1,2.18-2,11.34,11.34,0,0,1,2.76-1.15,15.83,15.83,0,0,0,2.71-1,3.77,3.77,0,0,0,1.82-1.9,4.68,4.68,0,0,0,.18-2.57,9.59,9.59,0,0,0-.85-2.41,19.38,19.38,0,0,1-1.93-4.48,7.27,7.27,0,0,1,.44-4.26,9.39,9.39,0,0,1,2.06-2.88,17.63,17.63,0,0,0,1.72-2,5.58,5.58,0,0,0,.89-2s0,0,0,.15a2.16,2.16,0,0,1-.06.43,4.51,4.51,0,0,1-.67,1.55,16.27,16.27,0,0,1-1.68,2.06,9.37,9.37,0,0,0-1.94,2.83,6.85,6.85,0,0,0-.36,4.05,19.37,19.37,0,0,0,1.93,4.37,9.43,9.43,0,0,1,.9,2.52,5.06,5.06,0,0,1-.19,2.82,4.29,4.29,0,0,1-2,2.15,15.76,15.76,0,0,1-2.8,1.05,11.39,11.39,0,0,0-2.65,1.11,7.54,7.54,0,0,0-2,1.84,6.26,6.26,0,0,0-1.2,4.88c.28,1.65,1.45,2.85,2.26,4.16a6,6,0,0,1,.86,2.09,3.09,3.09,0,0,1-.33,2.08,3.32,3.32,0,0,1-3.07,1.68,3.07,3.07,0,0,1-2.25-1.41,3.16,3.16,0,0,1-.5-1.61A1.75,1.75,0,0,1,570.46,164.92Z" style="fill:#263238"/><path d="M589.87,191.51c-1.14,1.52-10.63,9.69-15.23,14.32-2.07,2.09-6.91,6-6.91,6l17.67,21.53,12.83-9.39s3.61,9.13,5.82,13.58,8.4,23.19,8.4,23.19,39.54.39,46.36-2.57a54.13,54.13,0,0,0,11.91-7.24l-7.66-27.75c-1-10.58-8.2-50.33-8.2-50.33s-11.5-2.18-17.32-.7c0,0-39.62,14.31-42.51,16A34.94,34.94,0,0,0,589.87,191.51Z" style="fill:#455a64"/><g style="opacity:0.30000000000000004"><path d="M569,213.34l67.69,9.45s11.37,9.59,15.89,9.82S662,255.16,662,255.16l4.88-1.43L661,220.05l-61.88-9-28-2-3.38,2.79Z"/></g><path d="M654.52,172.76l26,7.34-7.29,21.16-13.65-1s-5.45-21.37-5-22S654.52,172.76,654.52,172.76Z" style="fill:#455a64"/><path d="M591.93,203a4,4,0,0,1,.43,1c.26.78.59,1.74,1,2.87.82,2.42,1.95,5.77,3.24,9.45s2.52,7,3.4,9.4c.41,1.11.75,2.07,1,2.84a4.37,4.37,0,0,1,.31,1.07,4.51,4.51,0,0,1-.5-1c-.3-.65-.7-1.61-1.19-2.79-1-2.37-2.25-5.67-3.55-9.36s-2.37-7.06-3.1-9.51c-.37-1.23-.65-2.23-.83-2.92A5,5,0,0,1,591.93,203Z" style="fill:#263238"/><path d="M656,179.56c.14,0,1.37,6.55,2.74,14.68S661.1,209,661,209s-1.37-6.55-2.74-14.68S655.85,179.58,656,179.56Z" style="fill:#263238"/><path d="M722.36,449.45c-3.09,0-5.63-.1-8-.19-2.89-.11-5.38-.2-8.24-.1-8.76.32-20.92-1.76-26.38-8.68-3.47-4.41-3.13-17,1.18-43.32.13-.79.24-1.46.33-2l6.91,1.09c-.09.54-.2,1.23-.33,2-5,30.41-3.46,36.61-2.58,37.87,3.4,4.31,12.92,6.29,20.61,6,3.13-.12,5.87,0,8.76.1a160.91,160.91,0,0,0,16.92-.1l.4,7C728.16,449.38,725.06,449.45,722.36,449.45Z" style="fill:#ff725e"/><path d="M543.31,416.53,539,438s-21.37,7.75-21.58,11.73l41.56.06-.05-12.07,6.83-19.85Z" style="fill:#455a64"/><path d="M551.59,436.2a1.71,1.71,0,0,1,1.21,1.94,1.65,1.65,0,0,1-1.92,1.21,1.79,1.79,0,0,1-1.26-2.06,1.7,1.7,0,0,1,2.13-1" style="fill:#e0e0e0"/><path d="M559,449.83v-2.67l-40.34.75a3.18,3.18,0,0,0-1.42,2.08Z" style="fill:#263238"/><path d="M538.63,438.18c0,.21,1,.29,2,.94s1.56,1.51,1.75,1.42-.13-1.26-1.37-2S538.58,438,538.63,438.18Z" style="fill:#263238"/><path d="M534.24,440c0,.2.85.54,1.55,1.4s.91,1.78,1.12,1.77.32-1.17-.57-2.23S534.24,439.85,534.24,440Z" style="fill:#263238"/><path d="M531.79,445.34c.19,0,.46-1-.07-2.11s-1.5-1.55-1.59-1.38.52.77.94,1.69S531.59,445.32,531.79,445.34Z" style="fill:#263238"/><path d="M539.73,434.52c.09.19,1-.11,2.19,0s2.06.43,2.17.25-.77-.9-2.14-1S539.63,434.36,539.73,434.52Z" style="fill:#263238"/><path d="M678.31,424.24l11.15,14.13s-21.38,7.75-21.59,11.73l41.56.06,0-10.93-14.84-21Z" style="fill:#455a64"/><path d="M702.05,436.53a1.71,1.71,0,0,1,1.2,1.94,1.65,1.65,0,0,1-1.92,1.21,1.81,1.81,0,0,1-1.26-2.07,1.71,1.71,0,0,1,2.13-1" style="fill:#e0e0e0"/><path d="M709.43,450.16v-2.67l-40.34.75a3.18,3.18,0,0,0-1.41,2.08Z" style="fill:#263238"/><path d="M689.08,438.51c0,.21,1,.29,2,.94s1.56,1.51,1.74,1.42-.12-1.26-1.37-2S689,438.32,689.08,438.51Z" style="fill:#263238"/><path d="M684.69,440.37c0,.2.85.54,1.55,1.4s.92,1.78,1.12,1.77.32-1.17-.57-2.23S684.7,440.18,684.69,440.37Z" style="fill:#263238"/><path d="M682.24,445.66c.19,0,.47-1-.07-2.1s-1.5-1.55-1.59-1.38.52.76.95,1.69S682,445.65,682.24,445.66Z" style="fill:#263238"/><path d="M616,259.44c.27,1.62-2.22,25.16-2.22,25.16s-54.62,56.51-58.11,63.77-16.55,83.86-16.55,83.86l21.58,4.61s10.18-31.62,14.49-44.27,3.67-23.79,5.78-27c.76-1.15,3.56-5.58,7.48-8.28,55.27-38.18,64.17-53.57,64.17-53.57l-11.93-43.61Z" style="fill:#263238"/><path d="M642.7,295s-12.17,65.05-9.64,73.08,3.07,9,6.2,13.76,44.72,56,44.72,56l21-9.8c-.43-.17-15.19-20.06-17.85-25.94S674.54,378,670.81,375s-5.63-6.23-4.93-11.86,18.89-52,20.23-61.42,1.92-18-4.31-27.87-12.58-21.28-12.58-21.28l-35.58,7.53Z" style="fill:#263238"/><path d="M642.31,294.16c.14,0-1,7.49-2.56,16.67s-2.93,16.61-3.07,16.58,1-7.48,2.56-16.67S642.16,294.14,642.31,294.16Z" style="fill:#455a64"/><path d="M641.85,295.9a5.11,5.11,0,0,1-.31-1c-.19-.78-.43-1.71-.7-2.8-.58-2.35-1.41-5.6-2.44-9.16s-2-6.75-2.81-9.05l-.9-2.73a3.68,3.68,0,0,1-.27-1,4.92,4.92,0,0,1,.46.95c.27.63.63,1.55,1,2.69.86,2.27,1.94,5.46,3,9s1.81,6.84,2.3,9.22c.25,1.19.43,2.16.54,2.83A3.66,3.66,0,0,1,641.85,295.9Z" style="fill:#455a64"/><path d="M638.17,297.23c-.08,0-.77-1.15-2.15-2.89a29.17,29.17,0,0,0-14.09-9.61c-2.12-.65-3.49-.85-3.48-1a3.81,3.81,0,0,1,1,.07,18.63,18.63,0,0,1,2.6.53,26.42,26.42,0,0,1,14.28,9.74,19.9,19.9,0,0,1,1.45,2.23C638.06,296.9,638.21,297.21,638.17,297.23Z" style="fill:#455a64"/><path d="M664.43,221.2l-.33-2.41L634,212a147.47,147.47,0,0,0-16.71-2.8L513.47,197.8l-44.41-8.52-1.32,6.87,44.55,8.55.14,0L616.5,216.11a140.26,140.26,0,0,1,15.92,2.67l25.4,5.76,22.18,164,6.79,12.8h0a22.89,22.89,0,0,0,.72-9.49Z" style="fill:#ff725e"/><path d="M498.92,192.41s-4.35,1.85-4.86,2.93a15.75,15.75,0,0,0-.87,2.68s5.33,7.51,6,7.88S514.8,211,514.8,211l6.39-5.23s-7.05-5.58-9.17-6.27c0,0-1.83-.6-1.55-1a15.13,15.13,0,0,0,.88-2,1.32,1.32,0,0,0-.88-1.78,3.07,3.07,0,0,0-2.36,0A2.27,2.27,0,0,0,505,193a2.34,2.34,0,0,0-1.89-2.27,2.67,2.67,0,0,0-3.3,1.79Z" style="fill:#ffbf9d"/><path d="M507.8,203.73a2.75,2.75,0,0,1-1.35-.71,2.13,2.13,0,0,1-.82-1.52,7.11,7.11,0,0,1,.3-2,11.3,11.3,0,0,1,2.11-4.64c.13.07-.93,2.08-1.6,4.77a7.77,7.77,0,0,0-.33,1.87,1.86,1.86,0,0,0,.59,1.27C507.33,203.37,507.85,203.65,507.8,203.73Z" style="fill:#ff9a6c"/><path d="M500.85,203.93a22.6,22.6,0,0,1,3.72-10.45c.13.07-1,2.29-2,5.17S501,204,500.85,203.93Z" style="fill:#ff9a6c"/><path d="M497.7,201.2a10.75,10.75,0,0,1,.42-4.74,11,11,0,0,1,1.95-4.34c.14.07-.8,2-1.44,4.47S497.85,201.2,497.7,201.2Z" style="fill:#ff9a6c"/><path d="M640.43,225s-2.55.38-2.08-2,3-5.21,4.36-7,2.08-2.93,3.12-2.93,19-1.23,19-1.23l2,9.92s-9.74,6.08-11.25,6.37-5.49,3.5-6.25,1c0,0-3.79,2.27-3.7-.66l-2.17.28s-1.05,3.51-2.47,2.65-1.8-1.61-1.13-3.6A7.64,7.64,0,0,0,640.43,225Z" style="fill:#ffbf9d"/><path d="M439,157.06h19.52a13.42,13.42,0,0,1,13.42,13.42v35.05A13.42,13.42,0,0,1,458.48,219H439A28.95,28.95,0,0,1,410,190v-4A28.95,28.95,0,0,1,439,157.06Z" transform="translate(857.22 425.73) rotate(-173.36)" style="fill:#ff725e"/><g style="opacity:0.30000000000000004"><path d="M422.89,217.06s8.34-8.87,10.88-33.16c1.86-17.82-4-28.34-4-28.34l-2.35-.28s3.92,25.85,1.41,31.85-7,29.81-7,29.81Z"/></g><path d="M406.67,184.55c2.57-22.14,4.84-41.65,16.75-38.68,6.51,1.63,10,19.35,7.41,41.5s-10.07,37.94-16.75,38.68C402.7,227.31,404.09,206.69,406.67,184.55Z" style="fill:#ff725e"/><ellipse cx="415.18" cy="185.54" rx="40.36" ry="10.26" transform="translate(182.88 576.49) rotate(-83.36)" style="fill:#ff725e"/><g style="opacity:0.30000000000000004"><ellipse cx="415.18" cy="185.54" rx="40.36" ry="10.26" transform="translate(182.88 576.49) rotate(-83.36)"/></g><path d="M414.08,226.05a7.23,7.23,0,0,0,3.07-1.47,22.6,22.6,0,0,0,5.51-7.48c3.6-7.08,6.54-17.81,7.92-29.84s1.05-23.15-.77-30.88c-.9-3.86-2.22-6.85-3.65-8.54a6.22,6.22,0,0,0-2.74-2,3.09,3.09,0,0,1,.85.27,5.87,5.87,0,0,1,2.05,1.56c1.5,1.69,2.89,4.72,3.84,8.59,1.93,7.78,2.34,18.94.94,31s-4.4,22.85-8.11,30c-1.85,3.54-3.89,6.15-5.72,7.47a6.59,6.59,0,0,1-2.3,1.17A3.48,3.48,0,0,1,414.08,226.05Z" style="fill:#263238"/><path d="M410.51,225.63s.31,0,.86-.16a5.43,5.43,0,0,0,2.12-1.25c1.62-1.45,3.33-4.18,4.83-7.77,3.05-7.2,5.53-17.81,6.92-29.66s1.28-22.75-.07-30.45a24.44,24.44,0,0,0-2.85-8.71,5.71,5.71,0,0,0-1.7-1.78c-.48-.31-.79-.35-.78-.4l.22.05a2.32,2.32,0,0,1,.61.26,5.41,5.41,0,0,1,1.82,1.76c1.27,1.83,2.33,4.9,3,8.76,1.46,7.73,1.61,18.68.23,30.57s-3.94,22.53-7.1,29.74c-1.56,3.6-3.33,6.34-5,7.78a5.29,5.29,0,0,1-2.23,1.2,2.58,2.58,0,0,1-.66.07Z" style="fill:#263238"/><path d="M417.54,173.75c-.42,3.63-1.7,6.47-2.85,6.33s-1.75-3.19-1.32-6.82,1.7-6.47,2.85-6.33S418,170.12,417.54,173.75Z" style="fill:#263238"/><path d="M415.19,198.11c-.42,3.63-1.7,6.46-2.85,6.33s-1.75-3.19-1.32-6.82,1.7-6.47,2.85-6.33S415.61,194.47,415.19,198.11Z" style="fill:#263238"/><polygon points="468.76 198.63 482.35 200.22 484.19 191.61 471.78 187.76 468.76 198.63" style="fill:#ff725e"/><path d="M482.28,200.48a16,16,0,0,1,.7-4.5,26,26,0,0,1,1.21-4.37,16.47,16.47,0,0,1-.7,4.49A27.07,27.07,0,0,1,482.28,200.48Z" style="fill:#263238"/><path d="M472.16,182.08a2.77,2.77,0,0,1,.19.91c.1.59.18,1.45.25,2.51a39.59,39.59,0,0,1-.45,8.32,33.77,33.77,0,0,1-2.31,8,19.18,19.18,0,0,1-1.12,2.27,3,3,0,0,1-.51.77c-.08,0,.53-1.2,1.29-3.18a40.21,40.21,0,0,0,2.13-7.95,48.74,48.74,0,0,0,.6-8.22C472.2,183.4,472.08,182.09,472.16,182.08Z" style="fill:#263238"/></g><g id="Character_1" data-name="Character 1"><path d="M29.77,413.73l-7.45,30.16L9.59,466a3.2,3.2,0,0,0,1.34,4.45h0a3.13,3.13,0,0,0,2.9-.05c5.73-3.14,26.75-14.78,27.17-17,.49-2.59,10-31.28,10-31.28Z" style="fill:#455a64"/><path d="M10.93,470.48l30.62-19.09-.34,1.27a4.8,4.8,0,0,1-1.9,2.7c-2.5,1.71-9.49,6.3-25.39,15.09a3.17,3.17,0,0,1-3,0Z" style="fill:#263238"/><path d="M21.29,459.26c-.19,0-.44-1.72-2-3.05s-3.25-1.41-3.24-1.61.43-.21,1.16-.12a5,5,0,0,1,2.53,1.21,4.93,4.93,0,0,1,1.5,2.4C21.44,458.8,21.37,459.25,21.29,459.26Z" style="fill:#fff"/><path d="M18.08,462.69c-.18.09-.87-1.15-2.28-2s-2.81-1-2.81-1.18,1.56-.42,3.16.6S18.26,462.65,18.08,462.69Z" style="fill:#fff"/><path d="M26.63,455.2c-.18.1-1.23-1.81-3.32-3.35s-4.18-2.05-4.13-2.26,2.32,0,4.54,1.71S26.8,455.15,26.63,455.2Z" style="fill:#fff"/><path d="M29.66,446.22c-.13.16-1.59-1-3.7-1.65s-4-.62-4-.82,1.91-.58,4.17.17S29.79,446.11,29.66,446.22Z" style="fill:#fff"/><path d="M32.07,437.43c-.14.14-1.52-1.31-3.81-1.83s-4.15.1-4.21-.09.39-.36,1.19-.57a6.62,6.62,0,0,1,3.18,0,6.74,6.74,0,0,1,2.84,1.45C31.88,436.92,32.13,437.37,32.07,437.43Z" style="fill:#fff"/><path d="M28.77,433.94a2.6,2.6,0,0,1,.27-1.15,8.12,8.12,0,0,1,1.7-2.72,3.59,3.59,0,0,1,1.94-1.26,1.26,1.26,0,0,1,1.3.66,2.11,2.11,0,0,1,.11,1.48,4.47,4.47,0,0,1-4.87,3,5.2,5.2,0,0,1-4.19-4,1.83,1.83,0,0,1,.31-1.48,1.24,1.24,0,0,1,1.43-.29,4.35,4.35,0,0,1,1.68,1.57,9.14,9.14,0,0,1,1.4,2.88,3.13,3.13,0,0,1,.18,1.17,15,15,0,0,0-2-3.76,4.08,4.08,0,0,0-1.5-1.33.66.66,0,0,0-.78.15,1.27,1.27,0,0,0-.15,1,4.65,4.65,0,0,0,3.68,3.41,3.86,3.86,0,0,0,4.16-2.46,1.53,1.53,0,0,0,0-1,.69.69,0,0,0-.72-.37,3.18,3.18,0,0,0-1.66,1A12,12,0,0,0,28.77,433.94Z" style="fill:#fff"/><path d="M238.94,413.92l4.67,23.1s23.06,8.52,23.34,12.8l-44.52.17-.1-11.4-5.72-24.65Z" style="fill:#455a64"/><path d="M222.43,450l.11-3.63,42.64,1.19s2,.86,1.77,2.27Z" style="fill:#263238"/><path d="M243.84,437c0,.22-1.09.32-2.16,1s-1.63,1.63-1.83,1.55.12-1.35,1.42-2.19S243.89,436.81,243.84,437Z" style="fill:#fff"/><path d="M248.74,439.06c0,.21-.89.58-1.62,1.51s-1,1.91-1.16,1.91-.36-1.25.57-2.39S248.74,438.85,248.74,439.06Z" style="fill:#fff"/><path d="M251.41,444.88c-.19.05-.5-1.05.05-2.25s1.57-1.68,1.66-1.5-.53.82-1,1.82S251.63,444.86,251.41,444.88Z" style="fill:#fff"/><path d="M242.79,432.06c-.09.2-1.09-.1-2.32,0s-2.18.49-2.29.3.8-1,2.25-1.06S242.9,431.89,242.79,432.06Z" style="fill:#fff"/><path d="M163.34,214.45s21.4,17.58,29.72,17.7c14.7.2,53.8-22.58,53.8-22.58l-7.52-11.45-42.63,11.8-30-20Z" style="fill:#ffbf9d"/><path d="M99.72,99.37a5.27,5.27,0,0,1,5-3.49,7.21,7.21,0,0,1,8.79-1.2,6.41,6.41,0,0,1,10.36,3.69,5.35,5.35,0,0,1,6,8.2,5.14,5.14,0,0,1-.6,10.22L101.6,105.16A5.26,5.26,0,0,1,99.72,99.37Z" style="fill:#263238"/><path d="M130.12,117.39a21.84,21.84,0,0,0-24.59-16.5l-1.12.18c-11.93,2.57-16.41,14.15-13.51,26l8,45.27-6.56,4,22.5,13L137,169.93l-9.71-2.1-1-8s11.3-3.6,9.65-15.2C135.17,139.08,132.58,127.68,130.12,117.39Z" style="fill:#ffbf9d"/><path d="M126.32,159.88a28.21,28.21,0,0,1-15.76-2.11s4.78,8.16,16.17,5.32Z" style="fill:#ff9a6c"/><path d="M128.67,128.76a1.67,1.67,0,0,1-1.34,1.91,1.59,1.59,0,0,1-1.93-1.22,1.67,1.67,0,0,1,1.33-1.92A1.61,1.61,0,0,1,128.67,128.76Z" style="fill:#263238"/><path d="M128.51,123.44c-.17.25-1.57-.49-3.35-.21s-2.94,1.38-3.17,1.19,0-.5.55-1A4.56,4.56,0,0,1,125,122.2a4.43,4.43,0,0,1,2.71.43C128.35,123,128.6,123.33,128.51,123.44Z" style="fill:#263238"/><path d="M112.19,131a1.66,1.66,0,0,1-1.33,1.91,1.59,1.59,0,0,1-1.94-1.22,1.67,1.67,0,0,1,1.33-1.92A1.6,1.6,0,0,1,112.19,131Z" style="fill:#263238"/><path d="M111.07,126.49c-.17.25-1.57-.48-3.34-.2s-3,1.37-3.17,1.18,0-.5.54-1a4.59,4.59,0,0,1,2.5-1.22,4.41,4.41,0,0,1,2.7.43C110.91,126,111.16,126.38,111.07,126.49Z" style="fill:#263238"/><path d="M119.58,138.68a12.1,12.1,0,0,1,2.81-1c.45-.12.86-.28.89-.6a2.35,2.35,0,0,0-.51-1.3c-.6-1-1.23-2.11-1.88-3.25-2.63-4.63-4.61-8.47-4.43-8.58s2.48,3.57,5.11,8.21c.64,1.14,1.25,2.23,1.83,3.28a2.7,2.7,0,0,1,.51,1.74,1.16,1.16,0,0,1-.64.78,3.05,3.05,0,0,1-.76.23A11.62,11.62,0,0,1,119.58,138.68Z" style="fill:#263238"/><path d="M110.39,123.57c-.18.49-1.77.2-3.67.39s-3.43.71-3.67.27c-.1-.22.18-.67.81-1.12a5.72,5.72,0,0,1,2.75-1,5.49,5.49,0,0,1,2.84.47C110.13,123,110.46,123.34,110.39,123.57Z" style="fill:#263238"/><path d="M128.15,119.59c-.3.47-1.84.33-3.6.64s-3.19.88-3.61.52c-.19-.18,0-.62.55-1.13a5.84,5.84,0,0,1,2.79-1.2,5.75,5.75,0,0,1,3,.27C128,119,128.28,119.36,128.15,119.59Z" style="fill:#263238"/><path d="M128.18,112.25s-4.18-6.78-7.94-7.92c-4.55-1.39-5.65,3.54-9.86,3s-8.56-1.83-12.19,1.93c-4,4.11-1.5,6.18-1,11.36,2.11,21-.78,27.48-3.38,17.84-.29-1.06-3.41-1.45-4.55-5.92-1.49-5.8-2.83-12.91-2.17-17.3.56-3.69,2.19-6.44,5.38-9.68,5-5.12,12.82-6.42,18.2-6.71S127.25,103.1,128.18,112.25Z" style="fill:#263238"/><path d="M94.51,138.06a3.17,3.17,0,0,0-3.86-2.5c-2.13.54-4.34,2.14-3.5,6.58,1.48,7.87,9.08,4.76,9,4.53S95.16,141.35,94.51,138.06Z" style="fill:#ffbf9d"/><path d="M93.93,144s-.12.12-.33.27a1.41,1.41,0,0,1-1,.22c-.89-.15-1.84-1.34-2.15-2.75a4.66,4.66,0,0,1,0-2,1.64,1.64,0,0,1,.83-1.25.71.71,0,0,1,.88.23c.15.2.13.36.17.37s.15-.16,0-.48a.86.86,0,0,0-.4-.43,1,1,0,0,0-.8-.06A2,2,0,0,0,90,139.6a4.75,4.75,0,0,0-.06,2.29c.35,1.57,1.44,2.91,2.64,3a1.52,1.52,0,0,0,1.22-.44C94,144.22,94,144,93.93,144Z" style="fill:#ff9a6c"/><path d="M92.28,122.7a7.66,7.66,0,0,0,3.6,1,2.62,2.62,0,0,0,2.58-2.27c0-.56-.23-1.18.07-1.66s1.18-.54,1.85-.57c2.34-.12,4.63-3.08,4.87-5.41a2.08,2.08,0,0,0,2.85.14,7.33,7.33,0,0,0,1.64-2,3.32,3.32,0,0,1,2.51-1.78,7.68,7.68,0,0,0,1.78.11c1-.25,1.34-1.55,1.34-2.6s-.07-2.28.73-3,1.83-.51,2.81-.52,2.18-.42,2.28-1.4a1.92,1.92,0,0,0-.58-1.38,5.18,5.18,0,0,0-6.35-1,7,7,0,0,0-13,.64,7.14,7.14,0,0,0-10.88,4.33,5.17,5.17,0,0,0-4.6,8.33A4.88,4.88,0,0,0,83.74,118c.22,1.64,2.07,3,3.59,2.35a2.86,2.86,0,0,0,5.33,2.06" style="fill:#263238"/><path d="M115.21,102.66s0,0,0,.15a4.1,4.1,0,0,1,0,.43,5.13,5.13,0,0,1-.34,1.61,5.75,5.75,0,0,1-1.46,2.15,5.37,5.37,0,0,1-3.1,1.42l.1-.19a2.9,2.9,0,0,1,.19,2.21,8.33,8.33,0,0,1-1.06,2.16,6.07,6.07,0,0,1-.74,1,2.71,2.71,0,0,1-1.18.66,2.9,2.9,0,0,1-2.69-.52l.28-.13a6,6,0,0,1-1.88,4.5,4.42,4.42,0,0,1-2.47,1.26,8.05,8.05,0,0,1-2.65-.16l.2-.13A6.23,6.23,0,0,1,97,121.85,3.34,3.34,0,0,1,94.32,123a4.4,4.4,0,0,1-3.89-2.89l.19.06A4.12,4.12,0,0,1,88,121a4.36,4.36,0,0,1-2-.55,3.76,3.76,0,0,1-1-.83,1.53,1.53,0,0,1-.26-.38A4.67,4.67,0,0,0,86,120.35a4.39,4.39,0,0,0,2,.48,4,4,0,0,0,2.5-.82l.13-.11.06.16a4.17,4.17,0,0,0,3.67,2.67,3,3,0,0,0,2.39-1.1,6,6,0,0,0,1.4-2.59l0-.16.16,0a7.68,7.68,0,0,0,2.53.16,4.09,4.09,0,0,0,2.28-1.17,5.71,5.71,0,0,0,1.78-4.24v-.38l.29.25a2.59,2.59,0,0,0,2.38.45,2.56,2.56,0,0,0,1.05-.57,6.13,6.13,0,0,0,.7-1,8.16,8.16,0,0,0,1-2.07,2.66,2.66,0,0,0-.13-2l-.1-.17.21,0a5.17,5.17,0,0,0,3-1.32,5.55,5.55,0,0,0,1.47-2A6,6,0,0,0,115.21,102.66Z" style="fill:#455a64"/><path d="M121.19,142.33l0,0h0Z" style="fill:#ff9a6c"/><path d="M119.62,143.9c0,.13-.31.45-1,.67a4.86,4.86,0,0,1-3-.11,4.93,4.93,0,0,1-2.37-1.76c-.43-.63-.51-1.11-.39-1.17s1.24,1.31,3.1,1.95S119.52,143.63,119.62,143.9Z" style="fill:#263238"/><path d="M89.41,280.59c-.63,1.27-40.71,62.71-43.23,68.1s-26.39,86.4-26.39,86.4S45.64,443,46.27,443s25.21-75.53,25.21-75.53,4.76-.48,4.06-7.35h0s41.59-44.6,52-46.51,57,34.29,61.12,43.18a142.1,142.1,0,0,0,6.62,13l23.62,64.45,25.83-7.62s-24.25-78.74-26.77-86.36-52.61-59.69-52.61-59.69Z" style="fill:#263238"/><path d="M163.13,296c0,.09-1.63.33-4.23,1a43.15,43.15,0,0,0-9.68,3.9,43.61,43.61,0,0,0-8.46,6.12c-2,1.82-3,3.1-3.11,3a4.73,4.73,0,0,1,.69-.95,30.47,30.47,0,0,1,2.17-2.36,38.87,38.87,0,0,1,18.3-10.11,29.14,29.14,0,0,1,3.15-.57A4.9,4.9,0,0,1,163.13,296Z" style="fill:#455a64"/><path d="M121.15,308.83c-.07.07-1.07-1-2.86-2.42a37.9,37.9,0,0,0-16.11-7.7c-2.25-.48-3.69-.61-3.68-.7a3.4,3.4,0,0,1,1,0,23.27,23.27,0,0,1,2.74.34,34.34,34.34,0,0,1,8.66,2.78,33.72,33.72,0,0,1,7.6,5,24.06,24.06,0,0,1,2,1.92A4.1,4.1,0,0,1,121.15,308.83Z" style="fill:#455a64"/><path d="M157.3,243l-2.14-70.48-27.83-4.65-28.59,3.81-17.32,4.92a24.67,24.67,0,0,0-11.56,7.2L48.29,207.7l17.57,16.89,15.24-8.1,8.21,44.37L85.58,287s22.62,11.59,44,12.3,34.73-20.06,34.73-20.06Z" style="fill:#455a64"/><path d="M180.08,195.62c-2.14.71-16,23.49-16,23.49l-10.68-10,1.78-36.67s1.78,1.43,7.83,7.12S180.08,195.62,180.08,195.62Z" style="fill:#455a64"/><path d="M155,180.47c.15,0,.6,8.86,1,19.79s.63,19.81.49,19.81-.6-8.85-1-19.79S154.9,180.48,155,180.47Z" style="fill:#263238"/><path d="M76.38,193.1a5.7,5.7,0,0,1,.36,1.24l.77,3.43c.63,2.9,1.46,6.91,2.35,11.35s1.67,8.47,2.21,11.39c.24,1.38.44,2.54.61,3.46a6.68,6.68,0,0,1,.15,1.29,5.91,5.91,0,0,1-.35-1.25c-.21-.91-.47-2.06-.78-3.43-.62-2.9-1.46-6.91-2.35-11.35s-1.66-8.47-2.2-11.38c-.24-1.39-.45-2.55-.61-3.47A7.35,7.35,0,0,1,76.38,193.1Z" style="fill:#263238"/><path d="M150.7,284.42a11,11,0,0,1-1.26,1.09,14.93,14.93,0,0,1-1.58,1.15,22.25,22.25,0,0,1-2.19,1.37l-1.32.73c-.46.25-1,.46-1.48.7a35.66,35.66,0,0,1-3.36,1.33,39.62,39.62,0,0,1-8.07,1.72,40.25,40.25,0,0,1-8.26-.12,33.58,33.58,0,0,1-3.55-.66c-.55-.14-1.09-.24-1.59-.39l-1.44-.46c-.92-.27-1.71-.64-2.42-.92a15.11,15.11,0,0,1-1.77-.83,9.78,9.78,0,0,1-1.44-.82c0-.11,2.11,1.08,5.75,2.22l1.43.42c.49.14,1,.23,1.57.36,1.09.28,2.27.41,3.51.6a38,38,0,0,0,16.13-1.58c1.18-.42,2.32-.79,3.33-1.27.51-.23,1-.42,1.48-.66l1.32-.69C148.83,285.89,150.62,284.32,150.7,284.42Z" style="fill:#263238"/><path d="M242.47,196.31c.35-.36,9.19-5.91,12-6.34a19.4,19.4,0,0,1,6.61.61l7.65,5.09s-.06,1.61-2.78,1.43a12.84,12.84,0,0,1-5.36-1.92l-3.13-.67,1.7,10.42-12.32,4.64-7.52-11.45Z" style="fill:#ffbf9d"/><g style="opacity:0.30000000000000004"><path d="M101.93,333.45s-.93-33.08,0-48.82,2.71-35.57,4.36-39.45a76,76,0,0,1,4.56-8.54l46.08-5.88-.39-10.69-59,13.16-2.24,16.82s-8,47.84-5.21,61.7S95.61,338,95.61,338Z"/></g><path d="M77.81,449.9h-.06L42,450l2.28-7.24,33.52.15h0c9.33,0,16.18-2.75,20.92-8.4,8.26-9.85,10-28.55,5.19-55.6-1.1-6.2-6.58-23.71-9.63-33.07a138.3,138.3,0,0,1-6.39-56.75L93.22,235l-1-3.67,3.14-1.08c5.56-1.91,52.31-12,128.13-28.26,30.07-6.46,61.16-13.13,91.12-19.63l1.48,6.84c-30,6.5-61.06,13.18-91.13,19.63-57.3,12.31-111.7,24-124.77,27.33l-5.26,53.61A131.19,131.19,0,0,0,101,343.65c.86,2.63,8.43,25.92,9.87,34,5.27,29.6,3.07,49.66-6.71,61.32C98,446.23,89.19,449.9,77.81,449.9Z" style="fill:#ff725e"/><path d="M250.79,210.81s4,.5,4.31-2.5c0,0,4.25,1,5.06-1.53,0,0,3.69-.67,3.34-3.61,0,0,2.93-.52,2.93-2.56,0-2.63-3-4.84-4.78-5a2.13,2.13,0,0,0-2.24,1.07s-2.69-2.59-4.33-2.24-1.89,2.69-1.89,2.69-2.1-2-3.11-1.42-1.18,2.78-1.18,2.78-1-1.35-2.24-1-2.63,1.77-1,4l3,4.27-7.32-.17,2.4,5.68Z" style="fill:#ffbf9d"/><path d="M263.53,203.6a14.28,14.28,0,0,1-.38-1.52,9,9,0,0,0-1.79-3.25c-1.88-2.27-4-3.5-3.92-3.65a4.17,4.17,0,0,1,1.43.74,13.2,13.2,0,0,1,2.9,2.58,7.91,7.91,0,0,1,1.74,3.49A3,3,0,0,1,263.53,203.6Z" style="fill:#ff9a6c"/><path d="M257.54,195.35a3.6,3.6,0,0,0-1.28-.32,3.75,3.75,0,0,0-1.51.28,2.84,2.84,0,0,0-1.49,1.25l-.06.13-.15,0a4.71,4.71,0,0,0-2.68-.25,2.12,2.12,0,0,0-1.11.9,1.42,1.42,0,0,0-.12,1.39l.32.58-.62-.24a4.75,4.75,0,0,0-2.32-.45,1.68,1.68,0,0,0-1,.5,1.56,1.56,0,0,0-.38,1.07,3.82,3.82,0,0,0,1.74,2.75,5.94,5.94,0,0,1,2.14,2.63l.13.4-.41-.1a19.85,19.85,0,0,0-6.78-.55c-1.67.15-2.62.4-2.64.34a2.44,2.44,0,0,1,.67-.24,14.5,14.5,0,0,1,1.93-.38,18.55,18.55,0,0,1,6.93.37l-.28.3a5.63,5.63,0,0,0-2-2.38,7.82,7.82,0,0,1-1.28-1.29,3.08,3.08,0,0,1-.65-1.85,2,2,0,0,1,.52-1.42,2.17,2.17,0,0,1,1.31-.66,5.09,5.09,0,0,1,2.57.5l-.3.35a1.86,1.86,0,0,1,.15-1.87,2.59,2.59,0,0,1,1.37-1.08,2.88,2.88,0,0,1,1.59,0c.48.11.91.25,1.32.35l-.21.1a3.08,3.08,0,0,1,1.72-1.36,3.61,3.61,0,0,1,1.62-.2,2.36,2.36,0,0,1,1,.3C257.46,195.25,257.55,195.34,257.54,195.35Z" style="fill:#ff9a6c"/><path d="M255.1,208.31a6.16,6.16,0,0,0-.15-1.73,11.12,11.12,0,0,0-2.09-3.66,52.6,52.6,0,0,0-4.26-4.34,13.72,13.72,0,0,1,4.67,4,9.81,9.81,0,0,1,2,3.9A2.25,2.25,0,0,1,255.1,208.31Z" style="fill:#ff9a6c"/><path d="M260.16,206.78c-.09,0,0-.74-.35-1.85a12,12,0,0,0-2.08-4,26.4,26.4,0,0,0-4.63-4.47,4.77,4.77,0,0,1,1.7.9,15,15,0,0,1,3.34,3.25,10.53,10.53,0,0,1,2,4.21A3.4,3.4,0,0,1,260.16,206.78Z" style="fill:#ff9a6c"/><path d="M266.32,201.52a6,6,0,0,0,0-1.56,5.13,5.13,0,0,0-2.11-3,4.32,4.32,0,0,0-3.39-1.14,4.37,4.37,0,0,0-1.4.63c-.06,0,.27-.69,1.32-1a3.4,3.4,0,0,1,1.84,0,5.81,5.81,0,0,1,1.95,1.05,5.06,5.06,0,0,1,2.16,3.32C266.79,201,266.36,201.56,266.32,201.52Z" style="fill:#ff9a6c"/><path d="M49.43,208.79s-12.88,14.62-15,18.73-5.88,13.82,4,16.92,51.78-4.55,51.78-4.55l1.07-14.36L59,225.89l4.63-3.49Z" style="fill:#ffbf9d"/><path d="M88.12,225.72l5.37-2.65s6.81-1.35,8.25-.85,8.42,2.42,8.42,2.42,3.17,4.76,2.82,6-.49,3.14-3.3,2.56c0,0,.65,3-2.25,3.85,0,0,.06,2.43-3.11,2.84,0,0-.66,2.19-2.49,2.25a21,21,0,0,1-5.19-1L89.27,240l-5.58.85Z" style="fill:#ffbf9d"/><path d="M103.31,227.91a2.53,2.53,0,0,1,1.38.06,6.8,6.8,0,0,1,3,1.52,6.67,6.67,0,0,1,1.9,2.75,2.5,2.5,0,0,1,.24,1.36,11.25,11.25,0,0,0-2.48-3.72A11.11,11.11,0,0,0,103.31,227.91Z" style="fill:#ff9a6c"/><path d="M101.93,233.61a6.16,6.16,0,0,1,5.54,3.42c-.13.09-1-1.12-2.56-2.06S101.9,233.77,101.93,233.61Z" style="fill:#ff9a6c"/><path d="M97.5,236.64a10.58,10.58,0,0,1,6.43,3.2c-.09.12-1.4-.83-3.17-1.7S97.46,236.79,97.5,236.64Z" style="fill:#ff9a6c"/><path d="M323.46,153.31H343a13.42,13.42,0,0,1,13.42,13.42v35.05A13.42,13.42,0,0,1,343,215.19H323.46a28.95,28.95,0,0,1-28.95-28.95v-4a28.95,28.95,0,0,1,28.95-28.95Z" transform="translate(-27.9 61.74) rotate(-10.39)" style="fill:#ff725e"/><g style="opacity:0.30000000000000004"><path d="M334.22,151.18s-5.37,10.93-.69,34.89C337,203.66,345.64,212,345.64,212l2.32-.43s-11.31-23.56-10.68-30-2-30.55-2-30.55Z"/></g><path d="M359.25,177.51c4,21.93,7.57,41.25-4.68,41.89-6.71.36-15.23-15.57-19.25-37.5S333.84,142.67,340,140C350.52,135.47,355.23,155.59,359.25,177.51Z" style="fill:#ff725e"/><path d="M360.92,177.21c4,21.92,2.76,40.52-2.81,41.54s-13.36-15.92-17.38-37.84-2.76-40.53,2.82-41.55S356.9,155.28,360.92,177.21Z" style="fill:#ff725e"/><g style="opacity:0.30000000000000004"><path d="M360.92,177.21c4,21.92,2.76,40.52-2.81,41.54s-13.36-15.92-17.38-37.84-2.76-40.53,2.82-41.55S356.9,155.28,360.92,177.21Z"/></g><path d="M379.41,165.13l-30.82,5.65a.18.18,0,0,1-.17-.06q-3.46-4.68-1.7-9.27a.16.16,0,0,1,.13-.11l30.83-5.66a4.81,4.81,0,0,1,5.59,3.86h0A4.8,4.8,0,0,1,379.41,165.13Z" style="fill:#e0e0e0"/><path d="M379.41,165.13s.31-.07.84-.3a4.74,4.74,0,0,0,2.88-5.24A4.65,4.65,0,0,0,379.8,156a5.8,5.8,0,0,0-3,.08l-3.33.63-7.35,1.37-16.84,3.11-2.23.41-.14,0s0,0,0,0,0,0,0,.05l0,.13a5.08,5.08,0,0,0-.17.51,9.56,9.56,0,0,0-.24,1.06,8.2,8.2,0,0,0,.44,4.17,10.73,10.73,0,0,0,.9,1.87c.18.29.36.59.56.86l.15.21c0,.08.12.17.06.11s0,0,.11,0l.26,0,4-.72,13.77-2.47,9.28-1.62,2.54-.41a5.19,5.19,0,0,1,.88-.11,6.35,6.35,0,0,1-.87.21l-2.51.51-9.26,1.78L353,170.21l-4,.74-.26.05-.12,0a.45.45,0,0,1-.47-.18l-.08-.11-.15-.22c-.21-.28-.39-.59-.59-.89a13.1,13.1,0,0,1-.94-2,8.67,8.67,0,0,1-.22-5.54c0-.19.12-.37.18-.55l.05-.13a.43.43,0,0,1,.1-.21.44.44,0,0,1,.27-.15l.14,0,2.23-.41L366,157.58l7.36-1.33,3.33-.59a6.24,6.24,0,0,1,3.18,0,5,5,0,0,1,3.52,3.93,4.93,4.93,0,0,1-1,3.9,4.7,4.7,0,0,1-2.1,1.49A2.93,2.93,0,0,1,379.41,165.13Z" style="fill:#263238"/><path d="M384.08,190.59l-30.93,5.67c-2.16-2.9-3.08-6-1.73-9.44l30.93-5.67a4.8,4.8,0,0,1,5.59,3.85h0A4.8,4.8,0,0,1,384.08,190.59Z" style="fill:#e0e0e0"/><path d="M384.08,190.59s.31-.07.85-.29a4.78,4.78,0,0,0,2-1.52,4.7,4.7,0,0,0,.9-3.73,4.65,4.65,0,0,0-3.34-3.62,5.81,5.81,0,0,0-3,.09l-3.33.62-7.35,1.37-16.85,3.12-2.46.45.19-.16a8.22,8.22,0,0,0-.4,4.91,11.76,11.76,0,0,0,2.09,4.29l-.24-.1,22.2-4,6.45-1.11,1.72-.27a3.93,3.93,0,0,1,.6-.07,2.14,2.14,0,0,1-.58.15l-1.71.36-6.42,1.25-22.17,4.16-.15,0-.1-.13a12.13,12.13,0,0,1-2.19-4.47,8.65,8.65,0,0,1,.42-5.21l.05-.14.15,0,2.46-.46L370.69,183l7.36-1.32,3.34-.6a6.2,6.2,0,0,1,3.17-.05,5,5,0,0,1,3.53,3.93,4.93,4.93,0,0,1-1,3.9,4.72,4.72,0,0,1-2.1,1.5A3.06,3.06,0,0,1,384.08,190.59Z" style="fill:#263238"/><path d="M340,140a7.23,7.23,0,0,0-2.5,2.3,22.43,22.43,0,0,0-3.08,8.77c-1.37,7.82-1,18.94,1.16,30.85s5.79,22.44,9.79,29.3c2,3.42,4.13,5.9,6,7.1a6.12,6.12,0,0,0,3.2,1.07,3,3,0,0,1-.9,0,5.94,5.94,0,0,1-2.41-.9c-1.94-1.17-4.15-3.66-6.2-7.08-4.11-6.87-7.78-17.43-10-29.39s-2.48-23.14-1-31a22,22,0,0,1,3.27-8.82,6.66,6.66,0,0,1,1.86-1.79A3.31,3.31,0,0,1,340,140Z" style="fill:#263238"/><path d="M343.55,139.36s-.3.1-.77.41a5.38,5.38,0,0,0-1.67,1.82c-1.13,1.85-2,5-2.34,8.84-.81,7.77-.07,18.65,2.07,30.38s5.44,22.13,9,29.09a24.47,24.47,0,0,0,5.28,7.49,5.62,5.62,0,0,0,2.15,1.22c.55.15.86.1.86.14a.6.6,0,0,1-.23,0,2.06,2.06,0,0,1-.65-.06,5.43,5.43,0,0,1-2.26-1.16c-1.75-1.37-3.66-4-5.47-7.48-3.66-7-7-17.39-9.17-29.17s-2.84-22.69-1.93-30.51c.44-3.9,1.33-7,2.54-8.91a5.2,5.2,0,0,1,1.78-1.8,2.13,2.13,0,0,1,.61-.26C343.47,139.37,343.54,139.35,343.55,139.36Z" style="fill:#263238"/><polygon points="282.21 188.28 284.47 197.07 296.77 195.28 296.81 184.74 282.21 188.28" style="fill:#ff725e"/><path d="M299.12,201.51a3.38,3.38,0,0,1-.57-.75,19.63,19.63,0,0,1-1.26-2.23,32.57,32.57,0,0,1-3.13-16.45,18,18,0,0,1,.36-2.53,2.83,2.83,0,0,1,.25-.91c.09,0-.15,1.33-.24,3.47a36.58,36.58,0,0,0,.63,8.3,37,37,0,0,0,2.47,8C298.49,200.33,299.2,201.46,299.12,201.51Z" style="fill:#263238"/><path d="M284.67,197.21a20.51,20.51,0,0,1-1.48-4.32,20,20,0,0,1-1-4.46,20.24,20.24,0,0,1,1.48,4.32A20,20,0,0,1,284.67,197.21Z" style="fill:#263238"/></g></g></svg>