<svg id="Capa_1" data-name="Capa 1" xmlns="http://www.w3.org/2000/svg" xmlns:xlink="http://www.w3.org/1999/xlink" viewBox="0 0 414 812"><defs><style>.cls-1{fill:none;}.cls-2{fill:#0e112e;}.cls-3{clip-path:url(#clip-path);}.cls-4{fill:#e0e0e0;}.cls-5{fill:#efefef;}.cls-6{fill:#fff;}.cls-7{fill:#e6e6e6;}.cls-8{fill:#1a2e35;}.cls-9{fill:#ff4f5b;}.cls-10{fill:#375a64;}.cls-11{font-size:4.78px;fill:#e8e8e3;font-family:Montserrat-Regular, Montserrat;}.cls-12{opacity:0.1;}.cls-13{clip-path:url(#clip-path-8);}.cls-14{opacity:0.2;}.cls-15{clip-path:url(#clip-path-9);}.cls-16{clip-path:url(#clip-path-10);}.cls-17{clip-path:url(#clip-path-11);}.cls-18{clip-path:url(#clip-path-12);}.cls-19{clip-path:url(#clip-path-13);}.cls-20{clip-path:url(#clip-path-14);}.cls-21{clip-path:url(#clip-path-15);}.cls-22{fill:#ffbe9c;}.cls-23{fill:#ff996c;}.cls-24{clip-path:url(#clip-path-18);}.cls-25{clip-path:url(#clip-path-19);}</style><clipPath id="clip-path"><rect class="cls-1" x="57" y="89" width="301" height="301"/></clipPath><clipPath id="clip-path-8"><rect class="cls-1" x="190.34" y="187.58" width="15.49" height="2.91"/></clipPath><clipPath id="clip-path-9"><rect class="cls-1" x="194.5" y="198.5" width="28.33" height="2.79"/></clipPath><clipPath id="clip-path-10"><rect class="cls-1" x="190.23" y="213.5" width="15.49" height="2.91"/></clipPath><clipPath id="clip-path-11"><rect class="cls-1" x="190.12" y="240.54" width="15.49" height="2.91"/></clipPath><clipPath id="clip-path-12"><rect class="cls-1" x="194.39" y="224.43" width="28.33" height="2.79"/></clipPath><clipPath id="clip-path-13"><rect class="cls-1" x="194.5" y="251.8" width="33.17" height="2.78"/></clipPath><clipPath id="clip-path-14"><rect class="cls-1" x="217.4" y="161.86" width="7.97" height="8.71"/></clipPath><clipPath id="clip-path-15"><rect class="cls-1" x="206.74" y="172.83" width="28.42" height="3.53"/></clipPath><clipPath id="clip-path-18"><rect class="cls-1" x="148.6" y="258.05" width="26.81" height="3.26"/></clipPath><clipPath id="clip-path-19"><rect class="cls-1" x="157.6" y="272.14" width="4.92" height="19.1"/></clipPath></defs><title>inicio</title><rect class="cls-2" width="414" height="812"/><g class="cls-3"><g class="cls-3"><path class="cls-4" d="M338.07,279.35H239.42V222.26h98.65Zm-98-.6h97.44V222.86H240Z"/><rect class="cls-5" x="252.62" y="252.7" width="65.1" height="1.91"/><rect class="cls-5" x="252.62" y="259.82" width="69.58" height="2.08"/><rect class="cls-5" x="252.62" y="267.02" width="69.58" height="2.08"/><rect class="cls-5" x="252.62" y="242.36" width="22.75" height="4.95"/><rect class="cls-4" x="239.72" y="222.56" width="98.04" height="9.09"/><g class="cls-3"><path class="cls-6" d="M330.22,230.29c-.12-.12,1.14-1.64,2.82-3.4s3.15-3.09,3.28-3-1.14,1.64-2.82,3.4-3.15,3.09-3.28,3"/><path class="cls-6" d="M336.32,230.29c-.13.12-1.59-1.21-3.28-3s-2.94-3.28-2.82-3.4,1.59,1.21,3.28,3,2.94,3.28,2.82,3.4"/><rect class="cls-7" x="118.62" y="109.5" width="98.04" height="56.49"/><rect class="cls-5" x="131.52" y="139.64" width="65.1" height="1.91"/><rect class="cls-5" x="131.52" y="146.76" width="69.58" height="2.08"/><rect class="cls-5" x="131.52" y="153.96" width="69.58" height="2.08"/><rect class="cls-5" x="131.52" y="129.31" width="22.75" height="4.95"/><rect class="cls-4" x="118.62" y="109.5" width="98.04" height="9.09"/><path class="cls-6" d="M208.79,117.19c-.13-.12,1.13-1.65,2.82-3.4s3.15-3.09,3.27-3-1.14,1.64-2.82,3.4-3.15,3.09-3.27,3"/><path class="cls-6" d="M214.88,117.19c-.12.12-1.59-1.21-3.27-3s-3-3.29-2.82-3.4,1.59,1.2,3.27,3,2.95,3.28,2.82,3.4"/><path class="cls-4" d="M179.53,214.45H80.89v-57.1h98.64Zm-98-.6h97.44V158H81.49Z"/><rect class="cls-5" x="94.09" y="187.8" width="65.1" height="1.91"/><rect class="cls-5" x="94.09" y="194.91" width="69.58" height="2.08"/><rect class="cls-5" x="94.09" y="202.11" width="69.58" height="2.08"/><rect class="cls-5" x="94.09" y="177.46" width="22.75" height="4.95"/><rect class="cls-4" x="81.19" y="157.65" width="98.04" height="9.09"/><rect class="cls-7" x="177.61" y="227.53" width="115.77" height="103.64"/><rect class="cls-5" x="92.75" y="194.89" width="90.68" height="94.22"/><rect class="cls-4" x="92.75" y="194.89" width="90.68" height="10.27"/><path class="cls-6" d="M100.24,199.91a1.91,1.91,0,1,1-1.91-2,2,2,0,0,1,1.91,2"/><path class="cls-6" d="M108,199.91a1.91,1.91,0,1,1-1.91-2,1.95,1.95,0,0,1,1.91,2"/><path class="cls-6" d="M115.68,199.91a1.91,1.91,0,1,1-1.9-2,1.95,1.95,0,0,1,1.9,2"/><rect class="cls-5" x="209.35" y="130.11" width="115.77" height="115.38"/><rect class="cls-4" x="209.35" y="130.11" width="115.77" height="13.51"/><path class="cls-6" d="M219.21,136.73a2.51,2.51,0,1,1-2.5-2.62,2.57,2.57,0,0,1,2.5,2.62"/><path class="cls-6" d="M228.65,135a2.51,2.51,0,1,1-3.63-.08,2.57,2.57,0,0,1,3.63.08"/><path class="cls-6" d="M239.55,136.73a2.51,2.51,0,1,1-2.51-2.62,2.57,2.57,0,0,1,2.51,2.62"/></g><g class="cls-3"><path class="cls-8" d="M300.11,361.78c0,.09-41.8.16-93.35.16s-93.37-.07-93.37-.16,41.8-.15,93.37-.15,93.35.07,93.35.15"/></g><g class="cls-3"><path class="cls-9" d="M259.38,288.09c-9.3-6.5-11.41-18.56-11-29.4.06-1.81-.14-3.72.72-5.3s2.87-2.68,4.49-1.91c1.34.63,1.93,2.19,2.68,3.48a10.58,10.58,0,0,0,4.25,4.06,4,4,0,0,0,3.71.33c1.56-.86,1.75-3,1.74-4.81,0-3.36-.05-6.71-.07-10.07a16.78,16.78,0,0,1,.55-5.34,5.58,5.58,0,0,1,3.5-3.78,3.4,3.4,0,0,1,4.2,2.27,16.76,16.76,0,0,1,.05,2.24,1.9,1.9,0,0,0,1.1,1.79,2.18,2.18,0,0,0,2-.83,24,24,0,0,0,4.3-6.49,32.92,32.92,0,0,1,4-6.69,9.77,9.77,0,0,1,6.6-3.7,5.82,5.82,0,0,1,6,4c.66,2.53-.82,5.11-2.43,7.16a40,40,0,0,1-8.37,8,3.34,3.34,0,0,0-1.4,1.51c-.39,1.2.75,2.39,1.93,2.79a21.7,21.7,0,0,0,4.2.47,4,4,0,0,1,3.46,2.11c.73,1.84-.8,3.77-2.32,5A34.33,34.33,0,0,1,283,260.84a11.51,11.51,0,0,0-3.79,1.84,3.31,3.31,0,0,0-1.06,3.81,3.38,3.38,0,0,0,3.68,1.42,24,24,0,0,0,3.95-1.51c2.48-.93,5.67-.76,7.25,1.38a5.64,5.64,0,0,1,.61,5,13.06,13.06,0,0,1-2.73,4.45,34.63,34.63,0,0,1-14.77,10.39c-5.74,2-11.06,2.52-16.76.44"/><path class="cls-8" d="M295.51,225.45l-.17.17-.54.48c-.47.41-1.16,1-2,1.84a67.81,67.81,0,0,0-6.87,7.42c-1.34,1.67-2.73,3.56-4.19,5.61s-3,4.27-4.52,6.65a81.26,81.26,0,0,0-4.44,7.69c-.7,1.38-1.32,2.82-1.95,4.29s-1.26,2.95-1.91,4.46a167.9,167.9,0,0,0-6.41,17.32,80.08,80.08,0,0,0-3,14.77,59.48,59.48,0,0,0-.17,10.16c.1,1.2.19,2.13.27,2.76,0,.3.06.54.09.71a1.17,1.17,0,0,1,0,.25s0-.08-.05-.24-.07-.41-.11-.71c-.11-.63-.22-1.56-.34-2.76a56,56,0,0,1,.07-10.19,78.51,78.51,0,0,1,2.94-14.84,160,160,0,0,1,6.4-17.36c.65-1.51,1.28-3,1.91-4.47s1.26-2.91,2-4.29a80.68,80.68,0,0,1,4.47-7.72c1.54-2.38,3.09-4.59,4.56-6.64s2.87-3.93,4.23-5.6a62.82,62.82,0,0,1,7-7.36c.89-.81,1.59-1.41,2.08-1.81l.56-.45c.12-.1.19-.15.19-.14"/><path class="cls-8" d="M272.54,255.15a3.8,3.8,0,0,1-.17-.76c-.1-.5-.21-1.23-.34-2.12-.25-1.79-.52-4.28-.8-7s-.59-5.22-.87-7c-.14-.89-.26-1.61-.35-2.11a4.24,4.24,0,0,1-.1-.78,3,3,0,0,1,.23.76c.13.49.28,1.2.45,2.09.34,1.78.68,4.26,1,7s.52,5.16.7,7c.09.84.17,1.56.23,2.13a3.27,3.27,0,0,1,.05.78"/><path class="cls-8" d="M295.68,250.83a5.5,5.5,0,0,1-.92.11c-.6.05-1.45.12-2.51.25-2.12.23-5,.64-8.24,1.25s-6.06,1.28-8.13,1.83c-1,.26-1.86.5-2.44.66a3.62,3.62,0,0,1-.9.22,5.12,5.12,0,0,1,.87-.34c.56-.2,1.38-.48,2.41-.77,2.05-.61,4.93-1.32,8.13-1.93a80.58,80.58,0,0,1,8.27-1.16c1.07-.09,1.93-.13,2.53-.14a5.17,5.17,0,0,1,.93,0"/><path class="cls-8" d="M262.46,280.87a2.18,2.18,0,0,1-.16-.29c-.1-.22-.23-.5-.39-.83-.34-.73-.81-1.8-1.36-3.12-1.12-2.65-2.55-6.36-4.07-10.48s-2.91-7.84-4-10.51c-.52-1.29-.94-2.36-1.26-3.16-.14-.34-.25-.62-.34-.86a1.36,1.36,0,0,1-.1-.31,1.33,1.33,0,0,1,.16.29l.4.83c.34.73.8,1.8,1.36,3.12,1.12,2.65,2.54,6.37,4.06,10.48s2.91,7.84,4,10.51L262,279.7l.33.86a1,1,0,0,1,.1.31"/><path class="cls-8" d="M293.21,271a1.44,1.44,0,0,1-.3.12l-.9.3-3.29,1.07c-2.78.9-6.61,2.19-10.83,3.62s-8.07,2.69-10.87,3.53c-1.4.42-2.53.75-3.32,1l-.91.24a1.27,1.27,0,0,1-.33.06,1.12,1.12,0,0,1,.31-.13l.89-.3,3.29-1.07c2.78-.9,6.61-2.19,10.84-3.62s8.06-2.68,10.86-3.53c1.4-.42,2.54-.75,3.33-1l.91-.24a1.31,1.31,0,0,1,.32-.06"/></g><g class="cls-3"><path class="cls-9" d="M280.67,124.93l-3.1,1.11L276.24,122a13.59,13.59,0,0,0-17.4-8.91c-7.14,2.56-11,10.71-8.52,18.19l1.33,4.05-3.11,1.11a5,5,0,0,0-2.9,6.19L254.27,169a4.65,4.65,0,0,0,5.93,3.08l32.13-11.5a5,5,0,0,0,2.93-6.24l-8.63-26.37a4.64,4.64,0,0,0-6-3m-24.49,4.23a8,8,0,0,1,4.67-10,7.45,7.45,0,0,1,9.53,4.89l1.32,4-14.2,5.08Zm18.06,23.39,2.21,6.73a.55.55,0,0,1-.35.68l-3.08,1.1a.5.5,0,0,1-.63-.33L270.18,154a6,6,0,0,1-5.43-4.21,6.33,6.33,0,0,1,3.73-7.94,5.92,5.92,0,0,1,7.59,3.89,6.43,6.43,0,0,1-1.83,6.81"/><path class="cls-8" d="M277.43,126c0,.08-5.75,2.25-12.91,4.83s-13,4.62-13,4.54,5.75-2.24,12.91-4.83,13-4.62,13-4.54"/><path class="cls-8" d="M284.25,127.07s0,.05.07.16.11.28.18.47c.15.44.37,1,.64,1.83l2.31,6.73c1,2.85,2.11,6.23,3.39,10,.63,1.89,1.31,3.84,2,5.91a8.71,8.71,0,0,1,.45,3.31,4.28,4.28,0,0,1-.48,1.66,4.63,4.63,0,0,1-1.14,1.35,10.8,10.8,0,0,1-3.06,1.56l-3.1,1.11-5.87,2.1-9.94,3.54L263,169.15l-1.83.63-.48.15-.16,0s.05,0,.15-.08l.47-.18,1.81-.68,6.68-2.46,9.92-3.6,5.86-2.12,3.1-1.12a10.35,10.35,0,0,0,3-1.51A4.32,4.32,0,0,0,292.5,157a4,4,0,0,0,.45-1.55,8.44,8.44,0,0,0-.43-3.19c-.65-2.05-1.34-4-2-5.91-1.25-3.76-2.37-7.16-3.32-10L285,129.57l-.58-1.85-.15-.48c0-.11,0-.17,0-.17"/><path class="cls-8" d="M267.3,118.77s-.32-.16-.91-.4a8,8,0,0,0-2.63-.53,8.94,8.94,0,0,0-3.87.74,8.59,8.59,0,0,0-3.68,3.07,8.1,8.1,0,0,0-1.42,4.57,14,14,0,0,0,.62,3.94c.31,1.1.64,2,.85,2.58a5.71,5.71,0,0,1,.31.95,5.48,5.48,0,0,1-.42-.91c-.25-.59-.61-1.45-1-2.56a14,14,0,0,1-.69-4,8.32,8.32,0,0,1,1.45-4.74,8.79,8.79,0,0,1,3.82-3.17,9.05,9.05,0,0,1,4-.69,7.53,7.53,0,0,1,2.66.64,4.78,4.78,0,0,1,.65.36q.23.13.21.15"/><path class="cls-8" d="M267.58,142.33a1.26,1.26,0,0,1,.3-.15,6.42,6.42,0,0,1,.93-.34,6.73,6.73,0,0,1,1.57-.26,5.17,5.17,0,0,1,2.11.32,6.53,6.53,0,0,1,3.65,4.19,6.16,6.16,0,0,1,0,3.46,7.83,7.83,0,0,1-2,3.25l0-.16,2.57,7.07.06.15-.15,0-1.38.46-3,1-.15.05-.05-.15c-.83-2.5-1.73-4.85-2.39-7.1l.13.1a6,6,0,0,1-3.22-1.27,7.33,7.33,0,0,1-2-2.42,5.55,5.55,0,0,1-.64-2.71,6.62,6.62,0,0,1,2.53-5,3.83,3.83,0,0,1,1-.58,8.72,8.72,0,0,0-1,.65,6.41,6.41,0,0,0-1.91,2.64,5.71,5.71,0,0,0,.18,4.86,7.19,7.19,0,0,0,2,2.32,5.8,5.8,0,0,0,3.08,1.19h.1l0,.1c.66,2.23,1.57,4.57,2.4,7.08l-.19-.1,3-1,1.38-.46-.1.2c-.9-2.49-1.77-4.88-2.56-7.08l0-.08.07-.08a7.52,7.52,0,0,0,1.9-3.11,5.79,5.79,0,0,0,0-3.3,6.35,6.35,0,0,0-3.48-4.1,5.19,5.19,0,0,0-2-.35,6.31,6.31,0,0,0-1.54.22c-.83.21-1.25.41-1.26.39"/></g><g class="cls-3"><path class="cls-10" d="M249,316.14l-60.13-.27a13.1,13.1,0,0,1-13-13.16L176.44,152a13.11,13.11,0,0,1,13.16-13l60.13.28a13.1,13.1,0,0,1,13,13.15l-.64,150.74a13.09,13.09,0,0,1-13.16,13"/><path class="cls-6" d="M249.64,144.41l-11.65,0a2.89,2.89,0,0,0-2.85,2.94v2.12a2.89,2.89,0,0,1-2.84,2.94l-22.72-.1a2.9,2.9,0,0,1-2.82-3v-2.11a2.9,2.9,0,0,0-2.82-3l-4.1,0-10.2-.05a9.18,9.18,0,0,0-9.22,9.14L179.8,300.4a9.16,9.16,0,0,0,9.13,9.21l60,.28a9.17,9.17,0,0,0,9.21-9.13l.63-147.14a9.18,9.18,0,0,0-9.14-9.21"/><path class="cls-9" d="M241.57,290.26l-44.62-.2a1,1,0,0,1-.84-1.13l0-11.67c0-.62.38-1.12.85-1.12l44.62.21c.46,0,.83.51.83,1.12l-.05,11.68c0,.62-.38,1.12-.84,1.11"/><text class="cls-11" transform="matrix(1, 0, 0, 1.05, 209.06, 284.62)">SING UP</text><rect class="cls-9" x="196.67" y="181.29" width="2.84" height="15.48" transform="translate(8.14 386.25) rotate(-89.73)"/><g class="cls-12"><g class="cls-13"><rect x="196.67" y="181.29" width="2.84" height="15.48" transform="translate(8.14 386.25) rotate(-89.73)"/></g></g><path class="cls-4" d="M251.24,205.08a1.14,1.14,0,0,0,.35-.08.94.94,0,0,0,.58-.81V200c0-.9,0-1.9,0-3,0-.27,0-.55,0-.84a1.25,1.25,0,0,0-.17-.79.89.89,0,0,0-.72-.36h-9.63l-50.35-.19a.84.84,0,0,0-.67.34,1.1,1.1,0,0,0-.15.78c0,.61,0,1.22,0,1.83,0,1.21,0,2.42,0,3.62,0,.6,0,1.19,0,1.79a5.58,5.58,0,0,0,0,.84.83.83,0,0,0,.47.55,1.1,1.1,0,0,0,.37.06h3.07l13.37.08,22.63.13,15.26.12,4.15,0,1.08,0,.37,0h-.37l-1.08,0h-4.15l-15.26,0L207.74,205,194.37,205h-3.06a1.21,1.21,0,0,1-.49-.09,1.09,1.09,0,0,1-.65-.75,1.64,1.64,0,0,1,0-.48v-2.23c0-1.2,0-2.41,0-3.62,0-.61,0-1.22,0-1.83a4.19,4.19,0,0,1,0-.48,1,1,0,0,1,.2-.49,1.1,1.1,0,0,1,.92-.46l50.35.28,8.69.06h.95a1,1,0,0,1,.84.44,1.34,1.34,0,0,1,.19.88c0,.29,0,.57,0,.84,0,1.1,0,2.1,0,3,0,1.79,0,3.19,0,4.15a1,1,0,0,1-.64.84.71.71,0,0,1-.36.05"/><rect class="cls-9" x="207.34" y="185.74" width="2.66" height="28.32" transform="translate(7.81 407.64) rotate(-89.74)"/><g class="cls-14"><g class="cls-15"><rect class="cls-6" x="207.34" y="185.74" width="2.66" height="28.32" transform="translate(7.81 407.64) rotate(-89.74)"/></g></g><rect class="cls-9" x="196.56" y="207.22" width="2.84" height="15.48" transform="translate(-17.89 411.94) rotate(-89.73)"/><g class="cls-12"><g class="cls-16"><rect x="196.56" y="207.22" width="2.84" height="15.48" transform="translate(-17.89 411.94) rotate(-89.73)"/></g></g><path class="cls-4" d="M250.84,231a3,3,0,0,0,.36-.06,1.28,1.28,0,0,0,.76-.69,1.64,1.64,0,0,0,.1-.76v-7.17a1.36,1.36,0,0,0-.18-.79,1.18,1.18,0,0,0-.65-.51,3.85,3.85,0,0,0-.91-.05l-8.67,0-50.18-.18a1.11,1.11,0,0,0-1.1,1c0,.57,0,1.2,0,1.8,0,1.21,0,2.41,0,3.6,0,.6,0,1.19,0,1.78a3.85,3.85,0,0,0,0,.85,1.12,1.12,0,0,0,1.19.8h2.62l13.32.07,22.56.14,15.2.12,4.14.05,1.07,0h.37l-.37,0h-5.21l-15.2,0L207.5,231l-13.33,0h-2.61a1.45,1.45,0,0,1-.92-.24,1.42,1.42,0,0,1-.57-.79,4.27,4.27,0,0,1,0-.93c0-.59,0-1.18,0-1.78,0-1.19,0-2.39,0-3.6,0-.62,0-1.2,0-1.84a1.43,1.43,0,0,1,1.41-1.25l50.18.28,8.67.06a4,4,0,0,1,1,.07,1.34,1.34,0,0,1,.74.58,1.49,1.49,0,0,1,.19.88c0,.29,0,.57,0,.84,0,1.09,0,2.09,0,3s0,1.69,0,2.38c0,.35,0,.67,0,1a1.67,1.67,0,0,1-.12.79,1.3,1.3,0,0,1-.81.69.87.87,0,0,1-.37,0"/><rect class="cls-9" x="196.44" y="234.25" width="2.84" height="15.48" transform="translate(-45.04 438.75) rotate(-89.74)"/><g class="cls-12"><g class="cls-17"><rect x="196.44" y="234.25" width="2.84" height="15.48" transform="translate(-45.04 438.75) rotate(-89.74)"/></g></g><path class="cls-4" d="M250.73,258a2.33,2.33,0,0,0,.35-.07,1.23,1.23,0,0,0,.76-.68,1.53,1.53,0,0,0,.11-.76v-1c0-.69,0-1.49,0-2.38v-3.83a1.33,1.33,0,0,0-.17-.79,1.16,1.16,0,0,0-.66-.51,3.36,3.36,0,0,0-.91-.05l-8.66,0-50.18-.19a1.1,1.1,0,0,0-1.1,1c0,.58,0,1.21,0,1.81,0,1.2,0,2.41,0,3.6,0,.6,0,1.19,0,1.78a3.72,3.72,0,0,0,0,.84,1.15,1.15,0,0,0,.44.62,1.19,1.19,0,0,0,.75.19h2.61l13.32.07,22.56.13,15.21.12,4.13.05,1.08,0,.37,0-.37,0h-5.21l-15.21,0L207.38,258l-13.32-.06h-2.62a1.4,1.4,0,0,1-1.48-1,3.65,3.65,0,0,1-.05-.92v-1.78c0-1.19,0-2.4,0-3.61,0-.61,0-1.19,0-1.83a1.42,1.42,0,0,1,1.41-1.25l50.18.28,8.66.06a3.89,3.89,0,0,1,1,.07,1.34,1.34,0,0,1,.74.58,1.48,1.48,0,0,1,.2.88c0,.29,0,.57,0,.84,0,1.09,0,2.09,0,3s0,1.69,0,2.38c0,.35,0,.67,0,1a1.67,1.67,0,0,1-.13.79,1.25,1.25,0,0,1-.81.68,1,1,0,0,1-.36,0"/><rect class="cls-9" x="207.23" y="211.66" width="2.66" height="28.32" transform="translate(-18.23 433.33) rotate(-89.74)"/><g class="cls-14"><g class="cls-18"><rect class="cls-6" x="207.23" y="211.66" width="2.66" height="28.32" transform="translate(-18.23 433.33) rotate(-89.74)"/></g></g><path class="cls-9" d="M197,253.13a1.24,1.24,0,1,1-1.23-1.33,1.28,1.28,0,0,1,1.23,1.33"/><path class="cls-9" d="M200.81,253.14a1.24,1.24,0,1,1-1.23-1.32,1.29,1.29,0,0,1,1.23,1.32"/><path class="cls-9" d="M204.64,253.16a1.24,1.24,0,1,1-2.47,0,1.24,1.24,0,1,1,2.47,0"/><path class="cls-9" d="M208.48,253.18a1.24,1.24,0,1,1-2.48,0,1.24,1.24,0,1,1,2.48,0"/><path class="cls-9" d="M212.32,253.2a1.24,1.24,0,1,1-1.23-1.33,1.29,1.29,0,0,1,1.23,1.33"/><path class="cls-9" d="M216.15,253.22a1.24,1.24,0,1,1-1.23-1.33,1.28,1.28,0,0,1,1.23,1.33"/><path class="cls-9" d="M220,253.23a1.24,1.24,0,1,1-1.23-1.32,1.28,1.28,0,0,1,1.23,1.32"/><path class="cls-9" d="M223.83,253.25a1.24,1.24,0,1,1-1.24-1.33,1.29,1.29,0,0,1,1.24,1.33"/><path class="cls-9" d="M227.66,253.27a1.24,1.24,0,1,1-2.47,0,1.24,1.24,0,1,1,2.47,0"/><g class="cls-14"><g class="cls-19"><path class="cls-6" d="M197,253.13a1.24,1.24,0,1,1-1.23-1.33,1.28,1.28,0,0,1,1.23,1.33"/><path class="cls-6" d="M200.81,253.14a1.24,1.24,0,1,1-1.23-1.32,1.29,1.29,0,0,1,1.23,1.32"/><path class="cls-6" d="M204.64,253.16a1.24,1.24,0,1,1-2.47,0,1.24,1.24,0,1,1,2.47,0"/><path class="cls-6" d="M208.48,253.18a1.24,1.24,0,1,1-2.48,0,1.24,1.24,0,1,1,2.48,0"/><path class="cls-6" d="M212.32,253.2a1.24,1.24,0,1,1-1.23-1.33,1.29,1.29,0,0,1,1.23,1.33"/><path class="cls-6" d="M216.15,253.22a1.24,1.24,0,1,1-1.23-1.33,1.28,1.28,0,0,1,1.23,1.33"/><path class="cls-6" d="M220,253.23a1.24,1.24,0,1,1-1.23-1.32,1.28,1.28,0,0,1,1.23,1.32"/><path class="cls-6" d="M223.83,253.25a1.24,1.24,0,1,1-1.24-1.33,1.29,1.29,0,0,1,1.24,1.33"/><path class="cls-6" d="M227.66,253.27a1.24,1.24,0,1,1-2.47,0,1.24,1.24,0,1,1,2.47,0"/></g></g><path class="cls-9" d="M222.21,166.36a2.35,2.35,0,0,0,1.4-2.16,2.19,2.19,0,1,0-4.38,0,2.32,2.32,0,0,0,1.39,2.18c-3.37.51-3.21,4.17-3.21,4.17l8,0s.18-3.71-3.16-4.21"/><g class="cls-12"><g class="cls-20"><path d="M222.21,166.36a2.35,2.35,0,0,0,1.4-2.16,2.19,2.19,0,1,0-4.38,0,2.32,2.32,0,0,0,1.39,2.18c-3.37.51-3.21,4.17-3.21,4.17l8,0s.18-3.71-3.16-4.21"/></g></g><rect class="cls-9" x="219.25" y="160.39" width="3.4" height="28.41" transform="translate(45.33 394.74) rotate(-89.74)"/><g class="cls-14"><g class="cls-21"><rect class="cls-6" x="219.25" y="160.39" width="3.4" height="28.41" transform="translate(45.33 394.74) rotate(-89.74)"/></g></g></g><g class="cls-3"><path class="cls-9" d="M130.72,190.54a1,1,0,0,1-.28,0l-.82.06a10.18,10.18,0,0,0-1.32.18,7.5,7.5,0,0,0-.83.16l-.93.26a15.31,15.31,0,0,0-4.44,2.2,15.68,15.68,0,0,0-4.37,4.86,16,16,0,0,0-2.2,7.58,17.73,17.73,0,0,0,0,2.18c0,.37.1.74.15,1.11a7,7,0,0,0,.21,1.11,15.86,15.86,0,0,0,9,11,14.55,14.55,0,0,0,5.17,1.16,14.06,14.06,0,0,0,5.39-.78l.53-.19.07,0,.07,0,7.59,3.86-.23.19c-.81-2.52-1.59-5-2.35-7.3l0-.09.07-.06a16.33,16.33,0,0,0,4-6.63,16.67,16.67,0,0,0,.57-7.06,15.39,15.39,0,0,0-12.3-13.54l-1.18-.2-.87-.06-.53,0a.52.52,0,0,1-.19,0h.72l.88,0,1.19.18a15.48,15.48,0,0,1,3.19.95,16.86,16.86,0,0,1,3.8,2.37,16.43,16.43,0,0,1,3.5,4.23,16.65,16.65,0,0,1,2.06,6.06,16.87,16.87,0,0,1-.57,7.17,16.42,16.42,0,0,1-4,6.77l0-.16c.75,2.34,1.54,4.78,2.36,7.29l.12.37-.35-.18L136,221.79h.13l-.54.2a15.19,15.19,0,0,1-10.8-.4,16.14,16.14,0,0,1-9.17-11.26,7.6,7.6,0,0,1-.21-1.14c0-.38-.13-.75-.15-1.12a16.54,16.54,0,0,1,0-2.22,16.75,16.75,0,0,1,.7-4.14,16.52,16.52,0,0,1,1.57-3.54,15.84,15.84,0,0,1,4.46-4.9,15.17,15.17,0,0,1,4.51-2.17l.94-.25a7.5,7.5,0,0,1,.85-.14,7.28,7.28,0,0,1,1.33-.15l.82,0h.28"/><path class="cls-9" d="M134.16,204.6H133l-2.42-3.38V199s-1.72-.1-1.52,2.81,0,2.16,0,2.16-3.65,0-4,.34-.32,3.85-.36,5.82a2.14,2.14,0,0,0,1.51,2.15,1.74,1.74,0,0,0,.39,0c.91,0,5.57-.74,5.57-.74h1.92Z"/><polygon class="cls-9" points="137.34 203.99 136.66 211.6 134.75 211.6 134.75 204.14 137.34 203.99"/></g><g class="cls-3"><path class="cls-9" d="M160,358.9v-5.15l-9.23-.06-.07,7.78.57,0c2.54.17,12.95.41,14.66-.12,1.9-.59-5.93-2.49-5.93-2.49"/><path class="cls-8" d="M166.18,360.9c0,.09-3.45.16-7.71.16s-7.71-.07-7.71-.16,3.45-.15,7.71-.15,7.71.07,7.71.15"/><path class="cls-8" d="M160.19,360c-.07,0,0-.31.19-.58s.44-.41.5-.35-.06.29-.25.54-.36.43-.44.39"/><path class="cls-8" d="M160.78,360.29c-.08,0,0-.33.15-.65s.42-.52.48-.47,0,.32-.21.62-.33.53-.42.5"/><path class="cls-8" d="M153.54,360.88s-.18-.11-.37-.34a7.69,7.69,0,0,0-.81-.81,2.16,2.16,0,0,0-1-.43c-.28,0-.47,0-.48,0s.15-.16.48-.18a1.79,1.79,0,0,1,1.19.41,3.13,3.13,0,0,1,.79.92c.16.27.23.45.2.47"/><path class="cls-8" d="M160.22,359c.05.08-.11.26-.37.35s-.5.07-.52,0,.18-.19.41-.27.44-.13.48-.06"/><path class="cls-8" d="M160.08,358.49c0,.08-.24.16-.55.16s-.56-.06-.56-.15.26-.16.55-.16.55.06.56.15"/><path class="cls-9" d="M182.76,358.9v-5.15l-9.23-.06-.08,7.7.58,0c2.54.17,12.95.49,14.66,0,1.9-.59-5.93-2.49-5.93-2.49"/><path class="cls-8" d="M188.9,360.92c0,.08-3.45.15-7.71.15s-7.71-.07-7.71-.15,3.46-.16,7.71-.16,7.71.07,7.71.16"/><path class="cls-8" d="M182.92,360c-.07,0,0-.31.19-.58s.44-.41.5-.35-.07.29-.25.54-.36.43-.44.39"/><path class="cls-8" d="M183.51,360.29c-.08,0,0-.33.14-.65s.42-.52.49-.47,0,.32-.21.62-.34.53-.42.5"/><path class="cls-8" d="M176.26,360.88s-.17-.11-.37-.34a6.15,6.15,0,0,0-.81-.81,2.12,2.12,0,0,0-1-.43c-.28,0-.46,0-.48,0s.16-.16.49-.18a1.77,1.77,0,0,1,1.18.41,3.35,3.35,0,0,1,.8.92c.16.27.23.45.19.47"/><path class="cls-8" d="M183,359c0,.08-.11.26-.38.35s-.5.07-.51,0,.17-.19.4-.27.44-.13.49-.06"/><path class="cls-8" d="M182.8,358.49c0,.08-.23.16-.54.16s-.56-.06-.56-.15.25-.16.55-.16.55.06.55.15"/><path class="cls-22" d="M216.76,206.06c-.24-.25-.84-.14-.84-.14a3.1,3.1,0,0,0,0-1c-.11-.34-.87-.27-.87-.27a3.38,3.38,0,0,1,0-.86.3.3,0,0,0-.18-.3,2.76,2.76,0,0,0-1.13-.21c-.47-.33,1.41-3,2.11-3.8s.58-1.5-.05-1.5c-.42,0-2.62,2.53-3.29,3.38s-2.46,3.21-2.52,1.32-.82-3.31-1.29-3.55a.59.59,0,0,0-.73.85,6.71,6.71,0,0,1,.43,1.85,4.62,4.62,0,0,1-.07,1.53,17.83,17.83,0,0,1-.81,2.71l0,0s-13.14,12.6-14.09,13.5-17.92-1-21.34-1.32a22.13,22.13,0,0,0-3.52-.24c-1.49.06-1.75.27-3.24.29a73.87,73.87,0,0,0-11.15,1,9.24,9.24,0,0,0-7.26,6.3c-3.46,10.78-11.27,36.28-12.66,50.61a61.16,61.16,0,0,0-2.82,5.83c-1,2.63-.73,2.72-.4,2.78.87.16,1.87-4.57,2.25-3.43s-1.9,5.65-1,5.78c1.2.17,2.16-4.8,2.27-5.22s.72-.26.6.11c-.18.53-1.87,6.14-.69,6.32.65.1.72-1.09.72-1.09s1.2-5.37,1.75-5.27,0,3.29-.31,4.34.11,1.6.67,1.34c.39-.18,1.31-3.4,1.56-4.45s.89-3.95,1.74-2.27,2.13,2.66,2.66,2.68a.59.59,0,0,0,.3-1.07,6.73,6.73,0,0,1-1.16-1.51,4.47,4.47,0,0,1-.58-1.41,14.87,14.87,0,0,1-.42-3l-.1-.62c1.35-6.68,5.23-26.27,10.82-38.79l2.29,4.73,1,3.5-6.12,15.14,26.13-.35-3.9-15,4.74-15.66h0c5.12.12,18.28.31,20.49-.68,2.76-1.23,17-19.22,17-19.22h0a31.13,31.13,0,0,0,2.67-2.31s.85-.69.33-1.22"/><path class="cls-9" d="M148.14,249.36c.75-2.58,4.65-15.38,4.65-15.38s1.91,10.43,1.41,11.69a22.1,22.1,0,0,1-1.64,3.1c-4.42,6.73-3.84,10.1-3.84,10.1l26.69-.82c.07-3.73-2.14-12.41-2.61-13.79s1.07-5.92,1.07-5.92,3-3.07,2.9-4.64a25.42,25.42,0,0,0-.52-4.21l16.24.6-.51-11-23.35-2.33c-.81,2.29-8.16,1.17-8.16,1.17-7.93.26-8.42,1.72-11.72,4.28S140,246.76,140,246.76Z"/><path class="cls-8" d="M163.92,246.76a5.53,5.53,0,0,1-1.4.07c-.87,0-2.07-.06-3.39-.19s-2.51-.32-3.36-.49a5.14,5.14,0,0,1-1.37-.35,7.32,7.32,0,0,1,1.4.13c.86.12,2,.27,3.36.4s2.5.22,3.37.28a7.12,7.12,0,0,1,1.39.15"/><path class="cls-8" d="M165.75,244.49a6.12,6.12,0,0,1-1.46.5,25.57,25.57,0,0,1-3.64.69,26.09,26.09,0,0,1-3.72.18,6.44,6.44,0,0,1-1.53-.14,9,9,0,0,1,1.53-.08c.95,0,2.25-.1,3.68-.27s2.71-.41,3.63-.6a10.6,10.6,0,0,1,1.51-.28"/><path class="cls-8" d="M174.73,234.36a6.27,6.27,0,0,1-.18,1.37c-.16.83-.4,2-.71,3.23s-.62,2.38-.87,3.19a4.9,4.9,0,0,1-.47,1.29,7,7,0,0,1,.26-1.35l.78-3.21c.29-1.19.56-2.26.79-3.2a6.73,6.73,0,0,1,.4-1.32"/><path class="cls-8" d="M148.42,247.83a26.2,26.2,0,0,1-4.11-1,28.24,28.24,0,0,1-4-1.26,29.93,29.93,0,0,1,4.11,1,28.78,28.78,0,0,1,4,1.26"/><path class="cls-8" d="M176.54,229.35a2.06,2.06,0,0,1-.69,0,7.13,7.13,0,0,1-1.83-.44,7.73,7.73,0,0,1-2.4-1.46,7.32,7.32,0,0,1-2-2.82,7.78,7.78,0,0,1-.54-3.39,5.29,5.29,0,0,1,.83-2.69,2.77,2.77,0,0,1,1.52-1.12,1.89,1.89,0,0,1,.51-.07l.18,0a6,6,0,0,0-.66.16,2.78,2.78,0,0,0-1.37,1.13,6.88,6.88,0,0,0-.18,5.84,7.6,7.6,0,0,0,1.86,2.72,8.07,8.07,0,0,0,2.29,1.47,10.9,10.9,0,0,0,2.44.64"/><path class="cls-8" d="M190.57,229.87a50.89,50.89,0,0,1-.14-5.55,46.23,46.23,0,0,1,.17-5.54,50.89,50.89,0,0,1,.14,5.55,46.23,46.23,0,0,1-.17,5.54"/><path class="cls-22" d="M168.49,217.41c.06-1.35.21-2.86.21-2.86a4,4,0,0,0,3.52-3.8c.2-3.43,0-11.35,0-11.35l-6.05-3.08-6.66,5.25,1,17.16,6.13.39a1.77,1.77,0,0,0,1.84-1.71"/><path class="cls-23" d="M169.09,208s0,.07-.05.15a.51.51,0,0,1-.39.17c-.38,0-.75-.45-.89-1a1.64,1.64,0,0,1,0-.76.66.66,0,0,1,.36-.52.33.33,0,0,1,.26,0,.32.32,0,0,1,.14.14c0,.1,0,.16,0,.16s0-.06-.06-.12a.23.23,0,0,0-.29-.07.58.58,0,0,0-.25.43,1.75,1.75,0,0,0,0,.68c.12.47.44.85.73.89a.46.46,0,0,0,.33-.09l.1-.1"/><path class="cls-8" d="M174.28,197.55c-.46-1.58-2.14-2.37-3.67-2.8a11.56,11.56,0,0,0-7.12-.11c-2.28.83-5,2.31-5,4.82-1.35-.11-2.11,1.07-2.65,2.52a9.82,9.82,0,0,0-.57,2.77h0c-.17,3.29-1.09,7.82-3.22,10.26-1.18,1.34-2.87,2.27-3.56,3.94-.59,1.45-.29,3.17-.85,4.64-.5,1.3-1.6,2.22-2.39,3.34a9,9,0,0,0-.57,8.67,11,11,0,0,0,6.55,5.66,15.3,15.3,0,0,0,8.64.08,14.53,14.53,0,0,0,5.79-2.87,9.66,9.66,0,0,0,3.33-5.61c.42-2.46-.27-5-.77-7.4-1.61-7.73-1.15-8.13.87-15.3a2.38,2.38,0,0,0,.11-.38l.08-.29h0a4.92,4.92,0,0,0,.09-.86,1.65,1.65,0,0,1-1.74-.37,1.81,1.81,0,0,1-.41-1.8,2.59,2.59,0,0,1,1.55-1.47c.67-.28,1.39-.42,2-.73a6.77,6.77,0,0,0,3-3.47,4.76,4.76,0,0,0,.49-3.23"/><path class="cls-9" d="M169.33,208.18a2.91,2.91,0,0,1,.31.59c.18.38.42.92.69,1.54l0,.11h-.13l-.61.06c-.42,0-.77.07-1.18.07a.22.22,0,0,1-.16-.14.29.29,0,0,1,0-.16,1.58,1.58,0,0,1,0-.25l.11-.42a4.75,4.75,0,0,1,.25-.84,3.45,3.45,0,0,1-.12.86l-.09.44c0,.14-.08.36,0,.34.3,0,.73-.06,1.12-.09l.61-.05-.07.13c-.26-.62-.48-1.17-.63-1.56a2,2,0,0,1-.2-.64"/><path class="cls-8" d="M148.72,258.87l26.69-.82L187,303.41l-2.14,52H170.75l1.75-50.92-10.32-31.57,1.59,84.51-14.26.21L148,278.23c-.06-2.21-.79-7.19-.52-9.38Z"/><path class="cls-10" d="M165.73,273.58a5.21,5.21,0,0,1-1.31-.07c-.8-.1-1.9-.27-3.11-.51s-2.3-.52-3.08-.74a5.14,5.14,0,0,1-1.23-.43c0-.09,2,.38,4.37.86s4.38.8,4.36.89"/><path class="cls-10" d="M184.75,352.58c0,.08-3.2.15-7.14.15s-7.14-.07-7.14-.15,3.19-.16,7.14-.16,7.14.07,7.14.16"/><path class="cls-10" d="M163.64,355.25c0,.09-3.1.16-6.93.16s-6.93-.07-6.93-.16,3.1-.15,6.93-.15,6.93.07,6.93.15"/><path class="cls-10" d="M161.8,355c-.08,0-.46-18.47-.83-41.24s-.61-41.25-.53-41.25.46,18.46.84,41.24.61,41.24.52,41.25"/><path class="cls-10" d="M182.86,352.58a1,1,0,0,1,0-.25c0-.18,0-.41,0-.72,0-.65,0-1.58.08-2.77.09-2.42.21-5.9.36-10.19.33-8.62.78-20.5,1.28-33.63,0-.12,0-.24,0-.35v.05l-8.09-32.42c-1-4.14-1.85-7.49-2.42-9.82-.28-1.15-.49-2.05-.64-2.68-.07-.29-.12-.52-.16-.69a1.12,1.12,0,0,1,0-.24,1.71,1.71,0,0,1,.07.23c.05.17.11.4.19.69.16.62.4,1.51.7,2.66.59,2.32,1.45,5.67,2.51,9.79,2.1,8.3,5,19.74,8.18,32.4v0c0,.11,0,.24,0,.36-.54,13.12-1,25-1.38,33.62-.19,4.28-.35,7.76-.46,10.18-.05,1.19-.1,2.12-.13,2.77,0,.31,0,.55-.05.72s0,.25,0,.25"/><path class="cls-10" d="M178.25,303.61a15.71,15.71,0,0,1-3.12.7c-1.3.22-2.42.37-2.91.4v-.12c.16,0,.25.08.25.1s-.1,0-.27,0h-.36l.36-.11c.47-.14,1.58-.37,2.88-.59a17,17,0,0,1,3.17-.39"/><path class="cls-10" d="M178,305.34a15.81,15.81,0,0,1-2.81-.13,17.74,17.74,0,0,1-2.8-.3,10.36,10.36,0,0,1,2.83,0,10.78,10.78,0,0,1,2.78.44"/><g class="cls-14"><g class="cls-24"><path d="M148.6,259.82a3.66,3.66,0,0,0,2.63,1.41,12.13,12.13,0,0,0,3.24-.06c6.89-.77,14.19-1.47,20.94-3.12-8.73.49-18,.33-26.69.82,0,0-.08.6-.09.74"/></g></g><g class="cls-14"><g class="cls-25"><polygon points="157.6 272.14 162.52 291.24 162.18 272.94 157.6 272.14"/></g></g></g></g></g></svg>